<?xml version="1.0" encoding="UTF-8" standalone="no"?>
<svg
   width="500"
   height="500"
   version="1.1"
   id="svg21"
   sodipodi:docname="all_shapes.svg"
   inkscape:version="1.3 (0e150ed6c4, 2023-07-21)"
   xmlns:inkscape="http://www.inkscape.org/namespaces/inkscape"
   xmlns:sodipodi="http://sodipodi.sourceforge.net/DTD/sodipodi-0.dtd"
   xmlns="http://www.w3.org/2000/svg"
   xmlns:svg="http://www.w3.org/2000/svg">
  <defs
     id="defs21" />
  <sodipodi:namedview
     id="namedview21"
     pagecolor="#ffffff"
     bordercolor="#111111"
     borderopacity="1"
     inkscape:showpageshadow="0"
     inkscape:pageopacity="0"
     inkscape:pagecheckerboard="1"
     inkscape:deskcolor="#d1d1d1"
     inkscape:zoom="2.094"
     inkscape:cx="249.76122"
     inkscape:cy="250"
     inkscape:window-width="1920"
     inkscape:window-height="1111"
     inkscape:window-x="777"
     inkscape:window-y="1791"
     inkscape:window-maximized="1"
     inkscape:current-layer="svg21" />
  <g
     transform="translate(50 50) rotate(0)  "
     id="g1"
     >
    <circle
       r="28.20948"
       style="fill:#870707"
       stroke-width="0"
       id="circle1"
        />
  </g>
  <g
     transform="translate(150 50) rotate(0)  "
     id="g2">
    <path
       style="fill:#0C4EED"
       stroke-width="0"
       d="M-25 -20L -25 45A 5 5 0 0 0 -21.464466 46.464466L 46.464466 -21.464466A 5 5 0 0 0 45 -25L -20 -25A 5 5 0 0 0 -25 -20z"
       id="path1" />
  </g>
  <g
     transform="translate(250 50) rotate(0)  "
     id="g3">
    <path
       style="fill:#078772"
       stroke-width="0"
       d="M-45 12.5L 45 12.5A 5 5 0 0 0 50 7.5L 50 -7.5A 5 5 0 0 0 45 -12.5L -45 -12.5A 5 5 0 0 0 -50 -7.5L -50 7.5A 5 5 0 0 0 -45 12.5z"
       id="path2" />
  </g>
  <g
     transform="translate(350 50) rotate(0)  "
     id="g4">
    <path
       style="fill:#9F5997"
       stroke-width="0"
       d="M-20 25L 20 25A 5 5 0 0 0 25 20L 25 -20A 5 5 0 0 0 20 -25L -20 -25A 5 5 0 0 0 -25 -20L -25 20A 5 5 0 0 0 -20 25z"
       id="path3" />
  </g>
  <g
     transform="translate(450 50) rotate(0)  "
     id="g5">
    <path
       style="fill:#4A5B33"
       stroke-width="0"
       d="M-32.5 18.75L 32.5 18.75A 5 5 0 0 0 37.5 13.75L 37.5 -1.25A 5 5 0 0 0 32.5 -6.25L 17.5 -6.25A 5 5 0 0 1 12.5 -11.25L 12.5 -26.25A 5 5 0 0 0 7.5 -31.25L -7.5 -31.25A 5 5 0 0 0 -12.5 -26.25L -12.5 -11.25A 5 5 0 0 1 -17.5 -6.25L -32.5 -6.25A 5 5 0 0 0 -37.5 -1.25L -37.5 13.75A 5 5 0 0 0 -32.5 18.75z"
       id="path4" />
  </g>
  <g
     transform="translate(50 150) rotate(0)  "
     id="g6">
    <path
       style="fill:#ED860C"
       stroke-width="0"
       d="M-38.75 18.75L 26.25 18.75A 5 5 0 0 0 31.25 13.75L 31.25 -26.25A 5 5 0 0 0 26.25 -31.25L 11.25 -31.25A 5 5 0 0 0 6.25 -26.25L 6.25 -11.25A 5 5 0 0 1 1.25 -6.25L -38.75 -6.25A 5 5 0 0 0 -43.75 -1.25L -43.75 13.75A 5 5 0 0 0 -38.75 18.75z"
       id="path5" />
  </g>
  <g
     transform="translate(150 150) rotate(0)  "
     id="g7">
    <path
       style="fill:#3D335B"
       stroke-width="0"
       d="M-38.75 6.25L 1.25 6.25A 5 5 0 0 1 6.25 11.25L 6.25 26.25A 5 5 0 0 0 11.25 31.25L 26.25 31.25A 5 5 0 0 0 31.25 26.25L 31.25 -13.75A 5 5 0 0 0 26.25 -18.75L -38.75 -18.75A 5 5 0 0 0 -43.75 -13.75L -43.75 1.25A 5 5 0 0 0 -38.75 6.25z"
       id="path6" />
  </g>
  <g
     transform="translate(250 150) rotate(0)  "
     id="g8">
    <path
       style="fill:#5C9F59"
       stroke-width="0"
       d="M-32.5 0L -17.5 0A 5 5 0 0 1 -12.5 5L -12.5 20A 5 5 0 0 0 -7.5 25L 32.5 25A 5 5 0 0 0 37.5 20L 37.5 5A 5 5 0 0 0 32.5 0L 17.5 0A 5 5 0 0 1 12.5 -5L 12.5 -20A 5 5 0 0 0 7.5 -25L -32.5 -25A 5 5 0 0 0 -37.5 -20L -37.5 -5A 5 5 0 0 0 -32.5 0z"
       id="path7" />
  </g>
  <g
     transform="translate(350 150) rotate(0)  "
     id="g9">
    <path
       style="fill:#870732"
       stroke-width="0"
       d="M-32.5 25L 7.5 25A 5 5 0 0 0 12.5 20L 12.5 5A 5 5 0 0 1 17.5 0L 32.5 0A 5 5 0 0 0 37.5 -5L 37.5 -20A 5 5 0 0 0 32.5 -25L -7.5 -25A 5 5 0 0 0 -12.5 -20L -12.5 -5A 5 5 0 0 1 -17.5 0L -32.5 0A 5 5 0 0 0 -37.5 5L -37.5 20A 5 5 0 0 0 -32.5 25z"
       id="path8" />
  </g>
  <g
     transform="translate(450 150) rotate(0)  "
     id="g10">
    <path
       style="fill:#0C99ED"
       stroke-width="0"
       d="M-28.54102 6.7082024L -16.18034 6.7082024A 5 5 0 0 1 -11.18034 11.708202L -11.18034 24.068882A 5 5 0 0 0 -6.18034 29.068882L 28.54102 29.068882A 5 5 0 0 0 33.54102 24.068882L 33.54102 11.708202A 5 5 0 0 0 28.54102 6.7082024L 16.18034 6.7082024A 5 5 0 0 1 11.18034 1.7082024L 11.18034 -33.013157A 5 5 0 0 0 6.18034 -38.013157L -6.18034 -38.013157A 5 5 0 0 0 -11.18034 -33.013157L -11.18034 -20.652477A 5 5 0 0 1 -16.18034 -15.652477L -28.54102 -15.652477A 5 5 0 0 0 -33.54102 -10.652477L -33.54102 1.7082024A 5 5 0 0 0 -28.54102 6.7082024z"
       id="path9" />
  </g>
  <g
     transform="translate(50 250) rotate(0)  "
     id="g11">
    <path
       style="fill:#585B33"
       stroke-width="0"
       d="M-50.9017 11.18034L 50.9017 11.18034A 5 5 0 0 0 55.9017 6.18034L 55.9017 -6.18034A 5 5 0 0 0 50.9017 -11.18034L -50.9017 -11.18034A 5 5 0 0 0 -55.9017 -6.18034L -55.9017 6.18034A 5 5 0 0 0 -50.9017 11.18034z"
       id="path10" />
  </g>
  <g
     transform="translate(150 250) rotate(0)  "
     id="g12">
    <path
       style="fill:#91599F"
       stroke-width="0"
       d="M-46.42956 6.7082024L 10.652477 6.7082024A 5 5 0 0 1 15.652477 11.708202L 15.652477 24.068882A 5 5 0 0 0 20.652477 29.068882L 33.013157 29.068882A 5 5 0 0 0 38.013157 24.068882L 38.013157 -10.652477A 5 5 0 0 0 33.013157 -15.652477L -46.42956 -15.652477A 5 5 0 0 0 -51.42956 -10.652477L -51.42956 1.7082024A 5 5 0 0 0 -46.42956 6.7082024z"
       id="path11" />
  </g>
  <g
     transform="translate(250 250) rotate(0)  "
     id="g13">
    <path
       style="fill:#078747"
       stroke-width="0"
       d="M-37.48529 24.596748L -2.7639313 24.596748A 5 5 0 0 0 2.2360687 19.596748L 2.2360687 7.2360687A 5 5 0 0 1 7.2360687 2.2360687L 41.957428 2.2360687A 5 5 0 0 0 46.957428 -2.7639313L 46.957428 -15.124611A 5 5 0 0 0 41.957428 -20.12461L -15.124611 -20.12461A 5 5 0 0 0 -20.12461 -15.124611L -20.12461 -2.7639313A 5 5 0 0 1 -25.12461 2.2360687L -37.48529 2.2360687A 5 5 0 0 0 -42.48529 7.2360687L -42.48529 19.596748A 5 5 0 0 0 -37.48529 24.596748z"
       id="path12" />
  </g>
  <g
     transform="translate(350 250) rotate(0)  "
     id="g14">
    <path
       style="fill:#ED3A0C"
       stroke-width="0"
       d="M-15.124611 29.068882L 19.596748 29.068882A 5 5 0 0 0 24.596748 24.068882L 24.596748 -10.652477A 5 5 0 0 0 19.596748 -15.652477L 7.2360687 -15.652477A 5 5 0 0 1 2.2360687 -20.652477L 2.2360687 -33.013157A 5 5 0 0 0 -2.7639313 -38.013157L -15.124611 -38.013157A 5 5 0 0 0 -20.12461 -33.013157L -20.12461 24.068882A 5 5 0 0 0 -15.124611 29.068882z"
       id="path13" />
  </g>
  <g
     transform="translate(450 250) rotate(0)  "
     id="g15">
    <path
       style="fill:#33365B"
       stroke-width="0"
       d="M-28.54102 24.596748L 28.54102 24.596748A 5 5 0 0 0 33.54102 19.596748L 33.54102 7.2360687A 5 5 0 0 0 28.54102 2.2360687L 16.18034 2.2360687A 5 5 0 0 1 11.18034 -2.7639313L 11.18034 -37.48529A 5 5 0 0 0 6.18034 -42.48529L -6.18034 -42.48529A 5 5 0 0 0 -11.18034 -37.48529L -11.18034 -2.7639313A 5 5 0 0 1 -16.18034 2.2360687L -28.54102 2.2360687A 5 5 0 0 0 -33.54102 7.2360687L -33.54102 19.596748A 5 5 0 0 0 -28.54102 24.596748z"
       id="path14" />
  </g>
  <g
     transform="translate(50 350) rotate(0)  "
     id="g16">
    <path
       style="fill:#749F59"
       stroke-width="0"
       d="M-28.54102 24.596748L -16.18034 24.596748A 5 5 0 0 0 -11.18034 19.596748L -11.18034 7.2360687A 5 5 0 0 1 -6.18034 2.2360687L 6.18034 2.2360687A 5 5 0 0 1 11.18034 7.2360687L 11.18034 19.596748A 5 5 0 0 0 16.18034 24.596748L 28.54102 24.596748A 5 5 0 0 0 33.54102 19.596748L 33.54102 -15.124611A 5 5 0 0 0 28.54102 -20.12461L -28.54102 -20.12461A 5 5 0 0 0 -33.54102 -15.124611L -33.54102 19.596748A 5 5 0 0 0 -28.54102 24.596748z"
       id="path15" />
  </g>
  <g
     transform="translate(150 350) rotate(0)  "
     id="g17">
    <path
       style="fill:#87075D"
       stroke-width="0"
       d="M-37.48529 -2.2360687L -2.7639313 -2.2360687A 5 5 0 0 1 2.2360687 2.7639313L 2.2360687 37.48529A 5 5 0 0 0 7.2360687 42.48529L 19.596748 42.48529A 5 5 0 0 0 24.596748 37.48529L 24.596748 -19.596748A 5 5 0 0 0 19.596748 -24.596748L -37.48529 -24.596748A 5 5 0 0 0 -42.48529 -19.596748L -42.48529 -7.2360687A 5 5 0 0 0 -37.48529 -2.2360687z"
       id="path16" />
  </g>
  <g
     transform="translate(250 350) rotate(0)  "
     id="g18">
    <path
       style="fill:#0CE4ED"
       stroke-width="0"
       d="M-33.013157 -6.7082024L -20.652477 -6.7082024A 5 5 0 0 1 -15.652477 -1.7082024L -15.652477 10.652477A 5 5 0 0 0 -10.652477 15.652477L 1.7082024 15.652477A 5 5 0 0 1 6.7082024 20.652477L 6.7082024 33.013157A 5 5 0 0 0 11.708202 38.013157L 24.068882 38.013157A 5 5 0 0 0 29.068882 33.013157L 29.068882 -1.7082024A 5 5 0 0 0 24.068882 -6.7082024L 11.708202 -6.7082024A 5 5 0 0 1 6.7082024 -11.708202L 6.7082024 -24.068882A 5 5 0 0 0 1.7082024 -29.068882L -33.013157 -29.068882A 5 5 0 0 0 -38.013157 -24.068882L -38.013157 -11.708202A 5 5 0 0 0 -33.013157 -6.7082024z"
       id="path17" />
  </g>
  <g
     transform="translate(350 350) rotate(0)  "
     id="g19">
    <path
       style="fill:#5B5133"
       stroke-width="0"
       d="M-28.54102 11.18034L -16.18034 11.18034A 5 5 0 0 1 -11.18034 16.18034L -11.18034 28.54102A 5 5 0 0 0 -6.18034 33.54102L 6.18034 33.54102A 5 5 0 0 0 11.18034 28.54102L 11.18034 16.18034A 5 5 0 0 1 16.18034 11.18034L 28.54102 11.18034A 5 5 0 0 0 33.54102 6.18034L 33.54102 -6.18034A 5 5 0 0 0 28.54102 -11.18034L 16.18034 -11.18034A 5 5 0 0 1 11.18034 -16.18034L 11.18034 -28.54102A 5 5 0 0 0 6.18034 -33.54102L -6.18034 -33.54102A 5 5 0 0 0 -11.18034 -28.54102L -11.18034 -16.18034A 5 5 0 0 1 -16.18034 -11.18034L -28.54102 -11.18034A 5 5 0 0 0 -33.54102 -6.18034L -33.54102 6.18034A 5 5 0 0 0 -28.54102 11.18034z"
       id="path18" />
  </g>
  <g
     transform="translate(450 350) rotate(0)  "
     id="g20">
    <path
       style="fill:#79599F"
       stroke-width="0"
       d="M-41.957424 6.7082024L -7.236065 6.7082024A 5 5 0 0 1 -2.236065 11.708202L -2.236065 24.068882A 5 5 0 0 0 2.763935 29.068882L 15.124615 29.068882A 5 5 0 0 0 20.124615 24.068882L 20.124615 11.708202A 5 5 0 0 1 25.124615 6.7082024L 37.485294 6.7082024A 5 5 0 0 0 42.485294 1.7082024L 42.485294 -10.652477A 5 5 0 0 0 37.485294 -15.652477L -41.957424 -15.652477A 5 5 0 0 0 -46.957424 -10.652477L -46.957424 1.7082024A 5 5 0 0 0 -41.957424 6.7082024z"
       id="path19" />
  </g>
  <g
     transform="translate(50 450) rotate(0)  "
     id="g21">
    <path
       style="fill:#07871C"
       stroke-width="0"
       d="M-28.54102 -11.18034L -16.18034 -11.18034A 5 5 0 0 1 -11.18034 -6.18034L -11.18034 28.54102A 5 5 0 0 0 -6.18034 33.54102L 28.54102 33.54102A 5 5 0 0 0 33.54102 28.54102L 33.54102 16.18034A 5 5 0 0 0 28.54102 11.18034L 16.18034 11.18034A 5 5 0 0 1 11.18034 6.18034L 11.18034 -28.54102A 5 5 0 0 0 6.18034 -33.54102L -28.54102 -33.54102A 5 5 0 0 0 -33.54102 -28.54102L -33.54102 -16.18034A 5 5 0 0 0 -28.54102 -11.18034z"
       id="path20" />
  </g>
</svg>
