<?xml version="1.0" encoding="UTF-8" standalone="no"?>
<!-- Created with Inkscape (http://www.inkscape.org/) -->

<svg
   width="512"
   height="512"
   viewBox="0 0 512 512"
   version="1.1"
   id="svg1"
   inkscape:version="1.3 (0e150ed6c4, 2023-07-21)"
   sodipodi:docname="Everything.svg"
   xmlns:inkscape="http://www.inkscape.org/namespaces/inkscape"
   xmlns:sodipodi="http://sodipodi.sourceforge.net/DTD/sodipodi-0.dtd"
   xmlns="http://www.w3.org/2000/svg"
   xmlns:svg="http://www.w3.org/2000/svg">
  <sodipodi:namedview
     id="namedview1"
     pagecolor="#ffffff"
     bordercolor="#111111"
     borderopacity="1"
     inkscape:showpageshadow="0"
     inkscape:pageopacity="0"
     inkscape:pagecheckerboard="1"
     inkscape:deskcolor="#d1d1d1"
     inkscape:document-units="px"
     inkscape:zoom="1.4459781"
     inkscape:cx="375.87014"
     inkscape:cy="471.30727"
     inkscape:window-width="3200"
     inkscape:window-height="1711"
     inkscape:window-x="-9"
     inkscape:window-y="-9"
     inkscape:window-maximized="1"
     inkscape:current-layer="g1" />
  <defs
     id="defs1" />
  <g
     inkscape:groupmode="layer"
     id="layer2"
     inkscape:label="Background">
    <g
       id="g1">
      <rect
         style="fill:#86adea;fill-opacity:1;stroke-width:5;stroke-linecap:round;stroke-linejoin:round"
         id="rect1"
         width="512"
         height="512"
         x="0"
         y="0"
         sodipodi:insensitive="true" />
      <g
         transform="translate(84.462621,78.631338)"
         id="g2">
        <circle
           r="28.20948"
           style="fill:#870707"
           stroke-width="0"
           id="circle1"
           cx="0"
           cy="0" />
      </g>
      <g
         transform="translate(72.823096,356.04306)"
         id="g3">
        <path
           style="fill:#0c4eed"
           stroke-width="0"
           d="m -25,-20 v 65 a 5,5 0 0 0 3.535534,1.464466 L 46.464466,-21.464466 A 5,5 0 0 0 45,-25 h -65 a 5,5 0 0 0 -5,5 z"
           id="path1" />
      </g>
      <g
         transform="translate(242.18714,297.89353)"
         id="g4">
        <path
           style="fill:#078772"
           stroke-width="0"
           d="m -45,12.5 h 90 a 5,5 0 0 0 5,-5 v -15 a 5,5 0 0 0 -5,-5 h -90 a 5,5 0 0 0 -5,5 v 15 a 5,5 0 0 0 5,5 z"
           id="path2" />
      </g>
      <g
         transform="translate(295.76166,166.34525)"
         id="g5">
        <path
           style="fill:#9f5997"
           stroke-width="0"
           d="m -20,25 h 40 a 5,5 0 0 0 5,-5 v -40 a 5,5 0 0 0 -5,-5 h -40 a 5,5 0 0 0 -5,5 v 40 a 5,5 0 0 0 5,5 z"
           id="path3" />
      </g>
      <g
         transform="translate(262.59229,472.9229)"
         id="g6">
        <path
           style="fill:#4a5b33"
           stroke-width="0"
           d="m -32.5,18.75 h 65 a 5,5 0 0 0 5,-5 v -15 a 5,5 0 0 0 -5,-5 h -15 a 5,5 0 0 1 -5,-5 v -15 a 5,5 0 0 0 -5,-5 h -15 a 5,5 0 0 0 -5,5 v 15 a 5,5 0 0 1 -5,5 h -15 a 5,5 0 0 0 -5,5 v 15 a 5,5 0 0 0 5,5 z"
           id="path4" />
      </g>
      <g
         transform="translate(84.027199,447.56682)"
         id="g7">
        <path
           style="fill:#ed860c"
           stroke-width="0"
           d="m -38.75,18.75 h 65 a 5,5 0 0 0 5,-5 v -40 a 5,5 0 0 0 -5,-5 h -15 a 5,5 0 0 0 -5,5 v 15 a 5,5 0 0 1 -5,5 h -40 a 5,5 0 0 0 -5,5 v 15 a 5,5 0 0 0 5,5 z"
           id="path5" />
      </g>
      <g
         transform="translate(465.68429,470.27532)"
         id="g8">
        <path
           style="fill:#3d335b"
           stroke-width="0"
           d="m -38.75,6.25 h 40 a 5,5 0 0 1 5,5 v 15 a 5,5 0 0 0 5,5 h 15 a 5,5 0 0 0 5,-5 v -40 a 5,5 0 0 0 -5,-5 h -65 a 5,5 0 0 0 -5,5 v 15 a 5,5 0 0 0 5,5 z"
           id="path6" />
      </g>
      <g
         transform="translate(308.26166,222.54725)"
         id="g9">
        <path
           style="fill:#5c9f59"
           stroke-width="0"
           d="m -32.5,0 h 15 a 5,5 0 0 1 5,5 v 15 a 5,5 0 0 0 5,5 h 40 a 5,5 0 0 0 5,-5 V 5 a 5,5 0 0 0 -5,-5 h -15 a 5,5 0 0 1 -5,-5 v -15 a 5,5 0 0 0 -5,-5 h -40 a 5,5 0 0 0 -5,5 v 15 a 5,5 0 0 0 5,5 z"
           id="path7" />
      </g>
      <g
         transform="translate(188.82306,49.451801)"
         id="g10">
        <path
           style="fill:#870732"
           stroke-width="0"
           d="m -32.5,25 h 40 a 5,5 0 0 0 5,-5 V 5 a 5,5 0 0 1 5,-5 h 15 a 5,5 0 0 0 5,-5 v -15 a 5,5 0 0 0 -5,-5 h -40 a 5,5 0 0 0 -5,5 v 15 a 5,5 0 0 1 -5,5 h -15 a 5,5 0 0 0 -5,5 v 15 a 5,5 0 0 0 5,5 z"
           id="path8" />
      </g>
      <g
         transform="translate(458.78872,274.41555)"
         id="g11">
        <path
           style="fill:#0c99ed"
           stroke-width="0"
           d="m -28.54102,6.7082024 h 12.36068 a 5,5 0 0 1 5,4.9999996 v 12.36068 a 5,5 0 0 0 5,5 h 34.72136 a 5,5 0 0 0 5,-5 v -12.36068 a 5,5 0 0 0 -5,-4.9999996 H 16.18034 a 5,5 0 0 1 -5,-5 V -33.013157 a 5,5 0 0 0 -5,-5 H -6.18034 a 5,5 0 0 0 -5,5 v 12.36068 a 5,5 0 0 1 -5,5 h -12.36068 a 5,5 0 0 0 -5,5 V 1.7082024 a 5,5 0 0 0 5,5 z"
           id="path9" />
      </g>
      <g
         transform="translate(86.844541,274.21319)"
         id="g12">
        <path
           style="fill:#585b33"
           stroke-width="0"
           d="M -50.9017,11.18034 H 50.9017 a 5,5 0 0 0 5,-5 V -6.18034 a 5,5 0 0 0 -5,-5 H -50.9017 a 5,5 0 0 0 -5,5 V 6.18034 a 5,5 0 0 0 5,5 z"
           id="path10" />
      </g>
      <g
         transform="translate(105.65266,143.90991)"
         id="g13">
        <path
           style="fill:#91599f"
           stroke-width="0"
           d="m -46.42956,6.7082024 h 57.082037 a 5,5 0 0 1 5,4.9999996 v 12.36068 a 5,5 0 0 0 5,5 h 12.36068 a 5,5 0 0 0 5,-5 v -34.721359 a 5,5 0 0 0 -5,-5 H -46.42956 a 5,5 0 0 0 -5,5 V 1.7082024 a 5,5 0 0 0 5,5 z"
           id="path11" />
      </g>
      <g
         transform="translate(369.22338,273.87386)"
         id="g14">
        <path
           style="fill:#078747"
           stroke-width="0"
           d="m -37.48529,24.596748 h 34.7213587 a 5,5 0 0 0 5,-5 V 7.2360687 a 5,5 0 0 1 5,-5 H 41.957428 a 5,5 0 0 0 5,-5 V -15.124611 a 5,5 0 0 0 -5,-4.999999 h -57.082039 a 5,5 0 0 0 -4.999999,4.999999 v 12.3606797 a 5,5 0 0 1 -5,5 h -12.36068 a 5,5 0 0 0 -5,5 V 19.596748 a 5,5 0 0 0 5,5 z"
           id="path12" />
      </g>
      <g
         transform="translate(239.96291,250.12265)"
         id="g15">
        <path
           style="fill:#ed3a0c"
           stroke-width="0"
           d="m -15.124611,29.068882 h 34.721359 a 5,5 0 0 0 5,-5 v -34.721359 a 5,5 0 0 0 -5,-5 H 7.2360687 a 5,5 0 0 1 -5,-5 v -12.36068 a 5,5 0 0 0 -5,-5 H -15.124611 a 5,5 0 0 0 -4.999999,5 v 57.082039 a 5,5 0 0 0 4.999999,5 z"
           id="path13" />
      </g>
      <g
         transform="translate(272.60645,94.637389)"
         id="g16">
        <path
           style="fill:#33365b"
           stroke-width="0"
           d="m -28.54102,24.596748 h 57.08204 a 5,5 0 0 0 5,-5 V 7.2360687 a 5,5 0 0 0 -5,-5 H 16.18034 a 5,5 0 0 1 -5,-5 V -37.48529 a 5,5 0 0 0 -5,-5 H -6.18034 a 5,5 0 0 0 -5,5 v 34.7213587 a 5,5 0 0 1 -5,5 h -12.36068 a 5,5 0 0 0 -5,5 V 19.596748 a 5,5 0 0 0 5,5 z"
           id="path14" />
      </g>
      <g
         transform="translate(180.09528,232.2341)"
         id="g17">
        <path
           style="fill:#749f59"
           stroke-width="0"
           d="m -28.54102,24.596748 h 12.36068 a 5,5 0 0 0 5,-5 V 7.2360687 a 5,5 0 0 1 5,-5 H 6.18034 a 5,5 0 0 1 5,5 V 19.596748 a 5,5 0 0 0 5,5 h 12.36068 a 5,5 0 0 0 5,-5 v -34.721359 a 5,5 0 0 0 -5,-4.999999 h -57.08204 a 5,5 0 0 0 -5,4.999999 v 34.721359 a 5,5 0 0 0 5,5 z"
           id="path15" />
      </g>
      <g
         transform="translate(356.01875,68.162572)"
         id="g18">
        <path
           style="fill:#87075d"
           stroke-width="0"
           d="m -37.48529,-2.2360687 h 34.7213587 a 5,5 0 0 1 5,5 V 37.48529 a 5,5 0 0 0 5,5 H 19.596748 a 5,5 0 0 0 5,-5 v -57.082038 a 5,5 0 0 0 -5,-5 H -37.48529 a 5,5 0 0 0 -5,5 v 12.3606793 a 5,5 0 0 0 5,5 z"
           id="path16" />
      </g>
      <g
         transform="translate(342.9233,404.5353)"
         id="g19">
        <path
           style="fill:#0ce4ed"
           stroke-width="0"
           d="m -33.013157,-6.7082024 h 12.36068 a 5,5 0 0 1 5,5 V 10.652477 a 5,5 0 0 0 5,5 H 1.7082024 a 5,5 0 0 1 5,5 v 12.36068 a 5,5 0 0 0 4.9999996,5 h 12.36068 a 5,5 0 0 0 5,-5 V -1.7082024 a 5,5 0 0 0 -5,-5 H 11.708202 A 5,5 0 0 1 6.7082024,-11.708202 v -12.36068 a 5,5 0 0 0 -5,-5 H -33.013157 a 5,5 0 0 0 -5,5 v 12.36068 a 5,5 0 0 0 5,4.9999996 z"
           id="path17" />
      </g>
      <g
         transform="translate(385.50468,214.00623)"
         id="g20">
        <path
           style="fill:#5b5133"
           stroke-width="0"
           d="m -28.54102,11.18034 h 12.36068 a 5,5 0 0 1 5,5 v 12.36068 a 5,5 0 0 0 5,5 H 6.18034 a 5,5 0 0 0 5,-5 V 16.18034 a 5,5 0 0 1 5,-5 h 12.36068 a 5,5 0 0 0 5,-5 V -6.18034 a 5,5 0 0 0 -5,-5 H 16.18034 a 5,5 0 0 1 -5,-5 v -12.36068 a 5,5 0 0 0 -5,-5 H -6.18034 a 5,5 0 0 0 -5,5 v 12.36068 a 5,5 0 0 1 -5,5 h -12.36068 a 5,5 0 0 0 -5,5 V 6.18034 a 5,5 0 0 0 5,5 z"
           id="path18" />
      </g>
      <g
         transform="translate(222.07437,176.83861)"
         id="g21">
        <path
           style="fill:#79599f"
           stroke-width="0"
           d="m -41.957424,6.7082024 h 34.721359 a 5,5 0 0 1 5,4.9999996 v 12.36068 a 5,5 0 0 0 5,5 h 12.36068 a 5,5 0 0 0 5,-5 v -12.36068 a 5,5 0 0 1 5,-4.9999996 h 12.360679 a 5,5 0 0 0 5,-5 V -10.652477 a 5,5 0 0 0 -5,-5 h -79.442718 a 5,5 0 0 0 -5,5 V 1.7082024 a 5,5 0 0 0 5,5 z"
           id="path19" />
      </g>
      <g
         transform="translate(244.4967,350.13655)"
         id="g22">
        <path
           style="fill:#07871c"
           stroke-width="0"
           d="m -28.54102,-11.18034 h 12.36068 a 5,5 0 0 1 5,5 v 34.72136 a 5,5 0 0 0 5,5 h 34.72136 a 5,5 0 0 0 5,-5 V 16.18034 a 5,5 0 0 0 -5,-5 H 16.18034 a 5,5 0 0 1 -5,-5 v -34.72136 a 5,5 0 0 0 -5,-5 h -34.72136 a 5,5 0 0 0 -5,5 v 12.36068 a 5,5 0 0 0 5,5 z"
           id="path20" />
      </g>
    </g>
  </g>
  <g
     inkscape:label="Layer 1"
     inkscape:groupmode="layer"
     id="layer1" />
</svg>
