<?xml version="1.0" encoding="UTF-8" standalone="no"?>
<!-- Created with Inkscape (http://www.inkscape.org/) -->

<svg
   width="512"
   height="512"
   viewBox="0 0 512 512"
   version="1.1"
   id="svg1"
   inkscape:version="1.3 (0e150ed6c4, 2023-07-21)"
   sodipodi:docname="Inevitable.svg"
   xml:space="preserve"
   xmlns:inkscape="http://www.inkscape.org/namespaces/inkscape"
   xmlns:sodipodi="http://sodipodi.sourceforge.net/DTD/sodipodi-0.dtd"
   xmlns="http://www.w3.org/2000/svg"
   xmlns:svg="http://www.w3.org/2000/svg"><sodipodi:namedview
     id="namedview1"
     pagecolor="#ffffff"
     bordercolor="#111111"
     borderopacity="1"
     inkscape:showpageshadow="0"
     inkscape:pageopacity="0"
     inkscape:pagecheckerboard="1"
     inkscape:deskcolor="#d1d1d1"
     inkscape:document-units="px"
     inkscape:zoom="1.4459781"
     inkscape:cx="270.4052"
     inkscape:cy="236.86389"
     inkscape:window-width="2400"
     inkscape:window-height="1261"
     inkscape:window-x="3191"
     inkscape:window-y="425"
     inkscape:window-maximized="1"
     inkscape:current-layer="g13" /><defs
     id="defs1" /><g
     inkscape:groupmode="layer"
     id="layer2"
     inkscape:label="Background"><rect
       style="fill:#86adea;fill-opacity:1;stroke-width:5;stroke-linecap:round;stroke-linejoin:round"
       id="rect1"
       width="512"
       height="512"
       x="0"
       y="0"
       sodipodi:insensitive="true" /></g><g
     inkscape:label="Layer 1"
     inkscape:groupmode="layer"
     id="layer1"><g
       transform="matrix(1,0,0,-1,256.01461,291.05621)"
       id="g13"><g
         transform="rotate(-107.99997,40.733374,-75.36503)"
         id="g2"
         style="stroke:#ff0000"><path
           stroke="#E71C1CFF"
           stroke-width="1"
           d="m -38.75,18.75 h 65 a 5,5 0 0 0 5,-5 v -40 a 5,5 0 0 0 -5,-5 h -15 a 5,5 0 0 0 -5,5 v 15 a 5,5 0 0 1 -5,5 h -40 a 5,5 0 0 0 -5,5 v 15 a 5,5 0 0 0 5,5 z"
           id="path1"
           style="stroke:#ff0000" /></g><g
         transform="rotate(-72,-103.74564,56.084811)"
         id="g3"
         style="stroke:#ff0000"><path
           stroke="#E71C1CFF"
           stroke-width="1"
           d="m -38.75,6.25 h 40 a 5,5 0 0 1 5,5 v 15 a 5,5 0 0 0 5,5 h 15 a 5,5 0 0 0 5,-5 v -40 a 5,5 0 0 0 -5,-5 h -65 a 5,5 0 0 0 -5,5 v 15 a 5,5 0 0 0 5,5 z"
           id="path2"
           style="stroke:#ff0000" /></g><g
         transform="rotate(90,-7.549828,7.5351833)"
         id="g4"
         style="stroke:#ff0000"><path
           stroke="#E71C1CFF"
           stroke-width="1"
           d="M -50.9017,11.18034 H 50.9017 a 5,5 0 0 0 5,-5 V -6.18034 a 5,5 0 0 0 -5,-5 H -50.9017 a 5,5 0 0 0 -5,5 V 6.18034 a 5,5 0 0 0 5,5 z"
           id="path3"
           style="stroke:#ff0000" /></g><g
         transform="translate(124.99707,165.08367)"
         id="g5"
         style="stroke:#ff0000"><path
           stroke="#E71C1CFF"
           stroke-width="1"
           d="m -20,25 h 40 a 5,5 0 0 0 5,-5 v -40 a 5,5 0 0 0 -5,-5 h -40 a 5,5 0 0 0 -5,5 v 40 a 5,5 0 0 0 5,5 z"
           id="path4"
           style="stroke:#ff0000" /></g><g
         transform="translate(-125.02631,165.08367)"
         id="g6"
         style="stroke:#ff0000"><path
           stroke="#E71C1CFF"
           stroke-width="1"
           d="m -20,25 h 40 a 5,5 0 0 0 5,-5 v -40 a 5,5 0 0 0 -5,-5 h -40 a 5,5 0 0 0 -5,5 v 40 a 5,5 0 0 0 5,5 z"
           id="path5"
           style="stroke:#ff0000" /></g><g
         transform="rotate(135,17.953351,133.42934)"
         id="g7"
         style="stroke:#ff0000"><path
           stroke="#E71C1CFF"
           stroke-width="1"
           d="m -37.48529,-2.2360687 h 34.7213587 a 5,5 0 0 1 5,5 V 37.48529 a 5,5 0 0 0 5,5 H 19.596748 a 5,5 0 0 0 5,-5 v -57.082038 a 5,5 0 0 0 -5,-5 H -37.48529 a 5,5 0 0 0 -5,5 v 12.3606793 a 5,5 0 0 0 5,5 z"
           id="path6"
           style="stroke:#ff0000" /></g><g
         transform="rotate(135,-107.05833,81.647795)"
         id="g8"
         style="stroke:#ff0000"><path
           stroke="#E71C1CFF"
           stroke-width="1"
           d="m -37.48529,-2.2360687 h 34.7213587 a 5,5 0 0 1 5,5 V 37.48529 a 5,5 0 0 0 5,5 H 19.596748 a 5,5 0 0 0 5,-5 v -57.082038 a 5,5 0 0 0 -5,-5 H -37.48529 a 5,5 0 0 0 -5,5 v 12.3606793 a 5,5 0 0 0 5,5 z"
           id="path7"
           style="stroke:#ff0000" /></g><g
         transform="rotate(135,-49.730128,120.03844)"
         id="g9"
         style="stroke:#ff0000"><path
           stroke="#E71C1CFF"
           stroke-width="1"
           d="m -33.013157,-6.7082024 h 12.36068 a 5,5 0 0 1 5,5 V 10.652477 a 5,5 0 0 0 5,5 H 1.7082024 a 5,5 0 0 1 5,5 v 12.36068 a 5,5 0 0 0 4.9999996,5 h 12.36068 a 5,5 0 0 0 5,-5 V -1.7082024 a 5,5 0 0 0 -5,-5 H 11.708202 A 5,5 0 0 1 6.7082024,-11.708202 v -12.36068 a 5,5 0 0 0 -5,-5 H -33.013157 a 5,5 0 0 0 -5,5 v 12.36068 a 5,5 0 0 0 5,4.9999996 z"
           id="path8"
           style="stroke:#ff0000" /></g><g
         transform="rotate(45,193.02522,-79.974377)"
         id="g10"
         style="stroke:#ff0000"><path
           stroke="#000000FF"
           stroke-width="1"
           d="m -25,-20 v 65 a 5,5 0 0 0 3.535534,1.464466 L 46.464466,-21.464466 A 5,5 0 0 0 45,-25 h -65 a 5,5 0 0 0 -5,5 z"
           id="path9"
           style="stroke:#ff0000" /></g></g></g></svg>
