<?xml version="1.0" encoding="UTF-8" standalone="no"?>
<!-- Created with Inkscape (http://www.inkscape.org/) -->

<svg
   width="512"
   height="512"
   viewBox="0 0 512 512"
   version="1.1"
   id="svg1"
   inkscape:version="1.3 (0e150ed6c4, 2023-07-21)"
   sodipodi:docname="ItsATrap.svg"
   xml:space="preserve"
   xmlns:inkscape="http://www.inkscape.org/namespaces/inkscape"
   xmlns:sodipodi="http://sodipodi.sourceforge.net/DTD/sodipodi-0.dtd"
   xmlns="http://www.w3.org/2000/svg"
   xmlns:svg="http://www.w3.org/2000/svg"><sodipodi:namedview
     id="namedview1"
     pagecolor="#ffffff"
     bordercolor="#111111"
     borderopacity="1"
     inkscape:showpageshadow="0"
     inkscape:pageopacity="0"
     inkscape:pagecheckerboard="1"
     inkscape:deskcolor="#d1d1d1"
     inkscape:document-units="px"
     inkscape:zoom="1.4459781"
     inkscape:cx="274.55464"
     inkscape:cy="306.71281"
     inkscape:window-width="2400"
     inkscape:window-height="1261"
     inkscape:window-x="3191"
     inkscape:window-y="425"
     inkscape:window-maximized="1"
     inkscape:current-layer="g1" /><defs
     id="defs1" /><g
     inkscape:groupmode="layer"
     id="layer2"
     inkscape:label="Background"><rect
       style="fill:#86adea;fill-opacity:1;stroke-width:5;stroke-linecap:round;stroke-linejoin:round"
       id="rect1"
       width="512"
       height="512"
       x="0"
       y="0"
       sodipodi:insensitive="true" /></g><g
     inkscape:label="Layer 1"
     inkscape:groupmode="layer"
     id="layer1"><g
       transform="matrix(1,0,0,-1,256.01461,291.05621)"
       id="g13"><g
         id="g1"
         transform="matrix(1.728,0,0,1.728,-41.986842,-73.358381)"><g
           transform="matrix(1,0,0,-1,-0.01461,-59.13203)"
           id="g11"><path
             style="fill:#585b33"
             stroke-width="0"
             d="M -50.9017,11.18034 H 50.9017 a 5,5 0 0 0 5,-5 V -6.18034 a 5,5 0 0 0 -5,-5 H -50.9017 a 5,5 0 0 0 -5,5 V 6.18034 a 5,5 0 0 0 5,5 z"
             id="path10" /></g><g
           transform="matrix(-0.86602541,-0.5,-0.5,0.86602541,10.262416,-21.253325)"
           id="g18"><path
             style="fill:#0ce4ed"
             stroke-width="0"
             d="m -33.013157,-6.7082024 h 12.36068 a 5,5 0 0 1 5,5 V 10.652477 a 5,5 0 0 0 5,5 H 1.7082024 a 5,5 0 0 1 5,5 v 12.36068 a 5,5 0 0 0 4.9999996,5 h 12.36068 a 5,5 0 0 0 5,-5 V -1.7082024 a 5,5 0 0 0 -5,-5 H 11.708202 A 5,5 0 0 1 6.7082024,-11.708202 v -12.36068 a 5,5 0 0 0 -5,-5 H -33.013157 a 5,5 0 0 0 -5,5 v 12.36068 a 5,5 0 0 0 5,4.9999996 z"
             id="path17" /></g><g
           transform="matrix(-0.96592583,0.25881904,0.25881904,0.96592583,26.888212,17.57283)"
           id="g16"><path
             style="fill:#749f59"
             stroke-width="0"
             d="m -28.54102,24.596748 h 12.36068 a 5,5 0 0 0 5,-5 V 7.2360687 a 5,5 0 0 1 5,-5 H 6.18034 a 5,5 0 0 1 5,5 V 19.596748 a 5,5 0 0 0 5,5 h 12.36068 a 5,5 0 0 0 5,-5 v -34.721359 a 5,5 0 0 0 -5,-4.999999 h -57.08204 a 5,5 0 0 0 -5,4.999999 v 34.721359 a 5,5 0 0 0 5,5 z"
             id="path15" /></g><g
           transform="matrix(0.96592583,-0.25881905,-0.25881905,-0.96592583,47.574429,63.66434)"
           id="g4"><path
             style="fill:#9f5997"
             stroke-width="0"
             d="m -20,25 h 40 a 5,5 0 0 0 5,-5 v -40 a 5,5 0 0 0 -5,-5 h -40 a 5,5 0 0 0 -5,5 v 40 a 5,5 0 0 0 5,5 z"
             id="path3" /></g><g
           transform="matrix(0.86602541,0.50000001,0.50000001,-0.86602541,71.687864,114.40311)"
           id="g19"><path
             style="fill:#5b5133"
             stroke-width="0"
             d="m -28.54102,11.18034 h 12.36068 a 5,5 0 0 1 5,5 v 12.36068 a 5,5 0 0 0 5,5 H 6.18034 a 5,5 0 0 0 5,-5 V 16.18034 a 5,5 0 0 1 5,-5 h 12.36068 a 5,5 0 0 0 5,-5 V -6.18034 a 5,5 0 0 0 -5,-5 H 16.18034 a 5,5 0 0 1 -5,-5 v -12.36068 a 5,5 0 0 0 -5,-5 H -6.18034 a 5,5 0 0 0 -5,5 v 12.36068 a 5,5 0 0 1 -5,5 h -12.36068 a 5,5 0 0 0 -5,5 V 6.18034 a 5,5 0 0 0 5,5 z"
             id="path18" /></g><g
           transform="matrix(1,0,0,-1,37.167502,167.58274)"
           id="g2"><circle
             r="28.20948"
             style="fill:#870707"
             stroke-width="0"
             id="circle1"
             cx="0"
             cy="0" /></g></g></g></g></svg>
