<?xml version="1.0" encoding="UTF-8" standalone="no"?>
<!-- Created with Inkscape (http://www.inkscape.org/) -->

<svg
   width="512"
   height="512"
   viewBox="0 0 512 512"
   version="1.1"
   id="svg1"
   inkscape:version="1.3 (0e150ed6c4, 2023-07-21)"
   sodipodi:docname="Obsessed.svg"
   xml:space="preserve"
   xmlns:inkscape="http://www.inkscape.org/namespaces/inkscape"
   xmlns:sodipodi="http://sodipodi.sourceforge.net/DTD/sodipodi-0.dtd"
   xmlns="http://www.w3.org/2000/svg"
   xmlns:svg="http://www.w3.org/2000/svg"><sodipodi:namedview
     id="namedview1"
     pagecolor="#ffffff"
     bordercolor="#111111"
     borderopacity="1"
     inkscape:showpageshadow="0"
     inkscape:pageopacity="0"
     inkscape:pagecheckerboard="1"
     inkscape:deskcolor="#d1d1d1"
     inkscape:document-units="px"
     inkscape:zoom="1.4459781"
     inkscape:cx="269.36783"
     inkscape:cy="299.79706"
     inkscape:window-width="3200"
     inkscape:window-height="1711"
     inkscape:window-x="-9"
     inkscape:window-y="-9"
     inkscape:window-maximized="1"
     inkscape:current-layer="g2" /><defs
     id="defs1" /><g
     inkscape:groupmode="layer"
     id="layer2"
     inkscape:label="Background"><rect
       style="fill:#86adea;fill-opacity:1;stroke-width:5;stroke-linecap:round;stroke-linejoin:round"
       id="rect1"
       width="512"
       height="512"
       x="0"
       y="0"
       sodipodi:insensitive="true" /></g><g
     inkscape:label="Layer 1"
     inkscape:groupmode="layer"
     id="layer1"><g
       id="g2"
       transform="matrix(2.4414063,0,0,2.4414063,-203.99245,-419.49733)"><g
         id="g3"
         transform="matrix(2.3582174,0.63188244,-0.63188244,2.3582174,-96.911571,-464.69152)"><g
           transform="matrix(0.40959999,0,0,0.40959999,187.36005,239.26776)"
           id="g12"><path
             style="fill:#91599f"
             stroke-width="0"
             d="m -46.42956,6.7082024 h 57.082037 a 5,5 0 0 1 5,4.9999996 v 12.36068 a 5,5 0 0 0 5,5 h 12.36068 a 5,5 0 0 0 5,-5 v -34.721359 a 5,5 0 0 0 -5,-5 H -46.42956 a 5,5 0 0 0 -5,5 V 1.7082024 a 5,5 0 0 0 5,5 z"
             id="path11" /></g><g
           transform="matrix(-1.0905157e-8,0.4096,-0.4096,-1.0905157e-8,198.35077,274.07171)"
           id="g11"><path
             style="fill:#585b33"
             stroke-width="0"
             d="M -50.9017,11.18034 H 50.9017 a 5,5 0 0 0 5,-5 V -6.18034 a 5,5 0 0 0 -5,-5 H -50.9017 a 5,5 0 0 0 -5,5 V 6.18034 a 5,5 0 0 0 5,5 z"
             id="path10" /></g></g></g></g></svg>
