<?xml version="1.0" encoding="UTF-8" standalone="no"?>
<!-- Created with Inkscape (http://www.inkscape.org/) -->

<svg
   width="512"
   height="512"
   viewBox="0 0 512 512"
   version="1.1"
   id="svg1"
   inkscape:version="1.3 (0e150ed6c4, 2023-07-21)"
   sodipodi:docname="OneInAMillion.svg"
   xmlns:inkscape="http://www.inkscape.org/namespaces/inkscape"
   xmlns:sodipodi="http://sodipodi.sourceforge.net/DTD/sodipodi-0.dtd"
   xmlns="http://www.w3.org/2000/svg"
   xmlns:svg="http://www.w3.org/2000/svg">
  <sodipodi:namedview
     id="namedview1"
     pagecolor="#ffffff"
     bordercolor="#111111"
     borderopacity="1"
     inkscape:showpageshadow="0"
     inkscape:pageopacity="0"
     inkscape:pagecheckerboard="1"
     inkscape:deskcolor="#d1d1d1"
     inkscape:document-units="px"
     inkscape:zoom="2.0449219"
     inkscape:cx="256"
     inkscape:cy="256"
     inkscape:window-width="3200"
     inkscape:window-height="1711"
     inkscape:window-x="-9"
     inkscape:window-y="-9"
     inkscape:window-maximized="1"
     inkscape:current-layer="g1" />
  <defs
     id="defs1" />
  <g
     inkscape:groupmode="layer"
     id="layer2"
     inkscape:label="Background">
    <g
       id="g1">
      <rect
         style="fill:#86adea;fill-opacity:1;stroke-width:5;stroke-linecap:round;stroke-linejoin:round"
         id="rect1"
         width="512"
         height="512"
         x="0"
         y="0"
         sodipodi:insensitive="true" />
      <g
         id="g5"
         transform="matrix(4,0,0,4,-712.27297,-1067.0126)">
        <g
           transform="rotate(45,-309.87469,470.69049)"
           id="g19">
          <path
             style="fill:#5b5133"
             stroke-width="0"
             d="m -28.54102,11.18034 h 12.36068 a 5,5 0 0 1 5,5 v 12.36068 a 5,5 0 0 0 5,5 H 6.18034 a 5,5 0 0 0 5,-5 V 16.18034 a 5,5 0 0 1 5,-5 h 12.36068 a 5,5 0 0 0 5,-5 V -6.18034 a 5,5 0 0 0 -5,-5 H 16.18034 a 5,5 0 0 1 -5,-5 v -12.36068 a 5,5 0 0 0 -5,-5 H -6.18034 a 5,5 0 0 0 -5,5 v 12.36068 a 5,5 0 0 1 -5,5 h -12.36068 a 5,5 0 0 0 -5,5 V 6.18034 a 5,5 0 0 0 5,5 z"
             id="path18" />
        </g>
        <g
           transform="translate(242.06824,303.18751)"
           id="g2">
          <circle
             r="28.20948"
             style="fill:#870707"
             stroke-width="0"
             id="circle1"
             cx="0"
             cy="0" />
        </g>
      </g>
    </g>
  </g>
  <g
     inkscape:label="Layer 1"
     inkscape:groupmode="layer"
     id="layer1" />
</svg>
