<?xml version="1.0" encoding="UTF-8" standalone="no"?>
<!-- Created with Inkscape (http://www.inkscape.org/) -->

<svg
   width="512"
   height="512"
   viewBox="0 0 512 512"
   version="1.1"
   id="svg1"
   inkscape:version="1.3 (0e150ed6c4, 2023-07-21)"
   sodipodi:docname="Steks.svg"
   xml:space="preserve"
   xmlns:inkscape="http://www.inkscape.org/namespaces/inkscape"
   xmlns:sodipodi="http://sodipodi.sourceforge.net/DTD/sodipodi-0.dtd"
   xmlns="http://www.w3.org/2000/svg"
   xmlns:svg="http://www.w3.org/2000/svg"><sodipodi:namedview
     id="namedview1"
     pagecolor="#ffffff"
     bordercolor="#111111"
     borderopacity="1"
     inkscape:showpageshadow="0"
     inkscape:pageopacity="0"
     inkscape:pagecheckerboard="1"
     inkscape:deskcolor="#d1d1d1"
     inkscape:document-units="px"
     inkscape:zoom="1.4459781"
     inkscape:cx="274.55464"
     inkscape:cy="306.71281"
     inkscape:window-width="2400"
     inkscape:window-height="1261"
     inkscape:window-x="3191"
     inkscape:window-y="425"
     inkscape:window-maximized="1"
     inkscape:current-layer="g1" /><defs
     id="defs1" /><g
     inkscape:groupmode="layer"
     id="layer2"
     inkscape:label="Background"><rect
       style="fill:#86adea;fill-opacity:1;stroke-width:5;stroke-linecap:round;stroke-linejoin:round"
       id="rect1"
       width="512"
       height="512"
       x="0"
       y="0"
       sodipodi:insensitive="true" /></g><g
     inkscape:label="Layer 1"
     inkscape:groupmode="layer"
     id="layer1"><g
       transform="matrix(1,0,0,-1,256.01461,291.05621)"
       id="g13"><g
         id="g1"
         transform="matrix(1.728,0,0,1.728,-41.986842,-73.358381)"><g
           id="g2"
           transform="translate(4.0381811,7.2480923)"><path
             style="fill:#078772"
             stroke-width="0"
             d="m 41.441556,37.99243 2e-6,-52.083322 a 2.8935185,2.8935185 0 0 1 2.89352,-2.89352 l 8.68056,10e-7 a 2.8935185,2.8935185 0 0 1 2.89352,2.893518 l -6e-6,52.083323 a 2.8935185,2.8935185 0 0 1 -2.893519,2.89352 h -8.680558 a 2.8935185,2.8935185 0 0 1 -2.893519,-2.89352 z"
             id="path2" /><path
             style="fill:#33365b"
             stroke-width="0"
             d="M -2.7028018,126.64348 H -50.271158 a 4.1666666,4.1666666 0 0 1 -4.166668,-4.16666 v -10.30057 a 4.1666666,4.1666666 0 0 1 4.166668,-4.16665 h 10.300565 a 4.1666666,4.1666666 0 0 0 4.166669,-4.16667 V 74.908465 a 4.1666666,4.1666666 0 0 1 4.166654,-4.166669 h 10.30058 a 4.1666666,4.1666666 0 0 1 4.166654,4.166669 v 28.934465 a 4.1666666,4.1666666 0 0 0 4.166669,4.16667 h 10.3005652 a 4.1666666,4.1666666 0 0 1 4.1666684,4.16665 v 10.30057 a 4.1666666,4.1666666 0 0 1 -4.1666684,4.16666 z"
             id="path14" /><path
             style="fill:#87075d"
             stroke-width="0"
             d="M 88.697426,-5.0740339 74.48926,9.13413 a 2.8935185,2.8935185 0 0 0 10e-7,4.092053 l 14.208165,14.208164 a 2.8935185,2.8935185 0 0 1 -10e-7,4.092053 l -5.058057,5.05806 a 2.8935185,2.8935185 0 0 1 -4.092052,0 L 56.189044,13.226183 a 2.8935185,2.8935185 0 0 1 0,-4.092052 l 23.358273,-23.358274 a 2.8935185,2.8935185 0 0 1 4.092055,0 l 5.058053,5.0580541 a 2.8935185,2.8935185 0 0 1 10e-7,4.092055 z"
             id="path16" /><path
             style="fill:#0ce4ed"
             stroke-width="0"
             d="m 31.233077,40.455822 -8.920552,5.150281 a 4.1666666,4.1666666 0 0 0 -1.525105,5.691774 l 5.150282,8.920553 a 4.1666666,4.1666666 0 0 1 -1.525107,5.691771 l -8.920552,5.150281 a 4.1666666,4.1666666 0 0 0 -1.525103,5.691774 l 5.150283,8.920556 a 4.1666666,4.1666666 0 0 1 -1.52511,5.691772 L 8.6715645,96.51486 A 4.1666666,4.1666666 0 0 1 2.9797935,94.989756 L -11.487438,69.931774 a 4.1666666,4.1666666 0 0 1 1.5251036,-5.691771 l 8.9205521,-5.150281 A 4.1666666,4.1666666 0 0 0 0.48332164,53.397948 L -4.6669636,44.477396 a 4.1666666,4.1666666 0 0 1 1.5251097,-5.691774 L 21.916126,24.31839 a 4.1666666,4.1666666 0 0 1 5.691777,1.525106 l 5.150278,8.92055 a 4.1666666,4.1666666 0 0 1 -1.525104,5.691776 z"
             id="path17" /><path
             style="fill:#07871c"
             stroke-width="0"
             d="m -42.926737,147.04151 h -12.360679 a 4.9999999,4.9999999 0 0 1 -5,-4.99999 v -34.72137 a 4.9999999,4.9999999 0 0 0 -5,-4.99998 h -34.721364 a 4.9999999,4.9999999 0 0 0 -5,4.99998 v 12.36067 a 4.9999999,4.9999999 0 0 0 5,5.00001 h 12.360683 a 4.9999999,4.9999999 0 0 1 5.000002,5 v 34.72137 a 4.9999999,4.9999999 0 0 0 4.999998,4.99999 h 34.72136 a 4.9999999,4.9999999 0 0 0 4.999991,-4.99999 v -12.36069 a 4.9999999,4.9999999 0 0 0 -4.999991,-5 z"
             id="path20" /><path
             style="fill:#07871c"
             stroke-width="0"
             d="m 141.01139,-18.169318 h -11.1246 a 4.4999999,4.4999999 0 0 1 -4.5,-4.499991 v -31.249233 a 4.4999999,4.4999999 0 0 0 -4.5,-4.499982 H 89.637553 a 4.4999999,4.4999999 0 0 0 -4.5,4.499982 v 11.124603 a 4.4999999,4.4999999 0 0 0 4.5,4.500009 h 11.124617 a 4.4999999,4.4999999 0 0 1 4.5,4.5 v 31.249233 a 4.4999999,4.4999999 0 0 0 4.49999,4.499991 h 31.24923 a 4.4999999,4.4999999 0 0 0 4.5,-4.499991 v -11.124621 a 4.4999999,4.4999999 0 0 0 -4.5,-4.5 z"
             id="path20-7" /></g></g></g></g></svg>
