<svg width="500" height="500" xmlns="http://www.w3.org/2000/svg">
<g transform="translate(50 50) rotate(0)  ">
<circle r="28.20948" fill="#870707FF"  stroke-width="0"  />
</g>
<g transform="translate(150 50) rotate(0)  ">
<path fill="#0C4EEDFF"  stroke-width="0" d="M-25 -20L -25 45A 5 5 0 0 0 -21.464466 46.464466L 46.464466 -21.464466A 5 5 0 0 0 45 -25L -20 -25A 5 5 0 0 0 -25 -20z"  />
</g>
<g transform="translate(250 50) rotate(0)  ">
<path fill="#4A5B33FF"  stroke-width="0" d="M-45 12.5L 45 12.5A 5 5 0 0 0 50 7.5L 50 -7.5A 5 5 0 0 0 45 -12.5L -45 -12.5A 5 5 0 0 0 -50 -7.5L -50 7.5A 5 5 0 0 0 -45 12.5z"  />
</g>
<g transform="translate(350 50) rotate(0)  ">
<path fill="#9F5997FF"  stroke-width="0" d="M-20 25L 20 25A 5 5 0 0 0 25 20L 25 -20A 5 5 0 0 0 20 -25L -20 -25A 5 5 0 0 0 -25 -20L -25 20A 5 5 0 0 0 -20 25z"  />
</g>
<g transform="translate(450 50) rotate(0)  ">
<path fill="#078772FF"  stroke-width="0" d="M-32.5 18.75L 32.5 18.75A 5 5 0 0 0 37.5 13.75L 37.5 -1.25A 5 5 0 0 0 32.5 -6.25L 17.5 -6.25A 5 5 0 0 1 12.5 -11.25L 12.5 -26.25A 5 5 0 0 0 7.5 -31.25L -7.5 -31.25A 5 5 0 0 0 -12.5 -26.25L -12.5 -11.25A 5 5 0 0 1 -17.5 -6.25L -32.5 -6.25A 5 5 0 0 0 -37.5 -1.25L -37.5 13.75A 5 5 0 0 0 -32.5 18.75z"  />
</g>
<g transform="translate(50 150) rotate(0)  ">
<path fill="#ED860CFF"  stroke-width="0" d="M-38.75 18.75L 26.25 18.75A 5 5 0 0 0 31.25 13.75L 31.25 -26.25A 5 5 0 0 0 26.25 -31.25L 11.25 -31.25A 5 5 0 0 0 6.25 -26.25L 6.25 -11.25A 5 5 0 0 1 1.25 -6.25L -38.75 -6.25A 5 5 0 0 0 -43.75 -1.25L -43.75 13.75A 5 5 0 0 0 -38.75 18.75z"  />
</g>
<g transform="translate(150 150) rotate(0)  ">
<path fill="#3D335BFF"  stroke-width="0" d="M-38.75 6.25L 1.25 6.25A 5 5 0 0 1 6.25 11.25L 6.25 26.25A 5 5 0 0 0 11.25 31.25L 26.25 31.25A 5 5 0 0 0 31.25 26.25L 31.25 -13.75A 5 5 0 0 0 26.25 -18.75L -38.75 -18.75A 5 5 0 0 0 -43.75 -13.75L -43.75 1.25A 5 5 0 0 0 -38.75 6.25z"  />
</g>
<g transform="translate(250 150) rotate(0)  ">
<path fill="#5C9F59FF"  stroke-width="0" d="M-32.5 0L -17.5 0A 5 5 0 0 1 -12.5 5L -12.5 20A 5 5 0 0 0 -7.5 25L 32.5 25A 5 5 0 0 0 37.5 20L 37.5 5A 5 5 0 0 0 32.5 0L 17.5 0A 5 5 0 0 1 12.5 -5L 12.5 -20A 5 5 0 0 0 7.5 -25L -32.5 -25A 5 5 0 0 0 -37.5 -20L -37.5 -5A 5 5 0 0 0 -32.5 0z"  />
</g>
<g transform="translate(350 150) rotate(0)  ">
<path fill="#870732FF"  stroke-width="0" d="M-32.5 25L 7.5 25A 5 5 0 0 0 12.5 20L 12.5 5A 5 5 0 0 1 17.5 0L 32.5 0A 5 5 0 0 0 37.5 -5L 37.5 -20A 5 5 0 0 0 32.5 -25L -7.5 -25A 5 5 0 0 0 -12.5 -20L -12.5 -5A 5 5 0 0 1 -17.5 0L -32.5 0A 5 5 0 0 0 -37.5 5L -37.5 20A 5 5 0 0 0 -32.5 25z"  />
</g>
<g transform="translate(450 150) rotate(0)  ">
<path fill="#0C99EDFF"  stroke-width="0" d="M-28.54102 6.7082024L -16.18034 6.7082024A 5 5 0 0 1 -11.18034 11.708202L -11.18034 24.068882A 5 5 0 0 0 -6.18034 29.068882L 28.54102 29.068882A 5 5 0 0 0 33.54102 24.068882L 33.54102 11.708202A 5 5 0 0 0 28.54102 6.7082024L 16.18034 6.7082024A 5 5 0 0 1 11.18034 1.7082024L 11.18034 -33.013157A 5 5 0 0 0 6.18034 -38.013157L -6.18034 -38.013157A 5 5 0 0 0 -11.18034 -33.013157L -11.18034 -20.652477A 5 5 0 0 1 -16.18034 -15.652477L -28.54102 -15.652477A 5 5 0 0 0 -33.54102 -10.652477L -33.54102 1.7082024A 5 5 0 0 0 -28.54102 6.7082024z"  />
</g>
<g transform="translate(50 250) rotate(0)  ">
<path fill="#585B33FF"  stroke-width="0" d="M-50.9017 11.18034L 50.9017 11.18034A 5 5 0 0 0 55.9017 6.18034L 55.9017 -6.18034A 5 5 0 0 0 50.9017 -11.18034L -50.9017 -11.18034A 5 5 0 0 0 -55.9017 -6.18034L -55.9017 6.18034A 5 5 0 0 0 -50.9017 11.18034z"  />
</g>
<g transform="translate(150 250) rotate(0)  ">
<path fill="#91599FFF"  stroke-width="0" d="M-46.42956 6.7082024L 10.652477 6.7082024A 5 5 0 0 1 15.652477 11.708202L 15.652477 24.068882A 5 5 0 0 0 20.652477 29.068882L 33.013157 29.068882A 5 5 0 0 0 38.013157 24.068882L 38.013157 -10.652477A 5 5 0 0 0 33.013157 -15.652477L -46.42956 -15.652477A 5 5 0 0 0 -51.42956 -10.652477L -51.42956 1.7082024A 5 5 0 0 0 -46.42956 6.7082024z"  />
</g>
<g transform="translate(250 250) rotate(0)  ">
<path fill="#078747FF"  stroke-width="0" d="M-37.48529 24.596748L -2.7639313 24.596748A 5 5 0 0 0 2.2360687 19.596748L 2.2360687 7.2360687A 5 5 0 0 1 7.2360687 2.2360687L 41.957428 2.2360687A 5 5 0 0 0 46.957428 -2.7639313L 46.957428 -15.124611A 5 5 0 0 0 41.957428 -20.12461L -15.124611 -20.12461A 5 5 0 0 0 -20.12461 -15.124611L -20.12461 -2.7639313A 5 5 0 0 1 -25.12461 2.2360687L -37.48529 2.2360687A 5 5 0 0 0 -42.48529 7.2360687L -42.48529 19.596748A 5 5 0 0 0 -37.48529 24.596748z"  />
</g>
<g transform="translate(350 250) rotate(0)  ">
<path fill="#ED3A0CFF"  stroke-width="0" d="M-15.124611 29.068882L 19.596748 29.068882A 5 5 0 0 0 24.596748 24.068882L 24.596748 -10.652477A 5 5 0 0 0 19.596748 -15.652477L 7.2360687 -15.652477A 5 5 0 0 1 2.2360687 -20.652477L 2.2360687 -33.013157A 5 5 0 0 0 -2.7639313 -38.013157L -15.124611 -38.013157A 5 5 0 0 0 -20.12461 -33.013157L -20.12461 24.068882A 5 5 0 0 0 -15.124611 29.068882z"  />
</g>
<g transform="translate(450 250) rotate(0)  ">
<path fill="#33365BFF"  stroke-width="0" d="M-28.54102 24.596748L 28.54102 24.596748A 5 5 0 0 0 33.54102 19.596748L 33.54102 7.2360687A 5 5 0 0 0 28.54102 2.2360687L 16.18034 2.2360687A 5 5 0 0 1 11.18034 -2.7639313L 11.18034 -37.48529A 5 5 0 0 0 6.18034 -42.48529L -6.18034 -42.48529A 5 5 0 0 0 -11.18034 -37.48529L -11.18034 -2.7639313A 5 5 0 0 1 -16.18034 2.2360687L -28.54102 2.2360687A 5 5 0 0 0 -33.54102 7.2360687L -33.54102 19.596748A 5 5 0 0 0 -28.54102 24.596748z"  />
</g>
<g transform="translate(50 350) rotate(0)  ">
<path fill="#749F59FF"  stroke-width="0" d="M-28.54102 24.596748L -16.18034 24.596748A 5 5 0 0 0 -11.18034 19.596748L -11.18034 7.2360687A 5 5 0 0 1 -6.18034 2.2360687L 6.18034 2.2360687A 5 5 0 0 1 11.18034 7.2360687L 11.18034 19.596748A 5 5 0 0 0 16.18034 24.596748L 28.54102 24.596748A 5 5 0 0 0 33.54102 19.596748L 33.54102 -15.124611A 5 5 0 0 0 28.54102 -20.12461L -28.54102 -20.12461A 5 5 0 0 0 -33.54102 -15.124611L -33.54102 19.596748A 5 5 0 0 0 -28.54102 24.596748z"  />
</g>
<g transform="translate(150 350) rotate(0)  ">
<path fill="#87075DFF"  stroke-width="0" d="M-37.48529 -2.2360687L -2.7639313 -2.2360687A 5 5 0 0 1 2.2360687 2.7639313L 2.2360687 37.48529A 5 5 0 0 0 7.2360687 42.48529L 19.596748 42.48529A 5 5 0 0 0 24.596748 37.48529L 24.596748 -19.596748A 5 5 0 0 0 19.596748 -24.596748L -37.48529 -24.596748A 5 5 0 0 0 -42.48529 -19.596748L -42.48529 -7.2360687A 5 5 0 0 0 -37.48529 -2.2360687z"  />
</g>
<g transform="translate(250 350) rotate(0)  ">
<path fill="#0CE4EDFF"  stroke-width="0" d="M-33.013157 -6.7082024L -20.652477 -6.7082024A 5 5 0 0 1 -15.652477 -1.7082024L -15.652477 10.652477A 5 5 0 0 0 -10.652477 15.652477L 1.7082024 15.652477A 5 5 0 0 1 6.7082024 20.652477L 6.7082024 33.013157A 5 5 0 0 0 11.708202 38.013157L 24.068882 38.013157A 5 5 0 0 0 29.068882 33.013157L 29.068882 -1.7082024A 5 5 0 0 0 24.068882 -6.7082024L 11.708202 -6.7082024A 5 5 0 0 1 6.7082024 -11.708202L 6.7082024 -24.068882A 5 5 0 0 0 1.7082024 -29.068882L -33.013157 -29.068882A 5 5 0 0 0 -38.013157 -24.068882L -38.013157 -11.708202A 5 5 0 0 0 -33.013157 -6.7082024z"  />
</g>
<g transform="translate(350 350) rotate(0)  ">
<path fill="#5B5133FF"  stroke-width="0" d="M-28.54102 11.18034L -16.18034 11.18034A 5 5 0 0 1 -11.18034 16.18034L -11.18034 28.54102A 5 5 0 0 0 -6.18034 33.54102L 6.18034 33.54102A 5 5 0 0 0 11.18034 28.54102L 11.18034 16.18034A 5 5 0 0 1 16.18034 11.18034L 28.54102 11.18034A 5 5 0 0 0 33.54102 6.18034L 33.54102 -6.18034A 5 5 0 0 0 28.54102 -11.18034L 16.18034 -11.18034A 5 5 0 0 1 11.18034 -16.18034L 11.18034 -28.54102A 5 5 0 0 0 6.18034 -33.54102L -6.18034 -33.54102A 5 5 0 0 0 -11.18034 -28.54102L -11.18034 -16.18034A 5 5 0 0 1 -16.18034 -11.18034L -28.54102 -11.18034A 5 5 0 0 0 -33.54102 -6.18034L -33.54102 6.18034A 5 5 0 0 0 -28.54102 11.18034z"  />
</g>
<g transform="translate(450 350) rotate(0)  ">
<path fill="#79599FFF"  stroke-width="0" d="M-41.957424 6.7082024L -7.236065 6.7082024A 5 5 0 0 1 -2.236065 11.708202L -2.236065 24.068882A 5 5 0 0 0 2.763935 29.068882L 15.124615 29.068882A 5 5 0 0 0 20.124615 24.068882L 20.124615 11.708202A 5 5 0 0 1 25.124615 6.7082024L 37.485294 6.7082024A 5 5 0 0 0 42.485294 1.7082024L 42.485294 -10.652477A 5 5 0 0 0 37.485294 -15.652477L -41.957424 -15.652477A 5 5 0 0 0 -46.957424 -10.652477L -46.957424 1.7082024A 5 5 0 0 0 -41.957424 6.7082024z"  />
</g>
<g transform="translate(50 450) rotate(0)  ">
<path fill="#07871CFF"  stroke-width="0" d="M-28.54102 -11.18034L -16.18034 -11.18034A 5 5 0 0 1 -11.18034 -6.18034L -11.18034 28.54102A 5 5 0 0 0 -6.18034 33.54102L 28.54102 33.54102A 5 5 0 0 0 33.54102 28.54102L 33.54102 16.18034A 5 5 0 0 0 28.54102 11.18034L 16.18034 11.18034A 5 5 0 0 1 11.18034 6.18034L 11.18034 -28.54102A 5 5 0 0 0 6.18034 -33.54102L -28.54102 -33.54102A 5 5 0 0 0 -33.54102 -28.54102L -33.54102 -16.18034A 5 5 0 0 0 -28.54102 -11.18034z"  />
</g></svg>