<svg
        viewbox = "0 0 1024 1024"
        xmlns="http://www.w3.org/2000/svg" fill="#85ADE9FF">
        <g transform="translate(512 512) scale(1,-1) ">
        

<g transform="translate(24.975952 -100.007324) rotate(45)  ">
<path fill="#000000FF" stroke="#E985DCFF" stroke-width="1" d="M-28.54102 -11.18034L -16.18034 -11.18034A 5 5 0 0 0 -11.18034 -16.18034L -11.18034 -28.54102A 5 5 0 0 1 -6.18034 -33.54102L 6.18034 -33.54102A 5 5 0 0 1 11.18034 -28.54102L 11.18034 -16.18034A 5 5 0 0 0 16.18034 -11.18034L 28.54102 -11.18034A 5 5 0 0 1 33.54102 -6.18034L 33.54102 6.18034A 5 5 0 0 1 28.54102 11.18034L 16.18034 11.18034A 5 5 0 0 0 11.18034 16.18034L 11.18034 28.54102A 5 5 0 0 1 6.18034 33.54102L -6.18034 33.54102A 5 5 0 0 1 -11.18034 28.54102L -11.18034 16.18034A 5 5 0 0 0 -16.18034 11.18034L -28.54102 11.18034A 5 5 0 0 1 -33.54102 6.18034L -33.54102 -6.18034A 5 5 0 0 1 -28.54102 -11.18034z"  />
</g>
<g transform="translate(-0.0146484375 -150.00687) rotate(0)  ">
<path fill="#FFFFFFFF" stroke="#000000FF" stroke-width="1" d="M-50.9017 -11.18034L 50.9017 -11.18034A 5 5 0 0 1 55.9017 -6.18034L 55.9017 6.18034A 5 5 0 0 1 50.9017 11.18034L -50.9017 11.18034A 5 5 0 0 1 -55.9017 6.18034L -55.9017 -6.18034A 5 5 0 0 1 -50.9017 -11.18034z"  />
</g>
<g transform="translate(-38.80426 -105.61044) rotate(178.50002)  ">
<path fill="#07871CFF"  stroke-width="0" d="M-28.54102 -33.54102L 6.18034 -33.54102A 5 5 0 0 1 11.18034 -28.54102L 11.18034 6.18034A 5 5 0 0 0 16.18034 11.18034L 28.54102 11.18034A 5 5 0 0 1 33.54102 16.18034L 33.54102 28.54102A 5 5 0 0 1 28.54102 33.54102L -6.18034 33.54102A 5 5 0 0 1 -11.18034 28.54102L -11.18034 -6.18034A 5 5 0 0 0 -16.18034 -11.18034L -28.54102 -11.18034A 5 5 0 0 1 -33.54102 -16.18034L -33.54102 -28.54102A 5 5 0 0 1 -28.54102 -33.54102z"  />
</g>
<g transform="translate(-18.647766 -8.594177) rotate(177.00002)  ">
<path fill="#33365BFF"  stroke-width="0" d="M-28.54102 -24.596748L 28.54102 -24.596748A 5 5 0 0 1 33.54102 -19.596748L 33.54102 -7.2360687A 5 5 0 0 1 28.54102 -2.2360685L 16.18034 -2.2360685A 5 5 0 0 0 11.18034 2.7639315L 11.18034 37.48529A 5 5 0 0 1 6.18034 42.48529L -6.18034 42.48529A 5 5 0 0 1 -11.18034 37.48529L -11.18034 2.7639315A 5 5 0 0 0 -16.18034 -2.2360685L -28.54102 -2.2360685A 5 5 0 0 1 -33.54102 -7.2360687L -33.54102 -19.596748A 5 5 0 0 1 -28.54102 -24.596748z"  />
</g>
<g transform="translate(-42.232056 -43.21811) rotate(358.5)  ">
<path fill="#0C99EDFF"  stroke-width="0" d="M-28.54102 -6.708203L -16.18034 -6.708203A 5 5 0 0 0 -11.18034 -11.708202L -11.18034 -24.068882A 5 5 0 0 1 -6.18034 -29.068882L 28.54102 -29.068882A 5 5 0 0 1 33.54102 -24.068882L 33.54102 -11.708202A 5 5 0 0 1 28.54102 -6.708203L 16.18034 -6.708203A 5 5 0 0 0 11.18034 -1.7082028L 11.18034 33.013157A 5 5 0 0 1 6.18034 38.013157L -6.18034 38.013157A 5 5 0 0 1 -11.18034 33.013157L -11.18034 20.652477A 5 5 0 0 0 -16.18034 15.652477L -28.54102 15.652477A 5 5 0 0 1 -33.54102 10.652477L -33.54102 -1.7082028A 5 5 0 0 1 -28.54102 -6.708203z"  />
</g>
<g transform="translate(-32.739746 36.477905) rotate(178.50002)  ">
<path fill="#078747FF"  stroke-width="0" d="M-37.48529 -24.596748L -2.7639315 -24.596748A 5 5 0 0 1 2.2360685 -19.596748L 2.2360685 -7.2360687A 5 5 0 0 0 7.2360687 -2.2360685L 41.957424 -2.2360685A 5 5 0 0 1 46.957424 2.7639315L 46.957424 15.124611A 5 5 0 0 1 41.957424 20.12461L -15.124611 20.12461A 5 5 0 0 1 -20.12461 15.124611L -20.12461 2.7639315A 5 5 0 0 0 -25.12461 -2.2360685L -37.48529 -2.2360685A 5 5 0 0 1 -42.48529 -7.2360687L -42.48529 -19.596748A 5 5 0 0 1 -37.48529 -24.596748z"  />
</g>
        </g>
        </svg>