<svg
        viewbox = "0 0 1024 1024"
        xmlns="http://www.w3.org/2000/svg" fill="#85ADE9FF">
        <g transform="translate(512 512) scale(1,-1) ">
        

<g transform="translate(-88.111694 -197.12244) rotate(25.500002)  ">
<path d="M-41.957424 -6.7082043L -7.2360682 -6.7082043A 5 5 0 0 0 -2.2360678 -11.708204L -2.2360678 -24.068882A 5 5 0 0 1 2.7639318 -29.068882L 15.124611 -29.068882A 5 5 0 0 1 20.12461 -24.068882L 20.12461 -11.708204A 5 5 0 0 0 25.12461 -6.708204L 37.48529 -6.708204A 5 5 0 0 1 42.48529 -1.708204L 42.48529 10.652475A 5 5 0 0 1 37.48529 15.652475L -41.957424 15.652475A 5 5 0 0 1 -46.957424 10.652475L -46.957424 -1.708204A 5 5 0 0 1 -41.957424 -6.7082043z" fill="#79599FFF" />
</g>
<g transform="translate(-106.48108 -246.99014) rotate(270)  ">
<path d="M-25 -20L -25 45A 5 5 0 0 0 -21.464464 46.464462L 46.464462 -21.464464A 5 5 0 0 0 45 -25L -20 -25A 5 5 0 0 0 -25 -20z" fill="#0C4EEDFF" />
</g>
<g transform="translate(-71.96887 -159.77936) rotate(295.50003)  ">
<path d="M-28.54102 -33.54102L 6.18034 -33.54102A 5 5 0 0 1 11.18034 -28.54102L 11.18034 6.18034A 5 5 0 0 0 16.18034 11.18034L 28.54102 11.18034A 5 5 0 0 1 33.54102 16.18034L 33.54102 28.54102A 5 5 0 0 1 28.54102 33.54102L -6.18034 33.54102A 5 5 0 0 1 -11.18034 28.54102L -11.18034 -6.18034A 5 5 0 0 0 -16.18034 -11.18034L -28.54102 -11.18034A 5 5 0 0 1 -33.54102 -16.18034L -33.54102 -28.54102A 5 5 0 0 1 -28.54102 -33.54102z" fill="#07871CFF" />
</g>
<g transform="translate(-75.68964 -118.36575) rotate(40.500004)  ">
<circle r="28.20948" fill="#870707FF" stroke-width="0" />
</g>
        </g>
        </svg>