<svg
        viewbox = "0 0 1024 1024"
        xmlns="http://www.w3.org/2000/svg" fill="#85ADE9FF">
        <g transform="translate(512 512) scale(1,-1) ">
        

<g transform="translate(-88.111694 -197.12244) rotate(25.500002)  ">
<path d="M-41.957424 -6.708203L -7.236066 -6.708203A 5 5 0 0 0 -2.2360659 -11.708202L -2.2360659 -24.068882A 5 5 0 0 1 2.7639341 -29.068882L 15.124615 -29.068882A 5 5 0 0 1 20.124615 -24.068882L 20.124615 -11.708202A 5 5 0 0 0 25.124615 -6.708203L 37.485294 -6.708203A 5 5 0 0 1 42.485294 -1.7082028L 42.485294 10.652477A 5 5 0 0 1 37.485294 15.652477L -41.957424 15.652477A 5 5 0 0 1 -46.957424 10.652477L -46.957424 -1.7082028A 5 5 0 0 1 -41.957424 -6.708203z" fill="#79599FFF" />
</g>
<g transform="translate(-106.48108 -246.99014) rotate(270)  ">
<path d="M-25 -20L -25 45A 5 5 0 0 0 -21.464466 46.464466L 46.464466 -21.464466A 5 5 0 0 0 45 -25L -20 -25A 5 5 0 0 0 -25 -20z" fill="#0C4EEDFF" />
</g>
<g transform="translate(-71.96887 -159.77936) rotate(295.50003)  ">
<path d="M-28.54102 -33.54102L 6.18034 -33.54102A 5 5 0 0 1 11.18034 -28.54102L 11.18034 6.18034A 5 5 0 0 0 16.18034 11.18034L 28.54102 11.18034A 5 5 0 0 1 33.54102 16.18034L 33.54102 28.54102A 5 5 0 0 1 28.54102 33.54102L -6.18034 33.54102A 5 5 0 0 1 -11.18034 28.54102L -11.18034 -6.18034A 5 5 0 0 0 -16.18034 -11.18034L -28.54102 -11.18034A 5 5 0 0 1 -33.54102 -16.18034L -33.54102 -28.54102A 5 5 0 0 1 -28.54102 -33.54102z" fill="#07871CFF" />
</g>
<g transform="translate(-75.68964 -118.36575) rotate(40.500004)  ">
<circle r="28.20948" fill="#870707FF" stroke-width="0" />
</g>
        </g>
        </svg>