<svg
        viewbox = "0 0 1024 1024"
        xmlns="http://www.w3.org/2000/svg" fill="#85ADE9FF">
        <g transform="translate(512 512) scale(1,-1) ">
        

<g transform="translate(-19.140625 -254.875) rotate(180)  ">
<polygon points="-50,-12.5 50,-12.5 50,12.5 -50,12.5" fill="#4A5B33FF" />
</g>
<g transform="translate(2.5683594 -205.5) rotate(268.5)  ">
<polygon points="-31.25,6.25 -6.25,6.25 -6.25,-43.75 18.75,-43.75 18.75,31.25 -31.25,31.25" fill="#ED860CFF" />
</g>
<g transform="translate(-26.59375 -227.25) rotate(88.50001)  ">
<polygon points="-15.652475,-51.42956 6.7082043,-51.42956 6.7082043,15.652475 29.068882,15.652475 29.068882,38.013157 -15.652475,38.013157" fill="#91599FFF" />
</g>
<g transform="translate(-25.625 -174.25) rotate(177.00002)  ">
<polygon points="-25,-25 25,-25 25,25 -25,25" fill="#9F5997FF" />
</g>
<g transform="translate(6.2148438 -145.375) rotate(357.00003)  ">
<polygon points="-46.957424,-6.7082043 -2.2360678,-6.7082043 -2.2360678,-29.068882 20.12461,-29.068882 20.12461,-6.7082043 42.48529,-6.7082043 42.48529,15.652475 -46.957424,15.652475" fill="#79599FFF" />
</g>
<g transform="translate(-5.3007813 -111.5625) rotate(270)  ">
<polygon points="-31.25,6.25 -6.25,6.25 -6.25,-43.75 18.75,-43.75 18.75,31.25 -31.25,31.25" fill="#ED860CFF" />
</g>
<g transform="translate(34.28125 -87.625) rotate(357.00003)  ">
<polygon points="-31.25,6.25 -6.25,6.25 -6.25,-43.75 18.75,-43.75 18.75,31.25 -31.25,31.25" fill="#ED860CFF" />
</g>
<g transform="translate(-24.78125 -80.9375) rotate(181.50002)  ">
<polygon points="-25,-25 25,-25 25,25 -25,25" fill="#9F5997FF" />
</g>
<g transform="translate(-11.9375 -35.84375) rotate(181.50002)  ">
<polygon points="-33.54102,-24.596748 -11.18034,-24.596748 -11.18034,-2.2360678 11.18034,-2.2360678 11.18034,-24.596748 33.54102,-24.596748 33.54102,20.12461 -33.54102,20.12461" fill="#749F59FF" />
</g>
<g transform="translate(-35.4375 -1.2226563) rotate(91.50001)  ">
<polygon points="-33.54102,-33.54102 11.18034,-33.54102 11.18034,11.18034 33.54102,11.18034 33.54102,33.54102 -11.18034,33.54102 -11.18034,-11.18034 -33.54102,-11.18034" fill="#07871CFF" />
</g>
<g transform="translate(498.75 -473) rotate(270)  ">
<polygon points="-42.48529,2.2360685 2.2360685,2.2360685 2.2360685,-42.48529 24.596748,-42.48529 24.596748,24.596748 -42.48529,24.596748" fill="#87075DFF" />
</g>
<g transform="translate(-458.25 -482) rotate(90)  ">
<polygon points="-15.652475,-51.42956 6.7082043,-51.42956 6.7082043,15.652475 29.068882,15.652475 29.068882,38.013157 -15.652475,38.013157" fill="#91599FFF" />
</g>
<g transform="translate(-9.234375 35.5) rotate(91.50001)  ">
<polygon points="-25,-25 25,-25 25,25 -25,25" fill="#9F5997FF" />
</g>
        </g>
        </svg>