<svg
        viewbox = "0 0 1024 1024"
        xmlns="http://www.w3.org/2000/svg" fill="#85ADE9FF">
        <g transform="translate(512 512) scale(1,-1) ">
        

<g transform="translate(15.796875 -234.5) rotate(180)  ">
<polygon points="-37.5,-25 12.5,-25 12.5,0 37.5,0 37.5,25 -12.5,25 -12.5,0 -37.5,0" fill="#870732FF" />
</g>
<g transform="translate(52.375 -271.5) rotate(268.5)  ">
<polygon points="-37.5,-25 12.5,-25 12.5,0 37.5,0 37.5,25 -12.5,25 -12.5,0 -37.5,0" fill="#870732FF" />
</g>
<g transform="translate(23.4375 -174.875) rotate(282.00003)  ">
<polygon points="-37.5,-25 12.5,-25 12.5,0 37.5,0 37.5,25 -12.5,25 -12.5,0 -37.5,0" fill="#870732FF" />
</g>
<g transform="translate(-27.171875 -265.75) rotate(180)  ">
<polygon points="-46.957424,-6.7082043 -2.2360678,-6.7082043 -2.2360678,-29.068882 20.12461,-29.068882 20.12461,-6.7082043 42.48529,-6.7082043 42.48529,15.652475 -46.957424,15.652475" fill="#79599FFF" />
</g>
<g transform="translate(-38.0625 -144.875) rotate(97.5)  ">
<polygon points="-20.12461,-29.068882 24.596748,-29.068882 24.596748,15.652475 2.2360685,15.652475 2.2360685,38.013157 -20.12461,38.013157" fill="#ED3A0CFF" />
</g>
<g transform="translate(20.65625 -124.8125) rotate(102.00001)  ">
<polygon points="-37.5,-18.75 37.5,-18.75 37.5,6.25 12.5,6.25 12.5,31.25 -12.5,31.25 -12.5,6.25 -37.5,6.25" fill="#078772FF" />
</g>
<g transform="translate(-52.15625 -225.75) rotate(273)  ">
<polygon points="-33.54102,-24.596748 33.54102,-24.596748 33.54102,-2.2360678 11.18034,-2.2360678 11.18034,42.48529 -11.18034,42.48529 -11.18034,-2.2360678 -33.54102,-2.2360678" fill="#33365BFF" />
</g>
<g transform="translate(-29.828125 -188.75) rotate(6)  ">
<polygon points="-25,-25 25,-25 25,25 -25,25" fill="#9F5997FF" />
</g>
<g transform="translate(-3.9238281 -294.25) rotate(358.5)  ">
<polygon points="-50,-12.5 50,-12.5 50,12.5 -50,12.5" fill="#4A5B33FF" />
</g>
<g transform="translate(-23.8125 -93.75) rotate(96)  ">
<polygon points="-25,-25 -25,50 50,-25" fill="#0C4EEDFF" />
</g>
<g transform="translate(-7.1601563 -34.71875) rotate(229.50002)  ">
<polygon points="-38.013157,6.7082043 -15.652475,6.7082043 -15.652475,-15.652475 6.7082043,-15.652475 6.7082043,-38.013157 29.068882,-38.013157 29.068882,6.7082043 6.7082043,6.7082043 6.7082043,29.068882 -38.013157,29.068882" fill="#0CE4EDFF" />
</g>
<g transform="translate(-79.8125 162.125) rotate(34.5)  ">
<polygon points="-15.652475,-51.42956 6.7082043,-51.42956 6.7082043,15.652475 29.068882,15.652475 29.068882,38.013157 -15.652475,38.013157" fill="#91599FFF" />
</g>
        </g>
        </svg>