<svg
        viewbox = "0 0 1024 1024"
        xmlns="http://www.w3.org/2000/svg" fill="#85ADE9FF">
        <g transform="translate(512 512) scale(1,-1) ">
        

<g transform="translate(-20.393677 -153.73767) rotate(315.00003)  ">
<polygon points="-37.5,0 -12.5,0 -12.5,-25 37.5,-25 37.5,0 12.5,0 12.5,25 -37.5,25" fill="#5C9F59FF" />
</g>
<g transform="translate(-17.36139 -107.096375) rotate(226.5)  ">
<polygon points="-33.54102,-6.7082043 -11.18034,-6.7082043 -11.18034,-29.068882 33.54102,-29.068882 33.54102,-6.7082043 11.18034,-6.7082043 11.18034,38.013157 -11.18034,38.013157 -11.18034,15.652475 -33.54102,15.652475" fill="#0C99EDFF" />
</g>
<g transform="translate(-24.085144 -200.81854) rotate(45)  ">
<polygon points="-33.54102,-6.7082043 -11.18034,-6.7082043 -11.18034,-29.068882 33.54102,-29.068882 33.54102,-6.7082043 11.18034,-6.7082043 11.18034,38.013157 -11.18034,38.013157 -11.18034,15.652475 -33.54102,15.652475" fill="#0C99EDFF" />
</g>
<g transform="translate(-33.857635 -64.29297) rotate(240.00002)  ">
<polygon points="-37.5,-18.75 37.5,-18.75 37.5,6.25 12.5,6.25 12.5,31.25 -12.5,31.25 -12.5,6.25 -37.5,6.25" fill="#078772FF" />
</g>
<g transform="translate(-44.750732 -32.79834) rotate(330.00003)  ">
<polygon points="-15.652475,-51.42956 6.7082043,-51.42956 6.7082043,15.652475 29.068882,15.652475 29.068882,38.013157 -15.652475,38.013157" fill="#91599FFF" />
</g>
<g transform="translate(98.7713 -431.24194) rotate(270)  ">
<polygon points="-25,-25 25,-25 25,25 -25,25" fill="#9F5997FF" />
</g>
        </g>
        </svg>