<svg
        viewbox = "0 0 1024 1024"
        xmlns="http://www.w3.org/2000/svg" fill="#85ADE9FF">
        <g transform="translate(512 512) scale(1,-1) ">
        

<g transform="translate(-44.22339 -142.42896) rotate(1.5)  ">
<path d="M-32.5 -25L 7.5 -25A 5 5 0 0 1 12.5 -20L 12.5 -5A 5 5 0 0 0 17.5 0L 32.5 0A 5 5 0 0 1 37.5 5L 37.5 20A 5 5 0 0 1 32.5 25L -7.5 25A 5 5 0 0 1 -12.5 20L -12.5 5A 5 5 0 0 0 -17.5 0L -32.5 0A 5 5 0 0 1 -37.5 -5L -37.5 -20A 5 5 0 0 1 -32.5 -25z" fill="#870732FF" />
</g>
<g transform="translate(1.0794067 -69.56653) rotate(355.5)  ">
<path d="M-32.5 -25L 7.5 -25A 5 5 0 0 1 12.5 -20L 12.5 -5A 5 5 0 0 0 17.5 0L 32.5 0A 5 5 0 0 1 37.5 5L 37.5 20A 5 5 0 0 1 32.5 25L -7.5 25A 5 5 0 0 1 -12.5 20L -12.5 5A 5 5 0 0 0 -17.5 0L -32.5 0A 5 5 0 0 1 -37.5 -5L -37.5 -20A 5 5 0 0 1 -32.5 -25z" fill="#870732FF" />
</g>
<g transform="translate(13.538086 -204.71509) rotate(360)  ">
<path d="M-45 -12.5L 45 -12.5A 5 5 0 0 1 50 -7.5L 50 7.5A 5 5 0 0 1 45 12.5L -45 12.5A 5 5 0 0 1 -50 7.5L -50 -7.5A 5 5 0 0 1 -45 -12.5z" fill="#4A5B33FF" />
</g>
<g transform="translate(-3.633789 -234.2467) rotate(45)  ">
<path d="M-25 -20L -25 45A 5 5 0 0 0 -21.464464 46.464462L 46.464462 -21.464464A 5 5 0 0 0 45 -25L -20 -25A 5 5 0 0 0 -25 -20z" fill="#0C4EEDFF" />
</g>
<g transform="translate(31.649353 -173.98212) rotate(177.00002)  ">
<path d="M-28.54102 -24.596748L -16.18034 -24.596748A 5 5 0 0 1 -11.18034 -19.596748L -11.18034 -7.236068A 5 5 0 0 0 -6.18034 -2.2360678L 6.18034 -2.2360678A 5 5 0 0 0 11.18034 -7.236068L 11.18034 -19.596748A 5 5 0 0 1 16.18034 -24.596748L 28.54102 -24.596748A 5 5 0 0 1 33.54102 -19.596748L 33.54102 15.124611A 5 5 0 0 1 28.54102 20.12461L -28.54102 20.12461A 5 5 0 0 1 -33.54102 15.124611L -33.54102 -19.596748A 5 5 0 0 1 -28.54102 -24.596748z" fill="#749F59FF" />
</g>
<g transform="translate(-49.71115 -98.805176) rotate(1.5)  ">
<path d="M-32.5 -18.75L 32.5 -18.75A 5 5 0 0 1 37.5 -13.75L 37.5 1.25A 5 5 0 0 1 32.5 6.25L 17.5 6.25A 5 5 0 0 0 12.5 11.25L 12.5 26.25A 5 5 0 0 1 7.5 31.25L -7.5 31.25A 5 5 0 0 1 -12.5 26.25L -12.5 11.25A 5 5 0 0 0 -17.5 6.25L -32.5 6.25A 5 5 0 0 1 -37.5 1.25L -37.5 -13.75A 5 5 0 0 1 -32.5 -18.75z" fill="#078772FF" />
</g>
<g transform="translate(36.444946 -97.223145) rotate(267)  ">
<path d="M-20 -25L 20 -25A 5 5 0 0 1 25 -20L 25 20A 5 5 0 0 1 20 25L -20 25A 5 5 0 0 1 -25 20L -25 -20A 5 5 0 0 1 -20 -25z" fill="#9F5997FF" />
</g>
<g transform="translate(32.802917 -140.466) rotate(177.00002)  ">
<path d="M-32.5 -18.75L 32.5 -18.75A 5 5 0 0 1 37.5 -13.75L 37.5 1.25A 5 5 0 0 1 32.5 6.25L 17.5 6.25A 5 5 0 0 0 12.5 11.25L 12.5 26.25A 5 5 0 0 1 7.5 31.25L -7.5 31.25A 5 5 0 0 1 -12.5 26.25L -12.5 11.25A 5 5 0 0 0 -17.5 6.25L -32.5 6.25A 5 5 0 0 1 -37.5 1.25L -37.5 -13.75A 5 5 0 0 1 -32.5 -18.75z" fill="#078772FF" />
</g>
<g transform="translate(-49.266174 -191.88281) rotate(181.50002)  ">
<path d="M-32.5 -25L 7.5 -25A 5 5 0 0 1 12.5 -20L 12.5 -5A 5 5 0 0 0 17.5 0L 32.5 0A 5 5 0 0 1 37.5 5L 37.5 20A 5 5 0 0 1 32.5 25L -7.5 25A 5 5 0 0 1 -12.5 20L -12.5 5A 5 5 0 0 0 -17.5 0L -32.5 0A 5 5 0 0 1 -37.5 -5L -37.5 -20A 5 5 0 0 1 -32.5 -25z" fill="#870732FF" />
</g>
<g transform="translate(1.0134888 -27.114685) rotate(220.50002)  ">
<path d="M-25 -20L -25 45A 5 5 0 0 0 -21.464464 46.464462L 46.464462 -21.464464A 5 5 0 0 0 45 -25L -20 -25A 5 5 0 0 0 -25 -20z" fill="#0C4EEDFF" />
</g>
        </g>
        </svg>