<svg
        viewbox = "0 0 1024 1024"
        xmlns="http://www.w3.org/2000/svg" fill="#85ADE9FF">
        <g transform="translate(512 512) scale(1,-1) ">
        

<g transform="translate(-45.10321 -154.95078) rotate(225.00002)  ">
<path fill="#5B5133FF"  stroke-width="0" d="M-28.54102 11.18034L -16.18034 11.18034A 5 5 0 0 1 -11.18034 16.18034L -11.18034 28.54102A 5 5 0 0 0 -6.18034 33.54102L 6.18034 33.54102A 5 5 0 0 0 11.18034 28.54102L 11.18034 16.18034A 5 5 0 0 1 16.18034 11.18034L 28.54102 11.18034A 5 5 0 0 0 33.54102 6.18034L 33.54102 -6.18034A 5 5 0 0 0 28.54102 -11.18034L 16.18034 -11.18034A 5 5 0 0 1 11.18034 -16.18034L 11.18034 -28.54102A 5 5 0 0 0 6.18034 -33.54102L -6.18034 -33.54102A 5 5 0 0 0 -11.18034 -28.54102L -11.18034 -16.18034A 5 5 0 0 1 -16.18034 -11.18034L -28.54102 -11.18034A 5 5 0 0 0 -33.54102 -6.18034L -33.54102 6.18034A 5 5 0 0 0 -28.54102 11.18034z"  />
</g>
<g transform="translate(-57.847534 -213.10782) rotate(180)  ">
<path fill="#0CE4EDFF"  stroke-width="0" d="M-33.013157 -6.7082024L -20.652477 -6.7082024A 5 5 0 0 1 -15.652477 -1.7082024L -15.652477 10.652477A 5 5 0 0 0 -10.652477 15.652477L 1.7082024 15.652477A 5 5 0 0 1 6.7082024 20.652477L 6.7082024 33.013157A 5 5 0 0 0 11.708202 38.013157L 24.068882 38.013157A 5 5 0 0 0 29.068882 33.013157L 29.068882 -1.7082024A 5 5 0 0 0 24.068882 -6.7082024L 11.708202 -6.7082024A 5 5 0 0 1 6.7082024 -11.708202L 6.7082024 -24.068882A 5 5 0 0 0 1.7082024 -29.068882L -33.013157 -29.068882A 5 5 0 0 0 -38.013157 -24.068882L -38.013157 -11.708202A 5 5 0 0 0 -33.013157 -6.7082024z"  />
</g>
<g transform="translate(-67.046936 -261.9208) rotate(270)  ">
<path fill="#33365BFF"  stroke-width="0" d="M-28.54102 24.596748L 28.54102 24.596748A 5 5 0 0 0 33.54102 19.596748L 33.54102 7.2360687A 5 5 0 0 0 28.54102 2.2360687L 16.18034 2.2360687A 5 5 0 0 1 11.18034 -2.7639313L 11.18034 -37.48529A 5 5 0 0 0 6.18034 -42.48529L -6.18034 -42.48529A 5 5 0 0 0 -11.18034 -37.48529L -11.18034 -2.7639313A 5 5 0 0 1 -16.18034 2.2360687L -28.54102 2.2360687A 5 5 0 0 0 -33.54102 7.2360687L -33.54102 19.596748A 5 5 0 0 0 -28.54102 24.596748z"  />
</g>
<g transform="translate(-53.716614 -306.49854) rotate(270)  ">
<path fill="#07871CFF"  stroke-width="0" d="M-28.54102 -11.18034L -16.18034 -11.18034A 5 5 0 0 1 -11.18034 -6.18034L -11.18034 28.54102A 5 5 0 0 0 -6.18034 33.54102L 28.54102 33.54102A 5 5 0 0 0 33.54102 28.54102L 33.54102 16.18034A 5 5 0 0 0 28.54102 11.18034L 16.18034 11.18034A 5 5 0 0 1 11.18034 6.18034L 11.18034 -28.54102A 5 5 0 0 0 6.18034 -33.54102L -28.54102 -33.54102A 5 5 0 0 0 -33.54102 -28.54102L -33.54102 -16.18034A 5 5 0 0 0 -28.54102 -11.18034z"  />
</g>
        </g>
        </svg>