<?xml version="1.0" encoding="UTF-8" standalone="no"?>
<!-- Created with Inkscape (http://www.inkscape.org/) -->

<svg
   width="512"
   height="512"
   viewBox="0 0 135.46666 135.46667"
   version="1.1"
   id="svg1"
   inkscape:version="1.3 (0e150ed6c4, 2023-07-21)"
   sodipodi:docname="Infinity.svg"
   inkscape:export-filename="Infinity.png"
   inkscape:export-xdpi="96"
   inkscape:export-ydpi="96"
   xmlns:inkscape="http://www.inkscape.org/namespaces/inkscape"
   xmlns:sodipodi="http://sodipodi.sourceforge.net/DTD/sodipodi-0.dtd"
   xmlns="http://www.w3.org/2000/svg"
   xmlns:svg="http://www.w3.org/2000/svg">
  <sodipodi:namedview
     id="namedview1"
     pagecolor="#ffffff"
     bordercolor="#111111"
     borderopacity="1"
     inkscape:showpageshadow="0"
     inkscape:pageopacity="0"
     inkscape:pagecheckerboard="1"
     inkscape:deskcolor="#d1d1d1"
     inkscape:document-units="mm"
     inkscape:zoom="6.5210438"
     inkscape:cx="75.601394"
     inkscape:cy="98.220473"
     inkscape:window-width="3200"
     inkscape:window-height="1711"
     inkscape:window-x="-9"
     inkscape:window-y="-9"
     inkscape:window-maximized="1"
     inkscape:current-layer="layer1" />
  <defs
     id="defs1" />
  <g
     inkscape:label="Layer 1"
     inkscape:groupmode="layer"
     id="layer1">
    <rect
       style="opacity:1;fill:#85acea;fill-opacity:1;stroke-width:5.29167;stroke-linecap:round;stroke-linejoin:round"
       id="rect1"
       width="135.46666"
       height="135.46666"
       x="0"
       y="0" />
    <g
       class=""
       transform="scale(0.26458333)"
       id="g2"
       style="fill:#3d4f70;fill-opacity:1">
      <path
         d="m 278.535,276.134 c 12.314,21.92 26.598,38.42 42.854,49.503 16.5,10.837 35.094,16.255 55.782,16.255 24.874,0 45.193,-8.25 60.955,-24.752 15.762,-16.747 23.643,-38.05 23.644,-63.91 0,-24.875 -7.265,-45.563 -21.795,-62.064 -14.532,-16.5 -32.757,-24.752 -54.676,-24.752 -19.95,0 -38.052,8.25 -54.306,24.752 -16.01,16.255 -33.495,44.577 -52.46,84.968 m -45.07,-39.53 c -12.067,-21.672 -26.352,-37.926 -42.853,-48.763 -16.254,-10.835 -34.848,-16.254 -55.782,-16.254 -24.875,0 -45.193,8.25 -60.955,24.752 C 58.11,212.593 50.23,233.65 50.23,259.51 c 0,24.875 7.265,45.562 21.795,62.063 14.53,16.5 32.756,24.752 54.676,24.752 19.95,0 37.928,-8.127 53.937,-24.382 16.254,-16.255 33.864,-44.7 52.828,-85.338 m 26.23,67.605 c -17.487,33.495 -35.835,58 -55.045,73.516 C 185.686,393.242 164.505,401 141.108,401 107.86,401 79.66,387.208 56.51,359.624 33.605,332.04 22.153,297.93 22.153,257.294 c 0,-43.1 10.22,-77.95 30.662,-104.55 20.688,-26.597 47.533,-39.896 80.535,-39.897 23.397,0 44.33,7.635 62.803,22.905 18.47,15.023 36.942,39.898 55.414,74.624 16.747,-33.987 34.85,-58.985 54.306,-74.994 19.457,-16.254 41.13,-24.382 65.02,-24.382 32.754,0 60.707,13.915 83.86,41.745 23.395,27.83 35.094,62.187 35.094,103.07 0,42.854 -10.344,77.58 -31.032,104.18 -20.442,26.35 -47.164,39.527 -80.165,39.527 -23.398,0 -44.21,-7.142 -62.433,-21.426 -17.98,-14.53 -36.82,-39.16 -56.523,-73.886"
         fill="#ffffff"
         fill-opacity="1"
         id="path2"
         style="fill:#3d4f70;fill-opacity:1" />
    </g>
  </g>
</svg>
