<?xml version="1.0" encoding="UTF-8" standalone="no"?>
<!-- Created with Inkscape (http://www.inkscape.org/) -->

<svg
   width="1795"
   height="1287"
   viewBox="0 0 474.92704 340.51877"
   version="1.1"
   id="svg5"
   inkscape:version="1.2.2 (732a01da63, 2022-12-09)"
   sodipodi:docname="FeatureGraphicPostcard.svg"
   inkscape:export-filename="FeatureGraphic Postcard.png"
   inkscape:export-xdpi="96"
   inkscape:export-ydpi="96"
   xml:space="preserve"
   xmlns:inkscape="http://www.inkscape.org/namespaces/inkscape"
   xmlns:sodipodi="http://sodipodi.sourceforge.net/DTD/sodipodi-0.dtd"
   xmlns="http://www.w3.org/2000/svg"
   xmlns:svg="http://www.w3.org/2000/svg"
   xmlns:rdf="http://www.w3.org/1999/02/22-rdf-syntax-ns#"
   xmlns:cc="http://creativecommons.org/ns#"
   xmlns:dc="http://purl.org/dc/elements/1.1/"><title
     id="title4124">Steks Icon</title><sodipodi:namedview
     id="namedview7"
     pagecolor="#ffffff"
     bordercolor="#666666"
     borderopacity="1.0"
     inkscape:pageshadow="2"
     inkscape:pageopacity="0.0"
     inkscape:pagecheckerboard="0"
     inkscape:document-units="px"
     showgrid="false"
     units="px"
     inkscape:snap-page="true"
     inkscape:zoom="0.77771465"
     inkscape:cx="923.8607"
     inkscape:cy="651.26715"
     inkscape:window-width="2400"
     inkscape:window-height="1271"
     inkscape:window-x="-9"
     inkscape:window-y="-9"
     inkscape:window-maximized="1"
     inkscape:current-layer="layer1"
     inkscape:showpageshadow="0"
     inkscape:deskcolor="#d1d1d1" /><defs
     id="defs2"><inkscape:path-effect
       effect="fillet_chamfer"
       id="path-effect1170"
       is_visible="true"
       lpeversion="1"
       satellites_param="F,0,0,1,0,4,0,1 @ F,0,0,1,0,4,0,1 @ F,0,0,1,0,4,0,1 @ F,0,0,1,0,4,0,1 @ F,0,0,1,0,4,0,1 @ F,0,0,1,0,4,0,1 @ F,0,0,1,0,4,0,1 @ F,0,0,1,0,4,0,1 @ F,0,0,1,0,4,0,1 @ F,0,0,1,0,4,0,1 @ F,0,0,1,0,4,0,1 @ F,0,0,1,0,4,0,1"
       unit="px"
       method="auto"
       mode="F"
       radius="4"
       chamfer_steps="1"
       flexible="false"
       use_knot_distance="true"
       apply_no_radius="true"
       apply_with_radius="true"
       only_selected="false"
       hide_knots="false"
       nodesatellites_param="F,0,0,1,0,4,0,1 @ F,0,0,1,0,4,0,1 @ F,0,0,1,0,4,0,1 @ F,0,0,1,0,4,0,1 @ F,0,0,1,0,4,0,1 @ F,0,0,1,0,4,0,1 @ F,0,0,1,0,4,0,1 @ F,0,0,1,0,4,0,1 @ F,0,0,1,0,4,0,1 @ F,0,0,1,0,4,0,1 @ F,0,0,1,0,4,0,1 @ F,0,0,1,0,4,0,1" /><filter
       style="color-interpolation-filters:sRGB"
       id="filter3733"
       inkscape:label="filter1" /><filter
       inkscape:menu="Shadows and Glows"
       inkscape:menu-tooltip="Cut out, add inner shadow and colorize some parts of an image"
       style="color-interpolation-filters:sRGB"
       inkscape:label="Emergence"
       id="filter3763"
       x="-0.091317445"
       y="-0.091316238"
       width="1.2206838"
       height="1.220681"><feColorMatrix
         values="0 0 0 0 0 0 0 0 0 0 0 0 0 0 0 0.21 0.72 0.07 0 0 "
         result="result1"
         id="feColorMatrix3735" /><feColorMatrix
         values="1 0 0 0 0 0 1 0 0 0 0 0 1 0 0 0 0 0 2 0 "
         result="result9"
         id="feColorMatrix3737" /><feComposite
         in2="result9"
         in="SourceGraphic"
         operator="in"
         result="result4"
         id="feComposite3739" /><feFlood
         result="result2"
         flood-color="rgb(0,0,0)"
         id="feFlood3741" /><feComposite
         in2="result9"
         operator="in"
         result="result10"
         id="feComposite3743" /><feComposite
         in2="result4"
         operator="atop"
         id="feComposite3745" /><feGaussianBlur
         stdDeviation="3"
         result="result8"
         id="feGaussianBlur3747" /><feOffset
         dx="3"
         dy="3"
         result="result3"
         in="result8"
         id="feOffset3749" /><feFlood
         flood-opacity="1"
         flood-color="rgb(219,173,62)"
         result="result5"
         id="feFlood3751" /><feMerge
         result="result6"
         id="feMerge3759"><feMergeNode
           in="result5"
           id="feMergeNode3753" /><feMergeNode
           in="result3"
           id="feMergeNode3755" /><feMergeNode
           in="result4"
           id="feMergeNode3757" /></feMerge><feComposite
         in2="SourceGraphic"
         operator="in"
         result="result7"
         id="feComposite3761" /></filter><filter
       inkscape:menu="Shadows and Glows"
       inkscape:menu-tooltip="Cut out, add inner shadow and colorize some parts of an image"
       style="color-interpolation-filters:sRGB"
       inkscape:label="Emergence"
       id="filter4102"
       x="-0.053149611"
       y="-0.053149611"
       width="1.1284449"
       height="1.1284449"><feColorMatrix
         values="0 0 0 0 0 0 0 0 0 0 0 0 0 0 0 0.21 0.72 0.07 0 0 "
         result="result1"
         id="feColorMatrix4074" /><feColorMatrix
         values="1 0 0 0 0 0 1 0 0 0 0 0 1 0 0 0 0 0 2 0 "
         result="result9"
         id="feColorMatrix4076" /><feComposite
         in2="result9"
         in="SourceGraphic"
         operator="in"
         result="result4"
         id="feComposite4078" /><feFlood
         result="result2"
         flood-color="rgb(0,0,0)"
         id="feFlood4080" /><feComposite
         in2="result9"
         operator="in"
         result="result10"
         id="feComposite4082" /><feComposite
         in2="result4"
         operator="atop"
         id="feComposite4084" /><feGaussianBlur
         stdDeviation="3"
         result="result8"
         id="feGaussianBlur4086" /><feOffset
         dx="3"
         dy="3"
         result="result3"
         in="result8"
         id="feOffset4088" /><feFlood
         flood-opacity="1"
         flood-color="rgb(219,173,62)"
         result="result5"
         id="feFlood4090" /><feMerge
         result="result6"
         id="feMerge4098"><feMergeNode
           in="result5"
           id="feMergeNode4092" /><feMergeNode
           in="result3"
           id="feMergeNode4094" /><feMergeNode
           in="result4"
           id="feMergeNode4096" /></feMerge><feComposite
         in2="SourceGraphic"
         operator="in"
         result="result7"
         id="feComposite4100" /></filter><filter
       inkscape:menu="Shadows and Glows"
       inkscape:menu-tooltip="Cut out, add inner shadow and colorize some parts of an image"
       style="color-interpolation-filters:sRGB"
       inkscape:label="Emergence"
       id="filter3763-0"
       x="-0.091317445"
       y="-0.091316238"
       width="1.2206838"
       height="1.220681"><feColorMatrix
         values="0 0 0 0 0 0 0 0 0 0 0 0 0 0 0 0.21 0.72 0.07 0 0 "
         result="result1"
         id="feColorMatrix3735-8" /><feColorMatrix
         values="1 0 0 0 0 0 1 0 0 0 0 0 1 0 0 0 0 0 2 0 "
         result="result9"
         id="feColorMatrix3737-4" /><feComposite
         in2="result9"
         in="SourceGraphic"
         operator="in"
         result="result4"
         id="feComposite3739-7" /><feFlood
         result="result2"
         flood-color="rgb(0,0,0)"
         id="feFlood3741-5" /><feComposite
         in2="result9"
         operator="in"
         result="result10"
         id="feComposite3743-0" /><feComposite
         in2="result4"
         operator="atop"
         id="feComposite3745-8" /><feGaussianBlur
         stdDeviation="3"
         result="result8"
         id="feGaussianBlur3747-9" /><feOffset
         dx="3"
         dy="3"
         result="result3"
         in="result8"
         id="feOffset3749-9" /><feFlood
         flood-opacity="1"
         flood-color="rgb(219,173,62)"
         result="result5"
         id="feFlood3751-5" /><feMerge
         result="result6"
         id="feMerge3759-6"><feMergeNode
           in="result5"
           id="feMergeNode3753-3" /><feMergeNode
           in="result3"
           id="feMergeNode3755-2" /><feMergeNode
           in="result4"
           id="feMergeNode3757-9" /></feMerge><feComposite
         in2="SourceGraphic"
         operator="in"
         result="result7"
         id="feComposite3761-6" /></filter><inkscape:path-effect
       effect="fillet_chamfer"
       id="path-effect1170-6"
       is_visible="true"
       lpeversion="1"
       satellites_param="F,0,0,1,0,4,0,1 @ F,0,0,1,0,4,0,1 @ F,0,0,1,0,4,0,1 @ F,0,0,1,0,4,0,1 @ F,0,0,1,0,4,0,1 @ F,0,0,1,0,4,0,1 @ F,0,0,1,0,4,0,1 @ F,0,0,1,0,4,0,1 @ F,0,0,1,0,4,0,1 @ F,0,0,1,0,4,0,1 @ F,0,0,1,0,4,0,1 @ F,0,0,1,0,4,0,1"
       unit="px"
       method="auto"
       mode="F"
       radius="4"
       chamfer_steps="1"
       flexible="false"
       use_knot_distance="true"
       apply_no_radius="true"
       apply_with_radius="true"
       only_selected="false"
       hide_knots="false"
       nodesatellites_param="F,0,0,1,0,4,0,1 @ F,0,0,1,0,4,0,1 @ F,0,0,1,0,4,0,1 @ F,0,0,1,0,4,0,1 @ F,0,0,1,0,4,0,1 @ F,0,0,1,0,4,0,1 @ F,0,0,1,0,4,0,1 @ F,0,0,1,0,4,0,1 @ F,0,0,1,0,4,0,1 @ F,0,0,1,0,4,0,1 @ F,0,0,1,0,4,0,1 @ F,0,0,1,0,4,0,1" /><filter
       style="color-interpolation-filters:sRGB"
       inkscape:label="Cross Blur"
       id="filter11450"
       x="-0.17639206"
       y="-0.073991165"
       width="1.3527842"
       height="1.1479824"><feColorMatrix
         in="SourceGraphic"
         values="1 0 0 0 0 0 1 0 0 0 0 0 1 0 0 -0.2125 -0.7154 -0.0721 1 0 "
         result="colormatrix"
         id="feColorMatrix11440" /><feComposite
         in="SourceGraphic"
         in2="colormatrix"
         operator="arithmetic"
         k2="1"
         k3="0"
         k4="0"
         result="composite"
         id="feComposite11442"
         k1="0" /><feGaussianBlur
         stdDeviation="9 0.01"
         result="blur1"
         id="feGaussianBlur11444" /><feGaussianBlur
         in="composite"
         stdDeviation="0.01 9"
         result="blur2"
         id="feGaussianBlur11446" /><feBlend
         in="blur2"
         in2="blur1"
         mode="darken"
         result="blend"
         id="feBlend11448" /></filter><filter
       style="color-interpolation-filters:sRGB"
       inkscape:label="Cross Blur"
       id="filter11450-9"
       x="-0.17639206"
       y="-0.073991165"
       width="1.3527842"
       height="1.1479824"><feColorMatrix
         in="SourceGraphic"
         values="1 0 0 0 0 0 1 0 0 0 0 0 1 0 0 -0.2125 -0.7154 -0.0721 1 0 "
         result="colormatrix"
         id="feColorMatrix11440-1" /><feComposite
         in="SourceGraphic"
         in2="colormatrix"
         operator="arithmetic"
         k2="1"
         k3="0"
         k4="0"
         result="composite"
         id="feComposite11442-9"
         k1="0" /><feGaussianBlur
         stdDeviation="9 0.01"
         result="blur1"
         id="feGaussianBlur11444-1" /><feGaussianBlur
         in="composite"
         stdDeviation="0.01 9"
         result="blur2"
         id="feGaussianBlur11446-4" /><feBlend
         in="blur2"
         in2="blur1"
         mode="darken"
         result="blend"
         id="feBlend11448-4" /></filter><filter
       style="color-interpolation-filters:sRGB"
       inkscape:label="Cross Blur"
       id="filter11450-1"
       x="-0.17639206"
       y="-0.073991165"
       width="1.3527842"
       height="1.1479824"><feColorMatrix
         in="SourceGraphic"
         values="1 0 0 0 0 0 1 0 0 0 0 0 1 0 0 -0.2125 -0.7154 -0.0721 1 0 "
         result="colormatrix"
         id="feColorMatrix11440-4" /><feComposite
         in="SourceGraphic"
         in2="colormatrix"
         operator="arithmetic"
         k2="1"
         k3="0"
         k4="0"
         result="composite"
         id="feComposite11442-5"
         k1="0" /><feGaussianBlur
         stdDeviation="9 0.01"
         result="blur1"
         id="feGaussianBlur11444-6" /><feGaussianBlur
         in="composite"
         stdDeviation="0.01 9"
         result="blur2"
         id="feGaussianBlur11446-3" /><feBlend
         in="blur2"
         in2="blur1"
         mode="darken"
         result="blend"
         id="feBlend11448-5" /></filter><filter
       style="color-interpolation-filters:sRGB"
       inkscape:label="Cross Blur"
       id="filter14362"
       x="-0.30316254"
       y="-0.14045066"
       width="1.6063251"
       height="1.2809013"><feColorMatrix
         in="SourceGraphic"
         values="1 0 0 0 0 0 1 0 0 0 0 0 1 0 0 -0.2125 -0.7154 -0.0721 1 0 "
         result="colormatrix"
         id="feColorMatrix14352" /><feComposite
         in="SourceGraphic"
         in2="colormatrix"
         operator="arithmetic"
         k2="1"
         k3="0"
         k4="0"
         result="composite"
         id="feComposite14354"
         k1="0" /><feGaussianBlur
         stdDeviation="9 0.01"
         result="blur1"
         id="feGaussianBlur14356" /><feGaussianBlur
         in="composite"
         stdDeviation="0.01 9"
         result="blur2"
         id="feGaussianBlur14358" /><feBlend
         in="blur2"
         in2="blur1"
         mode="darken"
         result="fbSourceGraphic"
         id="feBlend14360" /><feColorMatrix
         result="fbSourceGraphicAlpha"
         in="fbSourceGraphic"
         values="0 0 0 -1 0 0 0 0 -1 0 0 0 0 -1 0 0 0 0 1 0"
         id="feColorMatrix16685" /><feColorMatrix
         id="feColorMatrix16687"
         in="fbSourceGraphic"
         values="1 0 0 0 0 0 1 0 0 0 0 0 1 0 0 -0.2125 -0.7154 -0.0721 1 0 "
         result="colormatrix" /><feComposite
         in2="colormatrix"
         id="feComposite16689"
         in="fbSourceGraphic"
         operator="arithmetic"
         k2="1"
         k3="0"
         k4="0"
         result="composite"
         k1="0" /><feGaussianBlur
         id="feGaussianBlur16691"
         stdDeviation="9 0.01"
         result="blur1" /><feGaussianBlur
         id="feGaussianBlur16693"
         in="composite"
         stdDeviation="0.01 9"
         result="blur2" /><feBlend
         in2="blur1"
         id="feBlend16695"
         in="blur2"
         mode="darken"
         result="blend" /></filter><filter
       inkscape:menu="Shadows and Glows"
       inkscape:menu-tooltip="Cut out, add inner shadow and colorize some parts of an image"
       style="color-interpolation-filters:sRGB"
       inkscape:label="Emergence"
       id="filter3763-0-8"
       x="-0.091317444"
       y="-0.091316236"
       width="1.2206838"
       height="1.2206809"><feColorMatrix
         values="0 0 0 0 0 0 0 0 0 0 0 0 0 0 0 0.21 0.72 0.07 0 0 "
         result="result1"
         id="feColorMatrix3735-8-5" /><feColorMatrix
         values="1 0 0 0 0 0 1 0 0 0 0 0 1 0 0 0 0 0 2 0 "
         result="result9"
         id="feColorMatrix3737-4-9" /><feComposite
         in2="result9"
         in="SourceGraphic"
         operator="in"
         result="result4"
         id="feComposite3739-7-2" /><feFlood
         result="result2"
         flood-color="rgb(0,0,0)"
         id="feFlood3741-5-6" /><feComposite
         in2="result9"
         operator="in"
         result="result10"
         id="feComposite3743-0-0" /><feComposite
         in2="result4"
         operator="atop"
         id="feComposite3745-8-2" /><feGaussianBlur
         stdDeviation="3"
         result="result8"
         id="feGaussianBlur3747-9-2" /><feOffset
         dx="3"
         dy="3"
         result="result3"
         in="result8"
         id="feOffset3749-9-2" /><feFlood
         flood-opacity="1"
         flood-color="rgb(219,173,62)"
         result="result5"
         id="feFlood3751-5-7" /><feMerge
         result="result6"
         id="feMerge3759-6-2"><feMergeNode
           in="result5"
           id="feMergeNode3753-3-3" /><feMergeNode
           in="result3"
           id="feMergeNode3755-2-8" /><feMergeNode
           in="result4"
           id="feMergeNode3757-9-5" /></feMerge><feComposite
         in2="SourceGraphic"
         operator="in"
         result="result7"
         id="feComposite3761-6-5" /></filter><inkscape:path-effect
       effect="fillet_chamfer"
       id="path-effect1170-6-7"
       is_visible="true"
       lpeversion="1"
       satellites_param="F,0,0,1,0,4,0,1 @ F,0,0,1,0,4,0,1 @ F,0,0,1,0,4,0,1 @ F,0,0,1,0,4,0,1 @ F,0,0,1,0,4,0,1 @ F,0,0,1,0,4,0,1 @ F,0,0,1,0,4,0,1 @ F,0,0,1,0,4,0,1 @ F,0,0,1,0,4,0,1 @ F,0,0,1,0,4,0,1 @ F,0,0,1,0,4,0,1 @ F,0,0,1,0,4,0,1"
       unit="px"
       method="auto"
       mode="F"
       radius="4"
       chamfer_steps="1"
       flexible="false"
       use_knot_distance="true"
       apply_no_radius="true"
       apply_with_radius="true"
       only_selected="false"
       hide_knots="false"
       nodesatellites_param="F,0,0,1,0,4,0,1 @ F,0,0,1,0,4,0,1 @ F,0,0,1,0,4,0,1 @ F,0,0,1,0,4,0,1 @ F,0,0,1,0,4,0,1 @ F,0,0,1,0,4,0,1 @ F,0,0,1,0,4,0,1 @ F,0,0,1,0,4,0,1 @ F,0,0,1,0,4,0,1 @ F,0,0,1,0,4,0,1 @ F,0,0,1,0,4,0,1 @ F,0,0,1,0,4,0,1" /></defs><g
     inkscape:groupmode="layer"
     id="layer2"
     inkscape:label="Layer 2" /><g
     inkscape:label="Layer 1"
     inkscape:groupmode="layer"
     id="layer1"><rect
       style="fill:#8eaee9;fill-opacity:1;stroke:#678de0;stroke-width:0;stroke-linecap:round;stroke-linejoin:round"
       id="rect2762"
       width="474.92706"
       height="341.06461"
       x="3.5527137e-15"
       y="-0.54586124" /><g
       id="g666"
       transform="matrix(1.4365915,0,0,1.4365915,-96.830513,-59.874549)"><path
         id="rect879"
         style="fill:#07881d;fill-opacity:1;stroke:none;stroke-width:7.57036;paint-order:markers stroke fill;filter:url(#filter3763-0-8)"
         d="m 54.59236,32.309893 v 18.281946 26.282978 a 4,4 135 0 1 -4,4 H 32.310416 a 4,4 135 0 0 -4,4 l 0,18.281953 a 4,4 45 0 0 4,4 H 50.59236 76.8743 a 4,4 135 0 0 4,-4 V 84.874817 58.591839 a 4,4 135 0 1 4,-4 l 18.28195,0 a 4,4 135 0 0 4,-4 V 32.309893 a 4,4 45 0 0 -4,-4 l -18.28195,0 -26.28194,0 a 4,4 135 0 0 -4,4 z"
         transform="matrix(1.1254516,0,0,1.1254516,50.729096,52.682452)"
         inkscape:original-d="M 54.59236,28.309893 V 54.591839 80.874817 H 28.310416 V 107.15677 H 54.59236 80.8743 V 80.874817 54.591839 h 26.28195 V 28.309893 H 80.8743 Z"
         inkscape:path-effect="#path-effect1170-6-7" /><g
         id="g648"><path
           d="m 199.88408,181.16594 q -1.42659,2.60639 -3.83814,5.31656 -2.39994,2.65223 -6.00433,4.09877 -3.61601,1.50446 -8.65594,0.49375 -6.48819,-1.30114 -9.74234,-4.90647 -3.19621,-3.59371 -3.88887,-8.55342 -0.69266,-4.95971 0.39937,-10.40515 0.56925,-2.83858 1.40554,-6.70829 0.89423,-3.8581 1.84654,-8.00584 0.95231,-4.14774 1.84653,-8.00584 0.96377,-3.9044 1.67212,-6.83561 0.71996,-2.98914 1.06832,-4.42578 -5.79333,-0.5592 -10.10372,-0.70048 -4.24084,-0.1876 -5.46915,-0.0724 0.0242,-1.92347 0.19906,-3.9975 0.24444,-2.12034 0.46548,-3.82355 0.27897,-1.6916 0.39515,-2.2709 3.33703,0.18713 7.72842,0.52544 4.44933,0.34993 8.73632,0.90835 0.51101,-2.24767 1.1732,-5.54969 0.67381,-3.35996 1.26629,-6.3144 0.44162,-2.50262 0.73252,-4.85468 0.30252,-2.40999 0.50033,-3.99735 l 11.01868,1.54683 q -0.0584,0.89219 -0.60473,4.21745 -0.47678,3.27895 -1.40617,7.91337 -0.34852,1.73791 -0.84806,4.22891 -0.48793,2.43307 -0.87131,4.34477 1.76115,0.23266 4.33331,0.62796 2.57217,0.3953 4.13629,0.70897 2.73434,0.48809 5.22534,0.98764 2.491,0.49954 4.27522,0.91761 1.78422,0.41807 2.17811,0.55732 -0.024,1.6222 -0.52372,4.41447 -0.44177,2.80389 -0.81352,4.65766 -0.56769,-0.1741 -3.98557,-0.85953 -3.34834,-0.73174 -6.66198,-1.33599 -2.38676,-0.41839 -5.2602,-0.81385 -2.86182,-0.45339 -4.91261,-0.74413 -0.35998,1.49457 -1.12626,4.41416 -0.70834,2.93121 -1.56771,6.61551 -0.84776,3.62637 -1.73036,7.42653 -0.87099,3.74224 -1.59111,7.03264 -0.7085,3.23248 -1.11511,5.26004 -0.7319,3.64961 -0.98857,7.03295 -0.19875,3.39497 0.99345,5.86367 1.26176,2.42239 4.85343,3.14267 2.43307,0.48793 4.28778,-0.94793 1.85471,-1.43585 3.11881,-3.53249 1.32203,-2.08502 2.02959,-3.50989 0.4052,0.68386 1.19252,1.86617 0.85687,1.136 1.80636,2.41109 1.00742,1.28671 1.77167,2.28361 0.82217,1.00852 1.05373,1.35626 z"
           id="text1"
           style="font-size:25.4px;line-height:1.25;font-family:Grandstander;-inkscape-font-specification:'Grandstander, Normal';stroke-width:1.23091"
           aria-label="t" /><path
           d="m 255.54845,192.67556 q -1.48389,1.3897 -4.17301,3.08004 -2.67751,1.63241 -6.43245,2.92824 -3.74333,1.23789 -8.45954,1.61782 -4.71622,0.37993 -10.33545,-0.74696 -8.68954,-1.7426 -14.527,-6.58911 -5.83746,-4.84651 -8.06991,-12.34462 -2.22082,-7.55605 -0.25749,-17.34626 1.88201,-9.38471 7.1458,-15.50004 5.32173,-6.10372 12.91263,-8.49834 7.59089,-2.39462 16.45422,-0.61716 11.12261,2.23053 15.96192,10.25143 4.89724,8.03251 3.30378,19.58418 -0.25589,1.877 -0.60441,3.61491 -0.33691,1.67998 -0.87083,3.44096 -0.74148,-0.20895 -3.105,-0.74319 -2.29398,-0.58056 -5.4106,-1.26583 -3.105,-0.74319 -6.27954,-1.44008 -3.105,-0.7432 -5.36428,-1.19627 -5.85096,-1.17336 -12.10774,-1.82549 -6.25678,-0.65214 -11.21602,-0.86329 -0.24412,1.5178 -0.30283,3.01253 -0.0587,1.49473 0.0217,2.89683 0.27615,3.73124 2.36023,6.86088 2.0957,3.07171 5.40856,5.18232 3.37079,2.12222 7.42591,2.93543 4.28684,0.85969 7.72858,0.22417 3.44175,-0.63551 6.07279,-2.0362 2.68896,-1.38907 4.41619,-2.79023 1.78516,-1.38955 2.7009,-2.04955 0.28949,0.35936 1.07681,1.54167 0.85687,1.136 1.74828,2.70074 0.94933,1.57636 1.71326,3.1758 0.83348,1.55312 1.06457,2.80467 z m -39.7044,-32.18686 q 4.31039,0.14128 10.03418,0.7468 5.78172,0.61712 12.96507,2.05768 3.76547,0.75513 6.3491,1.39377 2.65317,0.59233 3.67268,0.9173 0.38337,-1.9117 0.34977,-4.14806 -0.0564,-3.0243 -1.19032,-6.08393 -1.13397,-3.05962 -3.67034,-5.43633 -2.46683,-2.42301 -6.8116,-3.29432 -4.982,-0.99909 -9.52489,0.3195 -4.47334,1.27227 -7.6964,4.7236 -3.21143,3.3934 -4.47725,8.80399 z"
           id="text1-5"
           style="font-size:25.4px;line-height:1.25;font-family:Grandstander;-inkscape-font-specification:'Grandstander, Normal';stroke-width:1.23091"
           aria-label="e " /><path
           d="m 301.87627,215.48847 q -0.833,-2.45693 -2.41848,-6.26997 -1.58547,-3.81303 -3.61099,-8.13613 -2.01391,-4.38103 -4.17853,-8.6115 -2.16462,-4.23048 -4.1443,-7.58022 -1.92175,-3.33813 -3.33453,-5.00743 -1.20539,0.60191 -3.34959,1.67841 -2.08627,1.08812 -3.91759,2.10684 -1.8197,0.9608 -2.3877,1.38924 -0.55747,2.47938 -1.42831,5.92034 -0.80128,3.39465 -1.67211,6.83562 -0.85922,3.38303 -1.60226,6.18676 -0.67349,2.75742 -1.03332,3.95072 -1.2977,-0.13972 -2.71126,-0.30268 -1.41356,-0.16295 -2.80389,-0.44177 -1.67997,-0.3369 -3.26717,-0.83598 -1.59881,-0.44115 -2.83842,-0.87052 0.39467,-1.36709 1.50947,-6.02459 1.17273,-4.64588 2.83323,-11.42357 1.73004,-6.82399 3.69244,-14.8066 1.97401,-8.04052 3.91332,-16.20853 2.00887,-8.21433 3.71599,-15.525 1.77668,-7.35699 3.0425,-12.76758 1.27744,-5.46852 1.77698,-7.95952 1.1123,0.1628 2.39838,0.36045 1.34401,0.20927 2.67641,0.47647 1.73791,0.34852 3.26717,0.83598 1.59881,0.44114 2.79196,1.10224 -0.8713,4.34477 -2.11405,9.94077 -1.23112,5.53807 -2.61312,11.52796 -1.31245,5.94358 -2.65944,11.45842 -1.27744,5.46852 -2.29929,9.66258 -0.95231,4.14774 -1.53271,6.14045 4.04538,-2.74408 9.50432,-5.3252 5.47056,-2.63905 11.17268,-4.93037 5.76005,-2.2797 10.75508,-4.04995 5.00664,-1.82819 8.11258,-2.8926 0.54414,0.8925 1.18074,2.22536 0.70615,1.28656 1.31952,2.73528 0.67131,1.46035 1.19205,2.76998 0.5903,1.26332 0.84478,2.09773 -2.19036,0.70569 -6.01484,2.04782 -3.81287,1.28421 -8.04304,2.84629 -4.23016,1.56208 -8.03157,3.08962 -3.7898,1.46962 -5.99193,2.5345 1.07697,1.24039 2.90625,4.13816 1.82928,2.89776 4.02875,6.95445 2.26902,4.01037 4.59566,8.63489 2.32664,4.62453 4.46786,9.27213 2.14122,4.6476 3.65699,8.80822 -0.59107,0.24302 -2.10919,0.60144 -1.5065,0.30049 -3.32589,0.65874 -1.81937,0.35827 -3.49966,0.6239 -1.62236,0.27725 -2.42193,0.35795 z"
           id="text1-0"
           style="font-size:25.4px;line-height:1.25;font-family:Grandstander;-inkscape-font-specification:'Grandstander, Normal';stroke-width:1.23091"
           aria-label="k" /><path
           d="m 333.94911,234.17884 c -3.06819,-2.00129 -5.84013,-4.4207 -8.31582,-7.25825 -2.4757,-2.83754 -4.50456,-5.78336 -6.08657,-8.83744 -1.52749,-3.06556 -2.46329,-5.95679 -2.80737,-8.67369 0.5322,-0.31124 1.27099,-0.72289 2.21633,-1.23493 0.94535,-0.512 1.9782,-1.01403 3.09855,-1.50598 1.14187,-0.52496 2.22994,-0.9674 3.26422,-1.32738 1.0558,-0.39298 1.92725,-0.64755 2.61437,-0.76367 0.38567,2.50891 1.08411,5.15124 2.09521,7.92701 1.03263,2.74276 2.38588,5.31844 4.05973,7.72703 1.69539,2.37559 3.68127,4.30579 5.95767,5.79062 2.17742,1.42027 4.34484,2.38725 6.50224,2.90093 2.21192,0.50222 4.22734,0.47653 6.04628,-0.077 1.85194,-0.53207 3.3374,-1.65587 4.4564,-3.37142 1.29116,-1.97947 1.77256,-4.08739 1.44422,-6.32374 -0.30681,-2.26935 -1.16088,-4.637 -2.56219,-7.10294 -1.37979,-2.49893 -3.03858,-5.03876 -4.97637,-7.61951 -2.33653,-3.12299 -4.34457,-6.1728 -6.02413,-9.14943 -1.62505,-2.98811 -2.54003,-5.98334 -2.74496,-8.98569 -0.17199,-2.98083 0.75351,-6.02184 2.77632,-9.12302 2.06584,-3.16716 4.67815,-5.22544 7.8369,-6.17484 3.19175,-0.92789 6.61081,-0.9786 10.25716,-0.15208 3.67936,0.84802 7.23458,2.39103 10.66567,4.62903 3.82701,2.49623 7.01776,5.2829 9.57236,8.36 2.60907,3.06564 4.35172,5.80128 5.22802,8.20695 -0.4978,0.47478 -1.26239,1.03416 -2.2938,1.67816 -1.00986,0.61101 -2.09649,1.19548 -3.25998,1.75342 -1.16334,0.55793 -2.28946,1.02261 -3.37823,1.39407 -0.89496,-2.08865 -2.1686,-4.35376 -3.82095,-6.79533 -0.21809,-0.32222 -0.44503,-0.6384 -0.68088,-0.94848 -1.55111,-2.0393 -3.48647,-3.81546 -5.80606,-5.32848 -1.78153,-1.16203 -3.63695,-2.06659 -5.56627,-2.71367 -1.90779,-0.68006 -3.70158,-0.88603 -5.38136,-0.61789 -1.67977,0.26815 -3.05765,1.22697 -4.13361,2.87654 -0.92533,1.41862 -1.24245,3.02233 -0.95137,4.81113 0.32407,1.81032 1.08635,3.74188 2.28686,5.79469 1.22203,2.0198 2.69651,4.15726 4.42345,6.41236 2.10275,2.68834 3.93223,5.36302 5.48845,8.02406 1.57773,2.62805 2.72369,5.23312 3.43788,7.81521 0.7687,2.57061 1.00737,5.1247 0.7161,7.66224 -0.26983,2.50456 -1.17947,4.94452 -2.72886,7.3199 -2.4747,3.79399 -5.5138,6.32634 -9.11727,7.59703 -3.60346,1.27069 -7.45789,1.48416 -11.56327,0.64042 -4.10539,-0.84374 -8.18704,-2.58905 -12.24497,-5.23592 z"
           id="text1-8"
           style="font-size:25.4px;line-height:1.25;font-family:Grandstander;-inkscape-font-specification:'Grandstander, Normal';stroke-width:1.23091"
           aria-label="s"
           sodipodi:nodetypes="ssccscccccsccscccccsccscccscssscssccccccssss" /><path
           fill="#ed3a0c"
           d="m 89.346287,272.89414 v -13.40107 a 1.929803,1.929803 0 0 1 1.929803,-1.92981 h 13.40108 a 1.929803,1.929803 0 0 1 1.9298,1.92981 v 4.77073 a 1.929803,1.929803 0 0 0 1.9298,1.92981 h 4.77074 a 1.929803,1.929803 0 0 1 1.9298,1.9298 v 4.77073 a 1.929803,1.929803 0 0 1 -1.9298,1.92981 H 91.27609 a 1.929803,1.929803 0 0 1 -1.929803,-1.92981 z"
           id="path18281"
           style="stroke-width:0.385961" /><path
           fill="#07871c"
           d="m 124.0854,273.29027 0.12488,-4.7691 a 1.929803,1.929803 0 0 0 -1.87863,-1.97966 l -13.39648,-0.35079 a 1.929803,1.929803 0 0 1 -1.87863,-1.97966 l 0.3508,-13.39649 a 1.929803,1.929803 0 0 1 1.97966,-1.87862 l 4.7691,0.12488 a 1.929803,1.929803 0 0 1 1.87862,1.97966 l -0.12488,4.7691 a 1.929803,1.929803 0 0 0 1.87863,1.97966 l 13.39648,0.35079 a 1.929803,1.929803 0 0 1 1.87863,1.97966 l -0.3508,13.39649 a 1.929803,1.929803 0 0 1 -1.97966,1.87862 l -4.7691,-0.12488 a 1.929803,1.929803 0 0 1 -1.87862,-1.97966 z"
           id="path18289"
           style="stroke-width:0.385961" /><path
           fill="#79599f"
           d="m 115.08614,249.1839 h -13.40107 a 1.929803,1.929803 0 0 0 -1.929805,1.9298 v 4.77074 a 1.929803,1.929803 0 0 1 -1.929803,1.9298 h -4.770736 a 1.929803,1.929803 0 0 1 -1.929803,-1.9298 v -4.77074 a 1.929803,1.929803 0 0 0 -1.929803,-1.9298 h -4.770735 a 1.929803,1.929803 0 0 1 -1.929803,-1.9298 v -4.77074 a 1.929803,1.929803 0 0 1 1.929803,-1.9298 h 30.661755 a 1.929803,1.929803 0 0 1 1.92981,1.9298 v 4.77074 a 1.929803,1.929803 0 0 1 -1.92981,1.9298 z"
           id="path18301"
           style="stroke-width:0.385961" /><path
           fill="#0c4eed"
           d="m 89.073243,238.90021 0.233112,-24.50347 a 1.8849677,1.8849677 0 0 1 1.338065,-0.53939 l 25.36399,25.85123 a 1.8849677,1.8849677 0 0 1 -0.56474,1.32756 l -24.503476,-0.23311 a 1.8849677,1.8849677 0 0 1 -1.866951,-1.90282 z"
           id="path18305"
           style="stroke-width:0.376994" /><path
           fill="#9f5997"
           d="m 120.30815,238.67309 15.41727,0.80798 a 1.929803,1.929803 0 0 1 1.82616,2.02815 l -0.80798,15.41727 a 1.929803,1.929803 0 0 1 -2.02815,1.82616 l -15.41727,-0.80798 a 1.929803,1.929803 0 0 1 -1.82616,-2.02815 L 118.28,240.49925 a 1.929803,1.929803 0 0 1 2.02815,-1.82616 z"
           id="path18309"
           style="stroke-width:0.385961" /><path
           fill="#ed860c"
           d="m 106.70082,219.41676 25.07884,0.65671 a 1.929803,1.929803 0 0 1 1.87863,1.97966 l -0.40413,15.43313 a 1.929803,1.929803 0 0 1 -1.97966,1.87863 l -5.78743,-0.15155 a 1.929803,1.929803 0 0 1 -1.87862,-1.97966 l 0.15155,-5.78743 a 1.929803,1.929803 0 0 0 -1.87863,-1.97965 l -15.43313,-0.40413 a 1.929803,1.929803 0 0 1 -1.87863,-1.97966 l 0.15155,-5.78743 a 1.929803,1.929803 0 0 1 1.97966,-1.87862 z"
           id="path18313"
           style="stroke-width:0.385961" /><path
           fill="#ed860c"
           d="m 113.01484,219.45807 -24.394271,-5.85654 a 1.9298031,1.9298031 0 0 1 -1.425979,-2.32699 l 3.604029,-15.01186 a 1.9298031,1.9298031 0 0 1 2.326986,-1.42598 l 5.629447,1.35151 a 1.9298031,1.9298031 0 0 1 1.425978,2.32699 l -1.35151,5.62944 a 1.9298031,1.9298031 0 0 0 1.42598,2.32699 l 15.01186,3.60403 a 1.9298031,1.9298031 0 0 1 1.42598,2.32699 l -1.35151,5.62944 a 1.9298031,1.9298031 0 0 1 -2.32699,1.42598 z"
           id="path18317"
           style="stroke-width:0.385961" /><path
           fill="#0ce4ed"
           d="m 122.72429,217.54304 0.24968,-4.7642 a 1.929803,1.929803 0 0 0 -1.82616,-2.02815 l -4.7642,-0.24969 a 1.929803,1.929803 0 0 1 -1.82616,-2.02815 l 0.24968,-4.7642 a 1.929803,1.929803 0 0 0 -1.82616,-2.02816 l -4.76419,-0.24968 a 1.929803,1.929803 0 0 1 -1.82616,-2.02815 l 0.24968,-4.7642 a 1.929803,1.929803 0 0 1 2.02815,-1.82616 l 13.38272,0.70136 a 1.929803,1.929803 0 0 1 1.82616,2.02815 l -0.24969,4.7642 a 1.929803,1.929803 0 0 0 1.82616,2.02816 l 4.7642,0.24968 a 1.929803,1.929803 0 0 1 1.82616,2.02816 l -0.70136,13.38271 a 1.929803,1.929803 0 0 1 -2.02815,1.82616 l -4.7642,-0.24968 a 1.929803,1.929803 0 0 1 -1.82616,-2.02816 z"
           id="path18321"
           style="stroke-width:0.385961" /><path
           fill="#9f5997"
           d="m 91.517253,176.92794 14.975187,-3.75349 a 1.9298031,1.9298031 0 0 1 2.34109,1.40271 l 3.75349,14.97519 a 1.9298031,1.9298031 0 0 1 -1.40271,2.34109 l -14.975191,3.75349 a 1.9298031,1.9298031 0 0 1 -2.341085,-1.40271 l -3.753492,-14.97519 a 1.9298031,1.9298031 0 0 1 1.402711,-2.34109 z"
           id="path18325"
           style="stroke-width:0.385961" /><path
           fill="#4a5b33"
           d="m 133.76,175.34895 v 25.08744 a 1.929803,1.929803 0 0 1 -1.9298,1.9298 h -5.78941 a 1.929803,1.929803 0 0 1 -1.9298,-1.9298 v -5.78941 a 1.929803,1.929803 0 0 0 -1.92981,-1.9298 h -5.78941 a 1.929803,1.929803 0 0 1 -1.9298,-1.92981 v -5.7894 a 1.929803,1.929803 0 0 1 1.9298,-1.92981 h 5.78941 a 1.929803,1.929803 0 0 0 1.92981,-1.9298 v -5.78941 a 1.929803,1.929803 0 0 1 1.9298,-1.9298 h 5.78941 a 1.929803,1.929803 0 0 1 1.9298,1.9298 z"
           id="path18329"
           style="stroke-width:0.385961" /></g></g></g><metadata
     id="metadata4122"><rdf:RDF><cc:Work
         rdf:about=""><dc:title>Steks Icon</dc:title></cc:Work></rdf:RDF></metadata></svg>
