<svg width="1024" height="1024" viewBox="0 0 270.933 270.934" xmlns="http://www.w3.org/2000/svg"><g stroke-width="1.323" fill-opacity=".2" fill="none" stroke="#000" stroke-linejoin="round"><path d="M73.53 126.685l-.384 7.318a1.621 1.621 0 001.533 1.704l9.473.498a1.621 1.621 0 011.534 1.704l-.386 7.316a51302.7 51302.7 0 00-.17 3.239l-.384 7.316a51315.786 51315.786 0 01-.171 3.24l-.385 7.314a54275.722 54275.722 0 00-.17 3.24l-.384 7.316a1.621 1.621 0 001.533 1.703l9.472.5a1.621 1.621 0 001.705-1.534l.384-7.318a1031613.51 1031613.51 0 01.172-3.237l.385-7.317a54275.722 54275.722 0 00.17-3.238l.383-7.317a54261.081 54261.081 0 01.172-3.238l.385-7.316a1.621 1.621 0 011.703-1.535l9.472.5a1.621 1.621 0 001.705-1.535l.384-7.317a1.621 1.621 0 00-1.533-1.703l-9.473-.499a62080.512 62080.512 0 01-3.237-.171l-9.472-.498a1236063.273 1236063.273 0 00-3.239-.17l-9.472-.499a1.621 1.621 0 00-1.705 1.534z" paint-order="markers stroke fill" fill="#fdfdfd" stroke-width="1.6211512799999999"/><path d="M63.057 115.464l-5.455.453-10.338.861a974547.417 974547.417 0 01-4.885.407l-5.454.455a2.45 2.45 0 00-2.24 2.647l.455 5.452a961429.963 961429.963 0 00.407 4.886l.454 5.453a87730.323 87730.323 0 00.407 4.885l.455 5.456a2.45 2.45 0 002.647 2.238l5.452-.454a80118.809 80118.809 0 004.886-.407l5.453-.455a2.45 2.45 0 012.647 2.24l.453 5.453a2.45 2.45 0 01-2.238 2.647l-5.455.453a963280.96 963280.96 0 00-4.884.407l-5.453.454a2.45 2.45 0 00-2.24 2.646l.453 5.456a2.45 2.45 0 002.647 2.237l5.454-.453a73933.94 73933.94 0 014.885-.408l5.455-.454a963280.96 963280.96 0 004.884-.408l5.454-.453a2.45 2.45 0 002.239-2.647l-.453-5.453a984150.909 984150.909 0 01-.408-4.885l-.454-5.454a984150.909 984150.909 0 00-.408-4.885l-.453-5.454a2.45 2.45 0 00-2.647-2.238l-5.453.453a972651.523 972651.523 0 00-4.885.407l-5.455.454a2.45 2.45 0 01-2.646-2.238l-.454-5.454a2.45 2.45 0 012.239-2.647l5.454-.454a72707.642 72707.642 0 014.884-.406l5.456-.455a2.45 2.45 0 002.238-2.647l-.454-5.453a2.45 2.45 0 00-2.647-2.238zM205.448 114.509l-1.04 7.056a53779.41 53779.41 0 01-.473 3.206l-1.04 7.058a53464.82 53464.82 0 00-.473 3.207l-1.04 7.056a1.621 1.621 0 001.367 1.84l7.057 1.04 10.263 1.513a1.621 1.621 0 011.368 1.84l-1.04 7.057a1.621 1.621 0 01-1.84 1.368l-7.057-1.042-10.263-1.512a1.621 1.621 0 00-1.84 1.368l-1.041 7.056a1.621 1.621 0 001.367 1.84l7.057 1.04 10.264 1.513a352592.106 352592.106 0 013.208.473l7.055 1.04a1.621 1.621 0 001.841-1.367l1.04-7.057a46868.363 46868.363 0 00.473-3.206l1.04-7.057 1.513-10.264a1.621 1.621 0 00-1.368-1.84l-7.057-1.04a53545.305 53545.305 0 01-3.206-.473l-7.057-1.041a1.621 1.621 0 01-1.368-1.84l1.042-7.055a1.621 1.621 0 011.839-1.368l7.056 1.04a376014.351 376014.351 0 003.208.473l7.057 1.04a1.621 1.621 0 001.839-1.368l1.04-7.057a1.621 1.621 0 00-1.367-1.839l-7.056-1.04a352592.106 352592.106 0 00-3.208-.473l-7.056-1.04a53505.025 53505.025 0 01-3.208-.472l-7.055-1.042a1.621 1.621 0 00-1.84 1.368zm-68.703-22.576l-6.715 2.405a56516.625 56516.625 0 01-3.052 1.095l-6.715 2.405a56516.625 56516.625 0 00-3.052 1.093l-6.715 2.407a1.621 1.621 0 00-.979 2.073l2.407 6.714a41450.303 41450.303 0 011.093 3.05l2.405 6.716a56516.625 56516.625 0 001.094 3.052l2.406 6.715a56516.625 56516.625 0 011.094 3.051l2.405 6.715 3.5 9.768a1.621 1.621 0 002.072.98l6.715-2.407a56516.625 56516.625 0 013.052-1.094l6.715-2.405 9.767-3.5a1.621 1.621 0 00.98-2.072l-2.407-6.715a1.621 1.621 0 00-2.072-.98l-6.715 2.406a56516.625 56516.625 0 00-3.051 1.093l-6.715 2.407a1.621 1.621 0 01-2.073-.98l-2.407-6.714a1.621 1.621 0 01.98-2.072l6.714-2.407a1.621 1.621 0 00.98-2.073l-2.406-6.715a1.621 1.621 0 00-2.074-.98l-6.715 2.407a1.621 1.621 0 01-2.072-.98l-2.405-6.714a1.621 1.621 0 01.979-2.073l6.715-2.405a88326.317 88326.317 0 003.051-1.093l6.715-2.407a1.621 1.621 0 00.98-2.073l-2.406-6.715a1.621 1.621 0 00-2.073-.978z" paint-order="markers stroke fill" fill="#fff" stroke-width="1.6211512799999999"/><path d="M160.4 121.437l-1.002 6.623-1.739 11.467a3693245.9 3693245.9 0 01-.735 4.847l-1.003 6.623a4692743.334 4692743.334 0 00-.735 4.846l-1.003 6.622a2.45 2.45 0 002.056 2.79l6.622 1.004a2.45 2.45 0 002.79-2.057l1.005-6.622a3601175.648 3601175.648 0 01.732-4.846l.135-.888a.968.968 0 011.657-.674l4.7 6.38 6.154 8.352a2.45 2.45 0 003.426.52l4.407-3.247a2.45 2.45 0 00.52-3.426l-3.248-4.407a111303.727 111303.727 0 01-2.907-3.945l-3.247-4.407a2.45 2.45 0 01.521-3.427l4.405-3.247 8.354-6.153a2.45 2.45 0 00.518-3.427l-3.246-4.407a2.45 2.45 0 00-3.426-.52l-4.407 3.248a1883431.212 1883431.212 0 00-3.945 2.906l-4.407 3.248a2264848.24 2264848.24 0 01-3.724 2.742l.503-3.31 1.737-11.47a2.45 2.45 0 00-2.055-2.79l-6.621-1.004a2.45 2.45 0 00-2.79 2.056z" stroke-linecap="round" fill="#fff" stroke-width="1.6211512799999999"/></g></svg>