<svg width="640" height="320" viewBox="0 0 169.333 84.667" xmlns="http://www.w3.org/2000/svg"><g fill="none" stroke="#000" stroke-linejoin="round" stroke-width="1.323" fill-opacity=".2"><path d="M34.067 35.167l-.314 5.972a1.323 1.323 0 001.251 1.39l7.731.407a1.323 1.323 0 011.252 1.39l-.315 5.971a41867.335 41867.335 0 00-.139 2.643l-.313 5.971a41878.014 41878.014 0 01-.14 2.643l-.314 5.97a44293.572 44293.572 0 00-.138 2.643l-.314 5.971a1.323 1.323 0 001.251 1.39l7.73.408a1.323 1.323 0 001.391-1.252L53 70.712a841883.73 841883.73 0 01.14-2.642l.314-5.971a44293.572 44293.572 0 00.139-2.642l.313-5.972a44281.624 44281.624 0 01.14-2.642l.314-5.971a1.323 1.323 0 011.39-1.252l7.73.407a1.323 1.323 0 001.391-1.252l.314-5.971a1.323 1.323 0 00-1.251-1.39l-7.731-.407a50662.94 50662.94 0 01-2.642-.14l-7.73-.406a1008731.962 1008731.962 0 00-2.643-.139l-7.73-.407a1.323 1.323 0 00-1.391 1.252z" paint-order="markers stroke fill" fill="#fdfdfd"/><path d="M25.52 26.009l-4.452.37-8.437.703a795312.98 795312.98 0 01-3.986.332l-4.451.371a2 2 0 00-1.828 2.16l.371 4.45a784608.03 784608.03 0 00.332 3.987l.371 4.45a71595.351 71595.351 0 00.332 3.987l.371 4.452a2 2 0 002.16 1.827l4.45-.371a65383.713 65383.713 0 003.987-.332l4.45-.371a2 2 0 012.16 1.827l.37 4.451a2 2 0 01-1.826 2.16l-4.452.37a786118.6 786118.6 0 00-3.986.332l-4.45.37a2 2 0 00-1.828 2.16l.37 4.452a2 2 0 002.16 1.826l4.451-.37a60336.338 60336.338 0 013.986-.333l4.452-.37a786118.6 786118.6 0 003.986-.333l4.451-.37a2 2 0 001.827-2.16l-.37-4.45a803150.24 803150.24 0 01-.333-3.987l-.37-4.451a803150.24 803150.24 0 00-.333-3.986l-.37-4.451a2 2 0 00-2.16-1.827l-4.45.37a793765.77 793765.77 0 00-3.987.332l-4.451.371a2 2 0 01-2.16-1.827l-.37-4.451a2 2 0 011.827-2.16l4.451-.37a59335.575 59335.575 0 013.986-.332l4.452-.371a2 2 0 001.827-2.16l-.371-4.45a2 2 0 00-2.16-1.827zM141.723 25.23l-.849 5.758a43888.54 43888.54 0 01-.386 2.617l-.849 5.76a43631.807 43631.807 0 00-.386 2.617l-.849 5.758a1.323 1.323 0 001.116 1.502l5.759.849 8.376 1.234a1.323 1.323 0 011.116 1.502l-.849 5.759a1.323 1.323 0 01-1.501 1.116l-5.759-.85-8.376-1.234a1.323 1.323 0 00-1.502 1.116l-.849 5.759a1.323 1.323 0 001.116 1.502l5.759.848 8.376 1.235a287744.928 287744.928 0 012.618.386l5.758.848a1.323 1.323 0 001.502-1.115l.849-5.759a38248.542 38248.542 0 00.386-2.617l.848-5.759 1.235-8.376a1.323 1.323 0 00-1.116-1.502l-5.759-.849a43697.49 43697.49 0 01-2.617-.385l-5.759-.85a1.323 1.323 0 01-1.116-1.501l.85-5.758a1.323 1.323 0 011.501-1.116l5.758.848a306859.46 306859.46 0 002.618.386l5.759.849a1.323 1.323 0 001.501-1.116l.849-5.759a1.323 1.323 0 00-1.116-1.501l-5.758-.849a287744.928 287744.928 0 00-2.618-.386l-5.758-.849a43664.618 43664.618 0 01-2.618-.385l-5.758-.85a1.323 1.323 0 00-1.502 1.116zM85.655 6.806l-5.48 1.963a46122.338 46122.338 0 01-2.49.893l-5.48 1.963a46122.338 46122.338 0 00-2.491.892l-5.48 1.964a1.323 1.323 0 00-.799 1.692l1.964 5.479a33826.947 33826.947 0 01.892 2.49l1.963 5.48a46122.338 46122.338 0 00.893 2.491l1.963 5.48a46122.338 46122.338 0 01.893 2.49l1.963 5.48 2.856 7.971a1.323 1.323 0 001.691.8l5.48-1.964a46122.338 46122.338 0 012.491-.893l5.48-1.963 7.97-2.856a1.323 1.323 0 00.8-1.691l-1.964-5.48a1.323 1.323 0 00-1.691-.8l-5.48 1.964a46122.338 46122.338 0 00-2.49.892l-5.48 1.964a1.323 1.323 0 01-1.692-.799l-1.964-5.48a1.323 1.323 0 01.8-1.691l5.479-1.964a1.323 1.323 0 00.8-1.692l-1.964-5.48a1.323 1.323 0 00-1.692-.799l-5.48 1.964a1.323 1.323 0 01-1.691-.8l-1.963-5.479a1.323 1.323 0 01.799-1.692l5.48-1.963a72081.733 72081.733 0 002.49-.892l5.48-1.964a1.323 1.323 0 00.799-1.692l-1.963-5.48a1.323 1.323 0 00-1.692-.798z" paint-order="markers stroke fill" fill="#fff"/><path d="M104.96 30.884l-.818 5.405-1.419 9.358a3014000.5 3014000.5 0 01-.6 3.955l-.818 5.405a3829674.8 3829674.8 0 00-.6 3.955l-.819 5.404a2 2 0 001.678 2.277l5.404.819a2 2 0 002.277-1.678l.82-5.404a2938863.4 2938863.4 0 01.598-3.955l.11-.725a.79.79 0 011.352-.55l3.836 5.207 5.022 6.816a2 2 0 002.796.424l3.596-2.65a2 2 0 00.424-2.796l-2.65-3.596a90833.239 90833.239 0 01-2.372-3.22l-2.65-3.596a2 2 0 01.425-2.797l3.595-2.65 6.817-5.021a2 2 0 00.423-2.797l-2.649-3.596a2 2 0 00-2.796-.424l-3.596 2.65a1537038.9 1537038.9 0 00-3.22 2.372l-3.596 2.65a1848307.4 1848307.4 0 01-3.039 2.238l.41-2.702 1.418-9.36a2 2 0 00-1.677-2.276l-5.404-.82a2 2 0 00-2.277 1.678z" stroke-linecap="round" fill="#fff"/></g></svg>