<?xml version="1.0" encoding="UTF-8" standalone="no"?>
<!-- Created with Inkscape (http://www.inkscape.org/) -->

<svg
   width="1024"
   height="1024"
   viewBox="0 0 270.93333 270.93333"
   version="1.1"
   id="svg5"
   inkscape:version="1.3 (0e150ed6c4, 2023-07-21)"
   sodipodi:docname="text_bottom.svg"
   xmlns:inkscape="http://www.inkscape.org/namespaces/inkscape"
   xmlns:sodipodi="http://sodipodi.sourceforge.net/DTD/sodipodi-0.dtd"
   xmlns="http://www.w3.org/2000/svg"
   xmlns:svg="http://www.w3.org/2000/svg">
  <sodipodi:namedview
     id="namedview7"
     pagecolor="#ffffff"
     bordercolor="#666666"
     borderopacity="1.0"
     inkscape:showpageshadow="2"
     inkscape:pageopacity="0.0"
     inkscape:pagecheckerboard="true"
     inkscape:deskcolor="#d1d1d1"
     inkscape:document-units="px"
     showgrid="false"
     inkscape:zoom="0.5946522"
     inkscape:cx="559.9912"
     inkscape:cy="567.55865"
     inkscape:window-width="2400"
     inkscape:window-height="1261"
     inkscape:window-x="3191"
     inkscape:window-y="425"
     inkscape:window-maximized="1"
     inkscape:current-layer="layer1" />
  <defs
     id="defs2" />
  <g
     inkscape:label="Layer 1"
     inkscape:groupmode="layer"
     id="layer1">
    <path
       d="m 12.057063,263.47449 c -0.04777,-0.78273 -0.102894,-1.40928 -0.165365,-1.87965 0.411574,0.18374 0.777214,0.31236 1.096919,0.38585 0.323379,0.0698 0.606336,0.10473 0.848871,0.10473 0.319705,0 0.573264,-0.0459 0.760677,-0.1378 0.191088,-0.0955 0.286632,-0.23519 0.286632,-0.41892 0,-0.0625 -0.0092,-0.12126 -0.02756,-0.17639 -0.01837,-0.0588 -0.05328,-0.12311 -0.104731,-0.19293 -0.05145,-0.0735 -0.124942,-0.1525 -0.220486,-0.23702 l -1.036284,-0.90399 c -0.242535,-0.20579 -0.411575,-0.35462 -0.507118,-0.44649 -0.194763,-0.18741 -0.347266,-0.36196 -0.457509,-0.52365 -0.106569,-0.16169 -0.185576,-0.32522 -0.237023,-0.49059 -0.04777,-0.16903 -0.07166,-0.34726 -0.07166,-0.53467 0,-0.22417 0.03858,-0.44282 0.115755,-0.65595 0.08085,-0.21681 0.200275,-0.41893 0.35829,-0.60634 0.158015,-0.18741 0.367477,-0.3491 0.628386,-0.48507 0.260909,-0.13597 0.540191,-0.22783 0.837847,-0.2756 0.297656,-0.0515 0.604499,-0.0772 0.92053,-0.0772 0.621035,0 1.297193,0.0717 2.028472,0.21497 0.01103,0.25356 0.02389,0.48691 0.03858,0.70004 0.0147,0.20947 0.04961,0.57878 0.104731,1.10795 -0.338079,-0.13597 -0.646759,-0.22967 -0.926042,-0.28112 -0.279283,-0.0551 -0.51998,-0.0827 -0.722092,-0.0827 -0.286632,0 -0.525492,0.0533 -0.71658,0.15986 -0.187413,0.10657 -0.28112,0.23886 -0.28112,0.39687 0,0.0735 0.0147,0.14515 0.0441,0.21498 0.0294,0.0698 0.08452,0.1525 0.165364,0.24804 0.08085,0.0919 0.187414,0.19477 0.319705,0.30868 0.132292,0.11025 0.339916,0.27561 0.622873,0.4961 l 0.396875,0.31419 c 0.117593,0.0956 0.244372,0.2113 0.380339,0.34726 0.135967,0.13597 0.253559,0.2701 0.352778,0.40239 0.09922,0.13229 0.174551,0.25356 0.225998,0.3638 0.05512,0.11025 0.09554,0.22233 0.121267,0.33625 0.02573,0.11024 0.03859,0.22967 0.03859,0.35829 0,0.33073 -0.07901,0.64676 -0.237022,0.94809 -0.158015,0.29765 -0.382176,0.54386 -0.672483,0.73862 -0.290307,0.19109 -0.610011,0.32522 -0.959114,0.40239 -0.345429,0.0772 -0.711068,0.11576 -1.096919,0.11576 -0.595313,0 -1.346803,-0.0864 -2.25447,-0.25907 z m 10.340798,-1.50482 c -0.06615,0.30868 -0.123105,0.61001 -0.170876,0.90399 l -0.121268,0.67248 c -0.363802,0.0808 -0.648596,0.13229 -0.854383,0.15434 -0.202113,0.0221 -0.398713,0.0331 -0.589801,0.0331 -0.312355,0 -0.5898,-0.0276 -0.832335,-0.0827 -0.242535,-0.0515 -0.444647,-0.14701 -0.606337,-0.28663 -0.161689,-0.14331 -0.271932,-0.30684 -0.330729,-0.49058 -0.05879,-0.18374 -0.08819,-0.3785 -0.08819,-0.58429 0,-0.0367 0.0018,-0.10104 0.0055,-0.19292 0.0037,-0.0956 0.01653,-0.30501 0.03859,-0.62839 l 0.121267,-1.9072 h -0.859895 c 0.01837,-0.25356 0.03491,-0.58797 0.04961,-1.00322 l 0.01654,-0.51263 h 0.915018 c 0.02205,-0.16903 0.04961,-0.53835 0.08268,-1.10794 l 0.942578,-0.19292 c 0.172714,-0.0331 0.540191,-0.11759 1.102431,-0.25356 -0.02572,0.48139 -0.04409,0.99953 -0.05512,1.55442 h 1.256771 c -0.0294,0.76435 -0.0441,1.26964 -0.0441,1.51585 h -1.267795 l -0.06615,1.37803 c -0.0073,0.20579 -0.01102,0.33809 -0.01102,0.39688 0,0.17639 0.01837,0.32338 0.05512,0.44097 0.04042,0.11759 0.108403,0.20211 0.20395,0.25356 0.09922,0.0515 0.207624,0.0772 0.325217,0.0772 0.08819,0 0.180063,-0.005 0.275607,-0.0165 0.09554,-0.0147 0.264583,-0.0551 0.507118,-0.12126 z m 6.162587,-0.0441 c -0.04777,0.22049 -0.139642,0.75333 -0.275607,1.59852 -0.426273,0.0845 -0.784563,0.13964 -1.07487,0.16537 -0.290307,0.0294 -0.584288,0.0441 -0.881945,0.0441 -0.437297,0 -0.839684,-0.0312 -1.207161,-0.0937 -0.367477,-0.0588 -0.685344,-0.16537 -0.953603,-0.31971 -0.264583,-0.15434 -0.486907,-0.34543 -0.66697,-0.57326 -0.180064,-0.23151 -0.317868,-0.50528 -0.413411,-0.82131 -0.09187,-0.31603 -0.137804,-0.64124 -0.137804,-0.97565 0,-0.47037 0.09371,-0.92972 0.281119,-1.37804 0.187413,-0.45199 0.428111,-0.80477 0.722093,-1.05833 0.297656,-0.25356 0.639409,-0.43362 1.02526,-0.54019 0.385851,-0.10657 0.780888,-0.15986 1.185113,-0.15986 0.418923,0 0.817636,0.0496 1.196137,0.14883 0.382176,0.0956 0.705556,0.26459 0.970139,0.50712 0.264583,0.24253 0.451996,0.5163 0.562239,0.82131 0.113918,0.30501 0.170877,0.6339 0.170877,0.98668 0,0.20946 -0.02389,0.44281 -0.07166,0.70004 l -3.864019,0.006 c -0.0037,0.0588 -0.0055,0.11208 -0.0055,0.15985 0,0.39688 0.141479,0.68903 0.424436,0.87644 0.282957,0.18741 0.628385,0.28112 1.036284,0.28112 0.242535,0 0.518142,-0.0276 0.826823,-0.0827 0.312355,-0.0588 0.696369,-0.15618 1.15204,-0.29214 z m -3.389974,-1.78594 h 1.819011 c 0.0037,-0.0625 0.0055,-0.11575 0.0055,-0.15985 0,-0.19109 -0.03491,-0.35461 -0.104731,-0.49058 -0.06615,-0.13597 -0.163528,-0.23519 -0.292144,-0.29766 -0.124942,-0.0625 -0.266421,-0.0937 -0.424436,-0.0937 -0.110243,0 -0.216811,0.0184 -0.319705,0.0551 -0.102893,0.0331 -0.1966,0.0845 -0.28112,0.15434 -0.08085,0.0661 -0.148828,0.1433 -0.203949,0.23151 -0.05512,0.0882 -0.09554,0.17455 -0.121268,0.25907 -0.02572,0.0808 -0.05144,0.19476 -0.07717,0.34175 z m 4.586111,3.45061 c 0.05145,-0.47037 0.08819,-0.85255 0.110243,-1.14653 0.0294,-0.40055 0.0588,-0.90215 0.0882,-1.50482 l 0.06063,-1.30638 c 0.02572,-0.59163 0.04409,-1.15755 0.05512,-1.69774 0.0147,-0.64676 0.02205,-1.26963 0.02205,-1.86862 0.514468,0.007 0.900319,0.011 1.157553,0.011 0.297656,0 0.650434,-0.004 1.058333,-0.011 -0.08452,0.96279 -0.16169,2.15893 -0.231511,3.58841 -0.06982,1.42949 -0.10473,2.74138 -0.10473,3.93568 -0.426273,-0.007 -0.786401,-0.011 -1.080382,-0.011 -0.338079,0 -0.71658,0.004 -1.135504,0.011 z m 2.43086,-3.16398 0.94809,-1.36701 0.711068,-1.09692 c 0.507118,0.007 0.891131,0.011 1.152039,0.011 0.360127,0 0.786401,-0.004 1.27882,-0.011 l -1.096919,1.42765 c -0.257233,0.32705 -0.519979,0.67983 -0.788237,1.05833 0.257233,0.47405 0.876432,1.52136 1.857595,3.14193 -0.429948,-0.007 -0.817636,-0.011 -1.163064,-0.011 -0.352778,0 -0.757003,0.004 -1.212674,0.011 l -0.341753,-0.68902 c -0.121267,-0.23886 -0.225998,-0.43913 -0.314193,-0.60082 -0.03307,-0.0661 -0.284795,-0.51629 -0.755165,-1.35048 z m 4.591622,3.05925 c -0.0147,-0.16169 -0.0294,-0.33073 -0.0441,-0.50712 -0.0147,-0.18006 -0.03859,-0.42627 -0.07166,-0.73863 l -0.0441,-0.39687 c 0.356453,0.13964 0.663296,0.24437 0.920529,0.31419 0.257234,0.0661 0.494257,0.0992 0.711068,0.0992 0.180064,0 0.325217,-0.0165 0.43546,-0.0496 0.113918,-0.0331 0.1966,-0.0808 0.248047,-0.14332 0.05145,-0.0625 0.07717,-0.12677 0.07717,-0.19292 0,-0.0588 -0.02021,-0.11576 -0.06063,-0.17088 -0.03675,-0.0588 -0.123104,-0.13781 -0.259072,-0.23702 -0.301331,-0.22049 -0.567751,-0.42076 -0.799262,-0.60083 -0.227835,-0.18006 -0.400549,-0.33991 -0.518142,-0.47955 -0.113918,-0.13964 -0.202113,-0.29031 -0.264584,-0.452 -0.05879,-0.16169 -0.08819,-0.32889 -0.08819,-0.5016 0,-0.30501 0.08636,-0.5898 0.259071,-0.85439 0.176389,-0.26458 0.433623,-0.45567 0.771702,-0.57326 0.341753,-0.12127 0.757002,-0.1819 1.245746,-0.1819 0.510793,0 1.163064,0.0661 1.956814,0.19843 l 0.0882,1.54892 c -0.444647,-0.17639 -0.872758,-0.26458 -1.284332,-0.26458 -0.290307,0 -0.501606,0.0294 -0.633897,0.0882 -0.128617,0.0588 -0.192926,0.14883 -0.192926,0.2701 0,0.0404 0.0074,0.079 0.02205,0.11575 0.0147,0.0367 0.04042,0.0753 0.07717,0.11576 0.04042,0.0404 0.08819,0.0827 0.143316,0.12678 0.05879,0.0404 0.198435,0.13778 0.418924,0.29214 0.220486,0.15434 0.3932,0.28112 0.518142,0.38034 0.205787,0.16169 0.361965,0.31235 0.468533,0.45199 0.110243,0.13597 0.192926,0.28296 0.248047,0.44098 0.05879,0.15434 0.08819,0.31787 0.08819,0.49058 0,0.26091 -0.06431,0.5016 -0.192925,0.72209 -0.124942,0.21681 -0.31603,0.39871 -0.573264,0.5457 -0.253559,0.14699 -0.529166,0.24805 -0.826823,0.30317 -0.297656,0.0588 -0.604499,0.0882 -0.920529,0.0882 -0.213137,0 -0.481395,-0.0184 -0.804775,-0.0551 -0.319705,-0.0367 -0.692694,-0.10104 -1.118967,-0.19292 z m 5.550738,0.10473 c 0.0294,-0.49242 0.05512,-1.15755 0.07717,-1.9954 z"
       id="text113"
       style="font-size:11.2889px;line-height:7.05555px;font-family:'Eras Bold ITC';-inkscape-font-specification:'Eras Bold ITC, Normal';text-align:center;letter-spacing:0px;word-spacing:0px;text-anchor:middle;stroke-width:0.264583"
       aria-label="Steks.net"
       sodipodi:nodetypes="cccscscccccccscsscsccccscssccccssccscccsscccccsccsscccccccccccccccsccsccccccsccccsccsscscsccssscccccsccsccscscscccccscscssscccsccccscccccsccccscsscccccsccsccscssccscccscccscsssccs" />
    <path
       d="m 84.728726,262.57379 1.307069,-6.26525 h -2.319927 l 0.168809,-0.80546 h 5.565898 l -0.16881,0.80546 H 86.98113 l -1.30707,6.26525 z m 4.118957,0 1.475879,-7.07071 h 0.872987 l -0.564306,2.71542 q 0.487136,-0.47267 0.906749,-0.67524 0.419613,-0.20739 0.863341,-0.20739 0.636654,0 0.988743,0.33762 0.352089,0.33279 0.352089,0.88263 0,0.2701 -0.154341,0.99357 l -0.63183,3.0241 h -0.872988 l 0.651123,-3.10127 q 0.139871,-0.67524 0.139871,-0.84888 0,-0.2508 -0.173633,-0.40996 -0.173632,-0.15917 -0.501606,-0.15917 -0.472667,0 -0.901926,0.25081 -0.429259,0.24598 -0.675239,0.68006 -0.241156,0.42926 -0.443728,1.38906 l -0.458198,2.19935 z m 9.255596,-1.74115 0.848871,0.0868 q -0.183279,0.63183 -0.844048,1.20096 -0.655947,0.56913 -1.567519,0.56913 -0.56913,0 -1.04662,-0.26045 -0.472667,-0.26527 -0.72347,-0.76688 -0.24598,-0.50161 -0.24598,-1.14308 0,-0.83923 0.38585,-1.6254 0.390674,-0.79099 1.008036,-1.17202 0.617361,-0.38585 1.336008,-0.38585 0.916396,0 1.46141,0.56913 0.549837,0.56913 0.549837,1.55305 0,0.3762 -0.06752,0.7717 h -3.771691 q -0.01929,0.14952 -0.01929,0.27009 0,0.71865 0.327974,1.09968 0.332796,0.3762 0.810286,0.3762 0.448552,0 0.882634,-0.29421 0.434082,-0.29421 0.675239,-0.84887 z m -2.536969,-1.26848 h 2.874588 q 0.0048,-0.13505 0.0048,-0.19293 0,-0.65595 -0.327973,-1.00321 -0.327973,-0.35209 -0.844049,-0.35209 -0.559483,0 -1.022504,0.38585 -0.458198,0.38585 -0.684885,1.16238 z m 10.50961,2.08359 q -0.92122,1.0418 -1.88585,1.0418 -0.59324,0 -0.9598,-0.33762 -0.36174,-0.34245 -0.36174,-0.83441 0,-0.32315 0.16399,-1.10932 l 0.61736,-2.95658 h 0.87299 l -0.68489,3.27491 q -0.0868,0.40997 -0.0868,0.63665 0,0.28939 0.17363,0.45338 0.17846,0.15916 0.5209,0.15916 0.36656,0 0.71382,-0.17845 0.35209,-0.17846 0.60289,-0.48232 0.25563,-0.30385 0.41479,-0.71864 0.10611,-0.26528 0.24598,-0.93087 l 0.46302,-2.21382 h 0.87299 l -1.07073,5.12217 H 105.883 Z m 1.92925,0.92604 1.47588,-7.07071 h 0.87299 l -1.47588,7.07071 z m 4.30224,-0.709 -0.1447,0.71382 q -0.3135,0.082 -0.60771,0.082 -0.5209,0 -0.82958,-0.25563 -0.23151,-0.19292 -0.23151,-0.52572 0,-0.16881 0.1254,-0.77652 l 0.62218,-2.97588 h -0.6897 l 0.13987,-0.67524 h 0.6897 l 0.26528,-1.25884 0.99839,-0.60289 -0.39068,1.86173 h 0.85852 l -0.14469,0.67524 h -0.8537 l -0.59324,2.83118 q -0.11094,0.54019 -0.11094,0.6463 0,0.15434 0.0868,0.23634 0.0916,0.082 0.29421,0.082 0.28939,0 0.51608,-0.0579 z m 1.94372,-5.37297 0.2074,-0.98874 h 0.86816 l -0.20739,0.98874 z m -1.27331,6.08197 1.07074,-5.12217 h 0.87299 l -1.07074,5.12217 z m 2.22347,0 1.07074,-5.12217 h 0.87298 l -0.17845,0.84405 q 0.48713,-0.54501 0.86816,-0.75241 0.38585,-0.20739 0.8344,-0.20739 0.47749,0 0.79582,0.25562 0.32315,0.25081 0.42444,0.70418 0.39067,-0.48231 0.81993,-0.71865 0.43408,-0.24115 0.91157,-0.24115 0.64148,0 0.95981,0.30385 0.32315,0.30386 0.32315,0.8537 0,0.23633 -0.11094,0.78135 l -0.6897,3.29902 h -0.87299 l 0.70418,-3.38584 q 0.0916,-0.41479 0.0916,-0.59324 0,-0.25081 -0.15917,-0.3955 -0.15916,-0.1447 -0.44855,-0.1447 -0.39067,0 -0.79582,0.23634 -0.40514,0.23633 -0.63183,0.62218 -0.22186,0.38103 -0.39067,1.17685 l -0.5209,2.48391 h -0.87299 l 0.72347,-3.45819 q 0.0772,-0.35208 0.0772,-0.5016 0,-0.25081 -0.15916,-0.40515 -0.15434,-0.15434 -0.40514,-0.15434 -0.37138,0 -0.78135,0.23634 -0.40514,0.23633 -0.66077,0.66077 -0.25563,0.41961 -0.41961,1.20096 l -0.50643,2.42121 z m 11.68646,-0.63665 q -0.45338,0.39067 -0.87299,0.57395 -0.41961,0.17846 -0.89711,0.17846 -0.709,0 -1.14308,-0.41479 -0.43408,-0.41962 -0.43408,-1.07074 0,-0.42926 0.19293,-0.75723 0.19774,-0.3328 0.52089,-0.53055 0.32315,-0.20257 0.791,-0.28938 0.29421,-0.0579 1.11414,-0.0916 0.82476,-0.0338 1.18167,-0.17364 0.10129,-0.35691 0.10129,-0.59324 0,-0.30386 -0.22187,-0.47749 -0.30386,-0.24116 -0.88746,-0.24116 -0.54983,0 -0.90192,0.24598 -0.34727,0.24116 -0.50643,0.68971 l -0.88263,-0.0772 q 0.27009,-0.76206 0.85369,-1.1672 0.58842,-0.40514 1.4807,-0.40514 0.95016,0 1.50482,0.45337 0.42444,0.33762 0.42444,0.87781 0,0.40997 -0.12058,0.95016 l -0.28457,1.27331 q -0.13504,0.60771 -0.13504,0.98874 0,0.24116 0.1061,0.69453 h -0.88263 q -0.0724,-0.2508 -0.10128,-0.63665 z m 0.32315,-1.95819 q -0.18328,0.0723 -0.3955,0.11093 -0.2074,0.0386 -0.69936,0.082 -0.76205,0.0675 -1.07556,0.17363 -0.3135,0.10129 -0.47266,0.32798 -0.15917,0.22668 -0.15917,0.5016 0,0.36656 0.25081,0.60289 0.25562,0.23634 0.72347,0.23634 0.43408,0 0.8344,-0.22669 0.40032,-0.23151 0.63183,-0.64148 0.23151,-0.40996 0.36174,-1.16719 z m 3.75722,1.88584 -0.1447,0.71382 q -0.3135,0.082 -0.60771,0.082 -0.5209,0 -0.82958,-0.25563 -0.23151,-0.19292 -0.23151,-0.52572 0,-0.16881 0.1254,-0.77652 l 0.62218,-2.97588 h -0.6897 l 0.13987,-0.67524 h 0.6897 l 0.26528,-1.25884 0.99839,-0.60289 -0.39068,1.86173 h 0.85852 l -0.14469,0.67524 h -0.8537 l -0.59324,2.83118 q -0.11094,0.54019 -0.11094,0.6463 0,0.15434 0.0868,0.23634 0.0916,0.082 0.29421,0.082 0.28939,0 0.51608,-0.0579 z m 4.46622,-1.03215 0.84887,0.0868 q -0.18328,0.63183 -0.84405,1.20096 -0.65595,0.56913 -1.56752,0.56913 -0.56913,0 -1.04662,-0.26045 -0.47267,-0.26527 -0.72347,-0.76688 -0.24598,-0.50161 -0.24598,-1.14308 0,-0.83923 0.38585,-1.6254 0.39068,-0.79099 1.00804,-1.17202 0.61736,-0.38585 1.33601,-0.38585 0.91639,0 1.46141,0.56913 0.54983,0.56913 0.54983,1.55305 0,0.3762 -0.0675,0.7717 h -3.77169 q -0.0193,0.14952 -0.0193,0.27009 0,0.71865 0.32798,1.09968 0.33279,0.3762 0.81028,0.3762 0.44856,0 0.88264,-0.29421 0.43408,-0.29421 0.67524,-0.84887 z m -2.53697,-1.26848 h 2.87459 q 0.005,-0.13505 0.005,-0.19293 0,-0.65595 -0.32797,-1.00321 -0.32798,-0.35209 -0.84405,-0.35209 -0.55949,0 -1.02251,0.38585 -0.45819,0.38585 -0.68488,1.16238 z m 9.05302,2.30063 -0.14469,0.71382 q -0.3135,0.082 -0.60772,0.082 -0.52089,0 -0.82958,-0.25563 -0.23151,-0.19292 -0.23151,-0.52572 0,-0.16881 0.12541,-0.77652 l 0.62218,-2.97588 h -0.68971 l 0.13987,-0.67524 h 0.68971 l 0.26527,-1.25884 0.99839,-0.60289 -0.39067,1.86173 h 0.85852 l -0.1447,0.67524 h -0.85369 l -0.59325,2.83118 q -0.11093,0.54019 -0.11093,0.6463 0,0.15434 0.0868,0.23634 0.0916,0.082 0.29421,0.082 0.28939,0 0.51607,-0.0579 z m 0.85852,-1.23472 q 0,-1.5 0.88264,-2.48392 0.72829,-0.81028 1.90996,-0.81028 0.92604,0 1.49035,0.57877 0.56913,0.57878 0.56913,1.5627 0,0.88263 -0.35692,1.64469 -0.35691,0.75723 -1.01768,1.16237 -0.65594,0.40515 -1.38424,0.40515 -0.59807,0 -1.09002,-0.25563 -0.48714,-0.25563 -0.74759,-0.72347 -0.25563,-0.46784 -0.25563,-1.08038 z m 0.87299,-0.0868 q 0,0.72347 0.34727,1.09968 0.34726,0.37138 0.88263,0.37138 0.27974,0 0.55466,-0.11093 0.27492,-0.11576 0.51125,-0.34727 0.23634,-0.23151 0.40032,-0.52572 0.16881,-0.29904 0.2701,-0.64148 0.14952,-0.47749 0.14952,-0.91639 0,-0.69454 -0.35209,-1.07556 -0.34727,-0.38585 -0.87781,-0.38585 -0.40997,0 -0.74759,0.19774 -0.33762,0.19293 -0.61254,0.56913 -0.27009,0.37621 -0.40032,0.87781 -0.1254,0.49679 -0.1254,0.88746 z m 5.4405,2.03054 -0.53537,-5.12217 h 0.83922 l 0.23151,2.30064 0.0916,1.2926 q 0.01,0.14469 0.0289,0.5836 0.1447,-0.49196 0.24598,-0.75241 0.10129,-0.26527 0.32315,-0.75241 l 1.22025,-2.67202 h 0.95016 l 0.16881,2.56109 q 0.0386,0.5836 0.0482,1.55787 0.24116,-0.6463 0.78617,-1.79421 l 1.09968,-2.32475 h 0.87299 l -2.50321,5.12217 h -0.90675 l -0.19293,-3.00481 q -0.0193,-0.27974 -0.0289,-1.09003 -0.19775,0.51608 -0.46785,1.11414 l -1.3553,2.9807 z m 9.92118,-1.74115 0.84887,0.0868 q -0.18328,0.63183 -0.84404,1.20096 -0.65595,0.56913 -1.56752,0.56913 -0.56913,0 -1.04662,-0.26045 -0.47267,-0.26527 -0.72347,-0.76688 -0.24598,-0.50161 -0.24598,-1.14308 0,-0.83923 0.38585,-1.6254 0.39067,-0.79099 1.00803,-1.17202 0.61736,-0.38585 1.33601,-0.38585 0.9164,0 1.46141,0.56913 0.54984,0.56913 0.54984,1.55305 0,0.3762 -0.0675,0.7717 h -3.77169 q -0.0193,0.14952 -0.0193,0.27009 0,0.71865 0.32797,1.09968 0.3328,0.3762 0.81029,0.3762 0.44855,0 0.88263,-0.29421 0.43409,-0.29421 0.67524,-0.84887 z m -2.53697,-1.26848 h 2.87459 q 0.005,-0.13505 0.005,-0.19293 0,-0.65595 -0.32797,-1.00321 -0.32797,-0.35209 -0.84405,-0.35209 -0.55948,0 -1.0225,0.38585 -0.4582,0.38585 -0.68489,1.16238 z m 4.26848,3.00963 1.07074,-5.12217 h 0.7717 l -0.21704,1.04662 q 0.39549,-0.59324 0.7717,-0.87781 0.38103,-0.28456 0.77652,-0.28456 0.26045,0 0.64148,0.1881 l -0.35691,0.81029 q -0.22669,-0.16399 -0.49678,-0.16399 -0.4582,0 -0.94052,0.51125 -0.48231,0.51125 -0.75723,1.83762 l -0.43408,2.05465 z m 6.03374,0 1.47588,-7.07071 h 0.87298 l -0.52572,2.52732 q 0.41479,-0.38103 0.75241,-0.53537 0.33762,-0.15916 0.70418,-0.15916 0.71865,0 1.19614,0.53537 0.48231,0.53536 0.48231,1.55787 0,0.68006 -0.19293,1.24437 -0.19292,0.5643 -0.47749,0.95015 -0.28456,0.38103 -0.58842,0.61254 -0.30386,0.22669 -0.62218,0.33762 -0.31833,0.11576 -0.61254,0.11576 -0.50643,0 -0.89228,-0.26528 -0.38585,-0.27009 -0.60289,-0.81993 l -0.20257,0.96945 z m 1.2926,-2.10289 -0.005,0.16399 q 0,0.65595 0.31351,0.99839 0.3135,0.34244 0.78135,0.34244 0.45819,0 0.83922,-0.31832 0.38585,-0.32315 0.63183,-1.00322 0.24598,-0.68006 0.24598,-1.25401 0,-0.6463 -0.3135,-1.00321 -0.30868,-0.35692 -0.76688,-0.35692 -0.47267,0 -0.86816,0.36656 -0.3955,0.36174 -0.66077,1.11897 -0.19775,0.56431 -0.19775,0.94533 z m 7.69772,1.17685 q -0.92122,1.0418 -1.88584,1.0418 -0.59325,0 -0.95981,-0.33762 -0.36173,-0.34245 -0.36173,-0.83441 0,-0.32315 0.16399,-1.10932 l 0.61736,-2.95658 h 0.87298 l -0.68488,3.27491 q -0.0868,0.40997 -0.0868,0.63665 0,0.28939 0.17364,0.45338 0.17845,0.15916 0.52089,0.15916 0.36656,0 0.71383,-0.17845 0.35209,-0.17846 0.60289,-0.48232 0.25563,-0.30385 0.41479,-0.71864 0.10611,-0.26528 0.24598,-0.93087 l 0.46302,-2.21382 h 0.87299 l -1.07074,5.12217 h -0.80546 z m 3.23633,-5.15593 0.20739,-0.98874 h 0.86817 l -0.2074,0.98874 z m -1.27331,6.08197 1.07074,-5.12217 h 0.87299 l -1.07074,5.12217 z m 2.16076,0 1.47588,-7.07071 h 0.87299 l -1.47588,7.07071 z m 5.71541,-0.74276 q -0.74758,0.85852 -1.56269,0.85852 -0.72829,0 -1.21543,-0.53537 -0.48231,-0.54019 -0.48231,-1.5627 0,-0.93569 0.38102,-1.70739 0.38585,-0.77652 0.95981,-1.16237 0.57877,-0.38585 1.15755,-0.38585 0.95498,0 1.44212,0.92122 l 0.57877,-2.75401 h 0.86817 l -1.47588,7.07071 H 185.484 Z m -2.39227,-1.40353 q 0,0.53536 0.10611,0.84405 0.10611,0.30868 0.36173,0.51607 0.25563,0.20257 0.61254,0.20257 0.59325,0 1.07556,-0.61736 0.6463,-0.81993 0.6463,-2.02572 0,-0.60771 -0.31833,-0.95015 -0.31832,-0.34245 -0.80064,-0.34245 -0.3135,0 -0.57395,0.13988 -0.25563,0.13987 -0.51125,0.47749 -0.2508,0.33279 -0.42444,0.84887 -0.17363,0.51607 -0.17363,0.90675 z m 5.67201,-3.93568 0.20739,-0.98874 h 0.86817 l -0.2074,0.98874 z m -1.27331,6.08197 1.07074,-5.12217 h 0.87298 l -1.07073,5.12217 z m 2.22829,0 1.07074,-5.12217 h 0.79099 l -0.1881,0.89228 q 0.51607,-0.52572 0.96462,-0.76688 0.44856,-0.24115 0.9164,-0.24115 0.62218,0 0.97427,0.33762 0.35691,0.33762 0.35691,0.90192 0,0.28457 -0.1254,0.89711 l -0.65112,3.10127 h -0.87299 l 0.68006,-3.24597 q 0.10129,-0.47267 0.10129,-0.69935 0,-0.25563 -0.17846,-0.41479 -0.17363,-0.15917 -0.50642,-0.15917 -0.67042,0 -1.19614,0.48232 -0.5209,0.48231 -0.76688,1.65433 l -0.49678,2.38263 z m 5.44532,0.46302 0.88263,0.082 q -0.01,0.29903 0.0724,0.44855 0.082,0.14951 0.26045,0.23151 0.23633,0.10611 0.61254,0.10611 0.79099,0 1.13826,-0.40997 0.22669,-0.27492 0.41961,-1.19614 l 0.0868,-0.41479 q -0.68006,0.68971 -1.44694,0.68971 -0.77653,0 -1.30225,-0.56913 -0.5209,-0.57395 -0.5209,-1.62057 0,-0.86334 0.40997,-1.58681 0.41479,-0.72347 0.98392,-1.09003 0.56913,-0.37138 1.17202,-0.37138 1.00804,0 1.55305,0.95498 l 0.17363,-0.83923 h 0.80064 l -1.03215,4.94372 q -0.16881,0.81511 -0.44373,1.26848 -0.27491,0.4582 -0.76687,0.709 -0.48714,0.2508 -1.12862,0.2508 -0.61736,0 -1.06591,-0.15916 -0.44373,-0.15916 -0.66559,-0.46784 -0.21704,-0.30386 -0.21704,-0.69936 0,-0.12058 0.0241,-0.26045 z m 1.09003,-2.72989 q 0,0.52572 0.10129,0.79099 0.14469,0.37138 0.40996,0.56913 0.2701,0.19293 0.59807,0.19293 0.42926,0 0.8537,-0.29904 0.42443,-0.30385 0.68488,-0.93568 0.26527,-0.63184 0.26527,-1.20579 0,-0.63183 -0.35209,-1.00321 -0.34726,-0.37621 -0.86334,-0.37621 -0.31832,0 -0.61736,0.17364 -0.29903,0.16881 -0.55948,0.5209 -0.25563,0.34726 -0.39068,0.8344 -0.13022,0.48714 -0.13022,0.73794 z m 6.76685,4.22989 1.4807,-7.08519 h 0.80547 l -0.14952,0.71383 q 0.44855,-0.46785 0.80064,-0.6463 0.35691,-0.18328 0.75241,-0.18328 0.73312,0 1.21543,0.53537 0.48231,0.53054 0.48231,1.52411 0,0.80064 -0.26527,1.46141 -0.26527,0.65594 -0.65112,1.05626 -0.38585,0.40032 -0.78135,0.58842 -0.3955,0.18811 -0.81029,0.18811 -0.92122,0 -1.42765,-0.93569 l -0.57877,2.78295 z m 1.72668,-4.05626 q 0,0.57395 0.082,0.79582 0.12057,0.3135 0.39549,0.50643 0.27492,0.19292 0.63666,0.19292 0.75241,0 1.21543,-0.84405 0.46302,-0.84887 0.46302,-1.7315 0,-0.65112 -0.31351,-1.00321 -0.30868,-0.35692 -0.7717,-0.35692 -0.33279,0 -0.61736,0.17846 -0.28456,0.17363 -0.53054,0.52572 -0.24116,0.34727 -0.40032,0.8537 -0.15917,0.50643 -0.15917,0.88263 z m 7.69291,1.1672 q -0.92122,1.0418 -1.88585,1.0418 -0.59325,0 -0.9598,-0.33762 -0.36174,-0.34245 -0.36174,-0.83441 0,-0.32315 0.16399,-1.10932 l 0.61736,-2.95658 h 0.87299 l -0.68489,3.27491 q -0.0868,0.40997 -0.0868,0.63665 0,0.28939 0.17364,0.45338 0.17845,0.15916 0.5209,0.15916 0.36655,0 0.71382,-0.17845 0.35209,-0.17846 0.60289,-0.48232 0.25563,-0.30385 0.41479,-0.71864 0.10611,-0.26528 0.24598,-0.93087 l 0.46302,-2.21382 h 0.87299 l -1.07074,5.12217 h -0.80546 z m 1.86172,0.92604 0.13987,-0.67524 2.75401,-3.10127 q 0.29421,-0.32798 0.65595,-0.68007 -0.62219,0.0627 -0.89228,0.0627 h -1.90514 l 0.15434,-0.7283 h 3.95979 l -0.11575,0.54984 -2.77813,3.12057 q -0.23633,0.26527 -0.70417,0.72829 0.72829,-0.0434 0.99838,-0.0434 h 2.01607 l -0.15916,0.76688 z m 4.93889,0 0.13987,-0.67524 2.75401,-3.10127 q 0.29421,-0.32798 0.65595,-0.68007 -0.62219,0.0627 -0.89228,0.0627 h -1.90514 l 0.15434,-0.7283 h 3.95979 l -0.11575,0.54984 -2.77813,3.12057 q -0.23633,0.26527 -0.70418,0.72829 0.7283,-0.0434 0.99839,-0.0434 h 2.01607 l -0.15916,0.76688 z m 5.00643,0 1.47588,-7.07071 h 0.87298 l -1.47588,7.07071 z m 6.02409,-1.74115 0.84887,0.0868 q -0.18328,0.63183 -0.84405,1.20096 -0.65595,0.56913 -1.56752,0.56913 -0.56913,0 -1.04662,-0.26045 -0.47267,-0.26527 -0.72347,-0.76688 -0.24598,-0.50161 -0.24598,-1.14308 0,-0.83923 0.38585,-1.6254 0.39067,-0.79099 1.00804,-1.17202 0.61736,-0.38585 1.336,-0.38585 0.9164,0 1.46141,0.56913 0.54984,0.56913 0.54984,1.55305 0,0.3762 -0.0675,0.7717 h -3.77169 q -0.0193,0.14952 -0.0193,0.27009 0,0.71865 0.32798,1.09968 0.33279,0.3762 0.81028,0.3762 0.44855,0 0.88264,-0.29421 0.43408,-0.29421 0.67524,-0.84887 z m -2.53697,-1.26848 h 2.87458 q 0.005,-0.13505 0.005,-0.19293 0,-0.65595 -0.32798,-1.00321 -0.32797,-0.35209 -0.84404,-0.35209 -0.55949,0 -1.02251,0.38585 -0.4582,0.38585 -0.68488,1.16238 z m 6.9646,3.47265 0.88264,0.082 q -0.01,0.29903 0.0723,0.44855 0.082,0.14951 0.26045,0.23151 0.23634,0.10611 0.61254,0.10611 0.791,0 1.13826,-0.40997 0.22669,-0.27492 0.41961,-1.19614 l 0.0868,-0.41479 q -0.68006,0.68971 -1.44694,0.68971 -0.77652,0 -1.30225,-0.56913 -0.52089,-0.57395 -0.52089,-1.62057 0,-0.86334 0.40996,-1.58681 0.41479,-0.72347 0.98392,-1.09003 0.56913,-0.37138 1.17202,-0.37138 1.00804,0 1.55305,0.95498 l 0.17364,-0.83923 h 0.80064 l -1.03216,4.94372 q -0.1688,0.81511 -0.44372,1.26848 -0.27492,0.4582 -0.76688,0.709 -0.48714,0.2508 -1.12862,0.2508 -0.61736,0 -1.06591,-0.15916 -0.44373,-0.15916 -0.66559,-0.46784 -0.21704,-0.30386 -0.21704,-0.69936 0,-0.12058 0.0241,-0.26045 z m 1.09003,-2.72989 q 0,0.52572 0.10129,0.79099 0.14469,0.37138 0.40996,0.56913 0.2701,0.19293 0.59807,0.19293 0.42926,0 0.8537,-0.29904 0.42443,-0.30385 0.68488,-0.93568 0.26528,-0.63184 0.26528,-1.20579 0,-0.63183 -0.35209,-1.00321 -0.34727,-0.37621 -0.86334,-0.37621 -0.31833,0 -0.61737,0.17364 -0.29903,0.16881 -0.55948,0.5209 -0.25563,0.34726 -0.39067,0.8344 -0.13023,0.48714 -0.13023,0.73794 z m 7.90512,1.63022 q -0.45338,0.39067 -0.87299,0.57395 -0.41961,0.17846 -0.89711,0.17846 -0.709,0 -1.14308,-0.41479 -0.43408,-0.41962 -0.43408,-1.07074 0,-0.42926 0.19293,-0.75723 0.19774,-0.3328 0.52089,-0.53055 0.32315,-0.20257 0.791,-0.28938 0.29421,-0.0579 1.11414,-0.0916 0.82476,-0.0338 1.18167,-0.17364 0.10129,-0.35691 0.10129,-0.59324 0,-0.30386 -0.22187,-0.47749 -0.30386,-0.24116 -0.88746,-0.24116 -0.54983,0 -0.90192,0.24598 -0.34727,0.24116 -0.50643,0.68971 l -0.88263,-0.0772 q 0.27009,-0.76206 0.85369,-1.1672 0.58842,-0.40514 1.4807,-0.40514 0.95016,0 1.50482,0.45337 0.42444,0.33762 0.42444,0.87781 0,0.40997 -0.12058,0.95016 l -0.28457,1.27331 q -0.13504,0.60771 -0.13504,0.98874 0,0.24116 0.1061,0.69453 h -0.88263 q -0.0724,-0.2508 -0.10128,-0.63665 z m 0.32315,-1.95819 q -0.18328,0.0723 -0.3955,0.11093 -0.2074,0.0386 -0.69936,0.082 -0.76205,0.0675 -1.07556,0.17363 -0.3135,0.10129 -0.47266,0.32798 -0.15917,0.22668 -0.15917,0.5016 0,0.36656 0.25081,0.60289 0.25562,0.23634 0.72347,0.23634 0.43408,0 0.8344,-0.22669 0.40032,-0.23151 0.63183,-0.64148 0.23151,-0.40996 0.36174,-1.16719 z m 1.71222,2.59484 1.07073,-5.12217 h 0.87299 l -0.17845,0.84405 q 0.48713,-0.54501 0.86816,-0.75241 0.38585,-0.20739 0.8344,-0.20739 0.47749,0 0.79582,0.25562 0.32315,0.25081 0.42444,0.70418 0.39067,-0.48231 0.81993,-0.71865 0.43408,-0.24115 0.91157,-0.24115 0.64148,0 0.9598,0.30385 0.32315,0.30386 0.32315,0.8537 0,0.23633 -0.11093,0.78135 l -0.68971,3.29902 h -0.87298 l 0.70417,-3.38584 q 0.0916,-0.41479 0.0916,-0.59324 0,-0.25081 -0.15916,-0.3955 -0.15916,-0.1447 -0.44855,-0.1447 -0.39067,0 -0.79582,0.23634 -0.40514,0.23633 -0.63183,0.62218 -0.22186,0.38103 -0.39067,1.17685 l -0.5209,2.48391 h -0.87299 l 0.72347,-3.45819 q 0.0772,-0.35208 0.0772,-0.5016 0,-0.25081 -0.15916,-0.40515 -0.15434,-0.15434 -0.40515,-0.15434 -0.37138,0 -0.78134,0.23634 -0.40515,0.23633 -0.66077,0.66077 -0.25563,0.41961 -0.41962,1.20096 l -0.50642,2.42121 z m 11.99512,-1.74115 0.84887,0.0868 q -0.18327,0.63183 -0.84404,1.20096 -0.65595,0.56913 -1.56752,0.56913 -0.56913,0 -1.04662,-0.26045 -0.47267,-0.26527 -0.72347,-0.76688 -0.24598,-0.50161 -0.24598,-1.14308 0,-0.83923 0.38585,-1.6254 0.39067,-0.79099 1.00803,-1.17202 0.61736,-0.38585 1.33601,-0.38585 0.9164,0 1.46141,0.56913 0.54984,0.56913 0.54984,1.55305 0,0.3762 -0.0675,0.7717 h -3.77169 q -0.0193,0.14952 -0.0193,0.27009 0,0.71865 0.32797,1.09968 0.3328,0.3762 0.81029,0.3762 0.44855,0 0.88263,-0.29421 0.43409,-0.29421 0.67524,-0.84887 z m -2.53697,-1.26848 h 2.87459 q 0.005,-0.13505 0.005,-0.19293 0,-0.65595 -0.32798,-1.00321 -0.32797,-0.35209 -0.84405,-0.35209 -0.55948,0 -1.0225,0.38585 -0.4582,0.38585 -0.68489,1.16238 z"
       id="text113-1"
       style="font-style:italic;font-size:9.87778px;line-height:6.1736px;font-family:Arial;-inkscape-font-specification:'Arial, Italic';text-align:center;letter-spacing:0px;word-spacing:0px;text-anchor:middle;stroke-width:0.264583"
       aria-label="The ultimate tower building puzzle game" />
  </g>
</svg>
