<?xml version="1.0" encoding="UTF-8" standalone="no"?>
<svg
   width="1024"
   height="1024"
   viewBox="0 0 270.93 270.93"
   version="1.1"
   id="svg23"
   sodipodi:docname="text_right.svg"
   inkscape:version="1.3 (0e150ed6c4, 2023-07-21)"
   xmlns:inkscape="http://www.inkscape.org/namespaces/inkscape"
   xmlns:sodipodi="http://sodipodi.sourceforge.net/DTD/sodipodi-0.dtd"
   xmlns="http://www.w3.org/2000/svg"
   xmlns:svg="http://www.w3.org/2000/svg">
  <sodipodi:namedview
     id="namedview23"
     pagecolor="#ffffff"
     bordercolor="#111111"
     borderopacity="1"
     inkscape:showpageshadow="0"
     inkscape:pageopacity="0"
     inkscape:pagecheckerboard="1"
     inkscape:deskcolor="#d1d1d1"
     inkscape:zoom="5.9179687"
     inkscape:cx="951.93135"
     inkscape:cy="801.20396"
     inkscape:window-width="2400"
     inkscape:window-height="1261"
     inkscape:window-x="3191"
     inkscape:window-y="425"
     inkscape:window-maximized="1"
     inkscape:current-layer="svg23" />
  <defs
     id="defs6">
    <filter
       id="b"
       width="1.2206722"
       height="1.2206722"
       x="-0.091312619"
       y="-0.091312619"
       style="color-interpolation-filters:sRGB">
      <feColorMatrix
         result="result1"
         values="0 0 0 0 0 0 0 0 0 0 0 0 0 0 0 0.21 0.72 0.07 0 0"
         id="feColorMatrix1" />
      <feColorMatrix
         result="result9"
         values="1 0 0 0 0 0 1 0 0 0 0 0 1 0 0 0 0 0 2 0"
         id="feColorMatrix2" />
      <feComposite
         in="SourceGraphic"
         in2="result9"
         operator="in"
         result="result4"
         id="feComposite2" />
      <feFlood
         flood-color="#000"
         result="result2"
         id="feFlood2" />
      <feComposite
         in2="result9"
         operator="in"
         result="result10"
         id="feComposite3" />
      <feComposite
         in2="result4"
         operator="atop"
         id="feComposite4" />
      <feGaussianBlur
         result="result8"
         stdDeviation="3"
         id="feGaussianBlur4" />
      <feOffset
         dx="3"
         dy="3"
         in="result8"
         result="result3"
         id="feOffset4" />
      <feFlood
         flood-color="#DBAD3E"
         flood-opacity="1"
         result="result5"
         id="feFlood4" />
      <feMerge
         result="result6"
         id="feMerge6">
        <feMergeNode
           in="result5"
           id="feMergeNode4" />
        <feMergeNode
           in="result3"
           id="feMergeNode5" />
        <feMergeNode
           in="result4"
           id="feMergeNode6" />
      </feMerge>
      <feComposite
         in2="SourceGraphic"
         operator="in"
         result="result7"
         id="feComposite6" />
    </filter>
    <path
       id="a"
       d="M732.53 552.62h121.75V852.6H732.53z" />
  </defs>
  <path
     d="m 229.78,95.22 1.4,-6.72 h -2.48 l 0.18,-0.86 h 5.96 l -0.18,0.86 h -2.47 l -1.4,6.72 z m 4.41,0 1.59,-7.58 h 0.93 l -0.6,2.91 q 0.52,-0.5 0.97,-0.72 0.45,-0.23 0.92,-0.23 0.68,0 1.06,0.37 0.38,0.35 0.38,0.94 0,0.3 -0.17,1.07 l -0.67,3.24 h -0.94 l 0.7,-3.33 q 0.15,-0.72 0.15,-0.9 0,-0.27 -0.19,-0.44 -0.18,-0.18 -0.53,-0.18 -0.51,0 -0.97,0.27 -0.46,0.27 -0.72,0.73 -0.26,0.46 -0.48,1.49 l -0.5,2.36 z m 9.92,-1.87 0.91,0.1 q -0.2,0.67 -0.9,1.28 -0.7,0.61 -1.68,0.61 -0.61,0 -1.13,-0.28 -0.5,-0.28 -0.77,-0.82 -0.26,-0.54 -0.26,-1.22 0,-0.9 0.4,-1.75 0.43,-0.84 1.09,-1.25 0.66,-0.42 1.43,-0.42 0.98,0 1.57,0.61 0.59,0.61 0.59,1.67 0,0.4 -0.08,0.83 h -4.04 l -0.02,0.28 q 0,0.77 0.35,1.18 0.36,0.4 0.87,0.4 0.48,0 0.95,-0.3 0.46,-0.32 0.72,-0.92 z M 241.39,92 h 3.08 v -0.2 q 0,-0.7 -0.34,-1.08 -0.36,-0.38 -0.9,-0.38 -0.6,0 -1.1,0.42 -0.5,0.41 -0.74,1.24 z m -22.2,8.87 h 1.01 l -0.97,4.66 q -0.12,0.57 -0.12,0.85 0,0.61 0.48,0.99 0.48,0.37 1.2,0.37 0.59,0 1.08,-0.27 0.5,-0.26 0.8,-0.78 0.28,-0.52 0.52,-1.65 l 0.87,-4.17 h 1.01 l -0.92,4.44 q -0.24,1.14 -0.63,1.8 -0.38,0.67 -1.07,1.07 -0.69,0.4 -1.6,0.4 -0.86,0 -1.49,-0.28 -0.62,-0.29 -0.94,-0.79 -0.3,-0.5 -0.3,-1.14 0,-0.4 0.2,-1.37 z m 5.82,7.58 1.58,-7.58 h 0.94 l -1.58,7.58 z m 4.61,-0.76 -0.15,0.76 q -0.34,0.09 -0.66,0.09 -0.55,0 -0.88,-0.27 -0.25,-0.21 -0.25,-0.57 0,-0.18 0.13,-0.83 l 0.67,-3.19 h -0.74 l 0.15,-0.72 h 0.74 l 0.28,-1.35 1.07,-0.65 -0.42,2 h 0.92 l -0.15,0.72 h -0.92 l -0.63,3.03 q -0.12,0.58 -0.12,0.7 0,0.16 0.1,0.25 0.09,0.09 0.3,0.09 0.32,0 0.56,-0.06 z m 2.08,-5.76 0.23,-1.06 h 0.93 l -0.23,1.06 z m -1.36,6.52 1.15,-5.5 h 0.93 l -1.15,5.5 z m 2.38,0 1.15,-5.5 h 0.93 l -0.19,0.91 q 0.52,-0.58 0.93,-0.8 0.42,-0.23 0.9,-0.23 0.5,0 0.85,0.28 0.35,0.27 0.45,0.75 0.42,-0.51 0.88,-0.77 0.47,-0.26 0.98,-0.26 0.69,0 1.03,0.33 0.34,0.32 0.34,0.91 0,0.26 -0.12,0.84 l -0.73,3.54 h -0.94 l 0.76,-3.63 q 0.1,-0.45 0.1,-0.64 0,-0.27 -0.18,-0.42 -0.17,-0.16 -0.48,-0.16 -0.42,0 -0.85,0.26 -0.43,0.25 -0.68,0.66 -0.24,0.41 -0.42,1.26 l -0.55,2.67 h -0.94 l 0.78,-3.7 q 0.08,-0.39 0.08,-0.55 0,-0.27 -0.17,-0.43 -0.17,-0.17 -0.44,-0.17 -0.4,0 -0.83,0.26 -0.44,0.25 -0.71,0.7 -0.28,0.45 -0.45,1.3 l -0.54,2.59 z m 12.52,-0.69 q -0.48,0.42 -0.93,0.62 -0.45,0.19 -0.96,0.19 -0.76,0 -1.23,-0.44 -0.46,-0.45 -0.46,-1.15 0,-0.46 0.2,-0.81 0.21,-0.36 0.56,-0.57 0.35,-0.22 0.85,-0.31 0.31,-0.06 1.2,-0.1 0.88,-0.04 1.26,-0.19 0.1,-0.38 0.1,-0.63 0,-0.33 -0.23,-0.51 -0.33,-0.26 -0.95,-0.26 -0.6,0 -0.97,0.26 -0.37,0.26 -0.54,0.74 l -0.95,-0.08 q 0.3,-0.82 0.92,-1.25 0.63,-0.44 1.58,-0.44 1.02,0 1.62,0.49 0.45,0.36 0.45,0.94 0,0.44 -0.13,1.02 l -0.3,1.36 q -0.15,0.65 -0.15,1.06 0,0.26 0.12,0.75 h -0.95 q -0.08,-0.27 -0.1,-0.69 z m 0.35,-2.1 q -0.2,0.08 -0.43,0.12 -0.22,0.05 -0.74,0.1 -0.82,0.06 -1.16,0.18 -0.33,0.1 -0.5,0.35 -0.17,0.24 -0.17,0.54 0,0.39 0.26,0.64 0.28,0.26 0.78,0.26 0.46,0 0.9,-0.25 0.42,-0.24 0.67,-0.68 0.25,-0.44 0.39,-1.25 z m 4.02,2.03 -0.15,0.76 q -0.34,0.09 -0.65,0.09 -0.56,0 -0.9,-0.27 -0.24,-0.21 -0.24,-0.57 0,-0.18 0.14,-0.83 l 0.66,-3.19 h -0.74 l 0.15,-0.72 h 0.74 l 0.29,-1.35 1.07,-0.65 -0.42,2 h 0.92 l -0.16,0.72 h -0.91 l -0.64,3.03 q -0.12,0.58 -0.12,0.7 0,0.16 0.1,0.25 0.1,0.09 0.31,0.09 0.31,0 0.55,-0.06 z m 4.79,-1.11 0.9,0.1 q -0.19,0.67 -0.9,1.28 -0.7,0.61 -1.68,0.61 -0.6,0 -1.12,-0.28 -0.5,-0.28 -0.77,-0.82 -0.27,-0.54 -0.27,-1.23 0,-0.9 0.42,-1.74 0.42,-0.84 1.08,-1.25 0.66,-0.42 1.43,-0.42 0.98,0 1.57,0.61 0.58,0.61 0.58,1.67 0,0.4 -0.07,0.82 h -4.04 l -0.02,0.3 q 0,0.76 0.35,1.17 0.36,0.4 0.87,0.4 0.48,0 0.95,-0.31 0.46,-0.32 0.72,-0.91 z m -2.72,-1.36 h 3.08 v -0.2 q 0,-0.7 -0.35,-1.08 -0.35,-0.38 -0.9,-0.38 -0.6,0 -1.1,0.42 -0.49,0.4 -0.73,1.24 z m -27,16.46 1.4,-6.72 h -2.48 l 0.18,-0.86 h 5.96 l -0.18,0.86 h -2.46 l -1.4,6.72 z m 3.61,-2.09 q 0,-1.6 0.95,-2.66 0.78,-0.87 2.04,-0.87 1,0 1.6,0.62 0.6,0.62 0.6,1.68 0,0.94 -0.37,1.76 -0.39,0.81 -1.1,1.25 -0.7,0.43 -1.48,0.43 -0.64,0 -1.17,-0.27 -0.52,-0.28 -0.8,-0.78 -0.27,-0.5 -0.27,-1.16 z m 0.94,-0.09 q 0,0.77 0.37,1.18 0.37,0.4 0.94,0.4 0.3,0 0.6,-0.12 0.3,-0.13 0.54,-0.38 0.26,-0.24 0.43,-0.56 0.18,-0.32 0.3,-0.69 0.15,-0.5 0.15,-0.98 0,-0.74 -0.37,-1.15 -0.38,-0.41 -0.94,-0.41 -0.44,0 -0.8,0.2 -0.37,0.22 -0.66,0.62 -0.3,0.4 -0.43,0.94 -0.13,0.53 -0.13,0.95 z m 5.82,2.18 -0.57,-5.5 h 0.9 l 0.25,2.47 0.1,1.39 0.03,0.62 q 0.15,-0.52 0.26,-0.8 0.1,-0.29 0.35,-0.81 l 1.3,-2.86 h 1.02 l 0.18,2.74 q 0.04,0.63 0.05,1.67 0.26,-0.7 0.85,-1.92 l 1.18,-2.5 h 0.93 l -2.68,5.5 h -0.97 l -0.21,-3.22 q -0.02,-0.3 -0.03,-1.17 -0.21,0.55 -0.5,1.2 l -1.45,3.19 z m 10.63,-1.87 0.91,0.1 q -0.2,0.67 -0.9,1.28 -0.7,0.6 -1.68,0.6 -0.61,0 -1.12,-0.27 -0.5,-0.28 -0.78,-0.82 -0.26,-0.54 -0.26,-1.23 0,-0.9 0.41,-1.74 0.42,-0.85 1.08,-1.25 0.66,-0.42 1.43,-0.42 0.99,0 1.57,0.61 0.59,0.61 0.59,1.67 0,0.4 -0.07,0.82 h -4.04 l -0.02,0.3 q 0,0.76 0.35,1.17 0.35,0.4 0.86,0.4 0.49,0 0.95,-0.31 0.47,-0.32 0.72,-0.91 z m -2.71,-1.36 h 3.08 v -0.2 q 0,-0.7 -0.35,-1.08 -0.35,-0.38 -0.9,-0.38 -0.6,0 -1.1,0.42 -0.5,0.4 -0.73,1.24 z m 4.57,3.23 1.15,-5.5 h 0.82 l -0.23,1.13 q 0.42,-0.64 0.83,-0.94 0.4,-0.3 0.83,-0.3 0.28,0 0.69,0.2 l -0.39,0.86 q -0.24,-0.17 -0.53,-0.17 -0.49,0 -1,0.54 -0.52,0.55 -0.82,1.97 l -0.46,2.2 z m -29.41,13.22 1.58,-7.57 h 2.35 q 0.64,0 0.95,0.05 0.5,0.09 0.85,0.31 0.36,0.22 0.55,0.6 0.19,0.38 0.19,0.84 0,0.62 -0.35,1.1 -0.34,0.47 -1.05,0.72 0.62,0.2 0.92,0.61 0.3,0.4 0.3,0.95 0,0.62 -0.35,1.2 -0.36,0.57 -0.96,0.88 -0.58,0.31 -1.31,0.31 z m 1.92,-4.34 h 1.53 q 1.1,0 1.59,-0.35 0.48,-0.35 0.48,-1.02 0,-0.32 -0.15,-0.55 -0.15,-0.24 -0.4,-0.34 -0.25,-0.1 -0.94,-0.1 h -1.61 z m -0.73,3.49 h 1.73 q 0.68,0 0.92,-0.05 0.48,-0.08 0.78,-0.28 0.3,-0.2 0.47,-0.53 0.17,-0.32 0.17,-0.68 0,-0.53 -0.33,-0.8 -0.33,-0.28 -1.27,-0.28 h -1.92 z m 9.5,-0.14 q -0.98,1.12 -2.02,1.12 -0.63,0 -1.02,-0.36 -0.4,-0.37 -0.4,-0.9 0,-0.34 0.18,-1.19 l 0.67,-3.16 h 0.93 l -0.73,3.5 q -0.1,0.44 -0.1,0.69 0,0.3 0.19,0.48 0.2,0.17 0.56,0.17 0.4,0 0.76,-0.19 0.38,-0.19 0.65,-0.51 0.27,-0.33 0.44,-0.77 0.12,-0.29 0.27,-1 l 0.5,-2.37 h 0.93 l -1.15,5.48 h -0.86 z m 3.47,-5.52 0.22,-1.06 h 0.93 l -0.22,1.06 z m -1.36,6.51 1.15,-5.48 h 0.93 l -1.15,5.48 z m 2.31,0 1.58,-7.57 h 0.94 l -1.58,7.57 z m 6.13,-0.8 q -0.8,0.93 -1.68,0.93 -0.78,0 -1.3,-0.58 -0.52,-0.57 -0.52,-1.67 0,-1 0.41,-1.83 0.41,-0.83 1.03,-1.24 0.62,-0.42 1.24,-0.42 1.02,0 1.55,0.99 l 0.62,-2.95 h 0.93 l -1.59,7.57 h -0.86 z m -2.57,-1.5 q 0,0.58 0.12,0.9 0.11,0.34 0.38,0.56 0.28,0.22 0.66,0.22 0.64,0 1.15,-0.66 0.7,-0.88 0.7,-2.17 0,-0.65 -0.35,-1.02 -0.34,-0.37 -0.85,-0.37 -0.34,0 -0.62,0.15 -0.27,0.15 -0.55,0.51 -0.26,0.36 -0.45,0.91 -0.19,0.56 -0.19,0.97 z m 6.08,-4.21 0.22,-1.06 h 0.93 l -0.22,1.06 z m -1.36,6.51 1.14,-5.48 h 0.94 l -1.15,5.48 z m 2.38,0 1.15,-5.48 h 0.85 l -0.2,0.95 q 0.55,-0.56 1.03,-0.82 0.48,-0.26 0.98,-0.26 0.67,0 1.05,0.36 0.38,0.37 0.38,0.97 0,0.3 -0.14,0.96 l -0.7,3.32 h -0.93 l 0.73,-3.47 q 0.1,-0.51 0.1,-0.75 0,-0.28 -0.18,-0.45 -0.19,-0.17 -0.55,-0.17 -0.71,0 -1.28,0.52 -0.56,0.52 -0.82,1.77 l -0.53,2.55 z m 5.84,0.5 0.94,0.09 q 0,0.32 0.08,0.48 0.09,0.16 0.28,0.25 0.25,0.11 0.66,0.11 0.84,0 1.22,-0.44 0.24,-0.3 0.45,-1.28 l 0.09,-0.44 q -0.73,0.73 -1.55,0.73 -0.83,0 -1.4,-0.6 -0.55,-0.62 -0.55,-1.74 0,-0.93 0.43,-1.7 0.45,-0.78 1.06,-1.17 0.6,-0.4 1.25,-0.4 1.08,0 1.67,1.03 l 0.18,-0.9 h 0.86 l -1.1,5.3 q -0.18,0.87 -0.48,1.35 -0.3,0.5 -0.82,0.76 -0.52,0.27 -1.21,0.27 -0.66,0 -1.14,-0.17 -0.48,-0.17 -0.72,-0.5 -0.23,-0.33 -0.23,-0.75 0,-0.13 0.03,-0.28 z m 1.17,-2.92 q 0,0.56 0.1,0.84 0.16,0.4 0.44,0.61 0.3,0.21 0.64,0.21 0.46,0 0.92,-0.32 0.45,-0.33 0.73,-1 0.29,-0.68 0.29,-1.3 0,-0.67 -0.38,-1.07 -0.37,-0.4 -0.93,-0.4 -0.34,0 -0.66,0.18 -0.32,0.18 -0.6,0.56 -0.27,0.37 -0.41,0.9 -0.14,0.52 -0.14,0.79 z m -29.84,15.65 1.58,-7.57 h 3.17 q 0.82,0 1.23,0.19 0.41,0.19 0.68,0.64 0.27,0.46 0.27,1.03 0,0.47 -0.2,0.95 -0.18,0.49 -0.48,0.8 -0.29,0.32 -0.59,0.48 -0.3,0.16 -0.64,0.24 -0.73,0.17 -1.47,0.17 h -1.9 l -0.64,3.07 z m 1.83,-3.93 h 1.67 q 0.97,0 1.43,-0.2 0.45,-0.22 0.73,-0.65 0.27,-0.43 0.27,-0.9 0,-0.38 -0.14,-0.61 -0.15,-0.24 -0.41,-0.35 -0.27,-0.11 -1.02,-0.11 h -1.94 z m 8.87,2.94 q -0.99,1.12 -2.02,1.12 -0.64,0 -1.03,-0.36 -0.39,-0.37 -0.39,-0.9 0,-0.34 0.18,-1.19 l 0.66,-3.16 h 0.94 l -0.74,3.5 q -0.1,0.44 -0.1,0.69 0,0.3 0.2,0.48 0.19,0.17 0.55,0.17 0.4,0 0.77,-0.19 0.38,-0.19 0.64,-0.52 0.28,-0.32 0.45,-0.77 0.11,-0.28 0.26,-1 l 0.5,-2.36 h 0.93 l -1.14,5.48 h -0.87 z m 2,1 0.14,-0.73 2.96,-3.32 q 0.31,-0.35 0.7,-0.73 -0.67,0.07 -0.96,0.07 h -2.04 l 0.17,-0.78 h 4.24 l -0.13,0.58 -2.97,3.35 q -0.25,0.28 -0.76,0.78 0.78,-0.05 1.07,-0.05 h 2.16 l -0.17,0.82 z m 5.29,0 0.15,-0.73 2.95,-3.32 q 0.31,-0.35 0.7,-0.73 -0.67,0.07 -0.96,0.07 h -2.04 l 0.17,-0.78 h 4.24 l -0.12,0.58 -2.98,3.35 q -0.25,0.28 -0.75,0.78 0.78,-0.05 1.07,-0.05 h 2.16 l -0.18,0.82 z m 5.36,0 1.58,-7.58 h 0.94 l -1.58,7.57 z m 6.45,-1.87 0.91,0.1 q -0.2,0.67 -0.9,1.28 -0.7,0.6 -1.68,0.6 -0.6,0 -1.12,-0.27 -0.5,-0.29 -0.78,-0.82 -0.26,-0.54 -0.26,-1.23 0,-0.9 0.41,-1.74 0.42,-0.85 1.08,-1.26 0.67,-0.4 1.44,-0.4 0.98,0 1.56,0.6 0.59,0.61 0.59,1.67 0,0.4 -0.07,0.82 H 248 l -0.02,0.3 q 0,0.76 0.35,1.17 0.35,0.4 0.87,0.4 0.48,0 0.94,-0.31 0.47,-0.32 0.72,-0.91 z m -2.71,-1.36 h 3.08 v -0.2 q 0,-0.71 -0.35,-1.08 -0.35,-0.38 -0.9,-0.38 -0.6,0 -1.1,0.41 -0.5,0.42 -0.73,1.25 z m -21.74,13.47 0.18,-0.86 h 3.32 l -0.65,3.08 q -0.62,0.4 -1.42,0.64 -0.8,0.25 -1.58,0.25 -1.65,0 -2.47,-1 -0.69,-0.84 -0.69,-2.16 0,-1.36 0.6,-2.48 0.6,-1.12 1.52,-1.65 0.92,-0.54 2.04,-0.54 0.81,0 1.45,0.3 0.64,0.28 0.98,0.77 0.34,0.49 0.5,1.27 l -1,0.11 q -0.16,-0.78 -0.66,-1.2 -0.5,-0.41 -1.3,-0.41 -0.82,0 -1.53,0.45 -0.71,0.44 -1.14,1.35 -0.43,0.9 -0.43,2.04 0,1.15 0.57,1.73 0.56,0.58 1.55,0.58 0.99,0 2.13,-0.65 l 0.34,-1.62 z m 7.95,2.3 q -0.49,0.42 -0.94,0.62 -0.45,0.19 -0.96,0.19 -0.76,0 -1.22,-0.45 -0.47,-0.45 -0.47,-1.14 0,-0.46 0.21,-0.82 0.21,-0.35 0.56,-0.56 0.34,-0.22 0.85,-0.31 0.31,-0.07 1.19,-0.1 0.88,-0.04 1.27,-0.19 0.1,-0.38 0.1,-0.63 0,-0.33 -0.23,-0.52 -0.33,-0.25 -0.95,-0.25 -0.6,0 -0.97,0.26 -0.37,0.26 -0.54,0.74 l -0.95,-0.08 q 0.29,-0.82 0.92,-1.26 0.63,-0.43 1.58,-0.43 1.02,0 1.61,0.49 0.46,0.36 0.46,0.94 0,0.44 -0.13,1.01 l -0.3,1.37 q -0.15,0.65 -0.15,1.06 0,0.26 0.11,0.74 h -0.94 q -0.08,-0.27 -0.11,-0.68 z m 0.35,-2.1 q -0.2,0.08 -0.43,0.12 -0.22,0.04 -0.75,0.09 -0.81,0.07 -1.15,0.19 -0.34,0.1 -0.5,0.35 -0.18,0.24 -0.18,0.53 0,0.4 0.27,0.65 0.28,0.25 0.78,0.25 0.46,0 0.9,-0.24 0.42,-0.25 0.67,-0.69 0.25,-0.44 0.39,-1.25 z m 1.83,2.78 1.15,-5.49 h 0.93 l -0.19,0.9 q 0.52,-0.57 0.93,-0.8 0.42,-0.22 0.9,-0.22 0.5,0 0.85,0.27 0.34,0.27 0.45,0.76 0.42,-0.52 0.88,-0.77 0.47,-0.26 0.98,-0.26 0.69,0 1.03,0.33 0.34,0.32 0.34,0.91 0,0.25 -0.12,0.84 l -0.73,3.53 H 243 l 0.75,-3.62 q 0.1,-0.45 0.1,-0.64 0,-0.27 -0.17,-0.42 -0.17,-0.16 -0.48,-0.16 -0.42,0 -0.85,0.25 -0.44,0.26 -0.68,0.67 -0.24,0.4 -0.42,1.26 l -0.56,2.66 h -0.93 l 0.77,-3.7 q 0.09,-0.38 0.09,-0.54 0,-0.27 -0.17,-0.43 -0.17,-0.17 -0.44,-0.17 -0.4,0 -0.83,0.25 -0.44,0.26 -0.71,0.71 -0.28,0.45 -0.45,1.29 l -0.54,2.6 z m 12.85,-1.86 0.91,0.09 q -0.2,0.68 -0.9,1.29 -0.7,0.6 -1.68,0.6 -0.61,0 -1.12,-0.27 -0.51,-0.29 -0.78,-0.82 -0.26,-0.54 -0.26,-1.23 0,-0.9 0.41,-1.74 0.42,-0.85 1.08,-1.26 0.66,-0.4 1.43,-0.4 0.98,0 1.57,0.6 0.59,0.61 0.59,1.66 0,0.4 -0.07,0.83 h -4.05 l -0.02,0.3 q 0,0.76 0.35,1.17 0.36,0.4 0.87,0.4 0.48,0 0.95,-0.31 0.46,-0.32 0.72,-0.91 z m -2.72,-1.36 h 3.08 v -0.2 q 0,-0.71 -0.34,-1.08 -0.35,-0.38 -0.9,-0.38 -0.6,0 -1.1,0.41 -0.5,0.42 -0.74,1.25 z"
     id="path6"
     inkscape:label="TaglineText"
     style="font-style:italic;font-size:10.5833px;line-height:13.2292px;font-family:Arial;-inkscape-font-specification:'Arial, Italic';text-align:center;letter-spacing:0;word-spacing:0;text-anchor:middle;stroke-width:0.264583" />
  <text
     xml:space="preserve"
     x="241.60001"
     y="195.23"
     style="font-style:normal;font-variant:normal;font-weight:400;font-stretch:normal;font-size:12.7px;line-height:1.25;font-family:'Fira Mono';-inkscape-font-specification:'Fira Mono, Normal';font-variant-ligatures:normal;font-variant-caps:normal;font-variant-numeric:normal;font-variant-east-asian:normal;text-align:center;letter-spacing:0;word-spacing:0;text-anchor:middle;stroke-width:0.0700042"
     id="HeightText"
     inkscape:label="HeightText"><tspan
       x="241.60001"
       y="195.23"
       style="font-style:normal;font-variant:normal;font-weight:400;font-stretch:normal;font-size:12.7px;font-family:'Fira Mono';-inkscape-font-specification:'Fira Mono, Normal';font-variant-ligatures:normal;font-variant-caps:normal;font-variant-numeric:normal;font-variant-east-asian:normal;stroke-width:0.0700042"
       id="tspan6">123.45m</tspan></text>
  <g
     id="GoldStar1"
     inkscape:label="GoldStar1"
     style="font-style:italic;font-size:10.5833px;line-height:13.2292px;font-family:Arial;-inkscape-font-specification:'Arial, Italic';text-align:center;letter-spacing:0;word-spacing:0;text-anchor:middle;stroke-width:0.264583">
    <path
       d="m -379.63,-100.9 c 4.02,-4.01 48.14,19.11 53.75,18.23 5.6,-0.9 40.42,-36.52 45.48,-33.95 5.05,2.58 -3.3,51.7 -0.73,56.75 2.58,5.06 47.22,27.16 46.33,32.77 -0.88,5.6 -50.17,12.83 -54.19,16.84 -4,4.01 -11.24,53.3 -16.84,54.2 -5.6,0.88 -27.71,-43.77 -32.77,-46.34 -5.05,-2.58 -54.17,5.78 -56.74,0.72 -2.58,-5.05 33.05,-39.87 33.94,-45.48 0.89,-5.6 -22.24,-49.73 -18.23,-53.74 z"
       style="fill:#f5d63d;fill-opacity:1;stroke:#999999;stroke-width:0;stroke-linecap:round;stroke-linejoin:round"
       transform="matrix(0.0736,0.0736,-0.0736,0.0736,244.88,238.57)"
       id="path7" />
    <path
       d="m -342.08,362.1 -25.04,-34.47 c -0.29,0.2 -0.69,0.37 -1.26,0.54 -0.62,0.18 -1.39,0.35 -2.29,0.5 -1.8,0.32 -4.13,0.59 -6.8,0.84 -5.35,0.5 -12.06,0.9 -18.68,1.38 -3.32,0.24 -6.6,0.5 -9.69,0.78 -3.09,0.3 -5.97,0.62 -8.46,1 -1.25,0.18 -2.4,0.39 -3.43,0.6 -1.03,0.22 -1.94,0.46 -2.71,0.71 -0.77,0.26 -1.4,0.53 -1.86,0.82 -0.23,0.15 -0.42,0.3 -0.57,0.46 -0.14,0.16 -0.24,0.32 -0.3,0.49 z m 0.01,-85.36 v 85.35 l 0.29,-0.1 25,-34.4 c -0.29,-0.21 -0.61,-0.6 -0.98,-1.12 -0.36,-0.54 -0.76,-1.22 -1.18,-2.03 a 91.7,91.7 0 0 1 -2.9,-6.21 c -2.13,-4.93 -4.6,-11.19 -7.1,-17.34 -1.24,-3.08 -2.5,-6.12 -3.73,-8.97 a 152.48,152.48 0 0 0 -3.55,-7.74 60.03,60.03 0 0 0 -1.64,-3.07 c -0.53,-0.91 -1.04,-1.7 -1.52,-2.36 a 8.55,8.55 0 0 0 -1.35,-1.52 c -0.2,-0.17 -0.41,-0.3 -0.6,-0.4 -0.2,-0.09 -0.39,-0.13 -0.57,-0.13 -0.05,0 -0.11,0.03 -0.17,0.04 z m 0.29,85.26 -0.12,0.15 40.64,13.2 c 0.11,-0.33 0.37,-0.76 0.77,-1.27 0.39,-0.5 0.92,-1.1 1.55,-1.75 1.28,-1.32 3,-2.9 5.02,-4.68 4.03,-3.54 9.22,-7.82 14.3,-12.1 2.54,-2.14 5.05,-4.27 7.37,-6.32 2.33,-2.05 4.47,-4 6.27,-5.78 0.9,-0.88 1.7,-1.72 2.41,-2.5 0.7,-0.79 1.3,-1.52 1.78,-2.17 0.47,-0.66 0.82,-1.25 1.02,-1.76 0.1,-0.25 0.17,-0.49 0.2,-0.7 0.02,-0.21 0,-0.4 -0.05,-0.57 -0.01,-0.04 -0.05,-0.07 -0.06,-0.1 z"
       style="fill:#f5d63d;fill-opacity:1;stroke:#999999;stroke-width:0;stroke-linecap:round;stroke-linejoin:round"
       transform="matrix(0.083,0,0,0.083,252.74,182.07)"
       id="path8" />
    <path
       d="m -342.07,362.11 -0.01,-0.02 -40.51,13.17 c 0,0.03 0.05,0.07 0.06,0.1 0.1,0.34 0.15,0.84 0.13,1.48 -0.02,0.64 -0.1,1.43 -0.23,2.33 a 91.73,91.73 0 0 1 -1.3,6.74 c -1.18,5.23 -2.87,11.74 -4.46,18.19 -0.8,3.22 -1.58,6.43 -2.26,9.45 -0.67,3.02 -1.26,5.86 -1.67,8.35 -0.2,1.25 -0.36,2.4 -0.47,3.45 a 26.22,26.22 0 0 0 -0.17,2.8 c 0,0.81 0.07,1.5 0.2,2.02 0.07,0.27 0.16,0.5 0.26,0.68 0.1,0.19 0.23,0.34 0.37,0.44 l 50.06,-68.9 z m 50.3,69.22 -50.2,-69.08 -0.1,0.14 v 42.53 c 0.05,0 0.13,-0.04 0.17,-0.04 0.36,0 0.85,0.12 1.45,0.34 0.6,0.21 1.33,0.53 2.15,0.93 1.65,0.81 3.7,1.96 6,3.33 4.62,2.73 10.29,6.35 15.93,9.86 2.81,1.75 5.62,3.48 8.29,5.06 2.67,1.58 5.19,3.01 7.43,4.17 1.12,0.58 2.17,1.1 3.13,1.52 0.96,0.43 1.84,0.78 2.61,1.02 0.77,0.25 1.44,0.4 1.99,0.43 0.27,0.02 0.51,0 0.72,-0.03 0.17,-0.03 0.3,-0.1 0.43,-0.18 z"
       style="fill:#f5d63d;fill-opacity:1;stroke:#999999;stroke-width:0;stroke-linecap:round;stroke-linejoin:round"
       transform="matrix(0.083,0,0,0.083,252.74,182.07)"
       id="path9" />
    <path
       d="m -342.07,276.74 c -0.13,0.02 -0.25,0.03 -0.38,0.1 -0.2,0.08 -0.4,0.22 -0.61,0.4 -0.42,0.34 -0.88,0.85 -1.36,1.5 -0.47,0.66 -0.98,1.46 -1.5,2.37 -0.53,0.91 -1.08,1.94 -1.65,3.07 -1.13,2.26 -2.33,4.9 -3.56,7.74 -1.22,2.85 -2.48,5.9 -3.73,8.97 -2.5,6.15 -4.96,12.41 -7.09,17.34 a 91.7,91.7 0 0 1 -2.9,6.21 c -0.42,0.81 -0.82,1.5 -1.18,2.03 -0.37,0.53 -0.7,0.9 -0.98,1.12 l -0.1,0.04 25.03,34.46 h 0.01 z m 0.29,85.26 81.1,-26.35 a 1.34,1.34 0 0 0 -0.24,-0.4 c -0.15,-0.15 -0.34,-0.3 -0.57,-0.45 a 8.56,8.56 0 0 0 -1.86,-0.82 c -0.77,-0.25 -1.68,-0.49 -2.71,-0.7 a 60.03,60.03 0 0 0 -3.43,-0.62 c -2.5,-0.37 -5.38,-0.7 -8.46,-0.99 -3.09,-0.29 -6.38,-0.54 -9.69,-0.78 -6.62,-0.47 -13.33,-0.88 -18.68,-1.38 -2.67,-0.25 -5,-0.52 -6.8,-0.84 -0.9,-0.15 -1.67,-0.32 -2.3,-0.5 a 4.67,4.67 0 0 1 -1.36,-0.58 z m -0.3,0.1 v 0 0 l -81.09,-26.35 c -0.05,0.17 -0.07,0.36 -0.04,0.57 0.02,0.21 0.09,0.45 0.19,0.7 0.2,0.51 0.55,1.1 1.02,1.76 a 26.2,26.2 0 0 0 1.78,2.16 c 0.7,0.79 1.52,1.63 2.41,2.51 1.8,1.78 3.94,3.73 6.27,5.78 2.32,2.05 4.83,4.18 7.37,6.32 5.08,4.28 10.27,8.56 14.3,12.1 a 91.68,91.68 0 0 1 5.02,4.68 c 0.63,0.66 1.16,1.24 1.55,1.75 0.37,0.47 0.58,0.85 0.7,1.18 z m -50.05,69.19 c 0.15,0.1 0.33,0.18 0.54,0.22 0.2,0.04 0.45,0.05 0.72,0.03 a 8.55,8.55 0 0 0 1.99,-0.43 c 0.77,-0.24 1.65,-0.59 2.6,-1.02 0.97,-0.43 2.02,-0.94 3.14,-1.52 2.24,-1.16 4.76,-2.59 7.43,-4.17 2.66,-1.58 5.47,-3.3 8.3,-5.06 5.63,-3.51 11.3,-7.13 15.92,-9.86 a 91.71,91.71 0 0 1 6,-3.33 c 0.82,-0.4 1.54,-0.72 2.15,-0.93 0.53,-0.2 0.93,-0.27 1.27,-0.3 V 362.4 Z m 100.36,0.04 c 0.03,-0.01 0.08,-0.02 0.1,-0.04 0.15,-0.1 0.27,-0.25 0.38,-0.44 0.1,-0.19 0.19,-0.41 0.25,-0.68 0.14,-0.53 0.2,-1.2 0.2,-2.02 0.01,-0.81 -0.05,-1.75 -0.16,-2.8 -0.1,-1.05 -0.27,-2.2 -0.47,-3.45 -0.41,-2.49 -1,-5.33 -1.68,-8.35 -0.67,-3.02 -1.45,-6.23 -2.25,-9.45 -1.6,-6.45 -3.28,-12.96 -4.45,-18.2 a 91.72,91.72 0 0 1 -1.31,-6.73 c -0.13,-0.9 -0.21,-1.69 -0.23,-2.33 -0.02,-0.64 0.02,-1.14 0.13,-1.48 0,0 0,0 0,0 l -40.64,-13.2 -0.07,0.1 z"
       style="fill:#fbeb5b;fill-opacity:1;stroke:#999999;stroke-width:0;stroke-linecap:round;stroke-linejoin:round"
       transform="matrix(0.083,0,0,0.083,252.74,182.07)"
       id="path10" />
  </g>
  <g
     style="font-style:italic;font-size:10.5833px;line-height:13.2292px;font-family:Arial;-inkscape-font-specification:'Arial, Italic';text-align:center;letter-spacing:0;word-spacing:0;text-anchor:middle;stroke-width:0.264583"
     id="GoldStar2"
     inkscape:label="GoldStar2">
    <path
       d="m -379.63,-100.9 c 4.02,-4.01 48.14,19.11 53.75,18.23 5.6,-0.9 40.42,-36.52 45.48,-33.95 5.05,2.58 -3.3,51.7 -0.73,56.75 2.58,5.06 47.22,27.16 46.33,32.77 -0.88,5.6 -50.17,12.83 -54.19,16.84 -4,4.01 -11.24,53.3 -16.84,54.2 -5.6,0.88 -27.71,-43.77 -32.77,-46.34 -5.05,-2.58 -54.17,5.78 -56.74,0.72 -2.58,-5.05 33.05,-39.87 33.94,-45.48 0.89,-5.6 -22.24,-49.73 -18.23,-53.74 z"
       style="fill:#f5d63d;fill-opacity:1;stroke:#999999;stroke-width:0;stroke-linecap:round;stroke-linejoin:round"
       transform="matrix(0.0736,0.0736,-0.0736,0.0736,261.82,238.57)"
       id="path11" />
    <path
       d="m -342.08,362.1 -25.04,-34.47 c -0.29,0.2 -0.69,0.37 -1.26,0.54 -0.62,0.18 -1.39,0.35 -2.29,0.5 -1.8,0.32 -4.13,0.59 -6.8,0.84 -5.35,0.5 -12.06,0.9 -18.68,1.38 -3.32,0.24 -6.6,0.5 -9.69,0.78 -3.09,0.3 -5.97,0.62 -8.46,1 -1.25,0.18 -2.4,0.39 -3.43,0.6 -1.03,0.22 -1.94,0.46 -2.71,0.71 -0.77,0.26 -1.4,0.53 -1.86,0.82 -0.23,0.15 -0.42,0.3 -0.57,0.46 -0.14,0.16 -0.24,0.32 -0.3,0.49 z m 0.01,-85.36 v 85.35 l 0.29,-0.1 25,-34.4 c -0.29,-0.21 -0.61,-0.6 -0.98,-1.12 -0.36,-0.54 -0.76,-1.22 -1.18,-2.03 a 91.7,91.7 0 0 1 -2.9,-6.21 c -2.13,-4.93 -4.6,-11.19 -7.1,-17.34 -1.24,-3.08 -2.5,-6.12 -3.73,-8.97 a 152.48,152.48 0 0 0 -3.55,-7.74 60.03,60.03 0 0 0 -1.64,-3.07 c -0.53,-0.91 -1.04,-1.7 -1.52,-2.36 a 8.55,8.55 0 0 0 -1.35,-1.52 c -0.2,-0.17 -0.41,-0.3 -0.6,-0.4 -0.2,-0.09 -0.39,-0.13 -0.57,-0.13 -0.05,0 -0.11,0.03 -0.17,0.04 z m 0.29,85.26 -0.12,0.15 40.64,13.2 c 0.11,-0.33 0.37,-0.76 0.77,-1.27 0.39,-0.5 0.92,-1.1 1.55,-1.75 1.28,-1.32 3,-2.9 5.02,-4.68 4.03,-3.54 9.22,-7.82 14.3,-12.1 2.54,-2.14 5.05,-4.27 7.37,-6.32 2.33,-2.05 4.47,-4 6.27,-5.78 0.9,-0.88 1.7,-1.72 2.41,-2.5 0.7,-0.79 1.3,-1.52 1.78,-2.17 0.47,-0.66 0.82,-1.25 1.02,-1.76 0.1,-0.25 0.17,-0.49 0.2,-0.7 0.02,-0.21 0,-0.4 -0.05,-0.57 -0.01,-0.04 -0.05,-0.07 -0.06,-0.1 z"
       style="fill:#f5d63d;fill-opacity:1;stroke:#999999;stroke-width:0;stroke-linecap:round;stroke-linejoin:round"
       transform="matrix(0.083,0,0,0.083,269.67,182.07)"
       id="path12" />
    <path
       d="m -342.07,362.11 -0.01,-0.02 -40.51,13.17 c 0,0.03 0.05,0.07 0.06,0.1 0.1,0.34 0.15,0.84 0.13,1.48 -0.02,0.64 -0.1,1.43 -0.23,2.33 a 91.73,91.73 0 0 1 -1.3,6.74 c -1.18,5.23 -2.87,11.74 -4.46,18.19 -0.8,3.22 -1.58,6.43 -2.26,9.45 -0.67,3.02 -1.26,5.86 -1.67,8.35 -0.2,1.25 -0.36,2.4 -0.47,3.45 a 26.22,26.22 0 0 0 -0.17,2.8 c 0,0.81 0.07,1.5 0.2,2.02 0.07,0.27 0.16,0.5 0.26,0.68 0.1,0.19 0.23,0.34 0.37,0.44 l 50.06,-68.9 z m 50.3,69.22 -50.2,-69.08 -0.1,0.14 v 42.53 c 0.05,0 0.13,-0.04 0.17,-0.04 0.36,0 0.85,0.12 1.45,0.34 0.6,0.21 1.33,0.53 2.15,0.93 1.65,0.81 3.7,1.96 6,3.33 4.62,2.73 10.29,6.35 15.93,9.86 2.81,1.75 5.62,3.48 8.29,5.06 2.67,1.58 5.19,3.01 7.43,4.17 1.12,0.58 2.17,1.1 3.13,1.52 0.96,0.43 1.84,0.78 2.61,1.02 0.77,0.25 1.44,0.4 1.99,0.43 0.27,0.02 0.51,0 0.72,-0.03 0.17,-0.03 0.3,-0.1 0.43,-0.18 z"
       style="fill:#f5d63d;fill-opacity:1;stroke:#999999;stroke-width:0;stroke-linecap:round;stroke-linejoin:round"
       transform="matrix(0.083,0,0,0.083,269.67,182.07)"
       id="path13" />
    <path
       d="m -342.07,276.74 c -0.13,0.02 -0.25,0.03 -0.38,0.1 -0.2,0.08 -0.4,0.22 -0.61,0.4 -0.42,0.34 -0.88,0.85 -1.36,1.5 -0.47,0.66 -0.98,1.46 -1.5,2.37 -0.53,0.91 -1.08,1.94 -1.65,3.07 -1.13,2.26 -2.33,4.9 -3.56,7.74 -1.22,2.85 -2.48,5.9 -3.73,8.97 -2.5,6.15 -4.96,12.41 -7.09,17.34 a 91.7,91.7 0 0 1 -2.9,6.21 c -0.42,0.81 -0.82,1.5 -1.18,2.03 -0.37,0.53 -0.7,0.9 -0.98,1.12 l -0.1,0.04 25.03,34.46 h 0.01 z m 0.29,85.26 81.1,-26.35 a 1.34,1.34 0 0 0 -0.24,-0.4 c -0.15,-0.15 -0.34,-0.3 -0.57,-0.45 a 8.56,8.56 0 0 0 -1.86,-0.82 c -0.77,-0.25 -1.68,-0.49 -2.71,-0.7 a 60.03,60.03 0 0 0 -3.43,-0.62 c -2.5,-0.37 -5.38,-0.7 -8.46,-0.99 -3.09,-0.29 -6.38,-0.54 -9.69,-0.78 -6.62,-0.47 -13.33,-0.88 -18.68,-1.38 -2.67,-0.25 -5,-0.52 -6.8,-0.84 -0.9,-0.15 -1.67,-0.32 -2.3,-0.5 a 4.67,4.67 0 0 1 -1.36,-0.58 z m -0.3,0.1 v 0 0 l -81.09,-26.35 c -0.05,0.17 -0.07,0.36 -0.04,0.57 0.02,0.21 0.09,0.45 0.19,0.7 0.2,0.51 0.55,1.1 1.02,1.76 a 26.2,26.2 0 0 0 1.78,2.16 c 0.7,0.79 1.52,1.63 2.41,2.51 1.8,1.78 3.94,3.73 6.27,5.78 2.32,2.05 4.83,4.18 7.37,6.32 5.08,4.28 10.27,8.56 14.3,12.1 a 91.68,91.68 0 0 1 5.02,4.68 c 0.63,0.66 1.16,1.24 1.55,1.75 0.37,0.47 0.58,0.85 0.7,1.18 z m -50.05,69.19 c 0.15,0.1 0.33,0.18 0.54,0.22 0.2,0.04 0.45,0.05 0.72,0.03 a 8.55,8.55 0 0 0 1.99,-0.43 c 0.77,-0.24 1.65,-0.59 2.6,-1.02 0.97,-0.43 2.02,-0.94 3.14,-1.52 2.24,-1.16 4.76,-2.59 7.43,-4.17 2.66,-1.58 5.47,-3.3 8.3,-5.06 5.63,-3.51 11.3,-7.13 15.92,-9.86 a 91.71,91.71 0 0 1 6,-3.33 c 0.82,-0.4 1.54,-0.72 2.15,-0.93 0.53,-0.2 0.93,-0.27 1.27,-0.3 V 362.4 Z m 100.36,0.04 c 0.03,-0.01 0.08,-0.02 0.1,-0.04 0.15,-0.1 0.27,-0.25 0.38,-0.44 0.1,-0.19 0.19,-0.41 0.25,-0.68 0.14,-0.53 0.2,-1.2 0.2,-2.02 0.01,-0.81 -0.05,-1.75 -0.16,-2.8 -0.1,-1.05 -0.27,-2.2 -0.47,-3.45 -0.41,-2.49 -1,-5.33 -1.68,-8.35 -0.67,-3.02 -1.45,-6.23 -2.25,-9.45 -1.6,-6.45 -3.28,-12.96 -4.45,-18.2 a 91.72,91.72 0 0 1 -1.31,-6.73 c -0.13,-0.9 -0.21,-1.69 -0.23,-2.33 -0.02,-0.64 0.02,-1.14 0.13,-1.48 0,0 0,0 0,0 l -40.64,-13.2 -0.07,0.1 z"
       style="fill:#fbeb5b;fill-opacity:1;stroke:#999999;stroke-width:0;stroke-linecap:round;stroke-linejoin:round"
       transform="matrix(0.083,0,0,0.083,269.67,182.07)"
       id="path14" />
  </g>
  <g
     style="font-style:italic;font-size:10.5833px;line-height:13.2292px;font-family:Arial;-inkscape-font-specification:'Arial, Italic';text-align:center;letter-spacing:0;word-spacing:0;text-anchor:middle;stroke-width:0.264583"
     id="GoldStar3"
     inkscape:label="GoldStar3">
    <path
       d="m -379.63,-100.9 c 4.02,-4.01 48.14,19.11 53.75,18.23 5.6,-0.9 40.42,-36.52 45.48,-33.95 5.05,2.58 -3.3,51.7 -0.73,56.75 2.58,5.06 47.22,27.16 46.33,32.77 -0.88,5.6 -50.17,12.83 -54.19,16.84 -4,4.01 -11.24,53.3 -16.84,54.2 -5.6,0.88 -27.71,-43.77 -32.77,-46.34 -5.05,-2.58 -54.17,5.78 -56.74,0.72 -2.58,-5.05 33.05,-39.87 33.94,-45.48 0.89,-5.6 -22.24,-49.73 -18.23,-53.74 z"
       style="fill:#f5d63d;fill-opacity:1;stroke:#999999;stroke-width:0;stroke-linecap:round;stroke-linejoin:round"
       transform="matrix(0.0736,0.0736,-0.0736,0.0736,278.77,238.63)"
       id="path15" />
    <path
       d="m -342.08,362.1 -25.04,-34.47 c -0.29,0.2 -0.69,0.37 -1.26,0.54 -0.62,0.18 -1.39,0.35 -2.29,0.5 -1.8,0.32 -4.13,0.59 -6.8,0.84 -5.35,0.5 -12.06,0.9 -18.68,1.38 -3.32,0.24 -6.6,0.5 -9.69,0.78 -3.09,0.3 -5.97,0.62 -8.46,1 -1.25,0.18 -2.4,0.39 -3.43,0.6 -1.03,0.22 -1.94,0.46 -2.71,0.71 -0.77,0.26 -1.4,0.53 -1.86,0.82 -0.23,0.15 -0.42,0.3 -0.57,0.46 -0.14,0.16 -0.24,0.32 -0.3,0.49 z m 0.01,-85.36 v 85.35 l 0.29,-0.1 25,-34.4 c -0.29,-0.21 -0.61,-0.6 -0.98,-1.12 -0.36,-0.54 -0.76,-1.22 -1.18,-2.03 a 91.7,91.7 0 0 1 -2.9,-6.21 c -2.13,-4.93 -4.6,-11.19 -7.1,-17.34 -1.24,-3.08 -2.5,-6.12 -3.73,-8.97 a 152.48,152.48 0 0 0 -3.55,-7.74 60.03,60.03 0 0 0 -1.64,-3.07 c -0.53,-0.91 -1.04,-1.7 -1.52,-2.36 a 8.55,8.55 0 0 0 -1.35,-1.52 c -0.2,-0.17 -0.41,-0.3 -0.6,-0.4 -0.2,-0.09 -0.39,-0.13 -0.57,-0.13 -0.05,0 -0.11,0.03 -0.17,0.04 z m 0.29,85.26 -0.12,0.15 40.64,13.2 c 0.11,-0.33 0.37,-0.76 0.77,-1.27 0.39,-0.5 0.92,-1.1 1.55,-1.75 1.28,-1.32 3,-2.9 5.02,-4.68 4.03,-3.54 9.22,-7.82 14.3,-12.1 2.54,-2.14 5.05,-4.27 7.37,-6.32 2.33,-2.05 4.47,-4 6.27,-5.78 0.9,-0.88 1.7,-1.72 2.41,-2.5 0.7,-0.79 1.3,-1.52 1.78,-2.17 0.47,-0.66 0.82,-1.25 1.02,-1.76 0.1,-0.25 0.17,-0.49 0.2,-0.7 0.02,-0.21 0,-0.4 -0.05,-0.57 -0.01,-0.04 -0.05,-0.07 -0.06,-0.1 z"
       style="fill:#f5d63d;fill-opacity:1;stroke:#999999;stroke-width:0;stroke-linecap:round;stroke-linejoin:round"
       transform="matrix(0.083,0,0,0.083,286.62,182.12)"
       id="path16" />
    <path
       d="m -342.07,362.11 -0.01,-0.02 -40.51,13.17 c 0,0.03 0.05,0.07 0.06,0.1 0.1,0.34 0.15,0.84 0.13,1.48 -0.02,0.64 -0.1,1.43 -0.23,2.33 a 91.73,91.73 0 0 1 -1.3,6.74 c -1.18,5.23 -2.87,11.74 -4.46,18.19 -0.8,3.22 -1.58,6.43 -2.26,9.45 -0.67,3.02 -1.26,5.86 -1.67,8.35 -0.2,1.25 -0.36,2.4 -0.47,3.45 a 26.22,26.22 0 0 0 -0.17,2.8 c 0,0.81 0.07,1.5 0.2,2.02 0.07,0.27 0.16,0.5 0.26,0.68 0.1,0.19 0.23,0.34 0.37,0.44 l 50.06,-68.9 z m 50.3,69.22 -50.2,-69.08 -0.1,0.14 v 42.53 c 0.05,0 0.13,-0.04 0.17,-0.04 0.36,0 0.85,0.12 1.45,0.34 0.6,0.21 1.33,0.53 2.15,0.93 1.65,0.81 3.7,1.96 6,3.33 4.62,2.73 10.29,6.35 15.93,9.86 2.81,1.75 5.62,3.48 8.29,5.06 2.67,1.58 5.19,3.01 7.43,4.17 1.12,0.58 2.17,1.1 3.13,1.52 0.96,0.43 1.84,0.78 2.61,1.02 0.77,0.25 1.44,0.4 1.99,0.43 0.27,0.02 0.51,0 0.72,-0.03 0.17,-0.03 0.3,-0.1 0.43,-0.18 z"
       style="fill:#f5d63d;fill-opacity:1;stroke:#999999;stroke-width:0;stroke-linecap:round;stroke-linejoin:round"
       transform="matrix(0.083,0,0,0.083,286.62,182.12)"
       id="path17" />
    <path
       d="m -342.07,276.74 c -0.13,0.02 -0.25,0.03 -0.38,0.1 -0.2,0.08 -0.4,0.22 -0.61,0.4 -0.42,0.34 -0.88,0.85 -1.36,1.5 -0.47,0.66 -0.98,1.46 -1.5,2.37 -0.53,0.91 -1.08,1.94 -1.65,3.07 -1.13,2.26 -2.33,4.9 -3.56,7.74 -1.22,2.85 -2.48,5.9 -3.73,8.97 -2.5,6.15 -4.96,12.41 -7.09,17.34 a 91.7,91.7 0 0 1 -2.9,6.21 c -0.42,0.81 -0.82,1.5 -1.18,2.03 -0.37,0.53 -0.7,0.9 -0.98,1.12 l -0.1,0.04 25.03,34.46 h 0.01 z m 0.29,85.26 81.1,-26.35 a 1.34,1.34 0 0 0 -0.24,-0.4 c -0.15,-0.15 -0.34,-0.3 -0.57,-0.45 a 8.56,8.56 0 0 0 -1.86,-0.82 c -0.77,-0.25 -1.68,-0.49 -2.71,-0.7 a 60.03,60.03 0 0 0 -3.43,-0.62 c -2.5,-0.37 -5.38,-0.7 -8.46,-0.99 -3.09,-0.29 -6.38,-0.54 -9.69,-0.78 -6.62,-0.47 -13.33,-0.88 -18.68,-1.38 -2.67,-0.25 -5,-0.52 -6.8,-0.84 -0.9,-0.15 -1.67,-0.32 -2.3,-0.5 a 4.67,4.67 0 0 1 -1.36,-0.58 z m -0.3,0.1 v 0 0 l -81.09,-26.35 c -0.05,0.17 -0.07,0.36 -0.04,0.57 0.02,0.21 0.09,0.45 0.19,0.7 0.2,0.51 0.55,1.1 1.02,1.76 a 26.2,26.2 0 0 0 1.78,2.16 c 0.7,0.79 1.52,1.63 2.41,2.51 1.8,1.78 3.94,3.73 6.27,5.78 2.32,2.05 4.83,4.18 7.37,6.32 5.08,4.28 10.27,8.56 14.3,12.1 a 91.68,91.68 0 0 1 5.02,4.68 c 0.63,0.66 1.16,1.24 1.55,1.75 0.37,0.47 0.58,0.85 0.7,1.18 z m -50.05,69.19 c 0.15,0.1 0.33,0.18 0.54,0.22 0.2,0.04 0.45,0.05 0.72,0.03 a 8.55,8.55 0 0 0 1.99,-0.43 c 0.77,-0.24 1.65,-0.59 2.6,-1.02 0.97,-0.43 2.02,-0.94 3.14,-1.52 2.24,-1.16 4.76,-2.59 7.43,-4.17 2.66,-1.58 5.47,-3.3 8.3,-5.06 5.63,-3.51 11.3,-7.13 15.92,-9.86 a 91.71,91.71 0 0 1 6,-3.33 c 0.82,-0.4 1.54,-0.72 2.15,-0.93 0.53,-0.2 0.93,-0.27 1.27,-0.3 V 362.4 Z m 100.36,0.04 c 0.03,-0.01 0.08,-0.02 0.1,-0.04 0.15,-0.1 0.27,-0.25 0.38,-0.44 0.1,-0.19 0.19,-0.41 0.25,-0.68 0.14,-0.53 0.2,-1.2 0.2,-2.02 0.01,-0.81 -0.05,-1.75 -0.16,-2.8 -0.1,-1.05 -0.27,-2.2 -0.47,-3.45 -0.41,-2.49 -1,-5.33 -1.68,-8.35 -0.67,-3.02 -1.45,-6.23 -2.25,-9.45 -1.6,-6.45 -3.28,-12.96 -4.45,-18.2 a 91.72,91.72 0 0 1 -1.31,-6.73 c -0.13,-0.9 -0.21,-1.69 -0.23,-2.33 -0.02,-0.64 0.02,-1.14 0.13,-1.48 0,0 0,0 0,0 l -40.64,-13.2 -0.07,0.1 z"
       style="fill:#fbeb5b;fill-opacity:1;stroke:#999999;stroke-width:0;stroke-linecap:round;stroke-linejoin:round"
       transform="matrix(0.083,0,0,0.083,286.62,182.12)"
       id="path18" />
  </g>
  <g
     id="g24"
     inkscape:label="Logo">
    <path
       d="M54.6 32.31v44.56a4 4 135 0 1-4 4H32.3a4 4 135 0 0-4 4v18.29a4 4 45 0 0 4 4h44.56a4 4 135 0 0 4-4V58.59a4 4 135 0 1 4-4h18.29a4 4 135 0 0 4-4V32.31a4 4 45 0 0-4-4H58.59a4 4 135 0 0-4 4z"
       style="fill:#07881d;fill-opacity:1;stroke:none;stroke-width:7.57036;paint-order:markers stroke fill;filter:url(#b)"
       transform="matrix(.1967 0 0 .1967 207.74 52.32)"
       id="path19" />
    <path
       d="M76.14 65.1q-.19.61-.58 1.29-.4.66-1.1 1.11-.7.47-1.8.47-1.42 0-2.26-.62-.82-.62-1.18-1.64-.36-1.01-.36-2.2l.02-1.48.05-1.76.05-1.77.06-1.51.04-.98q-1.24.13-2.16.28-.9.14-1.15.22-.08-.41-.13-.85l-.06-.83-.02-.5 1.65-.21q.96-.12 1.88-.18.02-.5.02-1.22v-1.38l-.05-1.06-.07-.86 2.39-.14.05.91q.04.72.04 1.73v1.88l.94-.05.9-.02 1.14-.02q.55 0 .94.02.4 0 .49.02.06.34.07.95.03.61.03 1.02l-.88-.01q-.74-.02-1.46 0-.52 0-1.14.05l-1.07.05-.05.98-.05 1.46-.05 1.63-.04 1.55-.01 1.16q0 .8.09 1.52.1.73.45 1.2.37.45 1.16.45.53 0 .86-.38.33-.38.51-.87.2-.5.28-.83l.33.35.48.43.47.4.28.24z"
       aria-label="t"
       style="font-size:25.4px;line-height:1.25;font-family:Grandstander;-inkscape-font-specification:&quot;Grandstander, Normal&quot;;stroke-width:.264583"
       transform="rotate(11.34 37.82 929.56) scale(.8132)"
       id="path20" />
    <path
       d="M88.36 65.18q-.25.35-.75.82-.5.46-1.23.9-.74.41-1.72.7-.97.27-2.2.27-1.91 0-3.35-.77-1.43-.78-2.22-2.27-.79-1.5-.79-3.64 0-2.06.86-3.57.86-1.51 2.36-2.34 1.5-.82 3.44-.82 2.44 0 3.8 1.48 1.37 1.5 1.52 4 .03.4.03.78 0 .37-.04.76l-.69-.02q-.5-.03-1.2-.04-.68-.03-1.38-.04-.68-.03-1.18-.03-1.28 0-2.63.13-1.34.13-2.4.3.02.32.07.64t.12.61q.22.78.8 1.35.56.56 1.35.86.8.3 1.69.3.94 0 1.64-.27.7-.28 1.2-.69.5-.4.8-.77l.49-.55.29.28q.23.2.48.5.27.29.5.6.24.28.34.54zm-9.73-5.1q.92-.16 2.15-.27 1.24-.12 2.82-.12.82 0 1.4.03.58 0 .8.03 0-.41-.1-.88-.13-.64-.5-1.24t-1-.99q-.63-.4-1.58-.4-1.1 0-2 .47-.88.45-1.42 1.32-.53.85-.57 2.04z"
       aria-label="e"
       style="font-size:25.4px;line-height:1.25;font-family:Grandstander;-inkscape-font-specification:&quot;Grandstander, Normal&quot;;stroke-width:.264583"
       transform="rotate(11.34 37.82 929.56) scale(.8132)"
       id="path21" />
    <path
       d="M99.09 68.03q-.28-.49-.78-1.22-.5-.74-1.1-1.56-.61-.84-1.25-1.64-.63-.8-1.19-1.42-.55-.63-.91-.92l-.64.5q-.4.31-.74.6-.34.29-.44.4-.01.55-.05 1.3l-.07 1.52-.07 1.37-.05.88-.59.05-.6.02q-.37 0-.73-.03l-.63-.07.06-1.33.11-2.53.16-3.28.14-3.58.12-3.43q.07-1.62.1-2.82.04-1.2.04-1.75l.52-.02.59-.02q.38 0 .72.04.36.03.64.12 0 .95-.03 2.18l-.06 2.54q-.03 1.3-.08 2.53l-.08 2.13q-.02.92-.06 1.36.74-.75 1.78-1.52 1.04-.8 2.15-1.52 1.11-.72 2.1-1.3l1.58-.96.34.42q.2.24.4.52t.36.54q.18.24.27.4l-1.18.69q-.75.43-1.58.94-.82.5-1.56.99-.73.47-1.15.79.28.21.78.75.51.53 1.15 1.3.64.74 1.33 1.62.69.87 1.33 1.76.65.9 1.15 1.7-.12.08-.42.22l-.68.28-.7.28-.5.18z"
       aria-label="k"
       style="font-size:25.4px;line-height:1.25;font-family:Grandstander;-inkscape-font-specification:&quot;Grandstander, Normal&quot;;stroke-width:.264583"
       transform="rotate(11.34 37.82 929.56) scale(.8132)"
       id="path22" />
    <path
       d="M124.77 28.85q-1.19 0-2.35-.34-1.17-.33-2.14-.87-.95-.56-1.52-1.23l.25-.49.38-.63q.22-.34.44-.62.21-.3.38-.45.54.61 1.3 1.18.77.56 1.64.92.88.34 1.76.34.83 0 1.5-.24.7-.25 1.09-.72.4-.47.4-1.13 0-.77-.48-1.31-.48-.56-1.3-.98-.8-.43-1.79-.79-1.18-.43-2.15-.94-.97-.52-1.55-1.3-.58-.77-.58-1.96 0-1.22.69-2.03.7-.82 1.83-1.24 1.14-.41 2.46-.41 1.48 0 2.7.38 1.25.36 1.91.86-.05.22-.21.57-.17.34-.38.7-.22.36-.45.65-.6-.4-1.48-.78-.88-.37-1.9-.37-.7 0-1.33.17-.64.15-1.04.52t-.4 1q0 .55.39.98.4.43 1.09.78.68.33 1.55.63 1.04.36 1.93.8.89.43 1.53 1 .66.56 1.03 1.3.37.72.37 1.64 0 1.46-.75 2.44-.75.97-2 1.47-1.26.5-2.82.5z"
       aria-label="s"
       style="font-size:25.4px;line-height:1.25;font-family:Grandstander;-inkscape-font-specification:&quot;Grandstander, Normal&quot;;stroke-width:.264583"
       transform="rotate(31.81 72.98 327.33) scale(.8132)"
       id="path23" />
  </g>
  <g
     id="BlackStar1"
     transform="matrix(0.08291922,0,0,0.08291922,226.39057,170.5261)"
     inkscape:label="BlackStar1">
    <path
       sodipodi:type="star"
       style="fill:#808080;fill-opacity:1;stroke:#999999;stroke-width:0;stroke-linecap:round;stroke-linejoin:round"
       id="path1-0-8-6"
       inkscape:flatsided="false"
       sodipodi:sides="5"
       sodipodi:cx="-319.19998"
       sodipodi:cy="-40.472729"
       sodipodi:r1="85.456497"
       sodipodi:r2="42.728249"
       sodipodi:arg1="-2.3561945"
       sodipodi:arg2="-1.727876"
       inkscape:rounded="0.1"
       inkscape:randomized="0"
       d="m -379.62685,-100.8996 c 4.01274,-4.01274 48.13769,19.112424 53.7427,18.224679 5.605,-0.887746 40.42426,-36.516439 45.48061,-33.940109 5.05634,2.57634 -3.30163,51.687734 -0.72529,56.744081 2.57633,5.056347 47.22098,27.161557 46.33323,32.766561 -0.88774,5.605004 -50.17821,12.832352 -54.19095,16.845092 -4.01274,4.0127405 -11.24009,53.303207 -16.84509,54.190953 -5.605,0.887746 -27.71021,-43.75689914 -32.76656,-46.3332367 -5.05635,-2.5763376 -54.16774,5.7816369 -56.74408,0.7252896 -2.57634,-5.0563471 33.05236,-39.8756039 33.94011,-45.4806079 0.88774,-5.605004 -22.23742,-49.729959 -18.22468,-53.742702 z"
       inkscape:transform-center-x="1.689836e-05"
       inkscape:transform-center-y="-10.1368"
       transform="matrix(0.88762556,0.88762556,-0.88762556,0.88762556,222.9874,820.98532)" />
    <path
       sodipodi:type="star"
       style="fill:#999999;fill-opacity:1;stroke:#999999;stroke-width:0;stroke-linecap:round;stroke-linejoin:round"
       id="path1-0-8-7"
       inkscape:flatsided="false"
       sodipodi:sides="5"
       sodipodi:cx="-319.19998"
       sodipodi:cy="-40.472729"
       sodipodi:r1="85.456497"
       sodipodi:r2="42.728249"
       sodipodi:arg1="-2.3561945"
       sodipodi:arg2="-1.727876"
       inkscape:rounded="0.1"
       inkscape:randomized="0"
       d="m -379.62685,-100.8996 c 4.01274,-4.01274 48.13769,19.112424 53.7427,18.224679 5.605,-0.887746 40.42426,-36.516439 45.48061,-33.940109 5.05634,2.57634 -3.30163,51.687734 -0.72529,56.744081 2.57633,5.056347 47.22098,27.161557 46.33323,32.766561 -0.88774,5.605004 -50.17821,12.832352 -54.19095,16.845092 -4.01274,4.0127405 -11.24009,53.303207 -16.84509,54.190953 -5.605,0.887746 -27.71021,-43.75689914 -32.76656,-46.3332367 -5.05635,-2.5763376 -54.16774,5.7816369 -56.74408,0.7252896 -2.57634,-5.0563471 33.05236,-39.8756039 33.94011,-45.4806079 0.88774,-5.605004 -22.23742,-49.729959 -18.22468,-53.742702 z"
       inkscape:transform-center-x="1.3079228e-05"
       inkscape:transform-center-y="-8.0752129"
       transform="matrix(0.70710356,0.70710356,-0.70710356,0.70710356,172.671,756.05648)" />
  </g>
  <g
     id="BlackStar2"
     transform="matrix(0.08291922,0,0,0.08291922,243.32698,170.51206)"
     inkscape:label="BlackStar2">
    <path
       sodipodi:type="star"
       style="fill:#808080;fill-opacity:1;stroke:#999999;stroke-width:0;stroke-linecap:round;stroke-linejoin:round"
       id="path1-0-8-6-0"
       inkscape:flatsided="false"
       sodipodi:sides="5"
       sodipodi:cx="-319.19998"
       sodipodi:cy="-40.472729"
       sodipodi:r1="85.456497"
       sodipodi:r2="42.728249"
       sodipodi:arg1="-2.3561945"
       sodipodi:arg2="-1.727876"
       inkscape:rounded="0.1"
       inkscape:randomized="0"
       d="m -379.62685,-100.8996 c 4.01274,-4.01274 48.13769,19.112424 53.7427,18.224679 5.605,-0.887746 40.42426,-36.516439 45.48061,-33.940109 5.05634,2.57634 -3.30163,51.687734 -0.72529,56.744081 2.57633,5.056347 47.22098,27.161557 46.33323,32.766561 -0.88774,5.605004 -50.17821,12.832352 -54.19095,16.845092 -4.01274,4.0127405 -11.24009,53.303207 -16.84509,54.190953 -5.605,0.887746 -27.71021,-43.75689914 -32.76656,-46.3332367 -5.05635,-2.5763376 -54.16774,5.7816369 -56.74408,0.7252896 -2.57634,-5.0563471 33.05236,-39.8756039 33.94011,-45.4806079 0.88774,-5.605004 -22.23742,-49.729959 -18.22468,-53.742702 z"
       inkscape:transform-center-x="1.689836e-05"
       inkscape:transform-center-y="-10.1368"
       transform="matrix(0.88762556,0.88762556,-0.88762556,0.88762556,222.9874,820.98532)" />
    <path
       sodipodi:type="star"
       style="fill:#999999;fill-opacity:1;stroke:#999999;stroke-width:0;stroke-linecap:round;stroke-linejoin:round"
       id="path1-0-8-7-5"
       inkscape:flatsided="false"
       sodipodi:sides="5"
       sodipodi:cx="-319.19998"
       sodipodi:cy="-40.472729"
       sodipodi:r1="85.456497"
       sodipodi:r2="42.728249"
       sodipodi:arg1="-2.3561945"
       sodipodi:arg2="-1.727876"
       inkscape:rounded="0.1"
       inkscape:randomized="0"
       d="m -379.62685,-100.8996 c 4.01274,-4.01274 48.13769,19.112424 53.7427,18.224679 5.605,-0.887746 40.42426,-36.516439 45.48061,-33.940109 5.05634,2.57634 -3.30163,51.687734 -0.72529,56.744081 2.57633,5.056347 47.22098,27.161557 46.33323,32.766561 -0.88774,5.605004 -50.17821,12.832352 -54.19095,16.845092 -4.01274,4.0127405 -11.24009,53.303207 -16.84509,54.190953 -5.605,0.887746 -27.71021,-43.75689914 -32.76656,-46.3332367 -5.05635,-2.5763376 -54.16774,5.7816369 -56.74408,0.7252896 -2.57634,-5.0563471 33.05236,-39.8756039 33.94011,-45.4806079 0.88774,-5.605004 -22.23742,-49.729959 -18.22468,-53.742702 z"
       inkscape:transform-center-x="1.3079228e-05"
       inkscape:transform-center-y="-8.0752129"
       transform="matrix(0.70710356,0.70710356,-0.70710356,0.70710356,172.671,756.05648)" />
  </g>
  <g
     id="BlackStar3"
     transform="matrix(0.08291922,0,0,0.08291922,260.2571,170.57651)"
     inkscape:label="BlackStar3">
    <path
       sodipodi:type="star"
       style="fill:#808080;fill-opacity:1;stroke:#999999;stroke-width:0;stroke-linecap:round;stroke-linejoin:round"
       id="path1-0-8-6-0-4"
       inkscape:flatsided="false"
       sodipodi:sides="5"
       sodipodi:cx="-319.19998"
       sodipodi:cy="-40.472729"
       sodipodi:r1="85.456497"
       sodipodi:r2="42.728249"
       sodipodi:arg1="-2.3561945"
       sodipodi:arg2="-1.727876"
       inkscape:rounded="0.1"
       inkscape:randomized="0"
       d="m -379.62685,-100.8996 c 4.01274,-4.01274 48.13769,19.112424 53.7427,18.224679 5.605,-0.887746 40.42426,-36.516439 45.48061,-33.940109 5.05634,2.57634 -3.30163,51.687734 -0.72529,56.744081 2.57633,5.056347 47.22098,27.161557 46.33323,32.766561 -0.88774,5.605004 -50.17821,12.832352 -54.19095,16.845092 -4.01274,4.0127405 -11.24009,53.303207 -16.84509,54.190953 -5.605,0.887746 -27.71021,-43.75689914 -32.76656,-46.3332367 -5.05635,-2.5763376 -54.16774,5.7816369 -56.74408,0.7252896 -2.57634,-5.0563471 33.05236,-39.8756039 33.94011,-45.4806079 0.88774,-5.605004 -22.23742,-49.729959 -18.22468,-53.742702 z"
       inkscape:transform-center-x="1.689836e-05"
       inkscape:transform-center-y="-10.1368"
       transform="matrix(0.88762556,0.88762556,-0.88762556,0.88762556,222.9874,820.98532)" />
    <path
       sodipodi:type="star"
       style="fill:#999999;fill-opacity:1;stroke:#999999;stroke-width:0;stroke-linecap:round;stroke-linejoin:round"
       id="path1-0-8-7-5-4"
       inkscape:flatsided="false"
       sodipodi:sides="5"
       sodipodi:cx="-319.19998"
       sodipodi:cy="-40.472729"
       sodipodi:r1="85.456497"
       sodipodi:r2="42.728249"
       sodipodi:arg1="-2.3561945"
       sodipodi:arg2="-1.727876"
       inkscape:rounded="0.1"
       inkscape:randomized="0"
       d="m -379.62685,-100.8996 c 4.01274,-4.01274 48.13769,19.112424 53.7427,18.224679 5.605,-0.887746 40.42426,-36.516439 45.48061,-33.940109 5.05634,2.57634 -3.30163,51.687734 -0.72529,56.744081 2.57633,5.056347 47.22098,27.161557 46.33323,32.766561 -0.88774,5.605004 -50.17821,12.832352 -54.19095,16.845092 -4.01274,4.0127405 -11.24009,53.303207 -16.84509,54.190953 -5.605,0.887746 -27.71021,-43.75689914 -32.76656,-46.3332367 -5.05635,-2.5763376 -54.16774,5.7816369 -56.74408,0.7252896 -2.57634,-5.0563471 33.05236,-39.8756039 33.94011,-45.4806079 0.88774,-5.605004 -22.23742,-49.729959 -18.22468,-53.742702 z"
       inkscape:transform-center-x="1.3079228e-05"
       inkscape:transform-center-y="-8.0752129"
       transform="matrix(0.70710356,0.70710356,-0.70710356,0.70710356,172.671,756.05648)" />
  </g>
</svg>
