<?xml version="1.0" encoding="UTF-8" standalone="no"?>
<!-- Created with Inkscape (http://www.inkscape.org/) -->

<svg
   width="1024"
   height="1024"
   viewBox="0 0 270.93333 270.93333"
   version="1.1"
   id="svg5"
   inkscape:version="1.3 (0e150ed6c4, 2023-07-21)"
   sodipodi:docname="text_right.svg"
   xmlns:inkscape="http://www.inkscape.org/namespaces/inkscape"
   xmlns:sodipodi="http://sodipodi.sourceforge.net/DTD/sodipodi-0.dtd"
   xmlns="http://www.w3.org/2000/svg"
   xmlns:svg="http://www.w3.org/2000/svg">
  <sodipodi:namedview
     id="namedview7"
     pagecolor="#ffffff"
     bordercolor="#666666"
     borderopacity="1.0"
     inkscape:showpageshadow="2"
     inkscape:pageopacity="0.0"
     inkscape:pagecheckerboard="true"
     inkscape:deskcolor="#d1d1d1"
     inkscape:document-units="px"
     showgrid="false"
     inkscape:zoom="0.5946522"
     inkscape:cx="257.29325"
     inkscape:cy="727.3159"
     inkscape:window-width="2400"
     inkscape:window-height="1261"
     inkscape:window-x="3191"
     inkscape:window-y="425"
     inkscape:window-maximized="1"
     inkscape:current-layer="layer1" />
  <defs
     id="defs2">
    <rect
       x="732.53446"
       y="552.62229"
       width="121.74641"
       height="299.97693"
       id="rect410" />
  </defs>
  <g
     inkscape:label="Layer 1"
     inkscape:groupmode="layer"
     id="layer1">
    <path
       d="m 222.46527,77.704538 c -0.0477,-0.782726 -0.10285,-1.409274 -0.16536,-1.879644 0.41157,0.183738 0.77721,0.312355 1.09692,0.38585 0.32338,0.06982 0.60634,0.104731 0.84887,0.104731 0.31971,0 0.57327,-0.04594 0.76068,-0.137804 0.19109,-0.09554 0.28663,-0.235185 0.28663,-0.418923 0,-0.06247 -0.009,-0.12127 -0.0276,-0.176389 -0.0184,-0.0588 -0.0533,-0.123108 -0.10473,-0.192925 -0.0515,-0.0735 -0.12496,-0.152504 -0.22049,-0.237023 l -1.03628,-0.903993 c -0.24254,-0.205787 -0.41158,-0.354615 -0.50712,-0.446484 -0.19477,-0.187413 -0.34727,-0.361965 -0.45751,-0.523655 -0.10657,-0.16169 -0.18557,-0.325217 -0.23702,-0.490582 -0.0478,-0.169039 -0.0717,-0.347265 -0.0717,-0.534678 0,-0.224161 0.0386,-0.44281 0.11575,-0.655947 0.0808,-0.216811 0.20028,-0.418923 0.35829,-0.606336 0.15802,-0.187413 0.36748,-0.349103 0.62839,-0.48507 0.26091,-0.135967 0.54019,-0.227836 0.83785,-0.275607 0.29765,-0.05145 0.6045,-0.07717 0.92053,-0.07717 0.62103,0 1.29719,0.07166 2.02847,0.214974 0.011,0.253559 0.0239,0.486907 0.0386,0.700044 0.0147,0.209461 0.0496,0.578775 0.10473,1.107942 -0.33807,-0.135966 -0.64675,-0.229672 -0.92604,-0.281119 -0.27928,-0.05512 -0.51998,-0.08268 -0.72209,-0.08268 -0.28663,0 -0.52549,0.05328 -0.71658,0.159853 -0.18741,0.106568 -0.28112,0.23886 -0.28112,0.396875 0,0.07349 0.0147,0.145153 0.0441,0.214974 0.0294,0.06982 0.0845,0.152503 0.16536,0.248047 0.0808,0.09187 0.18742,0.194762 0.31971,0.30868 0.13229,0.110243 0.33992,0.275608 0.62287,0.496094 l 0.39688,0.314193 c 0.11759,0.09554 0.24436,0.211299 0.38033,0.347265 0.13597,0.135967 0.25356,0.270096 0.35278,0.402387 0.0992,0.132292 0.17455,0.25356 0.226,0.363803 0.0551,0.110243 0.0956,0.222323 0.12127,0.336241 0.0257,0.110243 0.0386,0.229673 0.0386,0.35829 0,0.330729 -0.079,0.646759 -0.23702,0.94809 -0.15801,0.297656 -0.38217,0.543866 -0.67248,0.738629 -0.29031,0.191087 -0.61001,0.325216 -0.95912,0.402387 -0.34543,0.07717 -0.71107,0.115755 -1.09692,0.115755 -0.59531,0 -1.3468,-0.08636 -2.25447,-0.259071 z m 10.3408,-1.504818 c -0.0661,0.308681 -0.12309,0.610012 -0.17087,0.903993 l -0.12127,0.672483 c -0.3638,0.08085 -0.64859,0.132291 -0.85438,0.15434 -0.20211,0.02205 -0.39871,0.03307 -0.5898,0.03307 -0.31236,0 -0.58981,-0.02756 -0.83234,-0.08268 -0.24253,-0.05145 -0.44465,-0.146991 -0.60634,-0.286632 -0.16169,-0.143316 -0.27193,-0.306843 -0.33073,-0.490582 -0.0588,-0.183739 -0.0882,-0.378501 -0.0882,-0.584288 0,-0.03675 0.002,-0.101055 0.006,-0.192925 0.004,-0.09554 0.0169,-0.305006 0.0386,-0.628386 l 0.12126,-1.907205 h -0.85989 c 0.0184,-0.253559 0.0349,-0.587963 0.0496,-1.003212 l 0.0165,-0.51263 h 0.91502 c 0.0221,-0.169039 0.0496,-0.538354 0.0827,-1.107943 l 0.94258,-0.192925 c 0.17271,-0.03307 0.54019,-0.117593 1.10243,-0.253559 -0.0257,0.481395 -0.0441,0.999537 -0.0551,1.554427 h 1.25677 c -0.0294,0.764352 -0.0441,1.269633 -0.0441,1.515842 h -1.26779 l -0.0661,1.378038 c -0.007,0.205787 -0.011,0.338079 -0.011,0.396875 0,0.176389 0.0184,0.32338 0.0551,0.440973 0.0404,0.117593 0.10838,0.202112 0.20395,0.253559 0.0992,0.05145 0.20763,0.07717 0.32522,0.07717 0.0882,0 0.18006,-0.0055 0.27561,-0.01654 0.0955,-0.0147 0.26458,-0.05512 0.50711,-0.121267 z m 6.16259,-0.0441 c -0.0478,0.220486 -0.13967,0.753327 -0.27561,1.598524 -0.42627,0.08452 -0.78456,0.139642 -1.07487,0.165365 -0.29031,0.0294 -0.58429,0.0441 -0.88194,0.0441 -0.4373,0 -0.83969,-0.03124 -1.20716,-0.09371 -0.36748,-0.05879 -0.68535,-0.165362 -0.95361,-0.319705 -0.26458,-0.15434 -0.4869,-0.345428 -0.66697,-0.573263 -0.18006,-0.231511 -0.31786,-0.505281 -0.41341,-0.821311 -0.0919,-0.31603 -0.1378,-0.641247 -0.1378,-0.975651 0,-0.470371 0.0937,-0.929717 0.28112,-1.378038 0.18741,-0.451997 0.42811,-0.804775 0.72209,-1.058334 0.29765,-0.253559 0.63941,-0.433622 1.02526,-0.540191 0.38585,-0.106568 0.78089,-0.159852 1.18511,-0.159852 0.41893,0 0.81764,0.04961 1.19614,0.148828 0.38217,0.09554 0.70555,0.264583 0.97014,0.507118 0.26458,0.242535 0.45199,0.516305 0.56224,0.821311 0.11392,0.305005 0.17088,0.633897 0.17088,0.986675 0,0.209462 -0.0239,0.44281 -0.0717,0.700043 l -3.86402,0.0055 c -0.004,0.05879 -0.006,0.112077 -0.006,0.159852 0,0.396875 0.14148,0.689019 0.42443,0.876432 0.28296,0.187413 0.62839,0.28112 1.03629,0.28112 0.24253,0 0.51814,-0.02756 0.82682,-0.08268 0.31235,-0.05879 0.69637,-0.156175 1.15204,-0.292144 z m -3.38997,-1.785938 h 1.81901 c 0.004,-0.06247 0.006,-0.115757 0.006,-0.159852 0,-0.191088 -0.0349,-0.354615 -0.10473,-0.490582 -0.0661,-0.135966 -0.16352,-0.235185 -0.29215,-0.297656 -0.12494,-0.06247 -0.26642,-0.09371 -0.42443,-0.09371 -0.11025,0 -0.21682,0.01837 -0.31971,0.05512 -0.10289,0.03307 -0.1966,0.08452 -0.28112,0.15434 -0.0808,0.06615 -0.14882,0.143317 -0.20395,0.231511 -0.0551,0.08819 -0.0956,0.174551 -0.12126,0.259071 -0.0257,0.08085 -0.0515,0.194762 -0.0772,0.341753 z m 4.58611,3.450608 c 0.0515,-0.470371 0.0882,-0.852547 0.11024,-1.146528 0.0294,-0.40055 0.0588,-0.902156 0.0882,-1.504818 l 0.0606,-1.30638 c 0.0257,-0.591637 0.0441,-1.157552 0.0551,-1.697743 0.0147,-0.646759 0.0221,-1.269633 0.0221,-1.86862 0.51447,0.0074 0.90032,0.01103 1.15755,0.01103 0.29765,0 0.65043,-0.0037 1.05833,-0.01103 -0.0845,0.962789 -0.16169,2.158927 -0.23151,3.588412 -0.0698,1.429485 -0.10473,2.741377 -0.10473,3.935677 -0.42627,-0.0073 -0.7864,-0.01102 -1.08038,-0.01102 -0.33808,0 -0.71658,0.0037 -1.1355,0.01102 z m 2.43086,-3.163976 0.94809,-1.367014 0.71106,-1.096918 c 0.50712,0.0073 0.89113,0.01102 1.15204,0.01102 0.36013,0 0.78641,-0.0037 1.27882,-0.01102 l -1.09691,1.427647 c -0.25724,0.327055 -0.51999,0.679833 -0.78824,1.058334 0.25723,0.474045 0.87643,1.521354 1.85759,3.141927 -0.42995,-0.0073 -0.81763,-0.01102 -1.16306,-0.01102 -0.35278,0 -0.757,0.0037 -1.21267,0.01102 l -0.34176,-0.689019 c -0.12127,-0.23886 -0.226,-0.439135 -0.31419,-0.600825 -0.0331,-0.06615 -0.28479,-0.516306 -0.75517,-1.350477 z m 4.59162,3.059245 c -0.0147,-0.16169 -0.0294,-0.330729 -0.0441,-0.507118 -0.0147,-0.180064 -0.0386,-0.426274 -0.0717,-0.738629 l -0.0441,-0.396875 c 0.35645,0.139641 0.6633,0.244372 0.92053,0.314193 0.25723,0.06615 0.49425,0.09922 0.71106,0.09922 0.18007,0 0.32522,-0.01654 0.43546,-0.04961 0.11392,-0.03307 0.1966,-0.08084 0.24805,-0.143316 0.0515,-0.06247 0.0772,-0.126782 0.0772,-0.192926 0,-0.05879 -0.0202,-0.115752 -0.0606,-0.170876 -0.0367,-0.05879 -0.12309,-0.137801 -0.25907,-0.237023 -0.30133,-0.220486 -0.56776,-0.420761 -0.79927,-0.600825 -0.22783,-0.180063 -0.40055,-0.339916 -0.51814,-0.479557 -0.11392,-0.139641 -0.20211,-0.290307 -0.26458,-0.451997 -0.0588,-0.161689 -0.0882,-0.328891 -0.0882,-0.501605 0,-0.305006 0.0864,-0.589801 0.25907,-0.854384 0.17639,-0.264583 0.43363,-0.455671 0.77171,-0.573264 0.34175,-0.121267 0.757,-0.181901 1.24574,-0.181901 0.51079,0 1.16307,0.06615 1.95682,0.198437 l 0.0882,1.548915 c -0.44465,-0.176389 -0.87276,-0.264583 -1.28433,-0.264583 -0.29031,0 -0.50161,0.0294 -0.6339,0.08819 -0.12861,0.05879 -0.19292,0.148825 -0.19292,0.270096 0,0.04042 0.007,0.079 0.0221,0.115755 0.0147,0.03675 0.0404,0.07533 0.0772,0.115755 0.0404,0.04042 0.0882,0.08268 0.14331,0.12678 0.0588,0.04042 0.19844,0.137801 0.41893,0.292144 0.22048,0.15434 0.39319,0.28112 0.51814,0.380339 0.20579,0.161689 0.36196,0.312355 0.46853,0.451996 0.11025,0.135967 0.19293,0.282957 0.24805,0.440972 0.0588,0.154341 0.0882,0.317868 0.0882,0.490582 0,0.260909 -0.0643,0.501606 -0.19292,0.722092 -0.12495,0.216811 -0.31604,0.398712 -0.57327,0.545703 -0.25356,0.146991 -0.52917,0.248047 -0.82682,0.303168 -0.29765,0.05879 -0.6045,0.08819 -0.92053,0.08819 -0.21313,0 -0.48139,-0.01837 -0.80477,-0.05512 -0.31971,-0.03675 -0.6927,-0.101055 -1.11897,-0.192925 z"
       id="text113"
       style="font-size:11.2889px;line-height:7.05555px;font-family:'Eras Bold ITC';-inkscape-font-specification:'Eras Bold ITC, Normal';text-align:center;letter-spacing:0px;word-spacing:0px;text-anchor:middle;stroke-width:0.264583"
       aria-label="Steks.net"
       sodipodi:nodetypes="sccscscccccccscsscsccccscssccccssccscccscsccccsccsscccccccccccccccsccsccccccsccccsccsscscsccssscccccsccsccscccccccccscscsccccsccccsccccccccccscsscccccsccsccscscccscccscccscsc" />
    <text
       xml:space="preserve"
       transform="scale(0.26458333)"
       id="text408"
       style="font-size:40px;line-height:25px;font-family:'Eras Bold ITC';-inkscape-font-specification:'Eras Bold ITC, Normal';text-align:center;letter-spacing:0px;word-spacing:0px;writing-mode:lr-tb;white-space:pre;shape-inside:url(#rect410);display:inline" />
    <g
       id="text416"
       style="font-style:italic;font-size:10.5833px;line-height:13.2292px;font-family:Arial;-inkscape-font-specification:'Arial, Italic';text-align:center;letter-spacing:0px;word-spacing:0px;text-anchor:middle;stroke-width:0.264583"
       aria-label="The&#10;Ultimate&#10;Tower&#10;Building&#10;Puzzle&#10;Game">
      <path
         d="m 229.78063,95.216721 1.40042,-6.712748 h -2.48563 l 0.18087,-0.862993 h 5.96344 l -0.18086,0.862993 h -2.46496 l -1.40043,6.712748 z m 4.41315,0 1.58129,-7.575741 h 0.93534 l -0.60461,2.909374 q 0.52193,-0.506428 0.97151,-0.723468 0.44959,-0.222208 0.92501,-0.222208 0.68213,0 1.05936,0.361734 0.37724,0.356566 0.37724,0.945675 0,0.289388 -0.16536,1.064532 l -0.67696,3.240102 h -0.93534 l 0.69763,-3.322784 q 0.14986,-0.723468 0.14986,-0.909503 0,-0.268716 -0.18604,-0.439248 -0.18603,-0.170532 -0.53743,-0.170532 -0.50643,0 -0.96635,0.268717 -0.45992,0.263549 -0.72346,0.728635 -0.25839,0.459919 -0.47543,1.488277 l -0.49092,2.356438 z m 9.91667,-1.865514 0.90951,0.09302 q -0.19637,0.676959 -0.90434,1.286739 -0.7028,0.60978 -1.67948,0.60978 -0.60978,0 -1.12137,-0.279052 -0.50643,-0.28422 -0.77515,-0.821653 -0.26354,-0.537433 -0.26354,-1.224727 0,-0.899167 0.41341,-1.741491 0.41857,-0.84749 1.08003,-1.255733 0.66146,-0.41341 1.43143,-0.41341 0.98185,0 1.56579,0.60978 0.58911,0.60978 0.58911,1.663976 0,0.403075 -0.0723,0.82682 h -4.04109 q -0.0207,0.160196 -0.0207,0.289387 0,0.769976 0.3514,1.178219 0.35657,0.403075 0.86816,0.403075 0.48059,0 0.94568,-0.315225 0.46508,-0.315226 0.72346,-0.909503 z m -2.71817,-1.359086 h 3.07991 q 0.005,-0.144693 0.005,-0.206705 0,-0.702797 -0.3514,-1.074866 -0.3514,-0.377237 -0.90434,-0.377237 -0.59944,0 -1.09553,0.41341 -0.49093,0.413411 -0.73381,1.245398 z"
         id="path1" />
      <path
         d="m 219.18699,100.87018 h 1.01286 l -0.97152,4.65603 q -0.11885,0.57878 -0.11885,0.85783 0,0.60978 0.48059,0.98185 0.48058,0.37207 1.20922,0.37207 0.57877,0 1.07487,-0.26355 0.50126,-0.26872 0.79064,-0.78548 0.28939,-0.51676 0.52193,-1.64848 l 0.87333,-4.17027 h 1.01286 l -0.92501,4.44416 q -0.23771,1.13688 -0.62528,1.8035 -0.38757,0.66146 -1.07487,1.06453 -0.68729,0.39791 -1.59679,0.39791 -0.85783,0 -1.48828,-0.28422 -0.62528,-0.28422 -0.94051,-0.78548 -0.31006,-0.50126 -0.31006,-1.13688 0,-0.3979 0.21188,-1.36942 z m 5.82392,7.57574 1.58129,-7.57574 h 0.93534 l -1.58129,7.57574 z m 4.60952,-0.75964 -0.15503,0.76481 q -0.3359,0.0879 -0.65112,0.0879 -0.5581,0 -0.88883,-0.27389 -0.24805,-0.2067 -0.24805,-0.56327 0,-0.18086 0.13436,-0.83199 l 0.66662,-3.18842 h -0.73897 l 0.14986,-0.72347 h 0.73897 l 0.28422,-1.34875 1.0697,-0.64595 -0.41857,1.9947 h 0.91983 l -0.15503,0.72347 h -0.91467 l -0.63561,3.0334 q -0.11886,0.57877 -0.11886,0.69246 0,0.16536 0.093,0.25321 0.0982,0.0879 0.31522,0.0879 0.31006,0 0.55294,-0.062 z m 2.08255,-5.75674 0.22221,-1.05936 h 0.93017 l -0.2222,1.05936 z m -1.36425,6.51638 1.14721,-5.48802 h 0.93534 l -1.14721,5.48802 z m 2.38228,0 1.14721,-5.48802 h 0.93534 l -0.1912,0.90434 q 0.52193,-0.58395 0.93017,-0.80615 0.41341,-0.22221 0.894,-0.22221 0.51159,0 0.85266,0.27388 0.34623,0.26872 0.45475,0.75448 0.41858,-0.51677 0.87849,-0.76998 0.46509,-0.25838 0.97669,-0.25838 0.68729,0 1.02835,0.32556 0.34624,0.32556 0.34624,0.91467 0,0.25321 -0.11886,0.83715 l -0.73897,3.53466 h -0.93534 l 0.75447,-3.62767 q 0.0982,-0.44442 0.0982,-0.63562 0,-0.26872 -0.17053,-0.42375 -0.17054,-0.15503 -0.48059,-0.15503 -0.41858,0 -0.85266,0.25322 -0.43408,0.25321 -0.67696,0.66662 -0.23771,0.40824 -0.41858,1.2609 l -0.5581,2.66133 h -0.93534 l 0.77514,-3.70519 q 0.0827,-0.37723 0.0827,-0.53743 0,-0.26872 -0.17053,-0.43408 -0.16536,-0.16537 -0.43408,-0.16537 -0.39791,0 -0.83716,0.25322 -0.43408,0.25321 -0.70796,0.70796 -0.27388,0.44959 -0.44958,1.28674 l -0.5426,2.59415 z m 12.52115,-0.68213 q -0.48575,0.41858 -0.93534,0.61495 -0.44958,0.1912 -0.96118,0.1912 -0.75964,0 -1.22472,-0.44441 -0.46509,-0.44959 -0.46509,-1.14722 0,-0.45991 0.20671,-0.81131 0.21187,-0.35657 0.5581,-0.56844 0.34623,-0.21704 0.84749,-0.31006 0.31523,-0.062 1.19372,-0.0982 0.88367,-0.0362 1.26607,-0.18604 0.10852,-0.3824 0.10852,-0.63562 0,-0.32556 -0.23771,-0.51159 -0.32556,-0.25838 -0.95084,-0.25838 -0.58911,0 -0.96635,0.26355 -0.37207,0.25838 -0.5426,0.73897 l -0.94568,-0.0827 q 0.28939,-0.81648 0.91467,-1.25056 0.63045,-0.43408 1.58647,-0.43408 1.01802,0 1.6123,0.48576 0.45475,0.36173 0.45475,0.9405 0,0.43925 -0.12919,1.01803 l -0.30489,1.36425 q -0.1447,0.65112 -0.1447,1.05936 0,0.25838 0.11369,0.74414 h -0.94568 q -0.0775,-0.26872 -0.10852,-0.68213 z m 0.34623,-2.09805 q -0.19636,0.0775 -0.42374,0.11885 -0.22221,0.0413 -0.74931,0.0879 -0.81648,0.0724 -1.15238,0.18604 -0.33589,0.10852 -0.50642,0.3514 -0.17054,0.24287 -0.17054,0.53743 0,0.39274 0.26872,0.64595 0.27388,0.25322 0.77514,0.25322 0.46509,0 0.894,-0.24288 0.42892,-0.24805 0.67696,-0.6873 0.24805,-0.43924 0.38757,-1.25056 z m 4.02559,2.02054 -0.15503,0.76481 q -0.3359,0.0879 -0.65112,0.0879 -0.55811,0 -0.88884,-0.27389 -0.24804,-0.2067 -0.24804,-0.56327 0,-0.18086 0.13436,-0.83199 l 0.66662,-3.18842 h -0.73897 l 0.14986,-0.72347 h 0.73897 l 0.28422,-1.34875 1.0697,-0.64595 -0.41858,1.9947 h 0.91984 l -0.15503,0.72347 h -0.91467 l -0.63562,3.0334 q -0.11885,0.57877 -0.11885,0.69246 0,0.16536 0.093,0.25321 0.0982,0.0879 0.31522,0.0879 0.31006,0 0.55294,-0.062 z m 4.78522,-1.10587 0.9095,0.093 q -0.19637,0.67696 -0.90433,1.28674 -0.7028,0.60978 -1.67948,0.60978 -0.60978,0 -1.12138,-0.27905 -0.50643,-0.28422 -0.77514,-0.82165 -0.26355,-0.53743 -0.26355,-1.22473 0,-0.89917 0.41341,-1.74149 0.41858,-0.84749 1.08003,-1.25573 0.66146,-0.41341 1.43144,-0.41341 0.98184,0 1.56579,0.60978 0.58911,0.60978 0.58911,1.66397 0,0.40308 -0.0724,0.82682 h -4.04109 q -0.0207,0.1602 -0.0207,0.28939 0,0.76998 0.3514,1.17822 0.35657,0.40308 0.86816,0.40308 0.48059,0 0.94568,-0.31523 0.46509,-0.31523 0.72347,-0.9095 z m -2.71817,-1.35909 h 3.0799 q 0.005,-0.14469 0.005,-0.2067 0,-0.7028 -0.3514,-1.07487 -0.3514,-0.37724 -0.90433,-0.37724 -0.59945,0 -1.09554,0.41341 -0.49093,0.41341 -0.7338,1.2454 z"
         id="path2" />
      <path
         d="m 224.68276,121.67512 1.40043,-6.71275 h -2.48563 l 0.18087,-0.86299 h 5.96344 l -0.18087,0.86299 h -2.46496 l -1.40042,6.71275 z m 3.60701,-2.08255 q 0,-1.60713 0.94567,-2.66133 0.78031,-0.86816 2.04638,-0.86816 0.99219,0 1.5968,0.62011 0.60978,0.62012 0.60978,1.67431 0,0.94568 -0.38241,1.76217 -0.3824,0.81131 -1.09037,1.24539 -0.70279,0.43408 -1.4831,0.43408 -0.64079,0 -1.16789,-0.27388 -0.52193,-0.27388 -0.80098,-0.77514 -0.27388,-0.50126 -0.27388,-1.15755 z m 0.93534,-0.093 q 0,0.77514 0.37206,1.17822 0.37207,0.39791 0.94568,0.39791 0.29972,0 0.59428,-0.11886 0.29455,-0.12402 0.54777,-0.37207 0.25321,-0.24804 0.42891,-0.56327 0.18087,-0.32039 0.28939,-0.68729 0.16019,-0.5116 0.16019,-0.98185 0,-0.74414 -0.37723,-1.15238 -0.37207,-0.41341 -0.94051,-0.41341 -0.43925,0 -0.80098,0.21187 -0.36174,0.2067 -0.65629,0.60978 -0.28939,0.40307 -0.42892,0.94051 -0.13435,0.53226 -0.13435,0.95084 z m 5.82908,2.17557 -0.57361,-5.48802 h 0.89917 l 0.24805,2.46496 0.0982,1.38492 q 0.0103,0.15503 0.031,0.62529 0.15502,-0.5271 0.26354,-0.80615 0.10852,-0.28422 0.34624,-0.80615 l 1.30741,-2.86287 h 1.01802 l 0.18086,2.74401 q 0.0413,0.62528 0.0517,1.66914 0.25838,-0.69246 0.84232,-1.92235 l 1.17822,-2.4908 h 0.93534 l -2.68199,5.48802 h -0.97152 l -0.2067,-3.21943 q -0.0207,-0.29972 -0.031,-1.16788 -0.21187,0.55293 -0.50126,1.19372 l -1.4521,3.19359 z m 10.62981,-1.86551 0.9095,0.093 q -0.19637,0.67695 -0.90434,1.28673 -0.70279,0.60978 -1.67947,0.60978 -0.60978,0 -1.12138,-0.27905 -0.50643,-0.28422 -0.77514,-0.82165 -0.26355,-0.53743 -0.26355,-1.22473 0,-0.89916 0.41341,-1.74149 0.41858,-0.84749 1.08003,-1.25573 0.66146,-0.41341 1.43143,-0.41341 0.98185,0 1.56579,0.60978 0.58911,0.60978 0.58911,1.66397 0,0.40308 -0.0723,0.82682 h -4.04109 q -0.0207,0.1602 -0.0207,0.28939 0,0.76998 0.3514,1.17822 0.35657,0.40308 0.86816,0.40308 0.48059,0 0.94568,-0.31523 0.46509,-0.31523 0.72347,-0.9095 z m -2.71818,-1.35909 h 3.07991 q 0.005,-0.14469 0.005,-0.2067 0,-0.7028 -0.3514,-1.07487 -0.3514,-0.37724 -0.90434,-0.37724 -0.59944,0 -1.09553,0.41341 -0.49093,0.41341 -0.73381,1.2454 z m 4.57335,3.2246 1.14722,-5.48802 h 0.82682 l -0.23255,1.12138 q 0.42375,-0.63562 0.82683,-0.94051 0.40824,-0.30489 0.83198,-0.30489 0.27905,0 0.6873,0.20154 l -0.38241,0.86816 q -0.24288,-0.1757 -0.53226,-0.1757 -0.49093,0 -1.00769,0.54777 -0.51676,0.54776 -0.81132,1.96886 l -0.46508,2.20141 z"
         id="path3" />
      <path
         d="m 218.12763,134.90432 1.58646,-7.57574 h 2.3461 q 0.64079,0 0.95084,0.0517 0.50643,0.0878 0.85266,0.31005 0.3514,0.21704 0.5426,0.59945 0.19121,0.37724 0.19121,0.83715 0,0.62529 -0.34624,1.10071 -0.34106,0.47542 -1.04902,0.72347 0.61494,0.20153 0.91983,0.60978 0.30489,0.40307 0.30489,0.94567 0,0.62529 -0.36173,1.19889 -0.35657,0.57361 -0.95084,0.88883 -0.58911,0.31006 -1.31775,0.31006 z m 1.92235,-4.34081 h 1.53479 q 1.1007,0 1.58129,-0.35139 0.48576,-0.3514 0.48576,-1.02319 0,-0.3204 -0.14986,-0.55294 -0.14986,-0.23254 -0.40308,-0.3359 -0.24804,-0.10852 -0.9405,-0.10852 h -1.6123 z m -0.72863,3.48299 h 1.72599 q 0.68729,0 0.925,-0.0465 0.48059,-0.0827 0.78031,-0.27906 0.29973,-0.20153 0.47026,-0.52709 0.17053,-0.32556 0.17053,-0.68213 0,-0.53227 -0.3359,-0.80615 -0.33073,-0.27905 -1.26607,-0.27905 h -1.92235 z m 9.50326,-0.13436 q -0.98701,1.1162 -2.02054,1.1162 -0.63562,0 -1.02836,-0.36173 -0.38757,-0.3669 -0.38757,-0.894 0,-0.34623 0.1757,-1.18855 l 0.66146,-3.16776 h 0.93534 l -0.7338,3.50882 q -0.093,0.43925 -0.093,0.68213 0,0.31005 0.18603,0.48575 0.19121,0.17054 0.55811,0.17054 0.39274,0 0.76481,-0.19121 0.37723,-0.1912 0.64595,-0.51676 0.27388,-0.32556 0.44441,-0.76998 0.11369,-0.28422 0.26355,-0.99735 l 0.4961,-2.37194 h 0.93534 l -1.14722,5.48802 h -0.86299 z m 3.46748,-5.5242 0.22221,-1.05936 h 0.93017 l -0.22221,1.05936 z m -1.36425,6.51638 1.14721,-5.48802 h 0.93534 l -1.14721,5.48802 z m 2.3151,0 1.58129,-7.57574 h 0.93534 l -1.58129,7.57574 z m 6.12363,-0.79581 q -0.80098,0.91983 -1.67431,0.91983 -0.78031,0 -1.30224,-0.5736 -0.51676,-0.57878 -0.51676,-1.67431 0,-1.00252 0.40824,-1.82934 0.41341,-0.83199 1.02836,-1.2454 0.62011,-0.41341 1.24023,-0.41341 1.02319,0 1.54512,0.98702 l 0.62011,-2.95072 h 0.93018 l -1.5813,7.57574 h -0.86299 z m -2.56314,-1.50378 q 0,0.5736 0.11369,0.90433 0.11369,0.33073 0.38757,0.55294 0.27388,0.21704 0.65629,0.21704 0.63562,0 1.15238,-0.66146 0.69246,-0.87849 0.69246,-2.1704 0,-0.65112 -0.34106,-1.01802 -0.34107,-0.3669 -0.85783,-0.3669 -0.33589,0 -0.61495,0.14986 -0.27388,0.14986 -0.54776,0.51159 -0.26872,0.35657 -0.45475,0.9095 -0.18604,0.55294 -0.18604,0.97152 z m 6.07713,-4.21679 0.22221,-1.05936 h 0.93017 l -0.22221,1.05936 z m -1.36426,6.51638 1.14722,-5.48802 h 0.93534 l -1.14722,5.48802 z m 2.38745,0 1.14721,-5.48802 h 0.84749 l -0.20153,0.95601 q 0.55293,-0.56327 1.03352,-0.82165 0.48059,-0.25838 0.98185,-0.25838 0.66662,0 1.04386,0.36173 0.3824,0.36174 0.3824,0.96635 0,0.30489 -0.13435,0.96118 l -0.69763,3.32278 h -0.93534 l 0.72863,-3.47781 q 0.10852,-0.50643 0.10852,-0.74931 0,-0.27388 -0.1912,-0.44441 -0.18604,-0.17053 -0.5426,-0.17053 -0.7183,0 -1.28157,0.51676 -0.55811,0.51676 -0.82166,1.77249 l -0.53226,2.55281 z m 5.83425,0.49609 0.94568,0.0879 q -0.0103,0.3204 0.0775,0.48059 0.0879,0.1602 0.27905,0.24805 0.25322,0.11369 0.65629,0.11369 0.84749,0 1.21956,-0.43925 0.24288,-0.29456 0.44958,-1.28157 l 0.093,-0.44442 q -0.72863,0.73897 -1.55029,0.73897 -0.83199,0 -1.39526,-0.60978 -0.5581,-0.61495 -0.5581,-1.73632 0,-0.92501 0.43925,-1.70015 0.44441,-0.77514 1.05419,-1.16788 0.60978,-0.39791 1.25574,-0.39791 1.08003,0 1.66397,1.02319 l 0.18604,-0.89917 h 0.85782 l -1.10587,5.29682 q -0.18087,0.87333 -0.47542,1.35908 -0.29455,0.49093 -0.82165,0.75965 -0.52193,0.26871 -1.20923,0.26871 -0.66145,0 -1.14204,-0.17053 -0.47542,-0.17053 -0.71314,-0.50126 -0.23254,-0.32556 -0.23254,-0.7493 0,-0.1292 0.0258,-0.27906 z m 1.16788,-2.92487 q 0,0.56327 0.10852,0.84749 0.15503,0.3979 0.43925,0.60978 0.28939,0.2067 0.64079,0.2067 0.45992,0 0.91467,-0.32039 0.45475,-0.32556 0.7338,-1.00252 0.28422,-0.67696 0.28422,-1.29191 0,-0.67696 -0.37724,-1.07486 -0.37207,-0.40308 -0.925,-0.40308 -0.34107,0 -0.66146,0.18604 -0.32039,0.18086 -0.59944,0.5581 -0.27389,0.37207 -0.41858,0.894 -0.13953,0.52193 -0.13953,0.79065 z"
         id="path4" />
      <path
         d="m 221.06801,148.13352 1.58646,-7.57574 h 3.16259 q 0.82165,0 1.22989,0.1912 0.41341,0.18604 0.68213,0.64596 0.26871,0.45475 0.26871,1.02319 0,0.47025 -0.1912,0.95601 -0.1912,0.48575 -0.48575,0.80098 -0.28939,0.31522 -0.58911,0.47542 -0.29973,0.1602 -0.64079,0.23771 -0.72864,0.17053 -1.47277,0.17053 h -1.89652 l -0.64079,3.07474 z m 1.8345,-3.93256 h 1.66915 q 0.97151,0 1.42626,-0.20671 0.45475,-0.21187 0.72864,-0.64078 0.27388,-0.42892 0.27388,-0.90951 0,-0.37206 -0.14469,-0.60461 -0.14469,-0.23771 -0.40824,-0.34623 -0.26355,-0.11369 -1.01286,-0.11369 h -1.94303 z m 8.86765,2.94038 q -0.98702,1.1162 -2.02054,1.1162 -0.63562,0 -1.02836,-0.36173 -0.38757,-0.3669 -0.38757,-0.894 0,-0.34623 0.1757,-1.18855 l 0.66146,-3.16776 h 0.93534 l -0.73381,3.50882 q -0.093,0.43925 -0.093,0.68213 0,0.31005 0.18603,0.48575 0.1912,0.17054 0.5581,0.17054 0.39274,0 0.76481,-0.19121 0.37724,-0.1912 0.64596,-0.51676 0.27388,-0.32556 0.44441,-0.76998 0.11369,-0.28421 0.26355,-0.99735 l 0.49609,-2.37194 h 0.93534 l -1.14721,5.48802 h -0.86299 z m 1.9947,0.99218 0.14987,-0.72347 2.95071,-3.32278 q 0.31523,-0.3514 0.7028,-0.72864 -0.66663,0.0672 -0.95601,0.0672 h -2.04122 l 0.16537,-0.78031 h 4.24262 l -0.12402,0.58911 -2.97656,3.34346 q -0.25321,0.28422 -0.75447,0.78031 0.78031,-0.0465 1.0697,-0.0465 h 2.16007 l -0.17053,0.82165 z m 5.29166,0 0.14986,-0.72347 2.95071,-3.32278 q 0.31523,-0.3514 0.7028,-0.72864 -0.66662,0.0672 -0.95601,0.0672 h -2.04121 l 0.16536,-0.78031 h 4.24262 l -0.12402,0.58911 -2.97655,3.34346 q -0.25322,0.28422 -0.75448,0.78031 0.78031,-0.0465 1.0697,-0.0465 h 2.16007 l -0.17053,0.82165 z m 5.36399,0 1.5813,-7.57574 h 0.93534 l -1.5813,7.57574 z m 6.45437,-1.86551 0.9095,0.093 q -0.19637,0.67695 -0.90433,1.28673 -0.7028,0.60978 -1.67948,0.60978 -0.60978,0 -1.12138,-0.27905 -0.50643,-0.28422 -0.77514,-0.82165 -0.26355,-0.53743 -0.26355,-1.22473 0,-0.89916 0.41341,-1.74149 0.41858,-0.84749 1.08003,-1.25573 0.66146,-0.41341 1.43144,-0.41341 0.98184,0 1.56579,0.60978 0.58911,0.60978 0.58911,1.66397 0,0.40308 -0.0724,0.82682 h -4.04109 q -0.0207,0.1602 -0.0207,0.28939 0,0.76998 0.3514,1.17822 0.35657,0.40308 0.86816,0.40308 0.48059,0 0.94568,-0.31523 0.46509,-0.31522 0.72347,-0.9095 z m -2.71817,-1.35909 h 3.0799 q 0.005,-0.14469 0.005,-0.2067 0,-0.7028 -0.3514,-1.07487 -0.3514,-0.37724 -0.90433,-0.37724 -0.59945,0 -1.09554,0.41341 -0.49093,0.41341 -0.7338,1.2454 z"
         id="path5" />
      <path
         d="m 226.42167,158.37583 0.18086,-0.85782 h 3.31762 l -0.64595,3.08507 q -0.62528,0.39274 -1.42627,0.64079 -0.80098,0.24804 -1.57612,0.24804 -1.65364,0 -2.47013,-0.99735 -0.68729,-0.84232 -0.68729,-2.16524 0,-1.36425 0.59944,-2.48046 0.60461,-1.12137 1.51928,-1.65364 0.91984,-0.53743 2.04122,-0.53743 0.80615,0 1.44693,0.29456 0.64079,0.28938 0.98185,0.78031 0.34106,0.48575 0.49093,1.27123 l -0.99219,0.10852 q -0.1602,-0.78031 -0.66662,-1.19372 -0.50126,-0.41858 -1.29191,-0.41858 -0.82165,0 -1.53478,0.44959 -0.71314,0.44441 -1.14205,1.34875 -0.42375,0.89916 -0.42375,2.04638 0,1.14204 0.56328,1.72599 0.56327,0.58394 1.55545,0.58394 0.98702,0 2.1239,-0.65112 l 0.34106,-1.62781 z m 7.94781,2.30477 q -0.48576,0.41857 -0.93534,0.61494 -0.44959,0.1912 -0.96118,0.1912 -0.75964,0 -1.22473,-0.44441 -0.46508,-0.44958 -0.46508,-1.14721 0,-0.45992 0.2067,-0.81132 0.21187,-0.35657 0.5581,-0.56844 0.34624,-0.21704 0.8475,-0.31006 0.31522,-0.062 1.19372,-0.0982 0.88366,-0.0362 1.26607,-0.18604 0.10852,-0.3824 0.10852,-0.63562 0,-0.32556 -0.23772,-0.51159 -0.32556,-0.25838 -0.95084,-0.25838 -0.58911,0 -0.96634,0.26355 -0.37207,0.25838 -0.54261,0.73897 l -0.94567,-0.0827 q 0.28939,-0.81649 0.91467,-1.25057 0.63045,-0.43408 1.58646,-0.43408 1.01802,0 1.6123,0.48576 0.45475,0.36173 0.45475,0.9405 0,0.43925 -0.12919,1.01803 l -0.30489,1.36425 q -0.14469,0.65112 -0.14469,1.05936 0,0.25838 0.11368,0.74414 H 234.478 q -0.0775,-0.26871 -0.10852,-0.68212 z m 0.34623,-2.09806 q -0.19637,0.0775 -0.42375,0.11885 -0.2222,0.0413 -0.7493,0.0879 -0.81649,0.0724 -1.15238,0.18604 -0.3359,0.10852 -0.50643,0.3514 -0.17053,0.24288 -0.17053,0.53743 0,0.39274 0.26871,0.64595 0.27389,0.25322 0.77515,0.25322 0.46509,0 0.894,-0.24288 0.42891,-0.24805 0.67696,-0.6873 0.24804,-0.43924 0.38757,-1.25056 z m 1.83451,2.78018 1.14721,-5.48802 h 0.93534 l -0.1912,0.90434 q 0.52193,-0.58394 0.93017,-0.80615 0.41341,-0.22221 0.894,-0.22221 0.5116,0 0.85266,0.27388 0.34623,0.26872 0.45475,0.75448 0.41858,-0.51677 0.8785,-0.76998 0.46508,-0.25838 0.97668,-0.25838 0.68729,0 1.02836,0.32556 0.34623,0.32556 0.34623,0.91467 0,0.25321 -0.11886,0.83716 l -0.73897,3.53465 h -0.93534 l 0.75447,-3.62767 q 0.0982,-0.44442 0.0982,-0.63562 0,-0.26872 -0.17053,-0.42375 -0.17054,-0.15502 -0.48059,-0.15502 -0.41858,0 -0.85266,0.25321 -0.43408,0.25321 -0.67696,0.66662 -0.23771,0.40825 -0.41858,1.2609 l -0.5581,2.66133 h -0.93534 l 0.77514,-3.70519 q 0.0827,-0.37723 0.0827,-0.53743 0,-0.26872 -0.17053,-0.43408 -0.16536,-0.16536 -0.43408,-0.16536 -0.39791,0 -0.83715,0.25321 -0.43408,0.25321 -0.70797,0.70796 -0.27388,0.44959 -0.44958,1.28674 l -0.5426,2.59415 z m 12.85188,-1.86551 0.90951,0.093 q -0.19637,0.67695 -0.90434,1.28673 -0.7028,0.60978 -1.67948,0.60978 -0.60978,0 -1.12137,-0.27905 -0.50643,-0.28422 -0.77515,-0.82165 -0.26354,-0.53743 -0.26354,-1.22473 0,-0.89916 0.41341,-1.74149 0.41857,-0.84749 1.08003,-1.25573 0.66146,-0.41341 1.43143,-0.41341 0.98185,0 1.56579,0.60978 0.58911,0.60978 0.58911,1.66397 0,0.40308 -0.0723,0.82683 h -4.04109 q -0.0207,0.16019 -0.0207,0.28938 0,0.76998 0.3514,1.17822 0.35657,0.40308 0.86816,0.40308 0.48059,0 0.94568,-0.31523 0.46508,-0.31522 0.72346,-0.9095 z m -2.71817,-1.35909 h 3.07991 q 0.005,-0.14469 0.005,-0.2067 0,-0.7028 -0.3514,-1.07487 -0.3514,-0.37724 -0.90434,-0.37724 -0.59944,0 -1.09553,0.41341 -0.49093,0.41341 -0.73381,1.2454 z"
         id="path6" />
    </g>
  </g>
</svg>
