<?xml version="1.0" encoding="UTF-8" standalone="no"?>
<!-- Created with Inkscape (http://www.inkscape.org/) -->

<svg
   width="1024"
   height="1024"
   viewBox="0 0 270.93333 270.93333"
   version="1.1"
   id="svg5"
   inkscape:version="1.3 (0e150ed6c4, 2023-07-21)"
   sodipodi:docname="text_bottom.svg"
   xmlns:inkscape="http://www.inkscape.org/namespaces/inkscape"
   xmlns:sodipodi="http://sodipodi.sourceforge.net/DTD/sodipodi-0.dtd"
   xmlns="http://www.w3.org/2000/svg"
   xmlns:svg="http://www.w3.org/2000/svg">
  <sodipodi:namedview
     id="namedview7"
     pagecolor="#ffffff"
     bordercolor="#666666"
     borderopacity="1.0"
     inkscape:showpageshadow="2"
     inkscape:pageopacity="0.0"
     inkscape:pagecheckerboard="true"
     inkscape:deskcolor="#d1d1d1"
     inkscape:document-units="px"
     showgrid="false"
     inkscape:zoom="1.1893044"
     inkscape:cx="412.00554"
     inkscape:cy="829.47646"
     inkscape:window-width="3200"
     inkscape:window-height="1711"
     inkscape:window-x="-9"
     inkscape:window-y="-9"
     inkscape:window-maximized="1"
     inkscape:current-layer="layer1" />
  <defs
     id="defs2">
    <filter
       inkscape:menu="Shadows and Glows"
       inkscape:menu-tooltip="Cut out, add inner shadow and colorize some parts of an image"
       style="color-interpolation-filters:sRGB"
       inkscape:label="Emergence"
       id="filter3763"
       x="-0.091317444"
       y="-0.091316236"
       width="1.2206838"
       height="1.2206809">
      <feColorMatrix
         values="0 0 0 0 0 0 0 0 0 0 0 0 0 0 0 0.21 0.72 0.07 0 0 "
         result="result1"
         id="feColorMatrix3735" />
      <feColorMatrix
         values="1 0 0 0 0 0 1 0 0 0 0 0 1 0 0 0 0 0 2 0 "
         result="result9"
         id="feColorMatrix3737" />
      <feComposite
         in2="result9"
         in="SourceGraphic"
         operator="in"
         result="result4"
         id="feComposite3739" />
      <feFlood
         result="result2"
         flood-color="rgb(0,0,0)"
         id="feFlood3741" />
      <feComposite
         in2="result9"
         operator="in"
         result="result10"
         id="feComposite3743" />
      <feComposite
         in2="result4"
         operator="atop"
         id="feComposite3745" />
      <feGaussianBlur
         stdDeviation="3"
         result="result8"
         id="feGaussianBlur3747" />
      <feOffset
         dx="3"
         dy="3"
         result="result3"
         in="result8"
         id="feOffset3749" />
      <feFlood
         flood-opacity="1"
         flood-color="rgb(219,173,62)"
         result="result5"
         id="feFlood3751" />
      <feMerge
         result="result6"
         id="feMerge3759">
        <feMergeNode
           in="result5"
           id="feMergeNode3753" />
        <feMergeNode
           in="result3"
           id="feMergeNode3755" />
        <feMergeNode
           in="result4"
           id="feMergeNode3757" />
      </feMerge>
      <feComposite
         in2="SourceGraphic"
         operator="in"
         result="result7"
         id="feComposite3761" />
    </filter>
    <inkscape:path-effect
       effect="fillet_chamfer"
       id="path-effect1170"
       is_visible="true"
       lpeversion="1"
       satellites_param="F,0,0,1,0,4,0,1 @ F,0,0,1,0,4,0,1 @ F,0,0,1,0,4,0,1 @ F,0,0,1,0,4,0,1 @ F,0,0,1,0,4,0,1 @ F,0,0,1,0,4,0,1 @ F,0,0,1,0,4,0,1 @ F,0,0,1,0,4,0,1 @ F,0,0,1,0,4,0,1 @ F,0,0,1,0,4,0,1 @ F,0,0,1,0,4,0,1 @ F,0,0,1,0,4,0,1"
       unit="px"
       method="auto"
       mode="F"
       radius="4"
       chamfer_steps="1"
       flexible="false"
       use_knot_distance="true"
       apply_no_radius="true"
       apply_with_radius="true"
       only_selected="false"
       hide_knots="false"
       nodesatellites_param="F,0,0,1,0,4,0,1 @ F,0,0,1,0,4,0,1 @ F,0,0,1,0,4,0,1 @ F,0,0,1,0,4,0,1 @ F,0,0,1,0,4,0,1 @ F,0,0,1,0,4,0,1 @ F,0,0,1,0,4,0,1 @ F,0,0,1,0,4,0,1 @ F,0,0,1,0,4,0,1 @ F,0,0,1,0,4,0,1 @ F,0,0,1,0,4,0,1 @ F,0,0,1,0,4,0,1" />
  </defs>
  <g
     inkscape:label="Layer 1"
     inkscape:groupmode="layer"
     id="layer1">
    <path
       d="m 84.728726,262.57379 1.307069,-6.26525 h -2.319927 l 0.168809,-0.80546 h 5.565898 l -0.16881,0.80546 H 86.98113 l -1.30707,6.26525 z m 4.118957,0 1.475879,-7.07071 h 0.872987 l -0.564306,2.71542 q 0.487136,-0.47267 0.906749,-0.67524 0.419613,-0.20739 0.863341,-0.20739 0.636654,0 0.988743,0.33762 0.352089,0.33279 0.352089,0.88263 0,0.2701 -0.154341,0.99357 l -0.63183,3.0241 h -0.872988 l 0.651123,-3.10127 q 0.139871,-0.67524 0.139871,-0.84888 0,-0.2508 -0.173633,-0.40996 -0.173632,-0.15917 -0.501606,-0.15917 -0.472667,0 -0.901926,0.25081 -0.429259,0.24598 -0.675239,0.68006 -0.241156,0.42926 -0.443728,1.38906 l -0.458198,2.19935 z m 9.255596,-1.74115 0.848871,0.0868 q -0.183279,0.63183 -0.844048,1.20096 -0.655947,0.56913 -1.567519,0.56913 -0.56913,0 -1.04662,-0.26045 -0.472667,-0.26527 -0.72347,-0.76688 -0.24598,-0.50161 -0.24598,-1.14308 0,-0.83923 0.38585,-1.6254 0.390674,-0.79099 1.008036,-1.17202 0.617361,-0.38585 1.336008,-0.38585 0.916396,0 1.46141,0.56913 0.549837,0.56913 0.549837,1.55305 0,0.3762 -0.06752,0.7717 h -3.771691 q -0.01929,0.14952 -0.01929,0.27009 0,0.71865 0.327974,1.09968 0.332796,0.3762 0.810286,0.3762 0.448552,0 0.882634,-0.29421 0.434082,-0.29421 0.675239,-0.84887 z m -2.536969,-1.26848 h 2.874588 q 0.0048,-0.13505 0.0048,-0.19293 0,-0.65595 -0.327973,-1.00321 -0.327973,-0.35209 -0.844049,-0.35209 -0.559483,0 -1.022504,0.38585 -0.458198,0.38585 -0.684885,1.16238 z m 10.50961,2.08359 q -0.92122,1.0418 -1.88585,1.0418 -0.59324,0 -0.9598,-0.33762 -0.36174,-0.34245 -0.36174,-0.83441 0,-0.32315 0.16399,-1.10932 l 0.61736,-2.95658 h 0.87299 l -0.68489,3.27491 q -0.0868,0.40997 -0.0868,0.63665 0,0.28939 0.17363,0.45338 0.17846,0.15916 0.5209,0.15916 0.36656,0 0.71382,-0.17845 0.35209,-0.17846 0.60289,-0.48232 0.25563,-0.30385 0.41479,-0.71864 0.10611,-0.26528 0.24598,-0.93087 l 0.46302,-2.21382 h 0.87299 l -1.07073,5.12217 H 105.883 Z m 1.92925,0.92604 1.47588,-7.07071 h 0.87299 l -1.47588,7.07071 z m 4.30224,-0.709 -0.1447,0.71382 q -0.3135,0.082 -0.60771,0.082 -0.5209,0 -0.82958,-0.25563 -0.23151,-0.19292 -0.23151,-0.52572 0,-0.16881 0.1254,-0.77652 l 0.62218,-2.97588 h -0.6897 l 0.13987,-0.67524 h 0.6897 l 0.26528,-1.25884 0.99839,-0.60289 -0.39068,1.86173 h 0.85852 l -0.14469,0.67524 h -0.8537 l -0.59324,2.83118 q -0.11094,0.54019 -0.11094,0.6463 0,0.15434 0.0868,0.23634 0.0916,0.082 0.29421,0.082 0.28939,0 0.51608,-0.0579 z m 1.94372,-5.37297 0.2074,-0.98874 h 0.86816 l -0.20739,0.98874 z m -1.27331,6.08197 1.07074,-5.12217 h 0.87299 l -1.07074,5.12217 z m 2.22347,0 1.07074,-5.12217 h 0.87298 l -0.17845,0.84405 q 0.48713,-0.54501 0.86816,-0.75241 0.38585,-0.20739 0.8344,-0.20739 0.47749,0 0.79582,0.25562 0.32315,0.25081 0.42444,0.70418 0.39067,-0.48231 0.81993,-0.71865 0.43408,-0.24115 0.91157,-0.24115 0.64148,0 0.95981,0.30385 0.32315,0.30386 0.32315,0.8537 0,0.23633 -0.11094,0.78135 l -0.6897,3.29902 h -0.87299 l 0.70418,-3.38584 q 0.0916,-0.41479 0.0916,-0.59324 0,-0.25081 -0.15917,-0.3955 -0.15916,-0.1447 -0.44855,-0.1447 -0.39067,0 -0.79582,0.23634 -0.40514,0.23633 -0.63183,0.62218 -0.22186,0.38103 -0.39067,1.17685 l -0.5209,2.48391 h -0.87299 l 0.72347,-3.45819 q 0.0772,-0.35208 0.0772,-0.5016 0,-0.25081 -0.15916,-0.40515 -0.15434,-0.15434 -0.40514,-0.15434 -0.37138,0 -0.78135,0.23634 -0.40514,0.23633 -0.66077,0.66077 -0.25563,0.41961 -0.41961,1.20096 l -0.50643,2.42121 z m 11.68646,-0.63665 q -0.45338,0.39067 -0.87299,0.57395 -0.41961,0.17846 -0.89711,0.17846 -0.709,0 -1.14308,-0.41479 -0.43408,-0.41962 -0.43408,-1.07074 0,-0.42926 0.19293,-0.75723 0.19774,-0.3328 0.52089,-0.53055 0.32315,-0.20257 0.791,-0.28938 0.29421,-0.0579 1.11414,-0.0916 0.82476,-0.0338 1.18167,-0.17364 0.10129,-0.35691 0.10129,-0.59324 0,-0.30386 -0.22187,-0.47749 -0.30386,-0.24116 -0.88746,-0.24116 -0.54983,0 -0.90192,0.24598 -0.34727,0.24116 -0.50643,0.68971 l -0.88263,-0.0772 q 0.27009,-0.76206 0.85369,-1.1672 0.58842,-0.40514 1.4807,-0.40514 0.95016,0 1.50482,0.45337 0.42444,0.33762 0.42444,0.87781 0,0.40997 -0.12058,0.95016 l -0.28457,1.27331 q -0.13504,0.60771 -0.13504,0.98874 0,0.24116 0.1061,0.69453 h -0.88263 q -0.0724,-0.2508 -0.10128,-0.63665 z m 0.32315,-1.95819 q -0.18328,0.0723 -0.3955,0.11093 -0.2074,0.0386 -0.69936,0.082 -0.76205,0.0675 -1.07556,0.17363 -0.3135,0.10129 -0.47266,0.32798 -0.15917,0.22668 -0.15917,0.5016 0,0.36656 0.25081,0.60289 0.25562,0.23634 0.72347,0.23634 0.43408,0 0.8344,-0.22669 0.40032,-0.23151 0.63183,-0.64148 0.23151,-0.40996 0.36174,-1.16719 z m 3.75722,1.88584 -0.1447,0.71382 q -0.3135,0.082 -0.60771,0.082 -0.5209,0 -0.82958,-0.25563 -0.23151,-0.19292 -0.23151,-0.52572 0,-0.16881 0.1254,-0.77652 l 0.62218,-2.97588 h -0.6897 l 0.13987,-0.67524 h 0.6897 l 0.26528,-1.25884 0.99839,-0.60289 -0.39068,1.86173 h 0.85852 l -0.14469,0.67524 h -0.8537 l -0.59324,2.83118 q -0.11094,0.54019 -0.11094,0.6463 0,0.15434 0.0868,0.23634 0.0916,0.082 0.29421,0.082 0.28939,0 0.51608,-0.0579 z m 4.46622,-1.03215 0.84887,0.0868 q -0.18328,0.63183 -0.84405,1.20096 -0.65595,0.56913 -1.56752,0.56913 -0.56913,0 -1.04662,-0.26045 -0.47267,-0.26527 -0.72347,-0.76688 -0.24598,-0.50161 -0.24598,-1.14308 0,-0.83923 0.38585,-1.6254 0.39068,-0.79099 1.00804,-1.17202 0.61736,-0.38585 1.33601,-0.38585 0.91639,0 1.46141,0.56913 0.54983,0.56913 0.54983,1.55305 0,0.3762 -0.0675,0.7717 h -3.77169 q -0.0193,0.14952 -0.0193,0.27009 0,0.71865 0.32798,1.09968 0.33279,0.3762 0.81028,0.3762 0.44856,0 0.88264,-0.29421 0.43408,-0.29421 0.67524,-0.84887 z m -2.53697,-1.26848 h 2.87459 q 0.005,-0.13505 0.005,-0.19293 0,-0.65595 -0.32797,-1.00321 -0.32798,-0.35209 -0.84405,-0.35209 -0.55949,0 -1.02251,0.38585 -0.45819,0.38585 -0.68488,1.16238 z m 9.05302,2.30063 -0.14469,0.71382 q -0.3135,0.082 -0.60772,0.082 -0.52089,0 -0.82958,-0.25563 -0.23151,-0.19292 -0.23151,-0.52572 0,-0.16881 0.12541,-0.77652 l 0.62218,-2.97588 h -0.68971 l 0.13987,-0.67524 h 0.68971 l 0.26527,-1.25884 0.99839,-0.60289 -0.39067,1.86173 h 0.85852 l -0.1447,0.67524 h -0.85369 l -0.59325,2.83118 q -0.11093,0.54019 -0.11093,0.6463 0,0.15434 0.0868,0.23634 0.0916,0.082 0.29421,0.082 0.28939,0 0.51607,-0.0579 z m 0.85852,-1.23472 q 0,-1.5 0.88264,-2.48392 0.72829,-0.81028 1.90996,-0.81028 0.92604,0 1.49035,0.57877 0.56913,0.57878 0.56913,1.5627 0,0.88263 -0.35692,1.64469 -0.35691,0.75723 -1.01768,1.16237 -0.65594,0.40515 -1.38424,0.40515 -0.59807,0 -1.09002,-0.25563 -0.48714,-0.25563 -0.74759,-0.72347 -0.25563,-0.46784 -0.25563,-1.08038 z m 0.87299,-0.0868 q 0,0.72347 0.34727,1.09968 0.34726,0.37138 0.88263,0.37138 0.27974,0 0.55466,-0.11093 0.27492,-0.11576 0.51125,-0.34727 0.23634,-0.23151 0.40032,-0.52572 0.16881,-0.29904 0.2701,-0.64148 0.14952,-0.47749 0.14952,-0.91639 0,-0.69454 -0.35209,-1.07556 -0.34727,-0.38585 -0.87781,-0.38585 -0.40997,0 -0.74759,0.19774 -0.33762,0.19293 -0.61254,0.56913 -0.27009,0.37621 -0.40032,0.87781 -0.1254,0.49679 -0.1254,0.88746 z m 5.4405,2.03054 -0.53537,-5.12217 h 0.83922 l 0.23151,2.30064 0.0916,1.2926 q 0.01,0.14469 0.0289,0.5836 0.1447,-0.49196 0.24598,-0.75241 0.10129,-0.26527 0.32315,-0.75241 l 1.22025,-2.67202 h 0.95016 l 0.16881,2.56109 q 0.0386,0.5836 0.0482,1.55787 0.24116,-0.6463 0.78617,-1.79421 l 1.09968,-2.32475 h 0.87299 l -2.50321,5.12217 h -0.90675 l -0.19293,-3.00481 q -0.0193,-0.27974 -0.0289,-1.09003 -0.19775,0.51608 -0.46785,1.11414 l -1.3553,2.9807 z m 9.92118,-1.74115 0.84887,0.0868 q -0.18328,0.63183 -0.84404,1.20096 -0.65595,0.56913 -1.56752,0.56913 -0.56913,0 -1.04662,-0.26045 -0.47267,-0.26527 -0.72347,-0.76688 -0.24598,-0.50161 -0.24598,-1.14308 0,-0.83923 0.38585,-1.6254 0.39067,-0.79099 1.00803,-1.17202 0.61736,-0.38585 1.33601,-0.38585 0.9164,0 1.46141,0.56913 0.54984,0.56913 0.54984,1.55305 0,0.3762 -0.0675,0.7717 h -3.77169 q -0.0193,0.14952 -0.0193,0.27009 0,0.71865 0.32797,1.09968 0.3328,0.3762 0.81029,0.3762 0.44855,0 0.88263,-0.29421 0.43409,-0.29421 0.67524,-0.84887 z m -2.53697,-1.26848 h 2.87459 q 0.005,-0.13505 0.005,-0.19293 0,-0.65595 -0.32797,-1.00321 -0.32797,-0.35209 -0.84405,-0.35209 -0.55948,0 -1.0225,0.38585 -0.4582,0.38585 -0.68489,1.16238 z m 4.26848,3.00963 1.07074,-5.12217 h 0.7717 l -0.21704,1.04662 q 0.39549,-0.59324 0.7717,-0.87781 0.38103,-0.28456 0.77652,-0.28456 0.26045,0 0.64148,0.1881 l -0.35691,0.81029 q -0.22669,-0.16399 -0.49678,-0.16399 -0.4582,0 -0.94052,0.51125 -0.48231,0.51125 -0.75723,1.83762 l -0.43408,2.05465 z m 6.03374,0 1.47588,-7.07071 h 0.87298 l -0.52572,2.52732 q 0.41479,-0.38103 0.75241,-0.53537 0.33762,-0.15916 0.70418,-0.15916 0.71865,0 1.19614,0.53537 0.48231,0.53536 0.48231,1.55787 0,0.68006 -0.19293,1.24437 -0.19292,0.5643 -0.47749,0.95015 -0.28456,0.38103 -0.58842,0.61254 -0.30386,0.22669 -0.62218,0.33762 -0.31833,0.11576 -0.61254,0.11576 -0.50643,0 -0.89228,-0.26528 -0.38585,-0.27009 -0.60289,-0.81993 l -0.20257,0.96945 z m 1.2926,-2.10289 -0.005,0.16399 q 0,0.65595 0.31351,0.99839 0.3135,0.34244 0.78135,0.34244 0.45819,0 0.83922,-0.31832 0.38585,-0.32315 0.63183,-1.00322 0.24598,-0.68006 0.24598,-1.25401 0,-0.6463 -0.3135,-1.00321 -0.30868,-0.35692 -0.76688,-0.35692 -0.47267,0 -0.86816,0.36656 -0.3955,0.36174 -0.66077,1.11897 -0.19775,0.56431 -0.19775,0.94533 z m 7.69772,1.17685 q -0.92122,1.0418 -1.88584,1.0418 -0.59325,0 -0.95981,-0.33762 -0.36173,-0.34245 -0.36173,-0.83441 0,-0.32315 0.16399,-1.10932 l 0.61736,-2.95658 h 0.87298 l -0.68488,3.27491 q -0.0868,0.40997 -0.0868,0.63665 0,0.28939 0.17364,0.45338 0.17845,0.15916 0.52089,0.15916 0.36656,0 0.71383,-0.17845 0.35209,-0.17846 0.60289,-0.48232 0.25563,-0.30385 0.41479,-0.71864 0.10611,-0.26528 0.24598,-0.93087 l 0.46302,-2.21382 h 0.87299 l -1.07074,5.12217 h -0.80546 z m 3.23633,-5.15593 0.20739,-0.98874 h 0.86817 l -0.2074,0.98874 z m -1.27331,6.08197 1.07074,-5.12217 h 0.87299 l -1.07074,5.12217 z m 2.16076,0 1.47588,-7.07071 h 0.87299 l -1.47588,7.07071 z m 5.71541,-0.74276 q -0.74758,0.85852 -1.56269,0.85852 -0.72829,0 -1.21543,-0.53537 -0.48231,-0.54019 -0.48231,-1.5627 0,-0.93569 0.38102,-1.70739 0.38585,-0.77652 0.95981,-1.16237 0.57877,-0.38585 1.15755,-0.38585 0.95498,0 1.44212,0.92122 l 0.57877,-2.75401 h 0.86817 l -1.47588,7.07071 H 185.484 Z m -2.39227,-1.40353 q 0,0.53536 0.10611,0.84405 0.10611,0.30868 0.36173,0.51607 0.25563,0.20257 0.61254,0.20257 0.59325,0 1.07556,-0.61736 0.6463,-0.81993 0.6463,-2.02572 0,-0.60771 -0.31833,-0.95015 -0.31832,-0.34245 -0.80064,-0.34245 -0.3135,0 -0.57395,0.13988 -0.25563,0.13987 -0.51125,0.47749 -0.2508,0.33279 -0.42444,0.84887 -0.17363,0.51607 -0.17363,0.90675 z m 5.67201,-3.93568 0.20739,-0.98874 h 0.86817 l -0.2074,0.98874 z m -1.27331,6.08197 1.07074,-5.12217 h 0.87298 l -1.07073,5.12217 z m 2.22829,0 1.07074,-5.12217 h 0.79099 l -0.1881,0.89228 q 0.51607,-0.52572 0.96462,-0.76688 0.44856,-0.24115 0.9164,-0.24115 0.62218,0 0.97427,0.33762 0.35691,0.33762 0.35691,0.90192 0,0.28457 -0.1254,0.89711 l -0.65112,3.10127 h -0.87299 l 0.68006,-3.24597 q 0.10129,-0.47267 0.10129,-0.69935 0,-0.25563 -0.17846,-0.41479 -0.17363,-0.15917 -0.50642,-0.15917 -0.67042,0 -1.19614,0.48232 -0.5209,0.48231 -0.76688,1.65433 l -0.49678,2.38263 z m 5.44532,0.46302 0.88263,0.082 q -0.01,0.29903 0.0724,0.44855 0.082,0.14951 0.26045,0.23151 0.23633,0.10611 0.61254,0.10611 0.79099,0 1.13826,-0.40997 0.22669,-0.27492 0.41961,-1.19614 l 0.0868,-0.41479 q -0.68006,0.68971 -1.44694,0.68971 -0.77653,0 -1.30225,-0.56913 -0.5209,-0.57395 -0.5209,-1.62057 0,-0.86334 0.40997,-1.58681 0.41479,-0.72347 0.98392,-1.09003 0.56913,-0.37138 1.17202,-0.37138 1.00804,0 1.55305,0.95498 l 0.17363,-0.83923 h 0.80064 l -1.03215,4.94372 q -0.16881,0.81511 -0.44373,1.26848 -0.27491,0.4582 -0.76687,0.709 -0.48714,0.2508 -1.12862,0.2508 -0.61736,0 -1.06591,-0.15916 -0.44373,-0.15916 -0.66559,-0.46784 -0.21704,-0.30386 -0.21704,-0.69936 0,-0.12058 0.0241,-0.26045 z m 1.09003,-2.72989 q 0,0.52572 0.10129,0.79099 0.14469,0.37138 0.40996,0.56913 0.2701,0.19293 0.59807,0.19293 0.42926,0 0.8537,-0.29904 0.42443,-0.30385 0.68488,-0.93568 0.26527,-0.63184 0.26527,-1.20579 0,-0.63183 -0.35209,-1.00321 -0.34726,-0.37621 -0.86334,-0.37621 -0.31832,0 -0.61736,0.17364 -0.29903,0.16881 -0.55948,0.5209 -0.25563,0.34726 -0.39068,0.8344 -0.13022,0.48714 -0.13022,0.73794 z m 6.76685,4.22989 1.4807,-7.08519 h 0.80547 l -0.14952,0.71383 q 0.44855,-0.46785 0.80064,-0.6463 0.35691,-0.18328 0.75241,-0.18328 0.73312,0 1.21543,0.53537 0.48231,0.53054 0.48231,1.52411 0,0.80064 -0.26527,1.46141 -0.26527,0.65594 -0.65112,1.05626 -0.38585,0.40032 -0.78135,0.58842 -0.3955,0.18811 -0.81029,0.18811 -0.92122,0 -1.42765,-0.93569 l -0.57877,2.78295 z m 1.72668,-4.05626 q 0,0.57395 0.082,0.79582 0.12057,0.3135 0.39549,0.50643 0.27492,0.19292 0.63666,0.19292 0.75241,0 1.21543,-0.84405 0.46302,-0.84887 0.46302,-1.7315 0,-0.65112 -0.31351,-1.00321 -0.30868,-0.35692 -0.7717,-0.35692 -0.33279,0 -0.61736,0.17846 -0.28456,0.17363 -0.53054,0.52572 -0.24116,0.34727 -0.40032,0.8537 -0.15917,0.50643 -0.15917,0.88263 z m 7.69291,1.1672 q -0.92122,1.0418 -1.88585,1.0418 -0.59325,0 -0.9598,-0.33762 -0.36174,-0.34245 -0.36174,-0.83441 0,-0.32315 0.16399,-1.10932 l 0.61736,-2.95658 h 0.87299 l -0.68489,3.27491 q -0.0868,0.40997 -0.0868,0.63665 0,0.28939 0.17364,0.45338 0.17845,0.15916 0.5209,0.15916 0.36655,0 0.71382,-0.17845 0.35209,-0.17846 0.60289,-0.48232 0.25563,-0.30385 0.41479,-0.71864 0.10611,-0.26528 0.24598,-0.93087 l 0.46302,-2.21382 h 0.87299 l -1.07074,5.12217 h -0.80546 z m 1.86172,0.92604 0.13987,-0.67524 2.75401,-3.10127 q 0.29421,-0.32798 0.65595,-0.68007 -0.62219,0.0627 -0.89228,0.0627 h -1.90514 l 0.15434,-0.7283 h 3.95979 l -0.11575,0.54984 -2.77813,3.12057 q -0.23633,0.26527 -0.70417,0.72829 0.72829,-0.0434 0.99838,-0.0434 h 2.01607 l -0.15916,0.76688 z m 4.93889,0 0.13987,-0.67524 2.75401,-3.10127 q 0.29421,-0.32798 0.65595,-0.68007 -0.62219,0.0627 -0.89228,0.0627 h -1.90514 l 0.15434,-0.7283 h 3.95979 l -0.11575,0.54984 -2.77813,3.12057 q -0.23633,0.26527 -0.70418,0.72829 0.7283,-0.0434 0.99839,-0.0434 h 2.01607 l -0.15916,0.76688 z m 5.00643,0 1.47588,-7.07071 h 0.87298 l -1.47588,7.07071 z m 6.02409,-1.74115 0.84887,0.0868 q -0.18328,0.63183 -0.84405,1.20096 -0.65595,0.56913 -1.56752,0.56913 -0.56913,0 -1.04662,-0.26045 -0.47267,-0.26527 -0.72347,-0.76688 -0.24598,-0.50161 -0.24598,-1.14308 0,-0.83923 0.38585,-1.6254 0.39067,-0.79099 1.00804,-1.17202 0.61736,-0.38585 1.336,-0.38585 0.9164,0 1.46141,0.56913 0.54984,0.56913 0.54984,1.55305 0,0.3762 -0.0675,0.7717 h -3.77169 q -0.0193,0.14952 -0.0193,0.27009 0,0.71865 0.32798,1.09968 0.33279,0.3762 0.81028,0.3762 0.44855,0 0.88264,-0.29421 0.43408,-0.29421 0.67524,-0.84887 z m -2.53697,-1.26848 h 2.87458 q 0.005,-0.13505 0.005,-0.19293 0,-0.65595 -0.32798,-1.00321 -0.32797,-0.35209 -0.84404,-0.35209 -0.55949,0 -1.02251,0.38585 -0.4582,0.38585 -0.68488,1.16238 z m 6.9646,3.47265 0.88264,0.082 q -0.01,0.29903 0.0723,0.44855 0.082,0.14951 0.26045,0.23151 0.23634,0.10611 0.61254,0.10611 0.791,0 1.13826,-0.40997 0.22669,-0.27492 0.41961,-1.19614 l 0.0868,-0.41479 q -0.68006,0.68971 -1.44694,0.68971 -0.77652,0 -1.30225,-0.56913 -0.52089,-0.57395 -0.52089,-1.62057 0,-0.86334 0.40996,-1.58681 0.41479,-0.72347 0.98392,-1.09003 0.56913,-0.37138 1.17202,-0.37138 1.00804,0 1.55305,0.95498 l 0.17364,-0.83923 h 0.80064 l -1.03216,4.94372 q -0.1688,0.81511 -0.44372,1.26848 -0.27492,0.4582 -0.76688,0.709 -0.48714,0.2508 -1.12862,0.2508 -0.61736,0 -1.06591,-0.15916 -0.44373,-0.15916 -0.66559,-0.46784 -0.21704,-0.30386 -0.21704,-0.69936 0,-0.12058 0.0241,-0.26045 z m 1.09003,-2.72989 q 0,0.52572 0.10129,0.79099 0.14469,0.37138 0.40996,0.56913 0.2701,0.19293 0.59807,0.19293 0.42926,0 0.8537,-0.29904 0.42443,-0.30385 0.68488,-0.93568 0.26528,-0.63184 0.26528,-1.20579 0,-0.63183 -0.35209,-1.00321 -0.34727,-0.37621 -0.86334,-0.37621 -0.31833,0 -0.61737,0.17364 -0.29903,0.16881 -0.55948,0.5209 -0.25563,0.34726 -0.39067,0.8344 -0.13023,0.48714 -0.13023,0.73794 z m 7.90512,1.63022 q -0.45338,0.39067 -0.87299,0.57395 -0.41961,0.17846 -0.89711,0.17846 -0.709,0 -1.14308,-0.41479 -0.43408,-0.41962 -0.43408,-1.07074 0,-0.42926 0.19293,-0.75723 0.19774,-0.3328 0.52089,-0.53055 0.32315,-0.20257 0.791,-0.28938 0.29421,-0.0579 1.11414,-0.0916 0.82476,-0.0338 1.18167,-0.17364 0.10129,-0.35691 0.10129,-0.59324 0,-0.30386 -0.22187,-0.47749 -0.30386,-0.24116 -0.88746,-0.24116 -0.54983,0 -0.90192,0.24598 -0.34727,0.24116 -0.50643,0.68971 l -0.88263,-0.0772 q 0.27009,-0.76206 0.85369,-1.1672 0.58842,-0.40514 1.4807,-0.40514 0.95016,0 1.50482,0.45337 0.42444,0.33762 0.42444,0.87781 0,0.40997 -0.12058,0.95016 l -0.28457,1.27331 q -0.13504,0.60771 -0.13504,0.98874 0,0.24116 0.1061,0.69453 h -0.88263 q -0.0724,-0.2508 -0.10128,-0.63665 z m 0.32315,-1.95819 q -0.18328,0.0723 -0.3955,0.11093 -0.2074,0.0386 -0.69936,0.082 -0.76205,0.0675 -1.07556,0.17363 -0.3135,0.10129 -0.47266,0.32798 -0.15917,0.22668 -0.15917,0.5016 0,0.36656 0.25081,0.60289 0.25562,0.23634 0.72347,0.23634 0.43408,0 0.8344,-0.22669 0.40032,-0.23151 0.63183,-0.64148 0.23151,-0.40996 0.36174,-1.16719 z m 1.71222,2.59484 1.07073,-5.12217 h 0.87299 l -0.17845,0.84405 q 0.48713,-0.54501 0.86816,-0.75241 0.38585,-0.20739 0.8344,-0.20739 0.47749,0 0.79582,0.25562 0.32315,0.25081 0.42444,0.70418 0.39067,-0.48231 0.81993,-0.71865 0.43408,-0.24115 0.91157,-0.24115 0.64148,0 0.9598,0.30385 0.32315,0.30386 0.32315,0.8537 0,0.23633 -0.11093,0.78135 l -0.68971,3.29902 h -0.87298 l 0.70417,-3.38584 q 0.0916,-0.41479 0.0916,-0.59324 0,-0.25081 -0.15916,-0.3955 -0.15916,-0.1447 -0.44855,-0.1447 -0.39067,0 -0.79582,0.23634 -0.40514,0.23633 -0.63183,0.62218 -0.22186,0.38103 -0.39067,1.17685 l -0.5209,2.48391 h -0.87299 l 0.72347,-3.45819 q 0.0772,-0.35208 0.0772,-0.5016 0,-0.25081 -0.15916,-0.40515 -0.15434,-0.15434 -0.40515,-0.15434 -0.37138,0 -0.78134,0.23634 -0.40515,0.23633 -0.66077,0.66077 -0.25563,0.41961 -0.41962,1.20096 l -0.50642,2.42121 z m 11.99512,-1.74115 0.84887,0.0868 q -0.18327,0.63183 -0.84404,1.20096 -0.65595,0.56913 -1.56752,0.56913 -0.56913,0 -1.04662,-0.26045 -0.47267,-0.26527 -0.72347,-0.76688 -0.24598,-0.50161 -0.24598,-1.14308 0,-0.83923 0.38585,-1.6254 0.39067,-0.79099 1.00803,-1.17202 0.61736,-0.38585 1.33601,-0.38585 0.9164,0 1.46141,0.56913 0.54984,0.56913 0.54984,1.55305 0,0.3762 -0.0675,0.7717 h -3.77169 q -0.0193,0.14952 -0.0193,0.27009 0,0.71865 0.32797,1.09968 0.3328,0.3762 0.81029,0.3762 0.44855,0 0.88263,-0.29421 0.43409,-0.29421 0.67524,-0.84887 z m -2.53697,-1.26848 h 2.87459 q 0.005,-0.13505 0.005,-0.19293 0,-0.65595 -0.32798,-1.00321 -0.32797,-0.35209 -0.84405,-0.35209 -0.55948,0 -1.0225,0.38585 -0.4582,0.38585 -0.68489,1.16238 z"
       id="text113-1"
       style="font-style:italic;font-size:9.87778px;line-height:6.1736px;font-family:Arial;-inkscape-font-specification:'Arial, Italic';text-align:center;letter-spacing:0px;word-spacing:0px;text-anchor:middle;stroke-width:0.264583"
       aria-label="The ultimate tower building puzzle game" />
    <g
       id="g2"
       transform="matrix(0.81321207,0,0,0.81321207,-15.493728,193.50208)">
      <path
         id="rect879"
         style="fill:#07881d;fill-opacity:1;stroke:none;stroke-width:7.57036;paint-order:markers stroke fill;filter:url(#filter3763)"
         d="m 54.59236,32.309893 v 18.281946 26.282978 a 4,4 135 0 1 -4,4 H 32.310416 a 4,4 135 0 0 -4,4 l 0,18.281953 a 4,4 45 0 0 4,4 H 50.59236 76.8743 a 4,4 135 0 0 4,-4 V 84.874817 58.591839 a 4,4 135 0 1 4,-4 l 18.28195,0 a 4,4 135 0 0 4,-4 V 32.309893 a 4,4 45 0 0 -4,-4 l -18.28195,0 -26.28194,0 a 4,4 135 0 0 -4,4 z"
         inkscape:path-effect="#path-effect1170"
         inkscape:original-d="M 54.59236,28.309893 V 54.591839 80.874817 H 28.310416 V 107.15677 H 54.59236 80.8743 V 80.874817 54.591839 h 26.28195 V 28.309893 H 80.8743 Z"
         transform="matrix(0.24191523,0,0,0.24191523,29.793495,51.187585)" />
      <path
         d="m 76.141888,65.104528 q -0.1905,0.6096 -0.5842,1.2827 -0.3937,0.6604 -1.0922,1.1176 -0.6985,0.4699 -1.8034,0.4699 -1.4224,0 -2.2606,-0.6223 -0.8255,-0.6223 -1.1811,-1.6383 -0.3556,-1.016 -0.3556,-2.2098 0,-0.6223 0.0127,-1.4732 0.0254,-0.8509 0.0508,-1.7653 0.0254,-0.9144 0.0508,-1.7653 0.0381,-0.8636 0.0635,-1.5113 0.0254,-0.6604 0.0381,-0.9779 -1.2446,0.127 -2.159,0.2794 -0.901699,0.1397 -1.155699,0.2159 -0.0762,-0.4064 -0.127,-0.8509 -0.0381,-0.4572 -0.0635,-0.8255 -0.0127,-0.3683 -0.0127,-0.4953 0.7112,-0.1016 1.650999,-0.2159 0.9525,-0.1143 1.8796,-0.1778 0.0127,-0.4953 0.0127,-1.2192 0,-0.7366 0,-1.3843 -0.0127,-0.5461 -0.0508,-1.0541 -0.0381,-0.5207 -0.0635,-0.8636 l 2.3876,-0.1397 q 0.0254,0.1905 0.0508,0.9144 0.0381,0.7112 0.0381,1.7272 0,0.381 0,0.9271 0,0.5334 0,0.9525 0.381,-0.0254 0.9398,-0.0508 0.5588,-0.0254 0.9017,-0.0254 0.5969,-0.0127 1.143,-0.0127 0.5461,0 0.9398,0.0127 0.3937,0.0127 0.4826,0.0254 0.0635,0.3429 0.0762,0.9525 0.0254,0.6096 0.0254,1.016 -0.127,-0.0127 -0.8763,-0.0127 -0.7366,-0.0127 -1.4605,0 -0.5207,0.0127 -1.143,0.0508 -0.6223,0.0254 -1.0668,0.0508 -0.0127,0.3302 -0.0508,0.9779 -0.0254,0.6477 -0.0508,1.4605 -0.0254,0.8001 -0.0508,1.6383 -0.0254,0.8255 -0.0381,1.5494 -0.0127,0.7112 -0.0127,1.1557 0,0.8001 0.0889,1.524 0.1016,0.7239 0.4572,1.1938 0.3683,0.4572 1.1557,0.4572 0.5334,0 0.8636,-0.381 0.3302,-0.381 0.508,-0.8763 0.1905,-0.4953 0.2794,-0.8255 0.1143,0.127 0.3302,0.3429 0.2286,0.2032 0.4826,0.4318 0.2667,0.2286 0.4699,0.4064 0.2159,0.1778 0.2794,0.2413 z"
         id="text1"
         style="font-size:25.4px;line-height:1.25;font-family:Grandstander;-inkscape-font-specification:'Grandstander, Normal';stroke-width:0.264583"
         transform="rotate(11.339701)"
         aria-label="t" />
      <path
         d="m 88.35979,65.177589 q -0.254,0.3556 -0.7493,0.8255 -0.4953,0.4572 -1.2319,0.889 -0.7366,0.4191 -1.7145,0.6985 -0.9779,0.2794 -2.2098,0.2794 -1.905,0 -3.3401,-0.7747 -1.4351,-0.7747 -2.2225,-2.2606 -0.7874,-1.4986 -0.7874,-3.6449 0,-2.0574 0.8509,-3.5687 0.8636,-1.511299 2.3622,-2.336799 1.4986,-0.8255 3.4417,-0.8255 2.4384,0 3.7973,1.4859 1.3716,1.485899 1.524,3.987799 0.0254,0.4064 0.0254,0.7874 0,0.3683 -0.0381,0.762 -0.1651,-0.0127 -0.6858,-0.0254 -0.508,-0.0254 -1.1938,-0.0381 -0.6858,-0.0254 -1.3843,-0.0381 -0.6858,-0.0254 -1.1811,-0.0254 -1.2827,0 -2.6289,0.127 -1.3462,0.127 -2.4003,0.2921 0.0127,0.3302 0.0635,0.6477 0.0508,0.3175 0.127,0.6096 0.2159,0.7747 0.7874,1.3462 0.5715,0.5588 1.3589,0.8636 0.8001,0.3048 1.6891,0.3048 0.9398,0 1.6383,-0.2794 0.6985,-0.2794 1.1938,-0.6858 0.508,-0.4064 0.8128,-0.7747 0.3175,-0.3683 0.4826,-0.5461 0.0762,0.0635 0.2921,0.2794 0.2286,0.2032 0.4826,0.4953 0.2667,0.2921 0.4953,0.5969 0.2413,0.2921 0.3429,0.5461 z m -9.7282,-5.1054 q 0.9144,-0.1524 2.1463,-0.2667 1.2446,-0.1143 2.8194,-0.1143 0.8255,0 1.397,0.0254 0.5842,0.0127 0.8128,0.0381 0,-0.4191 -0.1016,-0.889 -0.1397,-0.635 -0.508,-1.2319 -0.3683,-0.5969 -1.0033,-0.990599 -0.6223,-0.4064 -1.5748,-0.4064 -1.0922,0 -1.9939,0.4699 -0.889,0.457199 -1.4224,1.320799 -0.5334,0.8509 -0.5715,2.0447 z"
         id="text1-5"
         style="font-size:25.4px;line-height:1.25;font-family:Grandstander;-inkscape-font-specification:'Grandstander, Normal';stroke-width:0.264583"
         transform="rotate(11.339701)"
         aria-label="e&#10;" />
      <path
         d="m 99.087712,68.027461 q -0.2794,-0.4826 -0.7747,-1.2192 -0.4953,-0.7366 -1.1049,-1.5621 -0.6096,-0.8382 -1.2446,-1.6383 -0.635,-0.8001 -1.1938,-1.4224 -0.5461,-0.6223 -0.9144,-0.9144 -0.2286,0.1778 -0.635,0.4953 -0.3937,0.3175 -0.7366,0.6096 -0.3429,0.2794 -0.4445,0.3937 -0.0127,0.5461 -0.0508,1.3081 -0.0254,0.7493 -0.0635,1.5113 -0.0381,0.7493 -0.0762,1.3716 -0.0254,0.6096 -0.0508,0.8763 -0.2794,0.0254 -0.5842,0.0508 -0.3048,0.0254 -0.6096,0.0254 -0.3683,0 -0.7239,-0.0381 -0.3556,-0.0254 -0.635,-0.0635 0.0254,-0.3048 0.0635,-1.3335 0.0508,-1.0287 0.1143,-2.5273 0.0762,-1.5113 0.1524,-3.2766 0.0762,-1.777999 0.1397,-3.581399 0.0762,-1.8161 0.127,-3.429 0.0635,-1.6256 0.1016,-2.8194 0.0381,-1.2065 0.0381,-1.7526 0.2413,-0.0127 0.5207,-0.0254 0.2921,-0.0127 0.5842,-0.0127 0.381,0 0.7239,0.0381 0.3556,0.0254 0.635,0.1143 0,0.9525 -0.0254,2.1844 -0.0254,1.2192 -0.0635,2.54 -0.0254,1.3081 -0.0762,2.5273 -0.0381,1.2065 -0.0762,2.1336 -0.0254,0.9144 -0.0635,1.3589 0.7366,-0.7493 1.778,-1.524 1.0414,-0.7874 2.1463,-1.5113 1.1176,-0.7239 2.0955,-1.3081 0.9779,-0.5969 1.5875,-0.9525 0.1524,0.1651 0.342898,0.4191 0.2032,0.2413 0.3937,0.5207 0.2032,0.2794 0.3683,0.5334 0.1778,0.2413 0.2667,0.4064 -0.4318,0.2413 -1.181098,0.6858 -0.7493,0.4318 -1.5748,0.9398 -0.8255,0.508 -1.5621,0.9906 -0.7366,0.4699 -1.1557,0.7874 0.2794,0.215899 0.7874,0.749299 0.508,0.5334 1.143,1.2954 0.6477,0.7493 1.3335,1.6256 0.6858,0.8763 1.333498,1.7653 0.6477,0.889 1.143,1.7018 -0.1143,0.0762 -0.4191,0.2159 -0.3048,0.127 -0.6731,0.2794 -0.368298,0.1524 -0.711198,0.2794 -0.3302,0.127 -0.4953,0.1778 z"
         id="text1-0"
         style="font-size:25.4px;line-height:1.25;font-family:Grandstander;-inkscape-font-specification:'Grandstander, Normal';stroke-width:0.264583"
         transform="rotate(11.339701)"
         aria-label="k" />
      <path
         d="m 124.76606,28.845078 q -1.1811,0 -2.3495,-0.3302 -1.1684,-0.3302 -2.1336,-0.8763 -0.9525,-0.5588 -1.524,-1.2319 0.0889,-0.1778 0.254,-0.4826 0.1651,-0.3048 0.381,-0.635 0.2159,-0.3429 0.4318,-0.6223 0.2159,-0.2921 0.381,-0.4445 0.5461,0.6096 1.3081,1.1811 0.762,0.5588 1.6383,0.9144 0.8763,0.3429 1.7526,0.3429 0.8382,0 1.5113,-0.2413 0.6858,-0.254 1.0795,-0.7239 0.4064,-0.4699 0.4064,-1.1303 0,-0.762 -0.4826,-1.3081 -0.4826,-0.5588 -1.2954,-0.9779 -0.8128,-0.4318 -1.7907,-0.7874 -1.1811,-0.4318 -2.159,-0.9398 -0.9652,-0.5207 -1.5494,-1.2954 -0.5715,-0.7747 -0.5715,-1.9685 0,-1.2192 0.6858,-2.032 0.6985,-0.8128 1.8288,-1.2319 1.143,-0.4191 2.4638,-0.4191 1.4732,0 2.7051,0.381 1.2446,0.3683 1.905,0.8636 -0.0508,0.2159 -0.2159,0.5715 -0.1651,0.3429 -0.381,0.6985 -0.2159,0.3556 -0.4445,0.6477 -0.6096,-0.4064 -1.4859,-0.7747 -0.8763,-0.3683 -1.905,-0.3683 -0.6858,0 -1.3208,0.1651 -0.635,0.1524 -1.0414,0.5207 -0.4064,0.3683 -0.4064,1.0033 0,0.5461 0.3937,0.9779 0.4064,0.4318 1.0922,0.7747 0.6858,0.3302 1.5494,0.635 1.0414,0.3556 1.9304,0.8001 0.889,0.4318 1.5367,1.0033 0.6604,0.5588 1.0287,1.2954 0.3683,0.7239 0.3683,1.6383 0,1.4605 -0.7493,2.4384 -0.7493,0.9779 -2.0066,1.4732 -1.2573,0.4953 -2.8194,0.4953 z"
         id="text1-8"
         style="font-size:25.4px;line-height:1.25;font-family:Grandstander;-inkscape-font-specification:'Grandstander, Normal';stroke-width:0.264583"
         transform="rotate(31.812474)"
         aria-label="s" />
    </g>
  </g>
</svg>
