<?xml version="1.0" encoding="UTF-8" standalone="no"?>
<!-- Created with Inkscape (http://www.inkscape.org/) -->

<svg
   width="1024"
   height="1024"
   viewBox="0 0 270.93333 270.93333"
   version="1.1"
   id="svg5"
   inkscape:version="1.3 (0e150ed6c4, 2023-07-21)"
   sodipodi:docname="text_right.svg"
   xmlns:inkscape="http://www.inkscape.org/namespaces/inkscape"
   xmlns:sodipodi="http://sodipodi.sourceforge.net/DTD/sodipodi-0.dtd"
   xmlns="http://www.w3.org/2000/svg"
   xmlns:svg="http://www.w3.org/2000/svg">
  <sodipodi:namedview
     id="namedview7"
     pagecolor="#ffffff"
     bordercolor="#666666"
     borderopacity="1.0"
     inkscape:showpageshadow="2"
     inkscape:pageopacity="0.0"
     inkscape:pagecheckerboard="true"
     inkscape:deskcolor="#d1d1d1"
     inkscape:document-units="px"
     showgrid="false"
     inkscape:zoom="0.5946522"
     inkscape:cx="926.59205"
     inkscape:cy="1033.3772"
     inkscape:window-width="3200"
     inkscape:window-height="1711"
     inkscape:window-x="-9"
     inkscape:window-y="-9"
     inkscape:window-maximized="1"
     inkscape:current-layer="layer1" />
  <defs
     id="defs2">
    <rect
       x="732.53446"
       y="552.62229"
       width="121.74641"
       height="299.97693"
       id="rect410" />
    <filter
       inkscape:menu="Shadows and Glows"
       inkscape:menu-tooltip="Cut out, add inner shadow and colorize some parts of an image"
       style="color-interpolation-filters:sRGB"
       inkscape:label="Emergence"
       id="filter3763"
       x="-0.091317444"
       y="-0.091316236"
       width="1.2206838"
       height="1.2206809">
      <feColorMatrix
         values="0 0 0 0 0 0 0 0 0 0 0 0 0 0 0 0.21 0.72 0.07 0 0 "
         result="result1"
         id="feColorMatrix3735" />
      <feColorMatrix
         values="1 0 0 0 0 0 1 0 0 0 0 0 1 0 0 0 0 0 2 0 "
         result="result9"
         id="feColorMatrix3737" />
      <feComposite
         in2="result9"
         in="SourceGraphic"
         operator="in"
         result="result4"
         id="feComposite3739" />
      <feFlood
         result="result2"
         flood-color="rgb(0,0,0)"
         id="feFlood3741" />
      <feComposite
         in2="result9"
         operator="in"
         result="result10"
         id="feComposite3743" />
      <feComposite
         in2="result4"
         operator="atop"
         id="feComposite3745" />
      <feGaussianBlur
         stdDeviation="3"
         result="result8"
         id="feGaussianBlur3747" />
      <feOffset
         dx="3"
         dy="3"
         result="result3"
         in="result8"
         id="feOffset3749" />
      <feFlood
         flood-opacity="1"
         flood-color="rgb(219,173,62)"
         result="result5"
         id="feFlood3751" />
      <feMerge
         result="result6"
         id="feMerge3759">
        <feMergeNode
           in="result5"
           id="feMergeNode3753" />
        <feMergeNode
           in="result3"
           id="feMergeNode3755" />
        <feMergeNode
           in="result4"
           id="feMergeNode3757" />
      </feMerge>
      <feComposite
         in2="SourceGraphic"
         operator="in"
         result="result7"
         id="feComposite3761" />
    </filter>
    <inkscape:path-effect
       effect="fillet_chamfer"
       id="path-effect1170"
       is_visible="true"
       lpeversion="1"
       satellites_param="F,0,0,1,0,4,0,1 @ F,0,0,1,0,4,0,1 @ F,0,0,1,0,4,0,1 @ F,0,0,1,0,4,0,1 @ F,0,0,1,0,4,0,1 @ F,0,0,1,0,4,0,1 @ F,0,0,1,0,4,0,1 @ F,0,0,1,0,4,0,1 @ F,0,0,1,0,4,0,1 @ F,0,0,1,0,4,0,1 @ F,0,0,1,0,4,0,1 @ F,0,0,1,0,4,0,1"
       unit="px"
       method="auto"
       mode="F"
       radius="4"
       chamfer_steps="1"
       flexible="false"
       use_knot_distance="true"
       apply_no_radius="true"
       apply_with_radius="true"
       only_selected="false"
       hide_knots="false"
       nodesatellites_param="F,0,0,1,0,4,0,1 @ F,0,0,1,0,4,0,1 @ F,0,0,1,0,4,0,1 @ F,0,0,1,0,4,0,1 @ F,0,0,1,0,4,0,1 @ F,0,0,1,0,4,0,1 @ F,0,0,1,0,4,0,1 @ F,0,0,1,0,4,0,1 @ F,0,0,1,0,4,0,1 @ F,0,0,1,0,4,0,1 @ F,0,0,1,0,4,0,1 @ F,0,0,1,0,4,0,1" />
  </defs>
  <g
     inkscape:label="Layer 1"
     inkscape:groupmode="layer"
     id="layer1">
    <text
       xml:space="preserve"
       transform="scale(0.26458333)"
       id="text408"
       style="font-size:40px;line-height:25px;font-family:'Eras Bold ITC';-inkscape-font-specification:'Eras Bold ITC, Normal';text-align:center;letter-spacing:0px;word-spacing:0px;writing-mode:lr-tb;white-space:pre;shape-inside:url(#rect410);display:inline" />
    <g
       id="text416"
       style="font-style:italic;font-size:10.5833px;line-height:13.2292px;font-family:Arial;-inkscape-font-specification:'Arial, Italic';text-align:center;letter-spacing:0px;word-spacing:0px;text-anchor:middle;stroke-width:0.264583"
       aria-label="The&#10;Ultimate&#10;Tower&#10;Building&#10;Puzzle&#10;Game">
      <path
         d="m 229.78063,95.216721 1.40042,-6.712748 h -2.48563 l 0.18087,-0.862993 h 5.96344 l -0.18086,0.862993 h -2.46496 l -1.40043,6.712748 z m 4.41315,0 1.58129,-7.575741 h 0.93534 l -0.60461,2.909374 q 0.52193,-0.506428 0.97151,-0.723468 0.44959,-0.222208 0.92501,-0.222208 0.68213,0 1.05936,0.361734 0.37724,0.356566 0.37724,0.945675 0,0.289388 -0.16536,1.064532 l -0.67696,3.240102 h -0.93534 l 0.69763,-3.322784 q 0.14986,-0.723468 0.14986,-0.909503 0,-0.268716 -0.18604,-0.439248 -0.18603,-0.170532 -0.53743,-0.170532 -0.50643,0 -0.96635,0.268717 -0.45992,0.263549 -0.72346,0.728635 -0.25839,0.459919 -0.47543,1.488277 l -0.49092,2.356438 z m 9.91667,-1.865514 0.90951,0.09302 q -0.19637,0.676959 -0.90434,1.286739 -0.7028,0.60978 -1.67948,0.60978 -0.60978,0 -1.12137,-0.279052 -0.50643,-0.28422 -0.77515,-0.821653 -0.26354,-0.537433 -0.26354,-1.224727 0,-0.899167 0.41341,-1.741491 0.41857,-0.84749 1.08003,-1.255733 0.66146,-0.41341 1.43143,-0.41341 0.98185,0 1.56579,0.60978 0.58911,0.60978 0.58911,1.663976 0,0.403075 -0.0723,0.82682 h -4.04109 q -0.0207,0.160196 -0.0207,0.289387 0,0.769976 0.3514,1.178219 0.35657,0.403075 0.86816,0.403075 0.48059,0 0.94568,-0.315225 0.46508,-0.315226 0.72346,-0.909503 z m -2.71817,-1.359086 h 3.07991 q 0.005,-0.144693 0.005,-0.206705 0,-0.702797 -0.3514,-1.074866 -0.3514,-0.377237 -0.90434,-0.377237 -0.59944,0 -1.09553,0.41341 -0.49093,0.413411 -0.73381,1.245398 z"
         id="path1" />
      <path
         d="m 219.18699,100.87018 h 1.01286 l -0.97152,4.65603 q -0.11885,0.57878 -0.11885,0.85783 0,0.60978 0.48059,0.98185 0.48058,0.37207 1.20922,0.37207 0.57877,0 1.07487,-0.26355 0.50126,-0.26872 0.79064,-0.78548 0.28939,-0.51676 0.52193,-1.64848 l 0.87333,-4.17027 h 1.01286 l -0.92501,4.44416 q -0.23771,1.13688 -0.62528,1.8035 -0.38757,0.66146 -1.07487,1.06453 -0.68729,0.39791 -1.59679,0.39791 -0.85783,0 -1.48828,-0.28422 -0.62528,-0.28422 -0.94051,-0.78548 -0.31006,-0.50126 -0.31006,-1.13688 0,-0.3979 0.21188,-1.36942 z m 5.82392,7.57574 1.58129,-7.57574 h 0.93534 l -1.58129,7.57574 z m 4.60952,-0.75964 -0.15503,0.76481 q -0.3359,0.0879 -0.65112,0.0879 -0.5581,0 -0.88883,-0.27389 -0.24805,-0.2067 -0.24805,-0.56327 0,-0.18086 0.13436,-0.83199 l 0.66662,-3.18842 h -0.73897 l 0.14986,-0.72347 h 0.73897 l 0.28422,-1.34875 1.0697,-0.64595 -0.41857,1.9947 h 0.91983 l -0.15503,0.72347 h -0.91467 l -0.63561,3.0334 q -0.11886,0.57877 -0.11886,0.69246 0,0.16536 0.093,0.25321 0.0982,0.0879 0.31522,0.0879 0.31006,0 0.55294,-0.062 z m 2.08255,-5.75674 0.22221,-1.05936 h 0.93017 l -0.2222,1.05936 z m -1.36425,6.51638 1.14721,-5.48802 h 0.93534 l -1.14721,5.48802 z m 2.38228,0 1.14721,-5.48802 h 0.93534 l -0.1912,0.90434 q 0.52193,-0.58395 0.93017,-0.80615 0.41341,-0.22221 0.894,-0.22221 0.51159,0 0.85266,0.27388 0.34623,0.26872 0.45475,0.75448 0.41858,-0.51677 0.87849,-0.76998 0.46509,-0.25838 0.97669,-0.25838 0.68729,0 1.02835,0.32556 0.34624,0.32556 0.34624,0.91467 0,0.25321 -0.11886,0.83715 l -0.73897,3.53466 h -0.93534 l 0.75447,-3.62767 q 0.0982,-0.44442 0.0982,-0.63562 0,-0.26872 -0.17053,-0.42375 -0.17054,-0.15503 -0.48059,-0.15503 -0.41858,0 -0.85266,0.25322 -0.43408,0.25321 -0.67696,0.66662 -0.23771,0.40824 -0.41858,1.2609 l -0.5581,2.66133 h -0.93534 l 0.77514,-3.70519 q 0.0827,-0.37723 0.0827,-0.53743 0,-0.26872 -0.17053,-0.43408 -0.16536,-0.16537 -0.43408,-0.16537 -0.39791,0 -0.83716,0.25322 -0.43408,0.25321 -0.70796,0.70796 -0.27388,0.44959 -0.44958,1.28674 l -0.5426,2.59415 z m 12.52115,-0.68213 q -0.48575,0.41858 -0.93534,0.61495 -0.44958,0.1912 -0.96118,0.1912 -0.75964,0 -1.22472,-0.44441 -0.46509,-0.44959 -0.46509,-1.14722 0,-0.45991 0.20671,-0.81131 0.21187,-0.35657 0.5581,-0.56844 0.34623,-0.21704 0.84749,-0.31006 0.31523,-0.062 1.19372,-0.0982 0.88367,-0.0362 1.26607,-0.18604 0.10852,-0.3824 0.10852,-0.63562 0,-0.32556 -0.23771,-0.51159 -0.32556,-0.25838 -0.95084,-0.25838 -0.58911,0 -0.96635,0.26355 -0.37207,0.25838 -0.5426,0.73897 l -0.94568,-0.0827 q 0.28939,-0.81648 0.91467,-1.25056 0.63045,-0.43408 1.58647,-0.43408 1.01802,0 1.6123,0.48576 0.45475,0.36173 0.45475,0.9405 0,0.43925 -0.12919,1.01803 l -0.30489,1.36425 q -0.1447,0.65112 -0.1447,1.05936 0,0.25838 0.11369,0.74414 h -0.94568 q -0.0775,-0.26872 -0.10852,-0.68213 z m 0.34623,-2.09805 q -0.19636,0.0775 -0.42374,0.11885 -0.22221,0.0413 -0.74931,0.0879 -0.81648,0.0724 -1.15238,0.18604 -0.33589,0.10852 -0.50642,0.3514 -0.17054,0.24287 -0.17054,0.53743 0,0.39274 0.26872,0.64595 0.27388,0.25322 0.77514,0.25322 0.46509,0 0.894,-0.24288 0.42892,-0.24805 0.67696,-0.6873 0.24805,-0.43924 0.38757,-1.25056 z m 4.02559,2.02054 -0.15503,0.76481 q -0.3359,0.0879 -0.65112,0.0879 -0.55811,0 -0.88884,-0.27389 -0.24804,-0.2067 -0.24804,-0.56327 0,-0.18086 0.13436,-0.83199 l 0.66662,-3.18842 h -0.73897 l 0.14986,-0.72347 h 0.73897 l 0.28422,-1.34875 1.0697,-0.64595 -0.41858,1.9947 h 0.91984 l -0.15503,0.72347 h -0.91467 l -0.63562,3.0334 q -0.11885,0.57877 -0.11885,0.69246 0,0.16536 0.093,0.25321 0.0982,0.0879 0.31522,0.0879 0.31006,0 0.55294,-0.062 z m 4.78522,-1.10587 0.9095,0.093 q -0.19637,0.67696 -0.90433,1.28674 -0.7028,0.60978 -1.67948,0.60978 -0.60978,0 -1.12138,-0.27905 -0.50643,-0.28422 -0.77514,-0.82165 -0.26355,-0.53743 -0.26355,-1.22473 0,-0.89917 0.41341,-1.74149 0.41858,-0.84749 1.08003,-1.25573 0.66146,-0.41341 1.43144,-0.41341 0.98184,0 1.56579,0.60978 0.58911,0.60978 0.58911,1.66397 0,0.40308 -0.0724,0.82682 h -4.04109 q -0.0207,0.1602 -0.0207,0.28939 0,0.76998 0.3514,1.17822 0.35657,0.40308 0.86816,0.40308 0.48059,0 0.94568,-0.31523 0.46509,-0.31523 0.72347,-0.9095 z m -2.71817,-1.35909 h 3.0799 q 0.005,-0.14469 0.005,-0.2067 0,-0.7028 -0.3514,-1.07487 -0.3514,-0.37724 -0.90433,-0.37724 -0.59945,0 -1.09554,0.41341 -0.49093,0.41341 -0.7338,1.2454 z"
         id="path2" />
      <path
         d="m 224.68276,121.67512 1.40043,-6.71275 h -2.48563 l 0.18087,-0.86299 h 5.96344 l -0.18087,0.86299 h -2.46496 l -1.40042,6.71275 z m 3.60701,-2.08255 q 0,-1.60713 0.94567,-2.66133 0.78031,-0.86816 2.04638,-0.86816 0.99219,0 1.5968,0.62011 0.60978,0.62012 0.60978,1.67431 0,0.94568 -0.38241,1.76217 -0.3824,0.81131 -1.09037,1.24539 -0.70279,0.43408 -1.4831,0.43408 -0.64079,0 -1.16789,-0.27388 -0.52193,-0.27388 -0.80098,-0.77514 -0.27388,-0.50126 -0.27388,-1.15755 z m 0.93534,-0.093 q 0,0.77514 0.37206,1.17822 0.37207,0.39791 0.94568,0.39791 0.29972,0 0.59428,-0.11886 0.29455,-0.12402 0.54777,-0.37207 0.25321,-0.24804 0.42891,-0.56327 0.18087,-0.32039 0.28939,-0.68729 0.16019,-0.5116 0.16019,-0.98185 0,-0.74414 -0.37723,-1.15238 -0.37207,-0.41341 -0.94051,-0.41341 -0.43925,0 -0.80098,0.21187 -0.36174,0.2067 -0.65629,0.60978 -0.28939,0.40307 -0.42892,0.94051 -0.13435,0.53226 -0.13435,0.95084 z m 5.82908,2.17557 -0.57361,-5.48802 h 0.89917 l 0.24805,2.46496 0.0982,1.38492 q 0.0103,0.15503 0.031,0.62529 0.15502,-0.5271 0.26354,-0.80615 0.10852,-0.28422 0.34624,-0.80615 l 1.30741,-2.86287 h 1.01802 l 0.18086,2.74401 q 0.0413,0.62528 0.0517,1.66914 0.25838,-0.69246 0.84232,-1.92235 l 1.17822,-2.4908 h 0.93534 l -2.68199,5.48802 h -0.97152 l -0.2067,-3.21943 q -0.0207,-0.29972 -0.031,-1.16788 -0.21187,0.55293 -0.50126,1.19372 l -1.4521,3.19359 z m 10.62981,-1.86551 0.9095,0.093 q -0.19637,0.67695 -0.90434,1.28673 -0.70279,0.60978 -1.67947,0.60978 -0.60978,0 -1.12138,-0.27905 -0.50643,-0.28422 -0.77514,-0.82165 -0.26355,-0.53743 -0.26355,-1.22473 0,-0.89916 0.41341,-1.74149 0.41858,-0.84749 1.08003,-1.25573 0.66146,-0.41341 1.43143,-0.41341 0.98185,0 1.56579,0.60978 0.58911,0.60978 0.58911,1.66397 0,0.40308 -0.0723,0.82682 h -4.04109 q -0.0207,0.1602 -0.0207,0.28939 0,0.76998 0.3514,1.17822 0.35657,0.40308 0.86816,0.40308 0.48059,0 0.94568,-0.31523 0.46509,-0.31523 0.72347,-0.9095 z m -2.71818,-1.35909 h 3.07991 q 0.005,-0.14469 0.005,-0.2067 0,-0.7028 -0.3514,-1.07487 -0.3514,-0.37724 -0.90434,-0.37724 -0.59944,0 -1.09553,0.41341 -0.49093,0.41341 -0.73381,1.2454 z m 4.57335,3.2246 1.14722,-5.48802 h 0.82682 l -0.23255,1.12138 q 0.42375,-0.63562 0.82683,-0.94051 0.40824,-0.30489 0.83198,-0.30489 0.27905,0 0.6873,0.20154 l -0.38241,0.86816 q -0.24288,-0.1757 -0.53226,-0.1757 -0.49093,0 -1.00769,0.54777 -0.51676,0.54776 -0.81132,1.96886 l -0.46508,2.20141 z"
         id="path3" />
      <path
         d="m 218.12763,134.90432 1.58646,-7.57574 h 2.3461 q 0.64079,0 0.95084,0.0517 0.50643,0.0878 0.85266,0.31005 0.3514,0.21704 0.5426,0.59945 0.19121,0.37724 0.19121,0.83715 0,0.62529 -0.34624,1.10071 -0.34106,0.47542 -1.04902,0.72347 0.61494,0.20153 0.91983,0.60978 0.30489,0.40307 0.30489,0.94567 0,0.62529 -0.36173,1.19889 -0.35657,0.57361 -0.95084,0.88883 -0.58911,0.31006 -1.31775,0.31006 z m 1.92235,-4.34081 h 1.53479 q 1.1007,0 1.58129,-0.35139 0.48576,-0.3514 0.48576,-1.02319 0,-0.3204 -0.14986,-0.55294 -0.14986,-0.23254 -0.40308,-0.3359 -0.24804,-0.10852 -0.9405,-0.10852 h -1.6123 z m -0.72863,3.48299 h 1.72599 q 0.68729,0 0.925,-0.0465 0.48059,-0.0827 0.78031,-0.27906 0.29973,-0.20153 0.47026,-0.52709 0.17053,-0.32556 0.17053,-0.68213 0,-0.53227 -0.3359,-0.80615 -0.33073,-0.27905 -1.26607,-0.27905 h -1.92235 z m 9.50326,-0.13436 q -0.98701,1.1162 -2.02054,1.1162 -0.63562,0 -1.02836,-0.36173 -0.38757,-0.3669 -0.38757,-0.894 0,-0.34623 0.1757,-1.18855 l 0.66146,-3.16776 h 0.93534 l -0.7338,3.50882 q -0.093,0.43925 -0.093,0.68213 0,0.31005 0.18603,0.48575 0.19121,0.17054 0.55811,0.17054 0.39274,0 0.76481,-0.19121 0.37723,-0.1912 0.64595,-0.51676 0.27388,-0.32556 0.44441,-0.76998 0.11369,-0.28422 0.26355,-0.99735 l 0.4961,-2.37194 h 0.93534 l -1.14722,5.48802 h -0.86299 z m 3.46748,-5.5242 0.22221,-1.05936 h 0.93017 l -0.22221,1.05936 z m -1.36425,6.51638 1.14721,-5.48802 h 0.93534 l -1.14721,5.48802 z m 2.3151,0 1.58129,-7.57574 h 0.93534 l -1.58129,7.57574 z m 6.12363,-0.79581 q -0.80098,0.91983 -1.67431,0.91983 -0.78031,0 -1.30224,-0.5736 -0.51676,-0.57878 -0.51676,-1.67431 0,-1.00252 0.40824,-1.82934 0.41341,-0.83199 1.02836,-1.2454 0.62011,-0.41341 1.24023,-0.41341 1.02319,0 1.54512,0.98702 l 0.62011,-2.95072 h 0.93018 l -1.5813,7.57574 h -0.86299 z m -2.56314,-1.50378 q 0,0.5736 0.11369,0.90433 0.11369,0.33073 0.38757,0.55294 0.27388,0.21704 0.65629,0.21704 0.63562,0 1.15238,-0.66146 0.69246,-0.87849 0.69246,-2.1704 0,-0.65112 -0.34106,-1.01802 -0.34107,-0.3669 -0.85783,-0.3669 -0.33589,0 -0.61495,0.14986 -0.27388,0.14986 -0.54776,0.51159 -0.26872,0.35657 -0.45475,0.9095 -0.18604,0.55294 -0.18604,0.97152 z m 6.07713,-4.21679 0.22221,-1.05936 h 0.93017 l -0.22221,1.05936 z m -1.36426,6.51638 1.14722,-5.48802 h 0.93534 l -1.14722,5.48802 z m 2.38745,0 1.14721,-5.48802 h 0.84749 l -0.20153,0.95601 q 0.55293,-0.56327 1.03352,-0.82165 0.48059,-0.25838 0.98185,-0.25838 0.66662,0 1.04386,0.36173 0.3824,0.36174 0.3824,0.96635 0,0.30489 -0.13435,0.96118 l -0.69763,3.32278 h -0.93534 l 0.72863,-3.47781 q 0.10852,-0.50643 0.10852,-0.74931 0,-0.27388 -0.1912,-0.44441 -0.18604,-0.17053 -0.5426,-0.17053 -0.7183,0 -1.28157,0.51676 -0.55811,0.51676 -0.82166,1.77249 l -0.53226,2.55281 z m 5.83425,0.49609 0.94568,0.0879 q -0.0103,0.3204 0.0775,0.48059 0.0879,0.1602 0.27905,0.24805 0.25322,0.11369 0.65629,0.11369 0.84749,0 1.21956,-0.43925 0.24288,-0.29456 0.44958,-1.28157 l 0.093,-0.44442 q -0.72863,0.73897 -1.55029,0.73897 -0.83199,0 -1.39526,-0.60978 -0.5581,-0.61495 -0.5581,-1.73632 0,-0.92501 0.43925,-1.70015 0.44441,-0.77514 1.05419,-1.16788 0.60978,-0.39791 1.25574,-0.39791 1.08003,0 1.66397,1.02319 l 0.18604,-0.89917 h 0.85782 l -1.10587,5.29682 q -0.18087,0.87333 -0.47542,1.35908 -0.29455,0.49093 -0.82165,0.75965 -0.52193,0.26871 -1.20923,0.26871 -0.66145,0 -1.14204,-0.17053 -0.47542,-0.17053 -0.71314,-0.50126 -0.23254,-0.32556 -0.23254,-0.7493 0,-0.1292 0.0258,-0.27906 z m 1.16788,-2.92487 q 0,0.56327 0.10852,0.84749 0.15503,0.3979 0.43925,0.60978 0.28939,0.2067 0.64079,0.2067 0.45992,0 0.91467,-0.32039 0.45475,-0.32556 0.7338,-1.00252 0.28422,-0.67696 0.28422,-1.29191 0,-0.67696 -0.37724,-1.07486 -0.37207,-0.40308 -0.925,-0.40308 -0.34107,0 -0.66146,0.18604 -0.32039,0.18086 -0.59944,0.5581 -0.27389,0.37207 -0.41858,0.894 -0.13953,0.52193 -0.13953,0.79065 z"
         id="path4" />
      <path
         d="m 221.06801,148.13352 1.58646,-7.57574 h 3.16259 q 0.82165,0 1.22989,0.1912 0.41341,0.18604 0.68213,0.64596 0.26871,0.45475 0.26871,1.02319 0,0.47025 -0.1912,0.95601 -0.1912,0.48575 -0.48575,0.80098 -0.28939,0.31522 -0.58911,0.47542 -0.29973,0.1602 -0.64079,0.23771 -0.72864,0.17053 -1.47277,0.17053 h -1.89652 l -0.64079,3.07474 z m 1.8345,-3.93256 h 1.66915 q 0.97151,0 1.42626,-0.20671 0.45475,-0.21187 0.72864,-0.64078 0.27388,-0.42892 0.27388,-0.90951 0,-0.37206 -0.14469,-0.60461 -0.14469,-0.23771 -0.40824,-0.34623 -0.26355,-0.11369 -1.01286,-0.11369 h -1.94303 z m 8.86765,2.94038 q -0.98702,1.1162 -2.02054,1.1162 -0.63562,0 -1.02836,-0.36173 -0.38757,-0.3669 -0.38757,-0.894 0,-0.34623 0.1757,-1.18855 l 0.66146,-3.16776 h 0.93534 l -0.73381,3.50882 q -0.093,0.43925 -0.093,0.68213 0,0.31005 0.18603,0.48575 0.1912,0.17054 0.5581,0.17054 0.39274,0 0.76481,-0.19121 0.37724,-0.1912 0.64596,-0.51676 0.27388,-0.32556 0.44441,-0.76998 0.11369,-0.28421 0.26355,-0.99735 l 0.49609,-2.37194 h 0.93534 l -1.14721,5.48802 h -0.86299 z m 1.9947,0.99218 0.14987,-0.72347 2.95071,-3.32278 q 0.31523,-0.3514 0.7028,-0.72864 -0.66663,0.0672 -0.95601,0.0672 h -2.04122 l 0.16537,-0.78031 h 4.24262 l -0.12402,0.58911 -2.97656,3.34346 q -0.25321,0.28422 -0.75447,0.78031 0.78031,-0.0465 1.0697,-0.0465 h 2.16007 l -0.17053,0.82165 z m 5.29166,0 0.14986,-0.72347 2.95071,-3.32278 q 0.31523,-0.3514 0.7028,-0.72864 -0.66662,0.0672 -0.95601,0.0672 h -2.04121 l 0.16536,-0.78031 h 4.24262 l -0.12402,0.58911 -2.97655,3.34346 q -0.25322,0.28422 -0.75448,0.78031 0.78031,-0.0465 1.0697,-0.0465 h 2.16007 l -0.17053,0.82165 z m 5.36399,0 1.5813,-7.57574 h 0.93534 l -1.5813,7.57574 z m 6.45437,-1.86551 0.9095,0.093 q -0.19637,0.67695 -0.90433,1.28673 -0.7028,0.60978 -1.67948,0.60978 -0.60978,0 -1.12138,-0.27905 -0.50643,-0.28422 -0.77514,-0.82165 -0.26355,-0.53743 -0.26355,-1.22473 0,-0.89916 0.41341,-1.74149 0.41858,-0.84749 1.08003,-1.25573 0.66146,-0.41341 1.43144,-0.41341 0.98184,0 1.56579,0.60978 0.58911,0.60978 0.58911,1.66397 0,0.40308 -0.0724,0.82682 h -4.04109 q -0.0207,0.1602 -0.0207,0.28939 0,0.76998 0.3514,1.17822 0.35657,0.40308 0.86816,0.40308 0.48059,0 0.94568,-0.31523 0.46509,-0.31522 0.72347,-0.9095 z m -2.71817,-1.35909 h 3.0799 q 0.005,-0.14469 0.005,-0.2067 0,-0.7028 -0.3514,-1.07487 -0.3514,-0.37724 -0.90433,-0.37724 -0.59945,0 -1.09554,0.41341 -0.49093,0.41341 -0.7338,1.2454 z"
         id="path5" />
      <path
         d="m 226.42167,158.37583 0.18086,-0.85782 h 3.31762 l -0.64595,3.08507 q -0.62528,0.39274 -1.42627,0.64079 -0.80098,0.24804 -1.57612,0.24804 -1.65364,0 -2.47013,-0.99735 -0.68729,-0.84232 -0.68729,-2.16524 0,-1.36425 0.59944,-2.48046 0.60461,-1.12137 1.51928,-1.65364 0.91984,-0.53743 2.04122,-0.53743 0.80615,0 1.44693,0.29456 0.64079,0.28938 0.98185,0.78031 0.34106,0.48575 0.49093,1.27123 l -0.99219,0.10852 q -0.1602,-0.78031 -0.66662,-1.19372 -0.50126,-0.41858 -1.29191,-0.41858 -0.82165,0 -1.53478,0.44959 -0.71314,0.44441 -1.14205,1.34875 -0.42375,0.89916 -0.42375,2.04638 0,1.14204 0.56328,1.72599 0.56327,0.58394 1.55545,0.58394 0.98702,0 2.1239,-0.65112 l 0.34106,-1.62781 z m 7.94781,2.30477 q -0.48576,0.41857 -0.93534,0.61494 -0.44959,0.1912 -0.96118,0.1912 -0.75964,0 -1.22473,-0.44441 -0.46508,-0.44958 -0.46508,-1.14721 0,-0.45992 0.2067,-0.81132 0.21187,-0.35657 0.5581,-0.56844 0.34624,-0.21704 0.8475,-0.31006 0.31522,-0.062 1.19372,-0.0982 0.88366,-0.0362 1.26607,-0.18604 0.10852,-0.3824 0.10852,-0.63562 0,-0.32556 -0.23772,-0.51159 -0.32556,-0.25838 -0.95084,-0.25838 -0.58911,0 -0.96634,0.26355 -0.37207,0.25838 -0.54261,0.73897 l -0.94567,-0.0827 q 0.28939,-0.81649 0.91467,-1.25057 0.63045,-0.43408 1.58646,-0.43408 1.01802,0 1.6123,0.48576 0.45475,0.36173 0.45475,0.9405 0,0.43925 -0.12919,1.01803 l -0.30489,1.36425 q -0.14469,0.65112 -0.14469,1.05936 0,0.25838 0.11368,0.74414 H 234.478 q -0.0775,-0.26871 -0.10852,-0.68212 z m 0.34623,-2.09806 q -0.19637,0.0775 -0.42375,0.11885 -0.2222,0.0413 -0.7493,0.0879 -0.81649,0.0724 -1.15238,0.18604 -0.3359,0.10852 -0.50643,0.3514 -0.17053,0.24288 -0.17053,0.53743 0,0.39274 0.26871,0.64595 0.27389,0.25322 0.77515,0.25322 0.46509,0 0.894,-0.24288 0.42891,-0.24805 0.67696,-0.6873 0.24804,-0.43924 0.38757,-1.25056 z m 1.83451,2.78018 1.14721,-5.48802 h 0.93534 l -0.1912,0.90434 q 0.52193,-0.58394 0.93017,-0.80615 0.41341,-0.22221 0.894,-0.22221 0.5116,0 0.85266,0.27388 0.34623,0.26872 0.45475,0.75448 0.41858,-0.51677 0.8785,-0.76998 0.46508,-0.25838 0.97668,-0.25838 0.68729,0 1.02836,0.32556 0.34623,0.32556 0.34623,0.91467 0,0.25321 -0.11886,0.83716 l -0.73897,3.53465 h -0.93534 l 0.75447,-3.62767 q 0.0982,-0.44442 0.0982,-0.63562 0,-0.26872 -0.17053,-0.42375 -0.17054,-0.15502 -0.48059,-0.15502 -0.41858,0 -0.85266,0.25321 -0.43408,0.25321 -0.67696,0.66662 -0.23771,0.40825 -0.41858,1.2609 l -0.5581,2.66133 h -0.93534 l 0.77514,-3.70519 q 0.0827,-0.37723 0.0827,-0.53743 0,-0.26872 -0.17053,-0.43408 -0.16536,-0.16536 -0.43408,-0.16536 -0.39791,0 -0.83715,0.25321 -0.43408,0.25321 -0.70797,0.70796 -0.27388,0.44959 -0.44958,1.28674 l -0.5426,2.59415 z m 12.85188,-1.86551 0.90951,0.093 q -0.19637,0.67695 -0.90434,1.28673 -0.7028,0.60978 -1.67948,0.60978 -0.60978,0 -1.12137,-0.27905 -0.50643,-0.28422 -0.77515,-0.82165 -0.26354,-0.53743 -0.26354,-1.22473 0,-0.89916 0.41341,-1.74149 0.41857,-0.84749 1.08003,-1.25573 0.66146,-0.41341 1.43143,-0.41341 0.98185,0 1.56579,0.60978 0.58911,0.60978 0.58911,1.66397 0,0.40308 -0.0723,0.82683 h -4.04109 q -0.0207,0.16019 -0.0207,0.28938 0,0.76998 0.3514,1.17822 0.35657,0.40308 0.86816,0.40308 0.48059,0 0.94568,-0.31523 0.46508,-0.31522 0.72346,-0.9095 z m -2.71817,-1.35909 h 3.07991 q 0.005,-0.14469 0.005,-0.2067 0,-0.7028 -0.3514,-1.07487 -0.3514,-0.37724 -0.90434,-0.37724 -0.59944,0 -1.09553,0.41341 -0.49093,0.41341 -0.73381,1.2454 z"
         id="path6" />
    </g>
    <g
       id="g2"
       transform="matrix(0.81321207,0,0,0.81321207,183.51537,10.695339)">
      <path
         id="rect879"
         style="fill:#07881d;fill-opacity:1;stroke:none;stroke-width:7.57036;paint-order:markers stroke fill;filter:url(#filter3763)"
         d="m 54.59236,32.309893 v 18.281946 26.282978 a 4,4 135 0 1 -4,4 H 32.310416 a 4,4 135 0 0 -4,4 l 0,18.281953 a 4,4 45 0 0 4,4 H 50.59236 76.8743 a 4,4 135 0 0 4,-4 V 84.874817 58.591839 a 4,4 135 0 1 4,-4 l 18.28195,0 a 4,4 135 0 0 4,-4 V 32.309893 a 4,4 45 0 0 -4,-4 l -18.28195,0 -26.28194,0 a 4,4 135 0 0 -4,4 z"
         inkscape:path-effect="#path-effect1170"
         inkscape:original-d="M 54.59236,28.309893 V 54.591839 80.874817 H 28.310416 V 107.15677 H 54.59236 80.8743 V 80.874817 54.591839 h 26.28195 V 28.309893 H 80.8743 Z"
         transform="matrix(0.24191523,0,0,0.24191523,29.793495,51.187585)" />
      <path
         d="m 76.141888,65.104528 q -0.1905,0.6096 -0.5842,1.2827 -0.3937,0.6604 -1.0922,1.1176 -0.6985,0.4699 -1.8034,0.4699 -1.4224,0 -2.2606,-0.6223 -0.8255,-0.6223 -1.1811,-1.6383 -0.3556,-1.016 -0.3556,-2.2098 0,-0.6223 0.0127,-1.4732 0.0254,-0.8509 0.0508,-1.7653 0.0254,-0.9144 0.0508,-1.7653 0.0381,-0.8636 0.0635,-1.5113 0.0254,-0.6604 0.0381,-0.9779 -1.2446,0.127 -2.159,0.2794 -0.901699,0.1397 -1.155699,0.2159 -0.0762,-0.4064 -0.127,-0.8509 -0.0381,-0.4572 -0.0635,-0.8255 -0.0127,-0.3683 -0.0127,-0.4953 0.7112,-0.1016 1.650999,-0.2159 0.9525,-0.1143 1.8796,-0.1778 0.0127,-0.4953 0.0127,-1.2192 0,-0.7366 0,-1.3843 -0.0127,-0.5461 -0.0508,-1.0541 -0.0381,-0.5207 -0.0635,-0.8636 l 2.3876,-0.1397 q 0.0254,0.1905 0.0508,0.9144 0.0381,0.7112 0.0381,1.7272 0,0.381 0,0.9271 0,0.5334 0,0.9525 0.381,-0.0254 0.9398,-0.0508 0.5588,-0.0254 0.9017,-0.0254 0.5969,-0.0127 1.143,-0.0127 0.5461,0 0.9398,0.0127 0.3937,0.0127 0.4826,0.0254 0.0635,0.3429 0.0762,0.9525 0.0254,0.6096 0.0254,1.016 -0.127,-0.0127 -0.8763,-0.0127 -0.7366,-0.0127 -1.4605,0 -0.5207,0.0127 -1.143,0.0508 -0.6223,0.0254 -1.0668,0.0508 -0.0127,0.3302 -0.0508,0.9779 -0.0254,0.6477 -0.0508,1.4605 -0.0254,0.8001 -0.0508,1.6383 -0.0254,0.8255 -0.0381,1.5494 -0.0127,0.7112 -0.0127,1.1557 0,0.8001 0.0889,1.524 0.1016,0.7239 0.4572,1.1938 0.3683,0.4572 1.1557,0.4572 0.5334,0 0.8636,-0.381 0.3302,-0.381 0.508,-0.8763 0.1905,-0.4953 0.2794,-0.8255 0.1143,0.127 0.3302,0.3429 0.2286,0.2032 0.4826,0.4318 0.2667,0.2286 0.4699,0.4064 0.2159,0.1778 0.2794,0.2413 z"
         id="text1"
         style="font-size:25.4px;line-height:1.25;font-family:Grandstander;-inkscape-font-specification:'Grandstander, Normal';stroke-width:0.264583"
         transform="rotate(11.339701)"
         aria-label="t" />
      <path
         d="m 88.35979,65.177589 q -0.254,0.3556 -0.7493,0.8255 -0.4953,0.4572 -1.2319,0.889 -0.7366,0.4191 -1.7145,0.6985 -0.9779,0.2794 -2.2098,0.2794 -1.905,0 -3.3401,-0.7747 -1.4351,-0.7747 -2.2225,-2.2606 -0.7874,-1.4986 -0.7874,-3.6449 0,-2.0574 0.8509,-3.5687 0.8636,-1.511299 2.3622,-2.336799 1.4986,-0.8255 3.4417,-0.8255 2.4384,0 3.7973,1.4859 1.3716,1.485899 1.524,3.987799 0.0254,0.4064 0.0254,0.7874 0,0.3683 -0.0381,0.762 -0.1651,-0.0127 -0.6858,-0.0254 -0.508,-0.0254 -1.1938,-0.0381 -0.6858,-0.0254 -1.3843,-0.0381 -0.6858,-0.0254 -1.1811,-0.0254 -1.2827,0 -2.6289,0.127 -1.3462,0.127 -2.4003,0.2921 0.0127,0.3302 0.0635,0.6477 0.0508,0.3175 0.127,0.6096 0.2159,0.7747 0.7874,1.3462 0.5715,0.5588 1.3589,0.8636 0.8001,0.3048 1.6891,0.3048 0.9398,0 1.6383,-0.2794 0.6985,-0.2794 1.1938,-0.6858 0.508,-0.4064 0.8128,-0.7747 0.3175,-0.3683 0.4826,-0.5461 0.0762,0.0635 0.2921,0.2794 0.2286,0.2032 0.4826,0.4953 0.2667,0.2921 0.4953,0.5969 0.2413,0.2921 0.3429,0.5461 z m -9.7282,-5.1054 q 0.9144,-0.1524 2.1463,-0.2667 1.2446,-0.1143 2.8194,-0.1143 0.8255,0 1.397,0.0254 0.5842,0.0127 0.8128,0.0381 0,-0.4191 -0.1016,-0.889 -0.1397,-0.635 -0.508,-1.2319 -0.3683,-0.5969 -1.0033,-0.990599 -0.6223,-0.4064 -1.5748,-0.4064 -1.0922,0 -1.9939,0.4699 -0.889,0.457199 -1.4224,1.320799 -0.5334,0.8509 -0.5715,2.0447 z"
         id="text1-5"
         style="font-size:25.4px;line-height:1.25;font-family:Grandstander;-inkscape-font-specification:'Grandstander, Normal';stroke-width:0.264583"
         transform="rotate(11.339701)"
         aria-label="e&#10;" />
      <path
         d="m 99.087712,68.027461 q -0.2794,-0.4826 -0.7747,-1.2192 -0.4953,-0.7366 -1.1049,-1.5621 -0.6096,-0.8382 -1.2446,-1.6383 -0.635,-0.8001 -1.1938,-1.4224 -0.5461,-0.6223 -0.9144,-0.9144 -0.2286,0.1778 -0.635,0.4953 -0.3937,0.3175 -0.7366,0.6096 -0.3429,0.2794 -0.4445,0.3937 -0.0127,0.5461 -0.0508,1.3081 -0.0254,0.7493 -0.0635,1.5113 -0.0381,0.7493 -0.0762,1.3716 -0.0254,0.6096 -0.0508,0.8763 -0.2794,0.0254 -0.5842,0.0508 -0.3048,0.0254 -0.6096,0.0254 -0.3683,0 -0.7239,-0.0381 -0.3556,-0.0254 -0.635,-0.0635 0.0254,-0.3048 0.0635,-1.3335 0.0508,-1.0287 0.1143,-2.5273 0.0762,-1.5113 0.1524,-3.2766 0.0762,-1.777999 0.1397,-3.581399 0.0762,-1.8161 0.127,-3.429 0.0635,-1.6256 0.1016,-2.8194 0.0381,-1.2065 0.0381,-1.7526 0.2413,-0.0127 0.5207,-0.0254 0.2921,-0.0127 0.5842,-0.0127 0.381,0 0.7239,0.0381 0.3556,0.0254 0.635,0.1143 0,0.9525 -0.0254,2.1844 -0.0254,1.2192 -0.0635,2.54 -0.0254,1.3081 -0.0762,2.5273 -0.0381,1.2065 -0.0762,2.1336 -0.0254,0.9144 -0.0635,1.3589 0.7366,-0.7493 1.778,-1.524 1.0414,-0.7874 2.1463,-1.5113 1.1176,-0.7239 2.0955,-1.3081 0.9779,-0.5969 1.5875,-0.9525 0.1524,0.1651 0.342898,0.4191 0.2032,0.2413 0.3937,0.5207 0.2032,0.2794 0.3683,0.5334 0.1778,0.2413 0.2667,0.4064 -0.4318,0.2413 -1.181098,0.6858 -0.7493,0.4318 -1.5748,0.9398 -0.8255,0.508 -1.5621,0.9906 -0.7366,0.4699 -1.1557,0.7874 0.2794,0.215899 0.7874,0.749299 0.508,0.5334 1.143,1.2954 0.6477,0.7493 1.3335,1.6256 0.6858,0.8763 1.333498,1.7653 0.6477,0.889 1.143,1.7018 -0.1143,0.0762 -0.4191,0.2159 -0.3048,0.127 -0.6731,0.2794 -0.368298,0.1524 -0.711198,0.2794 -0.3302,0.127 -0.4953,0.1778 z"
         id="text1-0"
         style="font-size:25.4px;line-height:1.25;font-family:Grandstander;-inkscape-font-specification:'Grandstander, Normal';stroke-width:0.264583"
         transform="rotate(11.339701)"
         aria-label="k" />
      <path
         d="m 124.76606,28.845078 q -1.1811,0 -2.3495,-0.3302 -1.1684,-0.3302 -2.1336,-0.8763 -0.9525,-0.5588 -1.524,-1.2319 0.0889,-0.1778 0.254,-0.4826 0.1651,-0.3048 0.381,-0.635 0.2159,-0.3429 0.4318,-0.6223 0.2159,-0.2921 0.381,-0.4445 0.5461,0.6096 1.3081,1.1811 0.762,0.5588 1.6383,0.9144 0.8763,0.3429 1.7526,0.3429 0.8382,0 1.5113,-0.2413 0.6858,-0.254 1.0795,-0.7239 0.4064,-0.4699 0.4064,-1.1303 0,-0.762 -0.4826,-1.3081 -0.4826,-0.5588 -1.2954,-0.9779 -0.8128,-0.4318 -1.7907,-0.7874 -1.1811,-0.4318 -2.159,-0.9398 -0.9652,-0.5207 -1.5494,-1.2954 -0.5715,-0.7747 -0.5715,-1.9685 0,-1.2192 0.6858,-2.032 0.6985,-0.8128 1.8288,-1.2319 1.143,-0.4191 2.4638,-0.4191 1.4732,0 2.7051,0.381 1.2446,0.3683 1.905,0.8636 -0.0508,0.2159 -0.2159,0.5715 -0.1651,0.3429 -0.381,0.6985 -0.2159,0.3556 -0.4445,0.6477 -0.6096,-0.4064 -1.4859,-0.7747 -0.8763,-0.3683 -1.905,-0.3683 -0.6858,0 -1.3208,0.1651 -0.635,0.1524 -1.0414,0.5207 -0.4064,0.3683 -0.4064,1.0033 0,0.5461 0.3937,0.9779 0.4064,0.4318 1.0922,0.7747 0.6858,0.3302 1.5494,0.635 1.0414,0.3556 1.9304,0.8001 0.889,0.4318 1.5367,1.0033 0.6604,0.5588 1.0287,1.2954 0.3683,0.7239 0.3683,1.6383 0,1.4605 -0.7493,2.4384 -0.7493,0.9779 -2.0066,1.4732 -1.2573,0.4953 -2.8194,0.4953 z"
         id="text1-8"
         style="font-size:25.4px;line-height:1.25;font-family:Grandstander;-inkscape-font-specification:'Grandstander, Normal';stroke-width:0.264583"
         transform="rotate(31.812474)"
         aria-label="s" />
    </g>
  </g>
</svg>
