<?xml version="1.0" encoding="UTF-8" standalone="no"?>
<!-- Created with Inkscape (http://www.inkscape.org/) -->

<svg
   width="1024"
   height="1024"
   viewBox="0 0 270.93333 270.93333"
   version="1.1"
   id="svg5"
   inkscape:version="1.3 (0e150ed6c4, 2023-07-21)"
   sodipodi:docname="text_bottom.svg"
   xmlns:inkscape="http://www.inkscape.org/namespaces/inkscape"
   xmlns:sodipodi="http://sodipodi.sourceforge.net/DTD/sodipodi-0.dtd"
   xmlns="http://www.w3.org/2000/svg"
   xmlns:svg="http://www.w3.org/2000/svg">
  <sodipodi:namedview
     id="namedview7"
     pagecolor="#ffffff"
     bordercolor="#666666"
     borderopacity="1.0"
     inkscape:showpageshadow="2"
     inkscape:pageopacity="0.0"
     inkscape:pagecheckerboard="true"
     inkscape:deskcolor="#d1d1d1"
     inkscape:document-units="px"
     showgrid="false"
     inkscape:zoom="1"
     inkscape:cx="405"
     inkscape:cy="657.5"
     inkscape:window-width="3200"
     inkscape:window-height="1711"
     inkscape:window-x="-9"
     inkscape:window-y="-9"
     inkscape:window-maximized="1"
     inkscape:current-layer="layer1" />
  <defs
     id="defs2">
    <filter
       inkscape:menu="Shadows and Glows"
       inkscape:menu-tooltip="Cut out, add inner shadow and colorize some parts of an image"
       style="color-interpolation-filters:sRGB"
       inkscape:label="Emergence"
       id="filter3763"
       x="-0.091317444"
       y="-0.091316236"
       width="1.2206838"
       height="1.2206809">
      <feColorMatrix
         values="0 0 0 0 0 0 0 0 0 0 0 0 0 0 0 0.21 0.72 0.07 0 0 "
         result="result1"
         id="feColorMatrix3735" />
      <feColorMatrix
         values="1 0 0 0 0 0 1 0 0 0 0 0 1 0 0 0 0 0 2 0 "
         result="result9"
         id="feColorMatrix3737" />
      <feComposite
         in2="result9"
         in="SourceGraphic"
         operator="in"
         result="result4"
         id="feComposite3739" />
      <feFlood
         result="result2"
         flood-color="rgb(0,0,0)"
         id="feFlood3741" />
      <feComposite
         in2="result9"
         operator="in"
         result="result10"
         id="feComposite3743" />
      <feComposite
         in2="result4"
         operator="atop"
         id="feComposite3745" />
      <feGaussianBlur
         stdDeviation="3"
         result="result8"
         id="feGaussianBlur3747" />
      <feOffset
         dx="3"
         dy="3"
         result="result3"
         in="result8"
         id="feOffset3749" />
      <feFlood
         flood-opacity="1"
         flood-color="rgb(219,173,62)"
         result="result5"
         id="feFlood3751" />
      <feMerge
         result="result6"
         id="feMerge3759">
        <feMergeNode
           in="result5"
           id="feMergeNode3753" />
        <feMergeNode
           in="result3"
           id="feMergeNode3755" />
        <feMergeNode
           in="result4"
           id="feMergeNode3757" />
      </feMerge>
      <feComposite
         in2="SourceGraphic"
         operator="in"
         result="result7"
         id="feComposite3761" />
    </filter>
    <inkscape:path-effect
       effect="fillet_chamfer"
       id="path-effect1170"
       is_visible="true"
       lpeversion="1"
       satellites_param="F,0,0,1,0,4,0,1 @ F,0,0,1,0,4,0,1 @ F,0,0,1,0,4,0,1 @ F,0,0,1,0,4,0,1 @ F,0,0,1,0,4,0,1 @ F,0,0,1,0,4,0,1 @ F,0,0,1,0,4,0,1 @ F,0,0,1,0,4,0,1 @ F,0,0,1,0,4,0,1 @ F,0,0,1,0,4,0,1 @ F,0,0,1,0,4,0,1 @ F,0,0,1,0,4,0,1"
       unit="px"
       method="auto"
       mode="F"
       radius="4"
       chamfer_steps="1"
       flexible="false"
       use_knot_distance="true"
       apply_no_radius="true"
       apply_with_radius="true"
       only_selected="false"
       hide_knots="false"
       nodesatellites_param="F,0,0,1,0,4,0,1 @ F,0,0,1,0,4,0,1 @ F,0,0,1,0,4,0,1 @ F,0,0,1,0,4,0,1 @ F,0,0,1,0,4,0,1 @ F,0,0,1,0,4,0,1 @ F,0,0,1,0,4,0,1 @ F,0,0,1,0,4,0,1 @ F,0,0,1,0,4,0,1 @ F,0,0,1,0,4,0,1 @ F,0,0,1,0,4,0,1 @ F,0,0,1,0,4,0,1" />
  </defs>
  <g
     inkscape:label="Layer 1"
     inkscape:groupmode="layer"
     id="layer1">
    <g
       id="g145"
       transform="translate(-20.18133,5.2916666)">
      <path
         id="text113-1"
         style="font-style:italic;font-size:9.87778px;line-height:6.1736px;font-family:Arial;-inkscape-font-specification:'Arial, Italic';text-align:center;letter-spacing:0px;word-spacing:0px;text-anchor:middle;stroke-width:0.264583"
         d="m 98.113881,235.1433 -0.16898,0.80512 h 2.319769 l -1.306909,6.26525 h 0.94516 l 1.307429,-6.26525 h 2.30063 l 0.16847,-0.80512 z m 6.438899,0 -1.47588,7.07037 h 0.87281 l 0.45837,-2.19935 c 0.13505,-0.63986 0.28262,-1.10288 0.44339,-1.38906 0.16398,-0.28938 0.38924,-0.51607 0.67541,-0.68006 0.28617,-0.16721 0.58664,-0.25063 0.90175,-0.25063 0.21865,0 0.38603,0.0531 0.50178,0.15916 0.11576,0.10611 0.17363,0.2426 0.17363,0.4098 0,0.11576 -0.0468,0.39888 -0.14004,0.84904 l -0.65112,3.1011 h 0.87333 l 0.63149,-3.0241 c 0.10289,-0.48231 0.15451,-0.81316 0.15451,-0.99322 0,-0.36656 -0.11719,-0.66078 -0.35192,-0.88264 -0.23472,-0.22508 -0.56465,-0.33796 -0.98909,-0.33796 -0.29581,0 -0.58325,0.0695 -0.86299,0.20774 -0.27974,0.13505 -0.58217,0.35978 -0.90692,0.67489 l 0.5643,-2.71508 z m 19.15748,0 -1.47588,7.07037 h 0.87282 l 1.47588,-7.07037 z m 4.97748,0 -0.20774,0.98857 h 0.86816 l 0.20774,-0.98857 z m -1.81385,0.0868 -0.99839,0.60255 -0.2651,1.25884 h -0.68988 l -0.13952,0.67541 h 0.68936 l -0.62218,2.97604 c -0.0836,0.40514 -0.12506,0.66364 -0.12506,0.77618 0,0.22187 0.0772,0.39746 0.23151,0.52607 0.20579,0.17042 0.48214,0.25528 0.82941,0.25528 0.19614,0 0.39871,-0.027 0.60771,-0.0816 l 0.1447,-0.71417 c -0.15113,0.0386 -0.32333,0.0579 -0.51625,0.0579 -0.13508,0 -0.23297,-0.027 -0.29404,-0.0816 -0.0579,-0.0547 -0.0868,-0.13378 -0.0868,-0.23668 0,-0.0707 0.0371,-0.28583 0.11111,-0.64595 l 0.59324,-2.83135 h 0.8537 l 0.14469,-0.67541 h -0.85886 z m 18.66088,0 -0.99839,0.60255 -0.2651,1.25884 h -0.68988 l -0.14004,0.67541 h 0.68988 l -0.62219,2.97604 c -0.0836,0.40514 -0.12557,0.66364 -0.12557,0.77618 0,0.22187 0.0772,0.39746 0.23151,0.52607 0.20579,0.17042 0.48266,0.25528 0.82992,0.25528 0.19614,0 0.39872,-0.027 0.60772,-0.0816 l 0.14469,-0.71417 c -0.15112,0.0386 -0.32332,0.0579 -0.51625,0.0579 -0.13507,0 -0.23297,-0.027 -0.29403,-0.0816 -0.0579,-0.0547 -0.0868,-0.13378 -0.0868,-0.23668 0,-0.0707 0.0366,-0.28583 0.11059,-0.64595 l 0.59324,-2.83135 h 0.8537 l 0.14469,-0.67541 h -0.85835 z m -34.05115,1.74563 c -0.4791,0 -0.92478,0.12879 -1.33635,0.38602 -0.41158,0.25402 -0.74724,0.6447 -1.00769,1.17202 -0.25723,0.52412 -0.38602,1.06574 -0.38602,1.62523 0,0.42764 0.082,0.80868 0.24598,1.14308 0.1672,0.33441 0.40835,0.59003 0.72347,0.76688 0.31832,0.17363 0.66702,0.26045 1.04644,0.26045 0.60772,0 1.13057,-0.18954 1.56787,-0.56896 0.44051,-0.37942 0.72169,-0.77974 0.84387,-1.20096 l -0.84904,-0.0868 c -0.16077,0.36978 -0.38551,0.65291 -0.6749,0.84905 -0.28938,0.19614 -0.5836,0.29404 -0.88263,0.29404 -0.31833,0 -0.58842,-0.12541 -0.81029,-0.37621 -0.21865,-0.25402 -0.32814,-0.62057 -0.32814,-1.09967 0,-0.0804 0.006,-0.17059 0.0191,-0.27027 h 3.77186 c 0.045,-0.26367 0.0677,-0.52073 0.0677,-0.77153 0,-0.65594 -0.18328,-1.17346 -0.54984,-1.55288 -0.36334,-0.37941 -0.85048,-0.56947 -1.46141,-0.56947 z m 21.41471,0 c -0.29903,0 -0.57734,0.0695 -0.83457,0.20774 -0.25402,0.13827 -0.54341,0.38907 -0.86817,0.75241 l 0.17829,-0.84439 h -0.87282 l -1.07073,5.12216 h 0.87281 l 0.50643,-2.42104 c 0.10932,-0.5209 0.24919,-0.92122 0.41961,-1.20096 0.17042,-0.28296 0.39085,-0.50339 0.66094,-0.66094 0.27332,-0.15756 0.53376,-0.23616 0.78135,-0.23616 0.1672,0 0.30225,0.0516 0.40514,0.15451 0.10611,0.1029 0.15917,0.23794 0.15917,0.40515 0,0.0997 -0.0255,0.26654 -0.077,0.50126 l -0.72347,3.45818 h 0.87281 l 0.5209,-2.48357 c 0.11254,-0.53054 0.24277,-0.92317 0.39068,-1.17718 0.15112,-0.25724 0.36191,-0.46464 0.632,-0.62219 0.2701,-0.15756 0.53537,-0.23616 0.79582,-0.23616 0.19292,0 0.34244,0.0482 0.44855,0.14469 0.10611,0.0965 0.15916,0.22812 0.15916,0.39533 0,0.11896 -0.0309,0.31672 -0.092,0.59324 l -0.70384,3.38584 h 0.87282 l 0.68988,-3.29902 c 0.074,-0.36335 0.11059,-0.62379 0.11059,-0.78135 0,-0.36656 -0.10755,-0.65112 -0.32298,-0.85369 -0.21222,-0.20257 -0.53198,-0.30386 -0.95963,-0.30386 -0.31833,0 -0.62219,0.0806 -0.91157,0.24133 -0.28618,0.15756 -0.55966,0.39728 -0.82011,0.71882 -0.0675,-0.30225 -0.20883,-0.53714 -0.42426,-0.70435 -0.21222,-0.17041 -0.47749,-0.2558 -0.79582,-0.2558 z m 7.70702,0 c -0.59485,0 -1.08825,0.13505 -1.48053,0.40514 -0.38906,0.2701 -0.67363,0.65933 -0.85369,1.16737 l 0.88263,0.077 c 0.10611,-0.29903 0.27492,-0.52859 0.50643,-0.68936 0.23473,-0.16399 0.5352,-0.24598 0.90176,-0.24598 0.38906,0 0.68522,0.08 0.8878,0.24081 0.14791,0.11575 0.22169,0.27492 0.22169,0.47749 0,0.15755 -0.0338,0.35531 -0.10129,0.59325 -0.23794,0.0932 -0.632,0.1511 -1.18184,0.17363 -0.54662,0.0225 -0.918,0.0534 -1.11414,0.092 -0.3119,0.0579 -0.57522,0.15435 -0.79065,0.28939 -0.21543,0.13183 -0.38907,0.30834 -0.5209,0.5302 -0.12862,0.21865 -0.19327,0.47141 -0.19327,0.75758 0,0.43408 0.1447,0.79099 0.43408,1.07073 0.28939,0.27653 0.67042,0.41445 1.14309,0.41445 0.31833,0 0.61736,-0.0593 0.8971,-0.17828 0.27974,-0.12219 0.57108,-0.31368 0.87333,-0.57413 0.0192,0.25723 0.053,0.46945 0.10129,0.63665 h 0.88263 c -0.0707,-0.30224 -0.10645,-0.53375 -0.10645,-0.69453 0,-0.25402 0.0454,-0.58343 0.13539,-0.98857 l 0.28422,-1.27331 c 0.0804,-0.36012 0.12092,-0.67701 0.12092,-0.95032 0,-0.36013 -0.14182,-0.65239 -0.42478,-0.87747 -0.36977,-0.30225 -0.87138,-0.45372 -1.50482,-0.45372 z m 8.20932,0 c -0.4791,0 -0.92478,0.12879 -1.33635,0.38602 -0.41157,0.25402 -0.74724,0.6447 -1.00769,1.17202 -0.25723,0.52412 -0.38602,1.06574 -0.38602,1.62523 0,0.42764 0.082,0.80868 0.24598,1.14308 0.1672,0.33441 0.40835,0.59003 0.72347,0.76688 0.31832,0.17363 0.66702,0.26045 1.04644,0.26045 0.60772,0 1.13057,-0.18954 1.56787,-0.56896 0.44051,-0.37942 0.72169,-0.77974 0.84387,-1.20096 l -0.84904,-0.0868 c -0.16077,0.36978 -0.38551,0.65291 -0.6749,0.84905 -0.28938,0.19614 -0.58359,0.29404 -0.88263,0.29404 -0.31833,0 -0.58843,-0.12541 -0.81029,-0.37621 -0.21865,-0.25402 -0.32814,-0.62057 -0.32814,-1.09967 0,-0.0804 0.006,-0.17059 0.0191,-0.27027 h 3.77186 c 0.045,-0.26367 0.0677,-0.52073 0.0677,-0.77153 0,-0.65594 -0.18329,-1.17346 -0.54984,-1.55288 -0.36334,-0.37941 -0.85048,-0.56947 -1.46141,-0.56947 z m -30.93558,0.11576 -0.61753,2.95692 c -0.10933,0.52411 -0.16381,0.89354 -0.16381,1.10898 0,0.32797 0.12057,0.60627 0.36173,0.83457 0.24437,0.22508 0.56414,0.33745 0.95963,0.33745 0.64309,0 1.27153,-0.34727 1.88567,-1.0418 l -0.19275,0.92604 h 0.80564 l 1.07073,-5.12216 h -0.87333 l -0.46302,2.21381 c -0.0933,0.44373 -0.17524,0.75436 -0.24598,0.93121 -0.10611,0.27653 -0.24402,0.51574 -0.41444,0.71831 -0.1672,0.20257 -0.36834,0.36368 -0.60307,0.48265 -0.23151,0.11897 -0.46928,0.17829 -0.71365,0.17829 -0.22829,0 -0.40193,-0.0531 -0.5209,-0.15917 -0.11575,-0.10932 -0.17363,-0.26027 -0.17363,-0.4532 0,-0.15112 0.029,-0.36334 0.0868,-0.63665 l 0.68471,-3.27525 z m 10.39833,0 -1.07073,5.12216 h 0.87333 l 1.07074,-5.12216 z m -16.77468,0.5643 c 0.34405,0 0.62523,0.11771 0.84388,0.35244 0.21865,0.2315 0.32814,0.56574 0.32814,1.00304 0,0.0386 -0.001,0.10272 -0.005,0.19275 H 109.795 c 0.15113,-0.51769 0.37925,-0.90497 0.68471,-1.1622 0.30869,-0.25724 0.64969,-0.38603 1.02268,-0.38603 z m 37.33105,0 c 0.34405,0 0.62574,0.11771 0.8444,0.35244 0.21864,0.2315 0.32762,0.56574 0.32762,1.00304 0,0.0386 -0.001,0.10272 -0.005,0.19275 h -2.87476 c 0.15113,-0.51769 0.37977,-0.90497 0.68523,-1.1622 0.30868,-0.25724 0.64917,-0.38603 1.02216,-0.38603 z m -7.39386,1.96319 c -0.0868,0.50482 -0.2074,0.89406 -0.36174,1.16737 -0.15434,0.27331 -0.36512,0.48697 -0.632,0.64131 -0.26688,0.15112 -0.54467,0.22685 -0.83406,0.22685 -0.3119,0 -0.55305,-0.0791 -0.72347,-0.23667 -0.1672,-0.15756 -0.25114,-0.35818 -0.25114,-0.60255 0,-0.18328 0.0531,-0.35066 0.15916,-0.50178 0.10611,-0.15113 0.26384,-0.26062 0.47284,-0.32814 0.209,-0.0708 0.56735,-0.12864 1.07538,-0.17364 0.32798,-0.0289 0.56144,-0.0559 0.6997,-0.0816 0.14148,-0.0258 0.27314,-0.0629 0.39533,-0.1111 z" />
      <path
         id="text113-1-2"
         style="font-style:italic;font-size:9.87778px;line-height:6.1736px;font-family:Arial;-inkscape-font-specification:'Arial, Italic';text-align:center;letter-spacing:0px;word-spacing:0px;text-anchor:middle;stroke-width:0.264583"
         d="m 126.09254,245.02461 -1.47588,7.07088 h 0.76688 l 0.20257,-0.96945 c 0.1447,0.36656 0.34583,0.63953 0.60307,0.81959 0.25723,0.17686 0.55431,0.26562 0.89193,0.26562 0.19614,0 0.40066,-0.0386 0.61288,-0.11576 0.21222,-0.0739 0.41962,-0.18683 0.62219,-0.33796 0.20257,-0.15434 0.39837,-0.35835 0.58808,-0.61237 0.18971,-0.25723 0.34887,-0.57413 0.47749,-0.95032 0.12862,-0.37621 0.19327,-0.791 0.19327,-1.24437 0,-0.68168 -0.16112,-1.20062 -0.48266,-1.55753 -0.31833,-0.35691 -0.71669,-0.53537 -1.19579,-0.53537 -0.24438,0 -0.47927,0.0531 -0.70435,0.15916 -0.22508,0.1029 -0.47589,0.28135 -0.75241,0.53537 l 0.52555,-2.52749 z m 10.95799,0 -0.20722,0.98857 h 0.86816 l 0.20722,-0.98857 z m 2.15594,0 -1.47588,7.07088 h 0.87333 l 1.47588,-7.07088 z m 5.49837,0 -0.57877,2.75384 c -0.32476,-0.61415 -0.80512,-0.92088 -1.44178,-0.92088 -0.38585,0 -0.7717,0.12827 -1.15755,0.38551 -0.38264,0.25723 -0.70291,0.64504 -0.96015,1.16272 -0.25401,0.51446 -0.38085,1.08359 -0.38085,1.70739 0,0.68167 0.1606,1.20257 0.48214,1.56269 0.32476,0.35691 0.7299,0.53537 1.21543,0.53537 0.54341,0 1.06431,-0.28652 1.56269,-0.85886 l -0.15399,0.7431 h 0.80512 l 1.47588,-7.07088 z m 2.22829,0 -0.20722,0.98857 h 0.86816 l 0.20722,-0.98857 z m -46.83746,0.0868 -0.998389,0.60307 -0.2651,1.25884 h -0.68988 l -0.13953,0.67489 h 0.68937 l -0.62219,2.97605 c -0.0836,0.40514 -0.12505,0.66415 -0.12505,0.77669 0,0.22187 0.07717,0.39694 0.23151,0.52555 0.20579,0.17042 0.48214,0.2558 0.8294,0.2558 0.19615,0 0.39872,-0.0275 0.60772,-0.0822 l 0.14469,-0.71366 c -0.15112,0.0386 -0.32332,0.0579 -0.51625,0.0579 -0.13507,0 -0.23297,-0.0275 -0.29403,-0.0822 -0.05787,-0.0547 -0.08682,-0.13327 -0.08682,-0.23617 0,-0.0707 0.03715,-0.28634 0.1111,-0.64647 l 0.59325,-2.83135 h 0.853689 l 0.1447,-0.67489 h -0.858859 z m 3.31349,1.74615 c -0.78778,0 -1.42443,0.2701 -1.90996,0.81029 -0.58842,0.65594 -0.88263,1.48357 -0.88263,2.48357 0,0.40836 0.0854,0.76866 0.2558,1.08055 0.17363,0.31189 0.42299,0.55305 0.74775,0.72347 0.32797,0.17042 0.69115,0.2558 1.08986,0.2558 0.48553,0 0.94712,-0.13504 1.38441,-0.40514 0.44051,-0.2701 0.77957,-0.6579 1.01751,-1.16272 0.23795,-0.50804 0.35708,-1.05593 0.35708,-1.64435 0,-0.65594 -0.19005,-1.17684 -0.56947,-1.56269 -0.37621,-0.38585 -0.87299,-0.57878 -1.49035,-0.57878 z m 12.59356,0 c -0.4791,0 -0.92478,0.12827 -1.33635,0.38551 -0.41158,0.25402 -0.74725,0.64469 -1.00769,1.17202 -0.25724,0.52411 -0.38603,1.06625 -0.38603,1.62574 0,0.42765 0.082,0.80868 0.24598,1.14308 0.1672,0.33441 0.40836,0.59003 0.72347,0.76688 0.31833,0.17363 0.66703,0.26045 1.04645,0.26045 0.60771,0 1.13056,-0.19006 1.56786,-0.56947 0.44051,-0.37942 0.72169,-0.77975 0.84388,-1.20096 l -0.84904,-0.0868 c -0.16077,0.36977 -0.38551,0.6529 -0.6749,0.84904 -0.28938,0.19614 -0.5836,0.29404 -0.88263,0.29404 -0.31833,0 -0.58842,-0.1254 -0.81029,-0.3762 -0.21864,-0.25402 -0.32814,-0.62058 -0.32814,-1.09968 0,-0.0804 0.006,-0.17007 0.0191,-0.26975 h 3.77186 c 0.045,-0.26366 0.0677,-0.52124 0.0677,-0.77204 0,-0.65595 -0.18328,-1.17346 -0.54984,-1.55288 -0.36334,-0.37942 -0.85048,-0.56896 -1.46141,-0.56896 z m 5.75365,0 c -0.26366,0 -0.52216,0.0945 -0.77618,0.28422 -0.2508,0.18971 -0.50838,0.48249 -0.77204,0.87798 l 0.21704,-1.04644 h -0.77153 l -1.07074,5.12216 h 0.82941 l 0.43408,-2.05465 c 0.18328,-0.88425 0.43604,-1.49678 0.75758,-1.83761 0.32154,-0.34084 0.63504,-0.5116 0.94051,-0.5116 0.18006,0 0.34548,0.055 0.49661,0.16433 l 0.35708,-0.81029 c -0.25402,-0.1254 -0.46818,-0.1881 -0.64182,-0.1881 z m 29.47934,0 c -0.31189,0 -0.6177,0.08 -0.91674,0.24081 -0.29903,0.16078 -0.62024,0.4164 -0.96428,0.76688 l 0.1881,-0.89193 h -0.79117 l -1.07073,5.12216 h 0.87281 l 0.49713,-2.3828 c 0.16399,-0.78134 0.41961,-1.33262 0.76688,-1.65416 0.35048,-0.32154 0.74884,-0.48266 1.19579,-0.48266 0.22186,0 0.39068,0.0531 0.50643,0.15917 0.11897,0.1061 0.1788,0.24454 0.1788,0.41496 0,0.15112 -0.0338,0.38407 -0.10129,0.69918 l -0.68006,3.24631 h 0.87282 l 0.65112,-3.10162 c 0.0836,-0.40835 0.12557,-0.70738 0.12557,-0.8971 0,-0.3762 -0.11914,-0.67667 -0.35708,-0.90175 -0.23473,-0.22508 -0.55931,-0.33745 -0.9741,-0.33745 z m 4.65915,0 c -0.40193,0 -0.7926,0.12345 -1.17202,0.37104 -0.37942,0.24437 -0.7074,0.60806 -0.98392,1.09037 -0.27332,0.48231 -0.41031,1.01091 -0.41031,1.58647 0,0.69774 0.17363,1.23794 0.52089,1.62057 0.35048,0.37942 0.78456,0.56947 1.30225,0.56947 0.51125,0 0.99357,-0.23007 1.44694,-0.68988 l -0.0868,0.41497 c -0.12861,0.61414 -0.26848,1.01251 -0.41961,1.19579 -0.23151,0.27331 -0.61059,0.41031 -1.13791,0.41031 -0.25081,0 -0.45533,-0.0357 -0.61289,-0.10645 -0.11896,-0.0547 -0.20578,-0.13184 -0.26045,-0.23151 -0.0549,-0.0997 -0.079,-0.2492 -0.0723,-0.44856 l -0.88264,-0.0816 c -0.0161,0.0932 -0.0238,0.18006 -0.0238,0.26044 0,0.26367 0.0724,0.49661 0.21704,0.69919 0.14791,0.20578 0.36978,0.36156 0.6656,0.46767 0.29903,0.1061 0.65399,0.15916 1.06556,0.15916 0.42766,0 0.80386,-0.0834 1.12862,-0.25063 0.32797,-0.1672 0.5836,-0.40353 0.76688,-0.709 0.18328,-0.30225 0.33136,-0.72525 0.4439,-1.26866 l 1.03197,-4.94336 h -0.80046 l -0.17364,0.83922 c -0.36334,-0.63665 -0.88085,-0.95498 -1.55287,-0.95498 z m -49.49982,0.11576 0.53536,5.12216 h 0.91623 l 1.35547,-2.98069 c 0.18007,-0.39871 0.33584,-0.77009 0.46767,-1.11415 0.006,0.5402 0.0161,0.90337 0.0289,1.08986 l 0.19275,3.00498 h 0.90693 l 2.5032,-5.12216 h -0.87333 l -1.09967,2.3244 c -0.36334,0.76527 -0.62523,1.36334 -0.786,1.79421 -0.006,-0.64951 -0.0223,-1.16846 -0.0481,-1.55753 l -0.16898,-2.56108 h -0.94982 l -1.22059,2.67167 c -0.14791,0.32476 -0.25546,0.57556 -0.32298,0.75241 -0.0675,0.17363 -0.14952,0.42443 -0.24598,0.75241 -0.0126,-0.29261 -0.0223,-0.48697 -0.0289,-0.58343 l -0.0915,-1.29243 -0.23151,-2.30063 z m 24.78608,0 -0.61753,2.95641 c -0.10933,0.52411 -0.16382,0.89406 -0.16382,1.10949 0,0.32797 0.12058,0.60576 0.36174,0.83406 0.24437,0.22508 0.56413,0.33796 0.95963,0.33796 0.64308,0 1.27153,-0.34726 1.88567,-1.0418 l -0.19275,0.92604 h 0.80563 l 1.07074,-5.12216 h -0.87333 l -0.46302,2.21381 c -0.0932,0.44373 -0.17524,0.75384 -0.24598,0.9307 -0.10611,0.27652 -0.24403,0.51625 -0.41445,0.71882 -0.1672,0.20257 -0.36833,0.36316 -0.60306,0.48214 -0.23151,0.11896 -0.46928,0.17828 -0.71365,0.17828 -0.2283,0 -0.40193,-0.0531 -0.5209,-0.15916 -0.11576,-0.10933 -0.17363,-0.26028 -0.17363,-0.4532 0,-0.15112 0.029,-0.36334 0.0868,-0.63666 l 0.68472,-3.27473 z m 5.45962,0 -1.07074,5.12216 h 0.87281 l 1.07074,-5.12216 z m 9.8826,0 -1.07074,5.12216 h 0.87282 l 1.07073,-5.12216 z m -43.14777,0.55914 c 0.3537,0 0.64647,0.12879 0.87799,0.38602 0.23472,0.25401 0.35191,0.61236 0.35191,1.07538 0,0.2926 -0.0497,0.59842 -0.14934,0.91674 -0.0675,0.2283 -0.15773,0.44195 -0.27027,0.64131 -0.10932,0.19614 -0.24293,0.37121 -0.40049,0.52555 -0.15756,0.15434 -0.3278,0.27009 -0.51108,0.34726 -0.18328,0.074 -0.368,0.11111 -0.55449,0.11111 -0.35691,0 -0.65113,-0.12397 -0.88263,-0.37155 -0.23152,-0.25081 -0.34727,-0.61737 -0.34727,-1.09968 0,-0.26045 0.0415,-0.55609 0.12506,-0.88728 0.0868,-0.3344 0.22043,-0.62718 0.40049,-0.87799 0.18328,-0.2508 0.38728,-0.44033 0.61236,-0.56895 0.22508,-0.13183 0.47445,-0.19792 0.74776,-0.19792 z m 12.64627,0.005 c 0.34405,0 0.62575,0.11719 0.84439,0.35192 0.21865,0.23151 0.32763,0.56574 0.32763,1.00304 0,0.0386 -0.001,0.10324 -0.005,0.19327 h -2.87476 c 0.15113,-0.51769 0.37976,-0.90549 0.68523,-1.16272 0.30868,-0.25723 0.64917,-0.38551 1.02216,-0.38551 z m 11.61376,0.0238 c 0.30547,0 0.56109,0.11914 0.76688,0.35709 0.209,0.23794 0.31367,0.57217 0.31367,1.00304 0,0.38263 -0.082,0.80081 -0.24598,1.25418 -0.16398,0.45338 -0.37477,0.78761 -0.632,1.00304 -0.25402,0.21222 -0.53376,0.31833 -0.83922,0.31833 -0.3119,0 -0.57235,-0.1138 -0.78135,-0.3421 -0.20901,-0.22829 -0.31316,-0.56109 -0.31316,-0.99839 l 0.005,-0.16433 c 0,-0.25401 0.0661,-0.56895 0.19792,-0.94516 0.17685,-0.50482 0.39676,-0.87763 0.66043,-1.11879 0.26366,-0.24438 0.55305,-0.36691 0.86816,-0.36691 z m 28.27838,0 c 0.34405,0 0.632,0.1254 0.86351,0.37621 0.23473,0.24759 0.35192,0.58234 0.35192,1.00356 0,0.38263 -0.0883,0.78438 -0.2651,1.20561 -0.17364,0.42122 -0.40228,0.73329 -0.68523,0.93586 -0.28296,0.19936 -0.56752,0.29869 -0.8537,0.29869 -0.21864,0 -0.41783,-0.0641 -0.59789,-0.19276 -0.17685,-0.13183 -0.31334,-0.32137 -0.4098,-0.56895 -0.0675,-0.17685 -0.10128,-0.44069 -0.10128,-0.79117 0,-0.1672 0.0434,-0.41318 0.13022,-0.73794 0.09,-0.32476 0.22025,-0.60307 0.39067,-0.83457 0.17364,-0.23473 0.35979,-0.40836 0.55914,-0.5209 0.19936,-0.11576 0.40532,-0.17364 0.61754,-0.17364 z m -13.17698,0.0145 c 0.32155,0 0.58878,0.11432 0.80099,0.34262 0.21222,0.22829 0.31833,0.54519 0.31833,0.95033 0,0.80386 -0.21561,1.47909 -0.64648,2.02571 -0.32154,0.41158 -0.67988,0.61702 -1.07538,0.61702 -0.23794,0 -0.44247,-0.0675 -0.61289,-0.20257 -0.17041,-0.13826 -0.29099,-0.30995 -0.36173,-0.51573 -0.0707,-0.20579 -0.10594,-0.48749 -0.10594,-0.84439 0,-0.26046 0.0579,-0.56236 0.17364,-0.90641 0.11576,-0.34405 0.25706,-0.62718 0.42426,-0.84904 0.17041,-0.22508 0.34118,-0.38425 0.5116,-0.47749 0.17363,-0.0933 0.3646,-0.14005 0.5736,-0.14005 z" />
      <path
         id="text113-1-2-4"
         style="font-style:italic;font-size:9.87778px;line-height:6.1736px;font-family:Arial;-inkscape-font-specification:'Arial, Italic';text-align:center;letter-spacing:0px;word-spacing:0px;text-anchor:middle;stroke-width:0.264583"
         d="m 120.64739,254.90592 -1.47588,7.07089 h 0.87334 l 1.47587,-7.07089 z m -19.01279,1.83296 c -0.26367,0 -0.51447,0.0608 -0.75241,0.18294 -0.23473,0.11896 -0.50143,0.33457 -0.80047,0.64647 l 0.14935,-0.71365 h -0.805119 l -1.48105,7.08484 h 0.87333 l 0.57878,-2.78278 c 0.33762,0.62379 0.813159,0.93586 1.427299,0.93586 0.27653,0 0.54662,-0.0627 0.81029,-0.1881 0.26367,-0.1254 0.52411,-0.32172 0.78135,-0.5886 0.25723,-0.26688 0.47427,-0.61897 0.65112,-1.05626 0.17685,-0.44052 0.26562,-0.92765 0.26562,-1.46141 0,-0.66238 -0.16112,-1.17025 -0.48266,-1.52394 -0.32154,-0.35691 -0.72668,-0.53537 -1.21543,-0.53537 z m 22.71231,0 c -0.47909,0 -0.92426,0.12828 -1.33584,0.38551 -0.41158,0.25402 -0.74776,0.64469 -1.0082,1.17202 -0.25724,0.52411 -0.38603,1.06625 -0.38603,1.62574 0,0.42765 0.082,0.80868 0.24598,1.14308 0.1672,0.33441 0.40836,0.59003 0.72347,0.76688 0.31833,0.17363 0.66755,0.26045 1.04697,0.26045 0.60771,0 1.13004,-0.19005 1.56734,-0.56947 0.44052,-0.37942 0.72169,-0.77974 0.84388,-1.20096 l -0.84853,-0.0868 c -0.16077,0.36977 -0.38602,0.6529 -0.67541,0.84904 -0.28939,0.19614 -0.5836,0.29404 -0.88263,0.29404 -0.31833,0 -0.58843,-0.1254 -0.81029,-0.3762 -0.21865,-0.25402 -0.32814,-0.62058 -0.32814,-1.09968 0,-0.0804 0.007,-0.17007 0.0196,-0.26975 h 3.77135 c 0.045,-0.26366 0.0677,-0.52124 0.0677,-0.77204 0,-0.65595 -0.18328,-1.17346 -0.54984,-1.55288 -0.36334,-0.37942 -0.85048,-0.56896 -1.46141,-0.56896 z m 8.04499,0 c -0.40193,0 -0.79261,0.12345 -1.17203,0.37104 -0.37942,0.24437 -0.70739,0.60806 -0.98392,1.09037 -0.2733,0.48231 -0.40979,1.01091 -0.40979,1.58647 0,0.69774 0.17364,1.23794 0.5209,1.62057 0.35049,0.37942 0.78457,0.56948 1.30224,0.56948 0.51126,0 0.99357,-0.23008 1.44695,-0.68988 l -0.0868,0.41496 c -0.12861,0.61414 -0.26849,1.01251 -0.41961,1.19579 -0.23151,0.27331 -0.6111,0.41031 -1.13844,0.41031 -0.2508,0 -0.4548,-0.0357 -0.61236,-0.10645 -0.11897,-0.0547 -0.20578,-0.13184 -0.26045,-0.23151 -0.0549,-0.0997 -0.079,-0.2492 -0.0724,-0.44855 l -0.88263,-0.0816 c -0.0161,0.0932 -0.0243,0.18006 -0.0243,0.26045 0,0.26366 0.0724,0.4966 0.21704,0.69918 0.14791,0.20578 0.36977,0.36156 0.66559,0.46767 0.29904,0.10611 0.65452,0.15916 1.06609,0.15916 0.42765,0 0.80385,-0.0834 1.12861,-0.25063 0.32798,-0.1672 0.5836,-0.40353 0.76688,-0.709 0.18328,-0.30224 0.33085,-0.72525 0.44338,-1.26866 l 1.0325,-4.94336 h -0.80099 l -0.17363,0.83922 c -0.36334,-0.63665 -0.88085,-0.95498 -1.55287,-0.95498 z m 5.71541,0 c -0.59485,0 -1.08825,0.13505 -1.48053,0.40515 -0.38907,0.27009 -0.67364,0.65881 -0.8537,1.16685 l 0.88264,0.0775 c 0.1061,-0.29903 0.27491,-0.5291 0.50643,-0.68988 0.23472,-0.16398 0.5352,-0.24598 0.90175,-0.24598 0.38907,0 0.68471,0.0806 0.88728,0.24133 0.14792,0.11576 0.22221,0.27492 0.22221,0.47749 0,0.15756 -0.0338,0.35531 -0.10128,0.59325 -0.23794,0.0932 -0.632,0.1511 -1.18184,0.17363 -0.54662,0.0225 -0.91801,0.0529 -1.11415,0.0915 -0.3119,0.0579 -0.57573,0.15434 -0.79116,0.28939 -0.21544,0.13183 -0.38907,0.30885 -0.5209,0.53071 -0.12862,0.21865 -0.19275,0.47089 -0.19275,0.75706 0,0.43408 0.14469,0.79099 0.43408,1.07074 0.28938,0.27653 0.67041,0.41496 1.14308,0.41496 0.31833,0 0.61736,-0.0598 0.8971,-0.1788 0.27974,-0.12219 0.57057,-0.31316 0.87282,-0.57361 0.0192,0.25723 0.053,0.46946 0.10128,0.63666 h 0.88264 c -0.0707,-0.30225 -0.10594,-0.53376 -0.10594,-0.69454 0,-0.25402 0.0448,-0.58394 0.13488,-0.98908 l 0.28473,-1.27331 c 0.0804,-0.36013 0.12041,-0.6765 0.12041,-0.94981 0,-0.36013 -0.1413,-0.65291 -0.42426,-0.87799 -0.36978,-0.30224 -0.87138,-0.4532 -1.50482,-0.4532 z m 6.01462,0 c -0.29903,0 -0.57734,0.069 -0.83458,0.20722 -0.25402,0.13827 -0.54341,0.38907 -0.86816,0.75241 l 0.17828,-0.84387 h -0.87281 l -1.07074,5.12217 h 0.87282 l 0.50643,-2.42156 c 0.10932,-0.5209 0.24919,-0.92122 0.41961,-1.20096 0.17041,-0.28296 0.39084,-0.50287 0.66094,-0.66043 0.27331,-0.15756 0.53376,-0.23668 0.78135,-0.23668 0.16721,0 0.30225,0.0516 0.40514,0.15452 0.10611,0.10289 0.15917,0.23793 0.15917,0.40514 0,0.0997 -0.0255,0.26706 -0.077,0.50178 l -0.72347,3.45819 h 0.87281 l 0.5209,-2.48409 c 0.11254,-0.53055 0.24277,-0.92265 0.39067,-1.17667 0.15113,-0.25724 0.36191,-0.46463 0.63201,-0.62219 0.2701,-0.15756 0.53537,-0.23668 0.79581,-0.23668 0.19293,0 0.34245,0.0482 0.44856,0.1447 0.1061,0.0965 0.15916,0.22863 0.15916,0.39584 0,0.11897 -0.0309,0.31672 -0.092,0.59325 l -0.70384,3.38584 h 0.87282 l 0.68988,-3.29903 c 0.0739,-0.36334 0.11059,-0.62379 0.11059,-0.78135 0,-0.36656 -0.10755,-0.65112 -0.32298,-0.85369 -0.21222,-0.20257 -0.53198,-0.30386 -0.95963,-0.30386 -0.31833,0 -0.62219,0.0801 -0.91158,0.24081 -0.28617,0.15756 -0.55965,0.39728 -0.8201,0.71882 -0.0675,-0.30224 -0.20883,-0.53714 -0.42426,-0.70435 -0.21222,-0.17041 -0.4775,-0.25528 -0.79582,-0.25528 z m 7.67808,0 c -0.4791,0 -0.92426,0.12828 -1.33583,0.38551 -0.41158,0.25402 -0.74776,0.64469 -1.00821,1.17202 -0.25723,0.52411 -0.38551,1.06625 -0.38551,1.62574 0,0.42765 0.082,0.80868 0.24598,1.14308 0.1672,0.33441 0.40836,0.59003 0.72347,0.76688 0.31833,0.17363 0.66703,0.26045 1.04645,0.26045 0.60771,0 1.13005,-0.19005 1.56735,-0.56947 0.44051,-0.37942 0.72221,-0.77974 0.84439,-1.20096 l -0.84904,-0.0868 c -0.16077,0.36977 -0.38602,0.6529 -0.67541,0.84904 -0.28939,0.19614 -0.5836,0.29404 -0.88264,0.29404 -0.31832,0 -0.58842,-0.1254 -0.81028,-0.3762 -0.21865,-0.25402 -0.32763,-0.62058 -0.32763,-1.09968 0,-0.0804 0.006,-0.17007 0.0191,-0.26975 h 3.77186 c 0.045,-0.26366 0.0672,-0.52124 0.0672,-0.77204 0,-0.65595 -0.18328,-1.17346 -0.54984,-1.55288 -0.36334,-0.37942 -0.85047,-0.56896 -1.46141,-0.56896 z m -46.86122,0.11576 -0.61753,2.95641 c -0.10933,0.52411 -0.16382,0.89406 -0.16382,1.10949 0,0.32797 0.12058,0.60576 0.36174,0.83406 0.24436,0.22508 0.56413,0.33796 0.95963,0.33796 0.64309,0 1.27153,-0.34726 1.88567,-1.0418 l -0.19275,0.92605 h 0.80564 l 1.07073,-5.12217 h -0.87333 l -0.46302,2.21382 c -0.0932,0.44372 -0.17524,0.75384 -0.24598,0.93069 -0.10611,0.27652 -0.24403,0.51625 -0.41445,0.71882 -0.1672,0.20257 -0.36833,0.36317 -0.60306,0.48214 -0.23151,0.11897 -0.46929,0.17828 -0.71365,0.17828 -0.2283,0 -0.40193,-0.0531 -0.5209,-0.15916 -0.11576,-0.10933 -0.17363,-0.26028 -0.17363,-0.4532 0,-0.15112 0.0289,-0.36334 0.0868,-0.63666 l 0.68472,-3.27473 z m 5.19452,0 -0.15452,0.72812 h 1.90531 c 0.18006,0 0.47715,-0.0207 0.89194,-0.0625 -0.24116,0.23473 -0.45964,0.46141 -0.65578,0.68006 l -2.75383,3.1011 -0.14005,0.67542 h 4.12378 l 0.15917,-0.76688 h -2.0159 c -0.18006,0 -0.51286,0.0145 -0.99839,0.0434 0.31189,-0.30868 0.54628,-0.5518 0.70383,-0.72864 l 2.77813,-3.12023 0.11575,-0.54983 z m 4.93871,0 -0.15451,0.72812 h 1.90531 c 0.18006,0 0.47766,-0.0207 0.89245,-0.0625 -0.24116,0.23473 -0.46015,0.46141 -0.65629,0.68006 l -2.75384,3.1011 -0.14004,0.67542 h 4.12378 l 0.15916,-0.76688 h -2.01589 c -0.18006,0 -0.51286,0.0145 -0.99839,0.0434 0.3119,-0.30868 0.54679,-0.5518 0.70435,-0.72864 l 2.77812,-3.12023 0.11576,-0.54983 z m 9.29453,0.5643 c 0.34404,0 0.62523,0.11719 0.84387,0.35192 0.21865,0.23151 0.32815,0.56574 0.32815,1.00304 0,0.0386 -0.002,0.10324 -0.005,0.19327 h -2.87424 c 0.15112,-0.51769 0.37924,-0.90549 0.68471,-1.16272 0.30868,-0.25723 0.64968,-0.38551 1.02268,-0.38551 z m 27.4531,0 c 0.34405,0 0.62523,0.11719 0.84388,0.35192 0.21865,0.23151 0.32814,0.56574 0.32814,1.00304 0,0.0386 -0.002,0.10324 -0.005,0.19327 h -2.87424 c 0.15113,-0.51769 0.37925,-0.90549 0.68471,-1.16272 0.30868,-0.25723 0.64969,-0.38551 1.02268,-0.38551 z m -50.44033,0.0238 c 0.30868,0 0.56574,0.11913 0.77153,0.35708 0.209,0.23473 0.31367,0.56896 0.31367,1.00304 0,0.58842 -0.15434,1.16576 -0.46302,1.73168 -0.30868,0.5627 -0.71382,0.84387 -1.21543,0.84387 -0.24116,0 -0.45337,-0.0641 -0.63665,-0.19275 -0.183279,-0.12862 -0.315459,-0.29743 -0.395839,-0.50643 -0.0547,-0.14791 -0.0816,-0.41318 -0.0816,-0.79582 0,-0.2508 0.053,-0.54501 0.15916,-0.88263 0.10611,-0.33762 0.239199,-0.62218 0.399979,-0.85369 0.16398,-0.23473 0.34101,-0.4098 0.53071,-0.52555 0.18972,-0.11898 0.39568,-0.1788 0.61754,-0.1788 z m 31.0317,0 c 0.34404,0 0.632,0.12539 0.86351,0.3762 0.23473,0.24759 0.35192,0.58234 0.35192,1.00356 0,0.38263 -0.0883,0.78438 -0.2651,1.20561 -0.17364,0.42122 -0.40176,0.73329 -0.68472,0.93586 -0.28296,0.19936 -0.56752,0.29869 -0.85369,0.29869 -0.21865,0 -0.41835,-0.0641 -0.59842,-0.19276 -0.17684,-0.13183 -0.31333,-0.32137 -0.40979,-0.56895 -0.0675,-0.17685 -0.10129,-0.44069 -0.10129,-0.79117 0,-0.1672 0.0434,-0.41318 0.13023,-0.73794 0.09,-0.32476 0.22025,-0.60307 0.39067,-0.83457 0.17364,-0.23473 0.36031,-0.40836 0.55966,-0.5209 0.19936,-0.11576 0.4048,-0.17363 0.61702,-0.17363 z m 6.53086,1.9389 c -0.0868,0.50481 -0.20739,0.89406 -0.36173,1.16737 -0.15434,0.27331 -0.36513,0.48696 -0.632,0.6413 -0.26688,0.15113 -0.54519,0.22686 -0.83458,0.22686 -0.3119,0 -0.55306,-0.0786 -0.72347,-0.23616 -0.16721,-0.15755 -0.25063,-0.35869 -0.25063,-0.60307 0,-0.18328 0.0531,-0.35065 0.15916,-0.50177 0.10611,-0.15113 0.26384,-0.26011 0.47284,-0.32763 0.20901,-0.0708 0.56736,-0.12864 1.07539,-0.17364 0.32797,-0.0289 0.56091,-0.0564 0.69918,-0.0822 0.14148,-0.0258 0.27366,-0.0629 0.39584,-0.1111 z" />
    </g>
    <g
       id="g2"
       transform="matrix(0.81321207,0,0,0.81321207,-15.493728,193.50208)">
      <path
         id="rect879"
         style="fill:#07881d;fill-opacity:1;stroke:none;stroke-width:7.57036;paint-order:markers stroke fill;filter:url(#filter3763)"
         d="m 54.59236,32.309893 v 18.281946 26.282978 a 4,4 135 0 1 -4,4 H 32.310416 a 4,4 135 0 0 -4,4 l 0,18.281953 a 4,4 45 0 0 4,4 H 50.59236 76.8743 a 4,4 135 0 0 4,-4 V 84.874817 58.591839 a 4,4 135 0 1 4,-4 l 18.28195,0 a 4,4 135 0 0 4,-4 V 32.309893 a 4,4 45 0 0 -4,-4 l -18.28195,0 -26.28194,0 a 4,4 135 0 0 -4,4 z"
         inkscape:path-effect="#path-effect1170"
         inkscape:original-d="M 54.59236,28.309893 V 54.591839 80.874817 H 28.310416 V 107.15677 H 54.59236 80.8743 V 80.874817 54.591839 h 26.28195 V 28.309893 H 80.8743 Z"
         transform="matrix(0.24191523,0,0,0.24191523,29.793495,51.187585)" />
      <path
         d="m 76.141888,65.104528 q -0.1905,0.6096 -0.5842,1.2827 -0.3937,0.6604 -1.0922,1.1176 -0.6985,0.4699 -1.8034,0.4699 -1.4224,0 -2.2606,-0.6223 -0.8255,-0.6223 -1.1811,-1.6383 -0.3556,-1.016 -0.3556,-2.2098 0,-0.6223 0.0127,-1.4732 0.0254,-0.8509 0.0508,-1.7653 0.0254,-0.9144 0.0508,-1.7653 0.0381,-0.8636 0.0635,-1.5113 0.0254,-0.6604 0.0381,-0.9779 -1.2446,0.127 -2.159,0.2794 -0.901699,0.1397 -1.155699,0.2159 -0.0762,-0.4064 -0.127,-0.8509 -0.0381,-0.4572 -0.0635,-0.8255 -0.0127,-0.3683 -0.0127,-0.4953 0.7112,-0.1016 1.650999,-0.2159 0.9525,-0.1143 1.8796,-0.1778 0.0127,-0.4953 0.0127,-1.2192 0,-0.7366 0,-1.3843 -0.0127,-0.5461 -0.0508,-1.0541 -0.0381,-0.5207 -0.0635,-0.8636 l 2.3876,-0.1397 q 0.0254,0.1905 0.0508,0.9144 0.0381,0.7112 0.0381,1.7272 0,0.381 0,0.9271 0,0.5334 0,0.9525 0.381,-0.0254 0.9398,-0.0508 0.5588,-0.0254 0.9017,-0.0254 0.5969,-0.0127 1.143,-0.0127 0.5461,0 0.9398,0.0127 0.3937,0.0127 0.4826,0.0254 0.0635,0.3429 0.0762,0.9525 0.0254,0.6096 0.0254,1.016 -0.127,-0.0127 -0.8763,-0.0127 -0.7366,-0.0127 -1.4605,0 -0.5207,0.0127 -1.143,0.0508 -0.6223,0.0254 -1.0668,0.0508 -0.0127,0.3302 -0.0508,0.9779 -0.0254,0.6477 -0.0508,1.4605 -0.0254,0.8001 -0.0508,1.6383 -0.0254,0.8255 -0.0381,1.5494 -0.0127,0.7112 -0.0127,1.1557 0,0.8001 0.0889,1.524 0.1016,0.7239 0.4572,1.1938 0.3683,0.4572 1.1557,0.4572 0.5334,0 0.8636,-0.381 0.3302,-0.381 0.508,-0.8763 0.1905,-0.4953 0.2794,-0.8255 0.1143,0.127 0.3302,0.3429 0.2286,0.2032 0.4826,0.4318 0.2667,0.2286 0.4699,0.4064 0.2159,0.1778 0.2794,0.2413 z"
         id="text1"
         style="font-size:25.4px;line-height:1.25;font-family:Grandstander;-inkscape-font-specification:'Grandstander, Normal';stroke-width:0.264583"
         transform="rotate(11.339701)"
         aria-label="t" />
      <path
         d="m 88.35979,65.177589 q -0.254,0.3556 -0.7493,0.8255 -0.4953,0.4572 -1.2319,0.889 -0.7366,0.4191 -1.7145,0.6985 -0.9779,0.2794 -2.2098,0.2794 -1.905,0 -3.3401,-0.7747 -1.4351,-0.7747 -2.2225,-2.2606 -0.7874,-1.4986 -0.7874,-3.6449 0,-2.0574 0.8509,-3.5687 0.8636,-1.511299 2.3622,-2.336799 1.4986,-0.8255 3.4417,-0.8255 2.4384,0 3.7973,1.4859 1.3716,1.485899 1.524,3.987799 0.0254,0.4064 0.0254,0.7874 0,0.3683 -0.0381,0.762 -0.1651,-0.0127 -0.6858,-0.0254 -0.508,-0.0254 -1.1938,-0.0381 -0.6858,-0.0254 -1.3843,-0.0381 -0.6858,-0.0254 -1.1811,-0.0254 -1.2827,0 -2.6289,0.127 -1.3462,0.127 -2.4003,0.2921 0.0127,0.3302 0.0635,0.6477 0.0508,0.3175 0.127,0.6096 0.2159,0.7747 0.7874,1.3462 0.5715,0.5588 1.3589,0.8636 0.8001,0.3048 1.6891,0.3048 0.9398,0 1.6383,-0.2794 0.6985,-0.2794 1.1938,-0.6858 0.508,-0.4064 0.8128,-0.7747 0.3175,-0.3683 0.4826,-0.5461 0.0762,0.0635 0.2921,0.2794 0.2286,0.2032 0.4826,0.4953 0.2667,0.2921 0.4953,0.5969 0.2413,0.2921 0.3429,0.5461 z m -9.7282,-5.1054 q 0.9144,-0.1524 2.1463,-0.2667 1.2446,-0.1143 2.8194,-0.1143 0.8255,0 1.397,0.0254 0.5842,0.0127 0.8128,0.0381 0,-0.4191 -0.1016,-0.889 -0.1397,-0.635 -0.508,-1.2319 -0.3683,-0.5969 -1.0033,-0.990599 -0.6223,-0.4064 -1.5748,-0.4064 -1.0922,0 -1.9939,0.4699 -0.889,0.457199 -1.4224,1.320799 -0.5334,0.8509 -0.5715,2.0447 z"
         id="text1-5"
         style="font-size:25.4px;line-height:1.25;font-family:Grandstander;-inkscape-font-specification:'Grandstander, Normal';stroke-width:0.264583"
         transform="rotate(11.339701)"
         aria-label="e&#10;" />
      <path
         d="m 99.087712,68.027461 q -0.2794,-0.4826 -0.7747,-1.2192 -0.4953,-0.7366 -1.1049,-1.5621 -0.6096,-0.8382 -1.2446,-1.6383 -0.635,-0.8001 -1.1938,-1.4224 -0.5461,-0.6223 -0.9144,-0.9144 -0.2286,0.1778 -0.635,0.4953 -0.3937,0.3175 -0.7366,0.6096 -0.3429,0.2794 -0.4445,0.3937 -0.0127,0.5461 -0.0508,1.3081 -0.0254,0.7493 -0.0635,1.5113 -0.0381,0.7493 -0.0762,1.3716 -0.0254,0.6096 -0.0508,0.8763 -0.2794,0.0254 -0.5842,0.0508 -0.3048,0.0254 -0.6096,0.0254 -0.3683,0 -0.7239,-0.0381 -0.3556,-0.0254 -0.635,-0.0635 0.0254,-0.3048 0.0635,-1.3335 0.0508,-1.0287 0.1143,-2.5273 0.0762,-1.5113 0.1524,-3.2766 0.0762,-1.777999 0.1397,-3.581399 0.0762,-1.8161 0.127,-3.429 0.0635,-1.6256 0.1016,-2.8194 0.0381,-1.2065 0.0381,-1.7526 0.2413,-0.0127 0.5207,-0.0254 0.2921,-0.0127 0.5842,-0.0127 0.381,0 0.7239,0.0381 0.3556,0.0254 0.635,0.1143 0,0.9525 -0.0254,2.1844 -0.0254,1.2192 -0.0635,2.54 -0.0254,1.3081 -0.0762,2.5273 -0.0381,1.2065 -0.0762,2.1336 -0.0254,0.9144 -0.0635,1.3589 0.7366,-0.7493 1.778,-1.524 1.0414,-0.7874 2.1463,-1.5113 1.1176,-0.7239 2.0955,-1.3081 0.9779,-0.5969 1.5875,-0.9525 0.1524,0.1651 0.342898,0.4191 0.2032,0.2413 0.3937,0.5207 0.2032,0.2794 0.3683,0.5334 0.1778,0.2413 0.2667,0.4064 -0.4318,0.2413 -1.181098,0.6858 -0.7493,0.4318 -1.5748,0.9398 -0.8255,0.508 -1.5621,0.9906 -0.7366,0.4699 -1.1557,0.7874 0.2794,0.215899 0.7874,0.749299 0.508,0.5334 1.143,1.2954 0.6477,0.7493 1.3335,1.6256 0.6858,0.8763 1.333498,1.7653 0.6477,0.889 1.143,1.7018 -0.1143,0.0762 -0.4191,0.2159 -0.3048,0.127 -0.6731,0.2794 -0.368298,0.1524 -0.711198,0.2794 -0.3302,0.127 -0.4953,0.1778 z"
         id="text1-0"
         style="font-size:25.4px;line-height:1.25;font-family:Grandstander;-inkscape-font-specification:'Grandstander, Normal';stroke-width:0.264583"
         transform="rotate(11.339701)"
         aria-label="k" />
      <path
         d="m 124.76606,28.845078 q -1.1811,0 -2.3495,-0.3302 -1.1684,-0.3302 -2.1336,-0.8763 -0.9525,-0.5588 -1.524,-1.2319 0.0889,-0.1778 0.254,-0.4826 0.1651,-0.3048 0.381,-0.635 0.2159,-0.3429 0.4318,-0.6223 0.2159,-0.2921 0.381,-0.4445 0.5461,0.6096 1.3081,1.1811 0.762,0.5588 1.6383,0.9144 0.8763,0.3429 1.7526,0.3429 0.8382,0 1.5113,-0.2413 0.6858,-0.254 1.0795,-0.7239 0.4064,-0.4699 0.4064,-1.1303 0,-0.762 -0.4826,-1.3081 -0.4826,-0.5588 -1.2954,-0.9779 -0.8128,-0.4318 -1.7907,-0.7874 -1.1811,-0.4318 -2.159,-0.9398 -0.9652,-0.5207 -1.5494,-1.2954 -0.5715,-0.7747 -0.5715,-1.9685 0,-1.2192 0.6858,-2.032 0.6985,-0.8128 1.8288,-1.2319 1.143,-0.4191 2.4638,-0.4191 1.4732,0 2.7051,0.381 1.2446,0.3683 1.905,0.8636 -0.0508,0.2159 -0.2159,0.5715 -0.1651,0.3429 -0.381,0.6985 -0.2159,0.3556 -0.4445,0.6477 -0.6096,-0.4064 -1.4859,-0.7747 -0.8763,-0.3683 -1.905,-0.3683 -0.6858,0 -1.3208,0.1651 -0.635,0.1524 -1.0414,0.5207 -0.4064,0.3683 -0.4064,1.0033 0,0.5461 0.3937,0.9779 0.4064,0.4318 1.0922,0.7747 0.6858,0.3302 1.5494,0.635 1.0414,0.3556 1.9304,0.8001 0.889,0.4318 1.5367,1.0033 0.6604,0.5588 1.0287,1.2954 0.3683,0.7239 0.3683,1.6383 0,1.4605 -0.7493,2.4384 -0.7493,0.9779 -2.0066,1.4732 -1.2573,0.4953 -2.8194,0.4953 z"
         id="text1-8"
         style="font-size:25.4px;line-height:1.25;font-family:Grandstander;-inkscape-font-specification:'Grandstander, Normal';stroke-width:0.264583"
         transform="rotate(31.812474)"
         aria-label="s" />
    </g>
    <text
       xml:space="preserve"
       x="204.56444"
       y="246.05809"
       style="font-style:normal;font-variant:normal;font-weight:400;font-stretch:normal;font-size:12.7002px;line-height:1.25;font-family:'Fira Mono';-inkscape-font-specification:'Fira Mono, Normal';font-variant-ligatures:normal;font-variant-caps:normal;font-variant-numeric:normal;font-variant-east-asian:normal;text-align:center;letter-spacing:0;word-spacing:0;text-anchor:middle;stroke-width:0.0700051"
       id="HeightText"
       inkscape:label="HeightText"><tspan
         x="204.56444"
         y="246.05809"
         style="font-style:normal;font-variant:normal;font-weight:400;font-stretch:normal;font-size:12.7002px;font-family:'Fira Mono';-inkscape-font-specification:'Fira Mono, Normal';font-variant-ligatures:normal;font-variant-caps:normal;font-variant-numeric:normal;font-variant-east-asian:normal;stroke-width:0.0700051"
         id="tspan6">123.45m</tspan></text>
    <g
       id="GoldStar1"
       inkscape:label="GoldStar1"
       style="font-style:italic;font-size:10.5833px;line-height:13.2292px;font-family:Arial;-inkscape-font-specification:'Arial, Italic';text-align:center;letter-spacing:0;word-spacing:0;text-anchor:middle;stroke-width:0.264583"
       transform="matrix(1.0000123,0,0,1.0000123,-37.038545,50.825685)">
      <path
         d="m -379.63,-100.9 c 4.02,-4.01 48.14,19.11 53.75,18.23 5.6,-0.9 40.42,-36.52 45.48,-33.95 5.05,2.58 -3.3,51.7 -0.73,56.75 2.58,5.06 47.22,27.16 46.33,32.77 -0.88,5.6 -50.17,12.83 -54.19,16.84 -4,4.01 -11.24,53.3 -16.84,54.2 -5.6,0.88 -27.71,-43.77 -32.77,-46.34 -5.05,-2.58 -54.17,5.78 -56.74,0.72 -2.58,-5.05 33.05,-39.87 33.94,-45.48 0.89,-5.6 -22.24,-49.73 -18.23,-53.74 z"
         style="fill:#f5d63d;fill-opacity:1;stroke:#999999;stroke-width:0;stroke-linecap:round;stroke-linejoin:round"
         transform="matrix(0.0736,0.0736,-0.0736,0.0736,244.88,238.57)"
         id="path7" />
      <path
         d="m -342.08,362.1 -25.04,-34.47 c -0.29,0.2 -0.69,0.37 -1.26,0.54 -0.62,0.18 -1.39,0.35 -2.29,0.5 -1.8,0.32 -4.13,0.59 -6.8,0.84 -5.35,0.5 -12.06,0.9 -18.68,1.38 -3.32,0.24 -6.6,0.5 -9.69,0.78 -3.09,0.3 -5.97,0.62 -8.46,1 -1.25,0.18 -2.4,0.39 -3.43,0.6 -1.03,0.22 -1.94,0.46 -2.71,0.71 -0.77,0.26 -1.4,0.53 -1.86,0.82 -0.23,0.15 -0.42,0.3 -0.57,0.46 -0.14,0.16 -0.24,0.32 -0.3,0.49 z m 0.01,-85.36 v 85.35 l 0.29,-0.1 25,-34.4 c -0.29,-0.21 -0.61,-0.6 -0.98,-1.12 -0.36,-0.54 -0.76,-1.22 -1.18,-2.03 a 91.7,91.7 0 0 1 -2.9,-6.21 c -2.13,-4.93 -4.6,-11.19 -7.1,-17.34 -1.24,-3.08 -2.5,-6.12 -3.73,-8.97 a 152.48,152.48 0 0 0 -3.55,-7.74 60.03,60.03 0 0 0 -1.64,-3.07 c -0.53,-0.91 -1.04,-1.7 -1.52,-2.36 a 8.55,8.55 0 0 0 -1.35,-1.52 c -0.2,-0.17 -0.41,-0.3 -0.6,-0.4 -0.2,-0.09 -0.39,-0.13 -0.57,-0.13 -0.05,0 -0.11,0.03 -0.17,0.04 z m 0.29,85.26 -0.12,0.15 40.64,13.2 c 0.11,-0.33 0.37,-0.76 0.77,-1.27 0.39,-0.5 0.92,-1.1 1.55,-1.75 1.28,-1.32 3,-2.9 5.02,-4.68 4.03,-3.54 9.22,-7.82 14.3,-12.1 2.54,-2.14 5.05,-4.27 7.37,-6.32 2.33,-2.05 4.47,-4 6.27,-5.78 0.9,-0.88 1.7,-1.72 2.41,-2.5 0.7,-0.79 1.3,-1.52 1.78,-2.17 0.47,-0.66 0.82,-1.25 1.02,-1.76 0.1,-0.25 0.17,-0.49 0.2,-0.7 0.02,-0.21 0,-0.4 -0.05,-0.57 -0.01,-0.04 -0.05,-0.07 -0.06,-0.1 z"
         style="fill:#f5d63d;fill-opacity:1;stroke:#999999;stroke-width:0;stroke-linecap:round;stroke-linejoin:round"
         transform="matrix(0.083,0,0,0.083,252.74,182.07)"
         id="path8" />
      <path
         d="m -342.07,362.11 -0.01,-0.02 -40.51,13.17 c 0,0.03 0.05,0.07 0.06,0.1 0.1,0.34 0.15,0.84 0.13,1.48 -0.02,0.64 -0.1,1.43 -0.23,2.33 a 91.73,91.73 0 0 1 -1.3,6.74 c -1.18,5.23 -2.87,11.74 -4.46,18.19 -0.8,3.22 -1.58,6.43 -2.26,9.45 -0.67,3.02 -1.26,5.86 -1.67,8.35 -0.2,1.25 -0.36,2.4 -0.47,3.45 a 26.22,26.22 0 0 0 -0.17,2.8 c 0,0.81 0.07,1.5 0.2,2.02 0.07,0.27 0.16,0.5 0.26,0.68 0.1,0.19 0.23,0.34 0.37,0.44 l 50.06,-68.9 z m 50.3,69.22 -50.2,-69.08 -0.1,0.14 v 42.53 c 0.05,0 0.13,-0.04 0.17,-0.04 0.36,0 0.85,0.12 1.45,0.34 0.6,0.21 1.33,0.53 2.15,0.93 1.65,0.81 3.7,1.96 6,3.33 4.62,2.73 10.29,6.35 15.93,9.86 2.81,1.75 5.62,3.48 8.29,5.06 2.67,1.58 5.19,3.01 7.43,4.17 1.12,0.58 2.17,1.1 3.13,1.52 0.96,0.43 1.84,0.78 2.61,1.02 0.77,0.25 1.44,0.4 1.99,0.43 0.27,0.02 0.51,0 0.72,-0.03 0.17,-0.03 0.3,-0.1 0.43,-0.18 z"
         style="fill:#f5d63d;fill-opacity:1;stroke:#999999;stroke-width:0;stroke-linecap:round;stroke-linejoin:round"
         transform="matrix(0.083,0,0,0.083,252.74,182.07)"
         id="path9" />
      <path
         d="m -342.07,276.74 c -0.13,0.02 -0.25,0.03 -0.38,0.1 -0.2,0.08 -0.4,0.22 -0.61,0.4 -0.42,0.34 -0.88,0.85 -1.36,1.5 -0.47,0.66 -0.98,1.46 -1.5,2.37 -0.53,0.91 -1.08,1.94 -1.65,3.07 -1.13,2.26 -2.33,4.9 -3.56,7.74 -1.22,2.85 -2.48,5.9 -3.73,8.97 -2.5,6.15 -4.96,12.41 -7.09,17.34 a 91.7,91.7 0 0 1 -2.9,6.21 c -0.42,0.81 -0.82,1.5 -1.18,2.03 -0.37,0.53 -0.7,0.9 -0.98,1.12 l -0.1,0.04 25.03,34.46 h 0.01 z m 0.29,85.26 81.1,-26.35 a 1.34,1.34 0 0 0 -0.24,-0.4 c -0.15,-0.15 -0.34,-0.3 -0.57,-0.45 a 8.56,8.56 0 0 0 -1.86,-0.82 c -0.77,-0.25 -1.68,-0.49 -2.71,-0.7 a 60.03,60.03 0 0 0 -3.43,-0.62 c -2.5,-0.37 -5.38,-0.7 -8.46,-0.99 -3.09,-0.29 -6.38,-0.54 -9.69,-0.78 -6.62,-0.47 -13.33,-0.88 -18.68,-1.38 -2.67,-0.25 -5,-0.52 -6.8,-0.84 -0.9,-0.15 -1.67,-0.32 -2.3,-0.5 a 4.67,4.67 0 0 1 -1.36,-0.58 z m -0.3,0.1 v 0 0 l -81.09,-26.35 c -0.05,0.17 -0.07,0.36 -0.04,0.57 0.02,0.21 0.09,0.45 0.19,0.7 0.2,0.51 0.55,1.1 1.02,1.76 a 26.2,26.2 0 0 0 1.78,2.16 c 0.7,0.79 1.52,1.63 2.41,2.51 1.8,1.78 3.94,3.73 6.27,5.78 2.32,2.05 4.83,4.18 7.37,6.32 5.08,4.28 10.27,8.56 14.3,12.1 a 91.68,91.68 0 0 1 5.02,4.68 c 0.63,0.66 1.16,1.24 1.55,1.75 0.37,0.47 0.58,0.85 0.7,1.18 z m -50.05,69.19 c 0.15,0.1 0.33,0.18 0.54,0.22 0.2,0.04 0.45,0.05 0.72,0.03 a 8.55,8.55 0 0 0 1.99,-0.43 c 0.77,-0.24 1.65,-0.59 2.6,-1.02 0.97,-0.43 2.02,-0.94 3.14,-1.52 2.24,-1.16 4.76,-2.59 7.43,-4.17 2.66,-1.58 5.47,-3.3 8.3,-5.06 5.63,-3.51 11.3,-7.13 15.92,-9.86 a 91.71,91.71 0 0 1 6,-3.33 c 0.82,-0.4 1.54,-0.72 2.15,-0.93 0.53,-0.2 0.93,-0.27 1.27,-0.3 V 362.4 Z m 100.36,0.04 c 0.03,-0.01 0.08,-0.02 0.1,-0.04 0.15,-0.1 0.27,-0.25 0.38,-0.44 0.1,-0.19 0.19,-0.41 0.25,-0.68 0.14,-0.53 0.2,-1.2 0.2,-2.02 0.01,-0.81 -0.05,-1.75 -0.16,-2.8 -0.1,-1.05 -0.27,-2.2 -0.47,-3.45 -0.41,-2.49 -1,-5.33 -1.68,-8.35 -0.67,-3.02 -1.45,-6.23 -2.25,-9.45 -1.6,-6.45 -3.28,-12.96 -4.45,-18.2 a 91.72,91.72 0 0 1 -1.31,-6.73 c -0.13,-0.9 -0.21,-1.69 -0.23,-2.33 -0.02,-0.64 0.02,-1.14 0.13,-1.48 0,0 0,0 0,0 l -40.64,-13.2 -0.07,0.1 z"
         style="fill:#fbeb5b;fill-opacity:1;stroke:#999999;stroke-width:0;stroke-linecap:round;stroke-linejoin:round"
         transform="matrix(0.083,0,0,0.083,252.74,182.07)"
         id="path10" />
    </g>
    <g
       style="font-style:italic;font-size:10.5833px;line-height:13.2292px;font-family:Arial;-inkscape-font-specification:'Arial, Italic';text-align:center;letter-spacing:0;word-spacing:0;text-anchor:middle;stroke-width:0.264583"
       id="GoldStar2"
       inkscape:label="GoldStar2"
       transform="matrix(1.0000123,0,0,1.0000123,-37.038545,50.825685)">
      <path
         d="m -379.63,-100.9 c 4.02,-4.01 48.14,19.11 53.75,18.23 5.6,-0.9 40.42,-36.52 45.48,-33.95 5.05,2.58 -3.3,51.7 -0.73,56.75 2.58,5.06 47.22,27.16 46.33,32.77 -0.88,5.6 -50.17,12.83 -54.19,16.84 -4,4.01 -11.24,53.3 -16.84,54.2 -5.6,0.88 -27.71,-43.77 -32.77,-46.34 -5.05,-2.58 -54.17,5.78 -56.74,0.72 -2.58,-5.05 33.05,-39.87 33.94,-45.48 0.89,-5.6 -22.24,-49.73 -18.23,-53.74 z"
         style="fill:#f5d63d;fill-opacity:1;stroke:#999999;stroke-width:0;stroke-linecap:round;stroke-linejoin:round"
         transform="matrix(0.0736,0.0736,-0.0736,0.0736,261.82,238.57)"
         id="path11" />
      <path
         d="m -342.08,362.1 -25.04,-34.47 c -0.29,0.2 -0.69,0.37 -1.26,0.54 -0.62,0.18 -1.39,0.35 -2.29,0.5 -1.8,0.32 -4.13,0.59 -6.8,0.84 -5.35,0.5 -12.06,0.9 -18.68,1.38 -3.32,0.24 -6.6,0.5 -9.69,0.78 -3.09,0.3 -5.97,0.62 -8.46,1 -1.25,0.18 -2.4,0.39 -3.43,0.6 -1.03,0.22 -1.94,0.46 -2.71,0.71 -0.77,0.26 -1.4,0.53 -1.86,0.82 -0.23,0.15 -0.42,0.3 -0.57,0.46 -0.14,0.16 -0.24,0.32 -0.3,0.49 z m 0.01,-85.36 v 85.35 l 0.29,-0.1 25,-34.4 c -0.29,-0.21 -0.61,-0.6 -0.98,-1.12 -0.36,-0.54 -0.76,-1.22 -1.18,-2.03 a 91.7,91.7 0 0 1 -2.9,-6.21 c -2.13,-4.93 -4.6,-11.19 -7.1,-17.34 -1.24,-3.08 -2.5,-6.12 -3.73,-8.97 a 152.48,152.48 0 0 0 -3.55,-7.74 60.03,60.03 0 0 0 -1.64,-3.07 c -0.53,-0.91 -1.04,-1.7 -1.52,-2.36 a 8.55,8.55 0 0 0 -1.35,-1.52 c -0.2,-0.17 -0.41,-0.3 -0.6,-0.4 -0.2,-0.09 -0.39,-0.13 -0.57,-0.13 -0.05,0 -0.11,0.03 -0.17,0.04 z m 0.29,85.26 -0.12,0.15 40.64,13.2 c 0.11,-0.33 0.37,-0.76 0.77,-1.27 0.39,-0.5 0.92,-1.1 1.55,-1.75 1.28,-1.32 3,-2.9 5.02,-4.68 4.03,-3.54 9.22,-7.82 14.3,-12.1 2.54,-2.14 5.05,-4.27 7.37,-6.32 2.33,-2.05 4.47,-4 6.27,-5.78 0.9,-0.88 1.7,-1.72 2.41,-2.5 0.7,-0.79 1.3,-1.52 1.78,-2.17 0.47,-0.66 0.82,-1.25 1.02,-1.76 0.1,-0.25 0.17,-0.49 0.2,-0.7 0.02,-0.21 0,-0.4 -0.05,-0.57 -0.01,-0.04 -0.05,-0.07 -0.06,-0.1 z"
         style="fill:#f5d63d;fill-opacity:1;stroke:#999999;stroke-width:0;stroke-linecap:round;stroke-linejoin:round"
         transform="matrix(0.083,0,0,0.083,269.67,182.07)"
         id="path12" />
      <path
         d="m -342.07,362.11 -0.01,-0.02 -40.51,13.17 c 0,0.03 0.05,0.07 0.06,0.1 0.1,0.34 0.15,0.84 0.13,1.48 -0.02,0.64 -0.1,1.43 -0.23,2.33 a 91.73,91.73 0 0 1 -1.3,6.74 c -1.18,5.23 -2.87,11.74 -4.46,18.19 -0.8,3.22 -1.58,6.43 -2.26,9.45 -0.67,3.02 -1.26,5.86 -1.67,8.35 -0.2,1.25 -0.36,2.4 -0.47,3.45 a 26.22,26.22 0 0 0 -0.17,2.8 c 0,0.81 0.07,1.5 0.2,2.02 0.07,0.27 0.16,0.5 0.26,0.68 0.1,0.19 0.23,0.34 0.37,0.44 l 50.06,-68.9 z m 50.3,69.22 -50.2,-69.08 -0.1,0.14 v 42.53 c 0.05,0 0.13,-0.04 0.17,-0.04 0.36,0 0.85,0.12 1.45,0.34 0.6,0.21 1.33,0.53 2.15,0.93 1.65,0.81 3.7,1.96 6,3.33 4.62,2.73 10.29,6.35 15.93,9.86 2.81,1.75 5.62,3.48 8.29,5.06 2.67,1.58 5.19,3.01 7.43,4.17 1.12,0.58 2.17,1.1 3.13,1.52 0.96,0.43 1.84,0.78 2.61,1.02 0.77,0.25 1.44,0.4 1.99,0.43 0.27,0.02 0.51,0 0.72,-0.03 0.17,-0.03 0.3,-0.1 0.43,-0.18 z"
         style="fill:#f5d63d;fill-opacity:1;stroke:#999999;stroke-width:0;stroke-linecap:round;stroke-linejoin:round"
         transform="matrix(0.083,0,0,0.083,269.67,182.07)"
         id="path13" />
      <path
         d="m -342.07,276.74 c -0.13,0.02 -0.25,0.03 -0.38,0.1 -0.2,0.08 -0.4,0.22 -0.61,0.4 -0.42,0.34 -0.88,0.85 -1.36,1.5 -0.47,0.66 -0.98,1.46 -1.5,2.37 -0.53,0.91 -1.08,1.94 -1.65,3.07 -1.13,2.26 -2.33,4.9 -3.56,7.74 -1.22,2.85 -2.48,5.9 -3.73,8.97 -2.5,6.15 -4.96,12.41 -7.09,17.34 a 91.7,91.7 0 0 1 -2.9,6.21 c -0.42,0.81 -0.82,1.5 -1.18,2.03 -0.37,0.53 -0.7,0.9 -0.98,1.12 l -0.1,0.04 25.03,34.46 h 0.01 z m 0.29,85.26 81.1,-26.35 a 1.34,1.34 0 0 0 -0.24,-0.4 c -0.15,-0.15 -0.34,-0.3 -0.57,-0.45 a 8.56,8.56 0 0 0 -1.86,-0.82 c -0.77,-0.25 -1.68,-0.49 -2.71,-0.7 a 60.03,60.03 0 0 0 -3.43,-0.62 c -2.5,-0.37 -5.38,-0.7 -8.46,-0.99 -3.09,-0.29 -6.38,-0.54 -9.69,-0.78 -6.62,-0.47 -13.33,-0.88 -18.68,-1.38 -2.67,-0.25 -5,-0.52 -6.8,-0.84 -0.9,-0.15 -1.67,-0.32 -2.3,-0.5 a 4.67,4.67 0 0 1 -1.36,-0.58 z m -0.3,0.1 v 0 0 l -81.09,-26.35 c -0.05,0.17 -0.07,0.36 -0.04,0.57 0.02,0.21 0.09,0.45 0.19,0.7 0.2,0.51 0.55,1.1 1.02,1.76 a 26.2,26.2 0 0 0 1.78,2.16 c 0.7,0.79 1.52,1.63 2.41,2.51 1.8,1.78 3.94,3.73 6.27,5.78 2.32,2.05 4.83,4.18 7.37,6.32 5.08,4.28 10.27,8.56 14.3,12.1 a 91.68,91.68 0 0 1 5.02,4.68 c 0.63,0.66 1.16,1.24 1.55,1.75 0.37,0.47 0.58,0.85 0.7,1.18 z m -50.05,69.19 c 0.15,0.1 0.33,0.18 0.54,0.22 0.2,0.04 0.45,0.05 0.72,0.03 a 8.55,8.55 0 0 0 1.99,-0.43 c 0.77,-0.24 1.65,-0.59 2.6,-1.02 0.97,-0.43 2.02,-0.94 3.14,-1.52 2.24,-1.16 4.76,-2.59 7.43,-4.17 2.66,-1.58 5.47,-3.3 8.3,-5.06 5.63,-3.51 11.3,-7.13 15.92,-9.86 a 91.71,91.71 0 0 1 6,-3.33 c 0.82,-0.4 1.54,-0.72 2.15,-0.93 0.53,-0.2 0.93,-0.27 1.27,-0.3 V 362.4 Z m 100.36,0.04 c 0.03,-0.01 0.08,-0.02 0.1,-0.04 0.15,-0.1 0.27,-0.25 0.38,-0.44 0.1,-0.19 0.19,-0.41 0.25,-0.68 0.14,-0.53 0.2,-1.2 0.2,-2.02 0.01,-0.81 -0.05,-1.75 -0.16,-2.8 -0.1,-1.05 -0.27,-2.2 -0.47,-3.45 -0.41,-2.49 -1,-5.33 -1.68,-8.35 -0.67,-3.02 -1.45,-6.23 -2.25,-9.45 -1.6,-6.45 -3.28,-12.96 -4.45,-18.2 a 91.72,91.72 0 0 1 -1.31,-6.73 c -0.13,-0.9 -0.21,-1.69 -0.23,-2.33 -0.02,-0.64 0.02,-1.14 0.13,-1.48 0,0 0,0 0,0 l -40.64,-13.2 -0.07,0.1 z"
         style="fill:#fbeb5b;fill-opacity:1;stroke:#999999;stroke-width:0;stroke-linecap:round;stroke-linejoin:round"
         transform="matrix(0.083,0,0,0.083,269.67,182.07)"
         id="path14" />
    </g>
    <g
       style="font-style:italic;font-size:10.5833px;line-height:13.2292px;font-family:Arial;-inkscape-font-specification:'Arial, Italic';text-align:center;letter-spacing:0;word-spacing:0;text-anchor:middle;stroke-width:0.264583"
       id="GoldStar3"
       inkscape:label="GoldStar3"
       transform="matrix(1.0000123,0,0,1.0000123,-37.038545,50.825685)">
      <path
         d="m -379.63,-100.9 c 4.02,-4.01 48.14,19.11 53.75,18.23 5.6,-0.9 40.42,-36.52 45.48,-33.95 5.05,2.58 -3.3,51.7 -0.73,56.75 2.58,5.06 47.22,27.16 46.33,32.77 -0.88,5.6 -50.17,12.83 -54.19,16.84 -4,4.01 -11.24,53.3 -16.84,54.2 -5.6,0.88 -27.71,-43.77 -32.77,-46.34 -5.05,-2.58 -54.17,5.78 -56.74,0.72 -2.58,-5.05 33.05,-39.87 33.94,-45.48 0.89,-5.6 -22.24,-49.73 -18.23,-53.74 z"
         style="fill:#f5d63d;fill-opacity:1;stroke:#999999;stroke-width:0;stroke-linecap:round;stroke-linejoin:round"
         transform="matrix(0.0736,0.0736,-0.0736,0.0736,278.77,238.63)"
         id="path15" />
      <path
         d="m -342.08,362.1 -25.04,-34.47 c -0.29,0.2 -0.69,0.37 -1.26,0.54 -0.62,0.18 -1.39,0.35 -2.29,0.5 -1.8,0.32 -4.13,0.59 -6.8,0.84 -5.35,0.5 -12.06,0.9 -18.68,1.38 -3.32,0.24 -6.6,0.5 -9.69,0.78 -3.09,0.3 -5.97,0.62 -8.46,1 -1.25,0.18 -2.4,0.39 -3.43,0.6 -1.03,0.22 -1.94,0.46 -2.71,0.71 -0.77,0.26 -1.4,0.53 -1.86,0.82 -0.23,0.15 -0.42,0.3 -0.57,0.46 -0.14,0.16 -0.24,0.32 -0.3,0.49 z m 0.01,-85.36 v 85.35 l 0.29,-0.1 25,-34.4 c -0.29,-0.21 -0.61,-0.6 -0.98,-1.12 -0.36,-0.54 -0.76,-1.22 -1.18,-2.03 a 91.7,91.7 0 0 1 -2.9,-6.21 c -2.13,-4.93 -4.6,-11.19 -7.1,-17.34 -1.24,-3.08 -2.5,-6.12 -3.73,-8.97 a 152.48,152.48 0 0 0 -3.55,-7.74 60.03,60.03 0 0 0 -1.64,-3.07 c -0.53,-0.91 -1.04,-1.7 -1.52,-2.36 a 8.55,8.55 0 0 0 -1.35,-1.52 c -0.2,-0.17 -0.41,-0.3 -0.6,-0.4 -0.2,-0.09 -0.39,-0.13 -0.57,-0.13 -0.05,0 -0.11,0.03 -0.17,0.04 z m 0.29,85.26 -0.12,0.15 40.64,13.2 c 0.11,-0.33 0.37,-0.76 0.77,-1.27 0.39,-0.5 0.92,-1.1 1.55,-1.75 1.28,-1.32 3,-2.9 5.02,-4.68 4.03,-3.54 9.22,-7.82 14.3,-12.1 2.54,-2.14 5.05,-4.27 7.37,-6.32 2.33,-2.05 4.47,-4 6.27,-5.78 0.9,-0.88 1.7,-1.72 2.41,-2.5 0.7,-0.79 1.3,-1.52 1.78,-2.17 0.47,-0.66 0.82,-1.25 1.02,-1.76 0.1,-0.25 0.17,-0.49 0.2,-0.7 0.02,-0.21 0,-0.4 -0.05,-0.57 -0.01,-0.04 -0.05,-0.07 -0.06,-0.1 z"
         style="fill:#f5d63d;fill-opacity:1;stroke:#999999;stroke-width:0;stroke-linecap:round;stroke-linejoin:round"
         transform="matrix(0.083,0,0,0.083,286.62,182.12)"
         id="path16" />
      <path
         d="m -342.07,362.11 -0.01,-0.02 -40.51,13.17 c 0,0.03 0.05,0.07 0.06,0.1 0.1,0.34 0.15,0.84 0.13,1.48 -0.02,0.64 -0.1,1.43 -0.23,2.33 a 91.73,91.73 0 0 1 -1.3,6.74 c -1.18,5.23 -2.87,11.74 -4.46,18.19 -0.8,3.22 -1.58,6.43 -2.26,9.45 -0.67,3.02 -1.26,5.86 -1.67,8.35 -0.2,1.25 -0.36,2.4 -0.47,3.45 a 26.22,26.22 0 0 0 -0.17,2.8 c 0,0.81 0.07,1.5 0.2,2.02 0.07,0.27 0.16,0.5 0.26,0.68 0.1,0.19 0.23,0.34 0.37,0.44 l 50.06,-68.9 z m 50.3,69.22 -50.2,-69.08 -0.1,0.14 v 42.53 c 0.05,0 0.13,-0.04 0.17,-0.04 0.36,0 0.85,0.12 1.45,0.34 0.6,0.21 1.33,0.53 2.15,0.93 1.65,0.81 3.7,1.96 6,3.33 4.62,2.73 10.29,6.35 15.93,9.86 2.81,1.75 5.62,3.48 8.29,5.06 2.67,1.58 5.19,3.01 7.43,4.17 1.12,0.58 2.17,1.1 3.13,1.52 0.96,0.43 1.84,0.78 2.61,1.02 0.77,0.25 1.44,0.4 1.99,0.43 0.27,0.02 0.51,0 0.72,-0.03 0.17,-0.03 0.3,-0.1 0.43,-0.18 z"
         style="fill:#f5d63d;fill-opacity:1;stroke:#999999;stroke-width:0;stroke-linecap:round;stroke-linejoin:round"
         transform="matrix(0.083,0,0,0.083,286.62,182.12)"
         id="path17" />
      <path
         d="m -342.07,276.74 c -0.13,0.02 -0.25,0.03 -0.38,0.1 -0.2,0.08 -0.4,0.22 -0.61,0.4 -0.42,0.34 -0.88,0.85 -1.36,1.5 -0.47,0.66 -0.98,1.46 -1.5,2.37 -0.53,0.91 -1.08,1.94 -1.65,3.07 -1.13,2.26 -2.33,4.9 -3.56,7.74 -1.22,2.85 -2.48,5.9 -3.73,8.97 -2.5,6.15 -4.96,12.41 -7.09,17.34 a 91.7,91.7 0 0 1 -2.9,6.21 c -0.42,0.81 -0.82,1.5 -1.18,2.03 -0.37,0.53 -0.7,0.9 -0.98,1.12 l -0.1,0.04 25.03,34.46 h 0.01 z m 0.29,85.26 81.1,-26.35 a 1.34,1.34 0 0 0 -0.24,-0.4 c -0.15,-0.15 -0.34,-0.3 -0.57,-0.45 a 8.56,8.56 0 0 0 -1.86,-0.82 c -0.77,-0.25 -1.68,-0.49 -2.71,-0.7 a 60.03,60.03 0 0 0 -3.43,-0.62 c -2.5,-0.37 -5.38,-0.7 -8.46,-0.99 -3.09,-0.29 -6.38,-0.54 -9.69,-0.78 -6.62,-0.47 -13.33,-0.88 -18.68,-1.38 -2.67,-0.25 -5,-0.52 -6.8,-0.84 -0.9,-0.15 -1.67,-0.32 -2.3,-0.5 a 4.67,4.67 0 0 1 -1.36,-0.58 z m -0.3,0.1 v 0 0 l -81.09,-26.35 c -0.05,0.17 -0.07,0.36 -0.04,0.57 0.02,0.21 0.09,0.45 0.19,0.7 0.2,0.51 0.55,1.1 1.02,1.76 a 26.2,26.2 0 0 0 1.78,2.16 c 0.7,0.79 1.52,1.63 2.41,2.51 1.8,1.78 3.94,3.73 6.27,5.78 2.32,2.05 4.83,4.18 7.37,6.32 5.08,4.28 10.27,8.56 14.3,12.1 a 91.68,91.68 0 0 1 5.02,4.68 c 0.63,0.66 1.16,1.24 1.55,1.75 0.37,0.47 0.58,0.85 0.7,1.18 z m -50.05,69.19 c 0.15,0.1 0.33,0.18 0.54,0.22 0.2,0.04 0.45,0.05 0.72,0.03 a 8.55,8.55 0 0 0 1.99,-0.43 c 0.77,-0.24 1.65,-0.59 2.6,-1.02 0.97,-0.43 2.02,-0.94 3.14,-1.52 2.24,-1.16 4.76,-2.59 7.43,-4.17 2.66,-1.58 5.47,-3.3 8.3,-5.06 5.63,-3.51 11.3,-7.13 15.92,-9.86 a 91.71,91.71 0 0 1 6,-3.33 c 0.82,-0.4 1.54,-0.72 2.15,-0.93 0.53,-0.2 0.93,-0.27 1.27,-0.3 V 362.4 Z m 100.36,0.04 c 0.03,-0.01 0.08,-0.02 0.1,-0.04 0.15,-0.1 0.27,-0.25 0.38,-0.44 0.1,-0.19 0.19,-0.41 0.25,-0.68 0.14,-0.53 0.2,-1.2 0.2,-2.02 0.01,-0.81 -0.05,-1.75 -0.16,-2.8 -0.1,-1.05 -0.27,-2.2 -0.47,-3.45 -0.41,-2.49 -1,-5.33 -1.68,-8.35 -0.67,-3.02 -1.45,-6.23 -2.25,-9.45 -1.6,-6.45 -3.28,-12.96 -4.45,-18.2 a 91.72,91.72 0 0 1 -1.31,-6.73 c -0.13,-0.9 -0.21,-1.69 -0.23,-2.33 -0.02,-0.64 0.02,-1.14 0.13,-1.48 0,0 0,0 0,0 l -40.64,-13.2 -0.07,0.1 z"
         style="fill:#fbeb5b;fill-opacity:1;stroke:#999999;stroke-width:0;stroke-linecap:round;stroke-linejoin:round"
         transform="matrix(0.083,0,0,0.083,286.62,182.12)"
         id="path18" />
    </g>
    <g
       id="BlackStar1"
       transform="matrix(0.08292024,0,0,0.08292024,189.35482,221.35388)"
       inkscape:label="BlackStar1">
      <path
         sodipodi:type="star"
         style="fill:#808080;fill-opacity:1;stroke:#999999;stroke-width:0;stroke-linecap:round;stroke-linejoin:round"
         id="path1-0-8-6"
         inkscape:flatsided="false"
         sodipodi:sides="5"
         sodipodi:cx="-319.19998"
         sodipodi:cy="-40.472729"
         sodipodi:r1="85.456497"
         sodipodi:r2="42.728249"
         sodipodi:arg1="-2.3561945"
         sodipodi:arg2="-1.727876"
         inkscape:rounded="0.1"
         inkscape:randomized="0"
         d="m -379.62685,-100.8996 c 4.01274,-4.01274 48.13769,19.112424 53.7427,18.224679 5.605,-0.887746 40.42426,-36.516439 45.48061,-33.940109 5.05634,2.57634 -3.30163,51.687734 -0.72529,56.744081 2.57633,5.056347 47.22098,27.161557 46.33323,32.766561 -0.88774,5.605004 -50.17821,12.832352 -54.19095,16.845092 -4.01274,4.0127405 -11.24009,53.303207 -16.84509,54.190953 -5.605,0.887746 -27.71021,-43.75689914 -32.76656,-46.3332367 -5.05635,-2.5763376 -54.16774,5.7816369 -56.74408,0.7252896 -2.57634,-5.0563471 33.05236,-39.8756039 33.94011,-45.4806079 0.88774,-5.605004 -22.23742,-49.729959 -18.22468,-53.742702 z"
         inkscape:transform-center-x="1.689836e-05"
         inkscape:transform-center-y="-10.1368"
         transform="matrix(0.88762556,0.88762556,-0.88762556,0.88762556,222.9874,820.98532)" />
      <path
         sodipodi:type="star"
         style="fill:#999999;fill-opacity:1;stroke:#999999;stroke-width:0;stroke-linecap:round;stroke-linejoin:round"
         id="path1-0-8-7"
         inkscape:flatsided="false"
         sodipodi:sides="5"
         sodipodi:cx="-319.19998"
         sodipodi:cy="-40.472729"
         sodipodi:r1="85.456497"
         sodipodi:r2="42.728249"
         sodipodi:arg1="-2.3561945"
         sodipodi:arg2="-1.727876"
         inkscape:rounded="0.1"
         inkscape:randomized="0"
         d="m -379.62685,-100.8996 c 4.01274,-4.01274 48.13769,19.112424 53.7427,18.224679 5.605,-0.887746 40.42426,-36.516439 45.48061,-33.940109 5.05634,2.57634 -3.30163,51.687734 -0.72529,56.744081 2.57633,5.056347 47.22098,27.161557 46.33323,32.766561 -0.88774,5.605004 -50.17821,12.832352 -54.19095,16.845092 -4.01274,4.0127405 -11.24009,53.303207 -16.84509,54.190953 -5.605,0.887746 -27.71021,-43.75689914 -32.76656,-46.3332367 -5.05635,-2.5763376 -54.16774,5.7816369 -56.74408,0.7252896 -2.57634,-5.0563471 33.05236,-39.8756039 33.94011,-45.4806079 0.88774,-5.605004 -22.23742,-49.729959 -18.22468,-53.742702 z"
         inkscape:transform-center-x="1.3079228e-05"
         inkscape:transform-center-y="-8.0752129"
         transform="matrix(0.70710356,0.70710356,-0.70710356,0.70710356,172.671,756.05648)" />
    </g>
    <g
       id="BlackStar2"
       transform="matrix(0.08292024,0,0,0.08292024,206.29143,221.33984)"
       inkscape:label="BlackStar2">
      <path
         sodipodi:type="star"
         style="fill:#808080;fill-opacity:1;stroke:#999999;stroke-width:0;stroke-linecap:round;stroke-linejoin:round"
         id="path1-0-8-6-0"
         inkscape:flatsided="false"
         sodipodi:sides="5"
         sodipodi:cx="-319.19998"
         sodipodi:cy="-40.472729"
         sodipodi:r1="85.456497"
         sodipodi:r2="42.728249"
         sodipodi:arg1="-2.3561945"
         sodipodi:arg2="-1.727876"
         inkscape:rounded="0.1"
         inkscape:randomized="0"
         d="m -379.62685,-100.8996 c 4.01274,-4.01274 48.13769,19.112424 53.7427,18.224679 5.605,-0.887746 40.42426,-36.516439 45.48061,-33.940109 5.05634,2.57634 -3.30163,51.687734 -0.72529,56.744081 2.57633,5.056347 47.22098,27.161557 46.33323,32.766561 -0.88774,5.605004 -50.17821,12.832352 -54.19095,16.845092 -4.01274,4.0127405 -11.24009,53.303207 -16.84509,54.190953 -5.605,0.887746 -27.71021,-43.75689914 -32.76656,-46.3332367 -5.05635,-2.5763376 -54.16774,5.7816369 -56.74408,0.7252896 -2.57634,-5.0563471 33.05236,-39.8756039 33.94011,-45.4806079 0.88774,-5.605004 -22.23742,-49.729959 -18.22468,-53.742702 z"
         inkscape:transform-center-x="1.689836e-05"
         inkscape:transform-center-y="-10.1368"
         transform="matrix(0.88762556,0.88762556,-0.88762556,0.88762556,222.9874,820.98532)" />
      <path
         sodipodi:type="star"
         style="fill:#999999;fill-opacity:1;stroke:#999999;stroke-width:0;stroke-linecap:round;stroke-linejoin:round"
         id="path1-0-8-7-5"
         inkscape:flatsided="false"
         sodipodi:sides="5"
         sodipodi:cx="-319.19998"
         sodipodi:cy="-40.472729"
         sodipodi:r1="85.456497"
         sodipodi:r2="42.728249"
         sodipodi:arg1="-2.3561945"
         sodipodi:arg2="-1.727876"
         inkscape:rounded="0.1"
         inkscape:randomized="0"
         d="m -379.62685,-100.8996 c 4.01274,-4.01274 48.13769,19.112424 53.7427,18.224679 5.605,-0.887746 40.42426,-36.516439 45.48061,-33.940109 5.05634,2.57634 -3.30163,51.687734 -0.72529,56.744081 2.57633,5.056347 47.22098,27.161557 46.33323,32.766561 -0.88774,5.605004 -50.17821,12.832352 -54.19095,16.845092 -4.01274,4.0127405 -11.24009,53.303207 -16.84509,54.190953 -5.605,0.887746 -27.71021,-43.75689914 -32.76656,-46.3332367 -5.05635,-2.5763376 -54.16774,5.7816369 -56.74408,0.7252896 -2.57634,-5.0563471 33.05236,-39.8756039 33.94011,-45.4806079 0.88774,-5.605004 -22.23742,-49.729959 -18.22468,-53.742702 z"
         inkscape:transform-center-x="1.3079228e-05"
         inkscape:transform-center-y="-8.0752129"
         transform="matrix(0.70710356,0.70710356,-0.70710356,0.70710356,172.671,756.05648)" />
    </g>
    <g
       id="BlackStar3"
       transform="matrix(0.08292024,0,0,0.08292024,223.22176,221.40429)"
       inkscape:label="BlackStar3">
      <path
         sodipodi:type="star"
         style="fill:#808080;fill-opacity:1;stroke:#999999;stroke-width:0;stroke-linecap:round;stroke-linejoin:round"
         id="path1-0-8-6-0-4"
         inkscape:flatsided="false"
         sodipodi:sides="5"
         sodipodi:cx="-319.19998"
         sodipodi:cy="-40.472729"
         sodipodi:r1="85.456497"
         sodipodi:r2="42.728249"
         sodipodi:arg1="-2.3561945"
         sodipodi:arg2="-1.727876"
         inkscape:rounded="0.1"
         inkscape:randomized="0"
         d="m -379.62685,-100.8996 c 4.01274,-4.01274 48.13769,19.112424 53.7427,18.224679 5.605,-0.887746 40.42426,-36.516439 45.48061,-33.940109 5.05634,2.57634 -3.30163,51.687734 -0.72529,56.744081 2.57633,5.056347 47.22098,27.161557 46.33323,32.766561 -0.88774,5.605004 -50.17821,12.832352 -54.19095,16.845092 -4.01274,4.0127405 -11.24009,53.303207 -16.84509,54.190953 -5.605,0.887746 -27.71021,-43.75689914 -32.76656,-46.3332367 -5.05635,-2.5763376 -54.16774,5.7816369 -56.74408,0.7252896 -2.57634,-5.0563471 33.05236,-39.8756039 33.94011,-45.4806079 0.88774,-5.605004 -22.23742,-49.729959 -18.22468,-53.742702 z"
         inkscape:transform-center-x="1.689836e-05"
         inkscape:transform-center-y="-10.1368"
         transform="matrix(0.88762556,0.88762556,-0.88762556,0.88762556,222.9874,820.98532)" />
      <path
         sodipodi:type="star"
         style="fill:#999999;fill-opacity:1;stroke:#999999;stroke-width:0;stroke-linecap:round;stroke-linejoin:round"
         id="path1-0-8-7-5-4"
         inkscape:flatsided="false"
         sodipodi:sides="5"
         sodipodi:cx="-319.19998"
         sodipodi:cy="-40.472729"
         sodipodi:r1="85.456497"
         sodipodi:r2="42.728249"
         sodipodi:arg1="-2.3561945"
         sodipodi:arg2="-1.727876"
         inkscape:rounded="0.1"
         inkscape:randomized="0"
         d="m -379.62685,-100.8996 c 4.01274,-4.01274 48.13769,19.112424 53.7427,18.224679 5.605,-0.887746 40.42426,-36.516439 45.48061,-33.940109 5.05634,2.57634 -3.30163,51.687734 -0.72529,56.744081 2.57633,5.056347 47.22098,27.161557 46.33323,32.766561 -0.88774,5.605004 -50.17821,12.832352 -54.19095,16.845092 -4.01274,4.0127405 -11.24009,53.303207 -16.84509,54.190953 -5.605,0.887746 -27.71021,-43.75689914 -32.76656,-46.3332367 -5.05635,-2.5763376 -54.16774,5.7816369 -56.74408,0.7252896 -2.57634,-5.0563471 33.05236,-39.8756039 33.94011,-45.4806079 0.88774,-5.605004 -22.23742,-49.729959 -18.22468,-53.742702 z"
         inkscape:transform-center-x="1.3079228e-05"
         inkscape:transform-center-y="-8.0752129"
         transform="matrix(0.70710356,0.70710356,-0.70710356,0.70710356,172.671,756.05648)" />
    </g>
  </g>
</svg>
