<?xml version="1.0" encoding="UTF-8" standalone="no"?>
<svg
   viewbox="0 0 1024 1024"
   width="1080"
   height="1920"
   version="1.1"
   id="svg60"
   sodipodi:docname="Build impossible towers.svg"
   inkscape:version="1.2.2 (732a01da63, 2022-12-09)"
   xmlns:inkscape="http://www.inkscape.org/namespaces/inkscape"
   xmlns:sodipodi="http://sodipodi.sourceforge.net/DTD/sodipodi-0.dtd"
   xmlns="http://www.w3.org/2000/svg"
   xmlns:svg="http://www.w3.org/2000/svg">
  <defs
     id="defs64" />
  <sodipodi:namedview
     id="namedview62"
     pagecolor="#ffffff"
     bordercolor="#000000"
     borderopacity="0.25"
     inkscape:showpageshadow="2"
     inkscape:pageopacity="0.0"
     inkscape:pagecheckerboard="true"
     inkscape:deskcolor="#d1d1d1"
     showgrid="false"
     inkscape:zoom="0.56209465"
     inkscape:cx="-19.569658"
     inkscape:cy="1779.9493"
     inkscape:window-width="1920"
     inkscape:window-height="1001"
     inkscape:window-x="1227"
     inkscape:window-y="1341"
     inkscape:window-maximized="1"
     inkscape:current-layer="g58" />
  <g
     transform="matrix(1,0,0,-1,512,512)"
     id="g58">
    <g
       transform="matrix(-0.34297144,-1.8505135,1.8505135,-0.34297144,8.7999876,213.31446)"
       id="g4" />
    <rect
       style="fill:#8eaee9;fill-opacity:1;stroke:#040404;stroke-width:0;stroke-linecap:round;stroke-linejoin:round;stroke-dasharray:none"
       id="rect470"
       width="1080"
       height="1920"
       x="-512"
       y="-512"
       transform="scale(1,-1)"
       sodipodi:insensitive="true" />
    <g
       id="g10133"
       transform="translate(0.1877061,-97.848289)">
      <g
         transform="matrix(-1.9917594,2.0988763,-2.0988763,-1.9917594,54.412231,-280.63336)"
         id="g6797">
        <path
           fill="#0c99ed"
           d="m -28.54102,6.7082024 h 12.36068 a 5,5 0 0 1 5,4.9999996 v 12.36068 a 5,5 0 0 0 5,5 h 34.72136 a 5,5 0 0 0 5,-5 v -12.36068 a 5,5 0 0 0 -5,-4.9999996 H 16.18034 a 5,5 0 0 1 -5,-5 V -33.013157 a 5,5 0 0 0 -5,-5 H -6.18034 a 5,5 0 0 0 -5,5 v 12.36068 a 5,5 0 0 1 -5,5 h -12.36068 a 5,5 0 0 0 -5,5 V 1.7082024 a 5,5 0 0 0 5,5 z"
           id="path6795" />
      </g>
      <g
         transform="matrix(1.6388998,2.3846165,-2.3846165,1.6388998,42.883046,-145.44864)"
         id="g6801">
        <path
           fill="#870732"
           d="m -32.5,25 h 40 a 5,5 0 0 0 5,-5 V 5 a 5,5 0 0 1 5,-5 h 15 a 5,5 0 0 0 5,-5 v -15 a 5,5 0 0 0 -5,-5 h -40 a 5,5 0 0 0 -5,5 v 15 a 5,5 0 0 1 -5,5 h -15 a 5,5 0 0 0 -5,5 v 15 a 5,5 0 0 0 5,5 z"
           id="path6799" />
      </g>
      <g
         transform="matrix(-1.8791834,2.2002402,-2.2002402,-1.8791834,36.023415,-385.91937)"
         id="g6805">
        <path
           fill="#5c9f59"
           d="m -32.5,0 h 15 a 5,5 0 0 1 5,5 v 15 a 5,5 0 0 0 5,5 h 40 a 5,5 0 0 0 5,-5 V 5 a 5,5 0 0 0 -5,-5 h -15 a 5,5 0 0 1 -5,-5 v -15 a 5,5 0 0 0 -5,-5 h -40 a 5,5 0 0 0 -5,5 v 15 a 5,5 0 0 0 5,5 z"
           id="path6803" />
      </g>
      <g
         transform="matrix(-2.7743515,0.82180068,-0.82180068,-2.7743515,38.523961,-527.71914)"
         id="g6809">
        <path
           fill="#4a5b33"
           d="m -32.5,18.75 h 65 a 5,5 0 0 0 5,-5 v -15 a 5,5 0 0 0 -5,-5 h -15 a 5,5 0 0 1 -5,-5 v -15 a 5,5 0 0 0 -5,-5 h -15 a 5,5 0 0 0 -5,5 v 15 a 5,5 0 0 1 -5,5 h -15 a 5,5 0 0 0 -5,5 v 15 a 5,5 0 0 0 5,5 z"
           id="path6807" />
      </g>
      <g
         transform="matrix(-2.8935074,0,0,-2.8935074,20.248941,-906.20358)"
         id="g6817">
        <path
           fill="#79599f"
           d="m -41.957424,6.7082024 h 34.721359 a 5,5 0 0 1 5,4.9999996 v 12.36068 a 5,5 0 0 0 5,5 h 12.36068 a 5,5 0 0 0 5,-5 v -12.36068 a 5,5 0 0 1 5,-4.9999996 h 12.360679 a 5,5 0 0 0 5,-5 V -10.652477 a 5,5 0 0 0 -5,-5 h -79.442718 a 5,5 0 0 0 -5,5 V 1.7082024 a 5,5 0 0 0 5,5 z"
           id="path6811" />
        <g
           transform="matrix(-0.04,0,0,0.04,10,-10)"
           id="g6815">
          <path
             fill="#000000"
             d="m 256,18.15 c -81.1,0 -146.6,65.51 -146.6,146.45 v 72.3 H 159 v -69.1 c 0,-53.7 43.4,-97.24 97,-97.24 53.5,0 97,44.84 97,97.24 v 69.1 h 49.6 V 164.6 C 402.6,85.66 336.9,18.15 256,18.15 Z M 86.9,255.6 C 72.3,278.4 64,304.7 64,332.4 c 0,88.3 85,161.5 192,161.5 107,0 192,-73.2 192,-161.5 0,-27.7 -8.3,-54 -22.9,-76.8 z"
             id="path6813" />
        </g>
      </g>
      <g
         transform="matrix(1.313624,-2.5781368,2.5781368,1.313624,29.658611,-663.44225)"
         id="g6821">
        <path
           fill="#0c99ed"
           d="m -28.54102,6.7082024 h 12.36068 a 5,5 0 0 1 5,4.9999996 v 12.36068 a 5,5 0 0 0 5,5 h 34.72136 a 5,5 0 0 0 5,-5 v -12.36068 a 5,5 0 0 0 -5,-4.9999996 H 16.18034 a 5,5 0 0 1 -5,-5 V -33.013157 a 5,5 0 0 0 -5,-5 H -6.18034 a 5,5 0 0 0 -5,5 v 12.36068 a 5,5 0 0 1 -5,5 h -12.36068 a 5,5 0 0 0 -5,5 V 1.7082024 a 5,5 0 0 0 5,5 z"
           id="path6819" />
      </g>
      <g
         transform="matrix(0,-2.8935074,2.8935074,0,48.732279,-791.09334)"
         id="g6825">
        <path
           fill="#ed3a0c"
           d="m -15.124611,29.068882 h 34.721359 a 5,5 0 0 0 5,-5 v -34.721359 a 5,5 0 0 0 -5,-5 H 7.2360687 a 5,5 0 0 1 -5,-5 v -12.36068 a 5,5 0 0 0 -5,-5 H -15.124611 a 5,5 0 0 0 -4.999999,5 v 57.082039 a 5,5 0 0 0 4.999999,5 z"
           id="path6823" />
      </g>
    </g>
    <text
       xml:space="preserve"
       style="font-size:93.3333px;text-align:center;text-anchor:middle;fill:#ffffff;stroke:#040404;stroke-width:0;stroke-linecap:round;stroke-linejoin:round"
       x="39.848969"
       y="-141.08856"
       id="text7093"
       transform="scale(1,-1)"><tspan
         sodipodi:role="line"
         x="39.848969"
         y="-141.08856"
         id="tspan7095">Build Impossible </tspan><tspan
         sodipodi:role="line"
         x="39.848969"
         y="-24.421944"
         id="tspan7099">Towers</tspan></text>
    <rect
       style="fill:#678de0;fill-opacity:1;stroke:#678de0;stroke-width:0;stroke-linecap:round;stroke-linejoin:round;stroke-dasharray:none;stroke-opacity:1"
       id="rect4697"
       width="1080"
       height="35.53809"
       x="-512"
       y="1372.4619"
       transform="scale(1,-1)" />
  </g>
</svg>
