<?xml version="1.0" encoding="UTF-8" standalone="no"?>
<svg
   viewbox="0 0 1024 1024"
   width="1080"
   height="1920"
   version="1.1"
   id="svg60"
   sodipodi:docname="Turn this.svg"
   inkscape:version="1.2.2 (732a01da63, 2022-12-09)"
   inkscape:export-filename="Turn this.png"
   inkscape:export-xdpi="96"
   inkscape:export-ydpi="96"
   xmlns:inkscape="http://www.inkscape.org/namespaces/inkscape"
   xmlns:sodipodi="http://sodipodi.sourceforge.net/DTD/sodipodi-0.dtd"
   xmlns="http://www.w3.org/2000/svg"
   xmlns:svg="http://www.w3.org/2000/svg">
  <defs
     id="defs64" />
  <sodipodi:namedview
     id="namedview62"
     pagecolor="#ffffff"
     bordercolor="#000000"
     borderopacity="0.25"
     inkscape:showpageshadow="2"
     inkscape:pageopacity="0.0"
     inkscape:pagecheckerboard="true"
     inkscape:deskcolor="#d1d1d1"
     showgrid="false"
     inkscape:zoom="0.28104733"
     inkscape:cx="-90.732047"
     inkscape:cy="524.82263"
     inkscape:window-width="2400"
     inkscape:window-height="1271"
     inkscape:window-x="-9"
     inkscape:window-y="-9"
     inkscape:window-maximized="1"
     inkscape:current-layer="svg60" />
  <g
     transform="matrix(1,0,0,-1,512,512)"
     id="g58">
    <g
       transform="matrix(-0.34297144,-1.8505135,1.8505135,-0.34297144,8.7999876,213.31446)"
       id="g4" />
    <rect
       style="fill:#8eaee9;fill-opacity:1;stroke:#678de0;stroke-width:0;stroke-linecap:round;stroke-linejoin:round;stroke-dasharray:none;stroke-opacity:1"
       id="rect470"
       width="1080"
       height="1920"
       x="-512"
       y="-512"
       transform="scale(1,-1)" />
    <g
       id="g3579"
       transform="matrix(2.129432,0,0,2.129432,307.75298,346.81897)">
      <g
         id="g3553"
         transform="matrix(1.1942991,0,0,1.24925,23.373844,182.68155)">
        <g
           transform="translate(-125.93214,-468.58431)"
           id="g221">
          <g
             transform="rotate(-63,-281.56916,-86.742444)"
             id="g179">
            <path
               fill="#33365b"
               d="m -28.54102,24.596748 h 57.08204 a 5,5 0 0 0 5,-5 V 7.2360687 a 5,5 0 0 0 -5,-5 H 16.18034 a 5,5 0 0 1 -5,-5 V -37.48529 a 5,5 0 0 0 -5,-5 H -6.18034 a 5,5 0 0 0 -5,5 v 34.7213587 a 5,5 0 0 1 -5,5 h -12.36068 a 5,5 0 0 0 -5,5 V 19.596748 a 5,5 0 0 0 5,5 z"
               id="path177" />
          </g>
          <g
             transform="rotate(-121.49998,-32.14867,-140.36935)"
             id="g183">
            <path
               fill="#749f59"
               d="m -28.54102,24.596748 h 12.36068 a 5,5 0 0 0 5,-5 V 7.2360687 a 5,5 0 0 1 5,-5 H 6.18034 a 5,5 0 0 1 5,5 V 19.596748 a 5,5 0 0 0 5,5 h 12.36068 a 5,5 0 0 0 5,-5 v -34.721359 a 5,5 0 0 0 -5,-4.999999 h -57.08204 a 5,5 0 0 0 -5,4.999999 v 34.721359 a 5,5 0 0 0 5,5 z"
               id="path181" />
          </g>
          <g
             transform="rotate(-169.5,-69.015566,-122.57522)"
             id="g187">
            <path
               fill="#585b33"
               d="M -50.9017,11.18034 H 50.9017 a 5,5 0 0 0 5,-5 V -6.18034 a 5,5 0 0 0 -5,-5 H -50.9017 a 5,5 0 0 0 -5,5 V 6.18034 a 5,5 0 0 0 5,5 z"
               id="path185" />
          </g>
          <g
             transform="rotate(129.00002,34.674309,-91.903701)"
             id="g191">
            <path
               fill="#33365b"
               d="m -28.54102,24.596748 h 57.08204 a 5,5 0 0 0 5,-5 V 7.2360687 a 5,5 0 0 0 -5,-5 H 16.18034 a 5,5 0 0 1 -5,-5 V -37.48529 a 5,5 0 0 0 -5,-5 H -6.18034 a 5,5 0 0 0 -5,5 v 34.7213587 a 5,5 0 0 1 -5,5 h -12.36068 a 5,5 0 0 0 -5,5 V 19.596748 a 5,5 0 0 0 5,5 z"
               id="path189" />
          </g>
          <g
             transform="rotate(-64.49997,-219.01562,-108.92635)"
             id="g195">
            <path
               fill="#0c99ed"
               d="m -28.54102,6.7082024 h 12.36068 a 5,5 0 0 1 5,4.9999996 v 12.36068 a 5,5 0 0 0 5,5 h 34.72136 a 5,5 0 0 0 5,-5 v -12.36068 a 5,5 0 0 0 -5,-4.9999996 H 16.18034 a 5,5 0 0 1 -5,-5 V -33.013157 a 5,5 0 0 0 -5,-5 H -6.18034 a 5,5 0 0 0 -5,5 v 12.36068 a 5,5 0 0 1 -5,5 h -12.36068 a 5,5 0 0 0 -5,5 V 1.7082024 a 5,5 0 0 0 5,5 z"
               id="path193" />
          </g>
          <g
             transform="rotate(-116.99998,-45.23535,-166.06537)"
             id="g199">
            <path
               fill="#ed860c"
               d="m -38.75,18.75 h 65 a 5,5 0 0 0 5,-5 v -40 a 5,5 0 0 0 -5,-5 h -15 a 5,5 0 0 0 -5,5 v 15 a 5,5 0 0 1 -5,5 h -40 a 5,5 0 0 0 -5,5 v 15 a 5,5 0 0 0 5,5 z"
               id="path197" />
          </g>
          <g
             transform="rotate(-63,-179.4975,-253.67041)"
             id="g203">
            <path
               fill="#33365b"
               d="m -28.54102,24.596748 h 57.08204 a 5,5 0 0 0 5,-5 V 7.2360687 a 5,5 0 0 0 -5,-5 H 16.18034 a 5,5 0 0 1 -5,-5 V -37.48529 a 5,5 0 0 0 -5,-5 H -6.18034 a 5,5 0 0 0 -5,5 v 34.7213587 a 5,5 0 0 1 -5,5 h -12.36068 a 5,5 0 0 0 -5,5 V 19.596748 a 5,5 0 0 0 5,5 z"
               id="path201" />
          </g>
          <g
             transform="rotate(-168,-41.17466,-104.07818)"
             id="g207">
            <path
               fill="#4a5b33"
               d="m -32.5,18.75 h 65 a 5,5 0 0 0 5,-5 v -15 a 5,5 0 0 0 -5,-5 h -15 a 5,5 0 0 1 -5,-5 v -15 a 5,5 0 0 0 -5,-5 h -15 a 5,5 0 0 0 -5,5 v 15 a 5,5 0 0 1 -5,5 h -15 a 5,5 0 0 0 -5,5 v 15 a 5,5 0 0 0 5,5 z"
               id="path205" />
          </g>
          <g
             transform="rotate(-88.49997,-226.11789,-76.037981)"
             id="g211">
            <path
               fill="#9f5997"
               d="m -20,25 h 40 a 5,5 0 0 0 5,-5 v -40 a 5,5 0 0 0 -5,-5 h -40 a 5,5 0 0 0 -5,5 v 40 a 5,5 0 0 0 5,5 z"
               id="path209" />
          </g>
          <g
             transform="rotate(124.50001,83.613384,-132.2785)"
             id="g215">
            <path
               fill="#078747"
               d="m -37.48529,24.596748 h 34.7213587 a 5,5 0 0 0 5,-5 V 7.2360687 a 5,5 0 0 1 5,-5 H 41.957428 a 5,5 0 0 0 5,-5 V -15.124611 a 5,5 0 0 0 -5,-4.999999 h -57.082039 a 5,5 0 0 0 -4.999999,4.999999 v 12.3606797 a 5,5 0 0 1 -5,5 h -12.36068 a 5,5 0 0 0 -5,5 V 19.596748 a 5,5 0 0 0 5,5 z"
               id="path213" />
          </g>
          <g
             transform="rotate(7.5000005,1615.1512,131.27474)"
             id="g219">
            <path
               fill="#0c99ed"
               d="m -28.54102,6.7082024 h 12.36068 a 5,5 0 0 1 5,4.9999996 v 12.36068 a 5,5 0 0 0 5,5 h 34.72136 a 5,5 0 0 0 5,-5 v -12.36068 a 5,5 0 0 0 -5,-4.9999996 H 16.18034 a 5,5 0 0 1 -5,-5 V -33.013157 a 5,5 0 0 0 -5,-5 H -6.18034 a 5,5 0 0 0 -5,5 v 12.36068 a 5,5 0 0 1 -5,5 h -12.36068 a 5,5 0 0 0 -5,5 V 1.7082024 a 5,5 0 0 0 5,5 z"
               id="path217" />
          </g>
        </g>
      </g>
    </g>
    <rect
       style="fill:#678de0;stroke:#678de0;stroke-width:0;stroke-linecap:round;stroke-linejoin:round;stroke-dasharray:none;stroke-opacity:1;fill-opacity:1"
       id="rect4697"
       width="1080"
       height="35.53809"
       x="-512"
       y="1372.4619"
       transform="scale(1,-1)" />
  </g>
  <text
     xml:space="preserve"
     style="font-size:93.3333px;text-align:start;text-anchor:start;fill:#ffffff;fill-opacity:1;stroke:#040404;stroke-width:0;stroke-linecap:round;stroke-linejoin:round;stroke-dasharray:none"
     x="334.28394"
     y="370.91144"
     id="text5645"><tspan
       sodipodi:role="line"
       x="334.28394"
       y="370.91144"
       id="tspan7899"
       style="font-style:normal;font-variant:normal;font-weight:normal;font-stretch:normal;font-size:93.3333px;font-family:Arial;-inkscape-font-specification:'Arial, Normal';font-variant-ligatures:normal;font-variant-caps:normal;font-variant-numeric:normal;font-variant-east-asian:normal">Can you </tspan><tspan
       sodipodi:role="line"
       x="334.28394"
       y="488.65848"
       id="tspan422"
       style="font-style:normal;font-variant:normal;font-weight:normal;font-stretch:normal;font-size:93.3333px;font-family:Arial;-inkscape-font-specification:'Arial, Normal';font-variant-ligatures:normal;font-variant-caps:normal;font-variant-numeric:normal;font-variant-east-asian:normal">turn this... </tspan></text>
</svg>
