<?xml version="1.0" encoding="UTF-8" standalone="no"?>
<!-- Created with Inkscape (http://www.inkscape.org/) -->

<svg
   width="616"
   height="353"
   viewBox="0 0 162.98333 93.39792"
   version="1.1"
   id="svg5"
   inkscape:version="1.3 (0e150ed6c4, 2023-07-21)"
   sodipodi:docname="FeatureGraphic.svg"
   inkscape:export-filename="Main Capsule.png"
   inkscape:export-xdpi="96"
   inkscape:export-ydpi="96"
   xmlns:inkscape="http://www.inkscape.org/namespaces/inkscape"
   xmlns:sodipodi="http://sodipodi.sourceforge.net/DTD/sodipodi-0.dtd"
   xmlns="http://www.w3.org/2000/svg"
   xmlns:svg="http://www.w3.org/2000/svg"
   xmlns:rdf="http://www.w3.org/1999/02/22-rdf-syntax-ns#"
   xmlns:cc="http://creativecommons.org/ns#"
   xmlns:dc="http://purl.org/dc/elements/1.1/">
  <title
     id="title4124">Steks Icon</title>
  <sodipodi:namedview
     id="namedview7"
     pagecolor="#ffffff"
     bordercolor="#666666"
     borderopacity="1.0"
     inkscape:pageshadow="2"
     inkscape:pageopacity="0.0"
     inkscape:pagecheckerboard="0"
     inkscape:document-units="px"
     showgrid="false"
     units="px"
     inkscape:snap-page="true"
     inkscape:zoom="1.0998546"
     inkscape:cx="432.32987"
     inkscape:cy="246.85081"
     inkscape:window-width="2400"
     inkscape:window-height="1261"
     inkscape:window-x="3191"
     inkscape:window-y="425"
     inkscape:window-maximized="1"
     inkscape:current-layer="layer1"
     inkscape:showpageshadow="0"
     inkscape:deskcolor="#d1d1d1" />
  <defs
     id="defs2">
    <inkscape:path-effect
       effect="fillet_chamfer"
       id="path-effect1170"
       is_visible="true"
       lpeversion="1"
       satellites_param="F,0,0,1,0,4,0,1 @ F,0,0,1,0,4,0,1 @ F,0,0,1,0,4,0,1 @ F,0,0,1,0,4,0,1 @ F,0,0,1,0,4,0,1 @ F,0,0,1,0,4,0,1 @ F,0,0,1,0,4,0,1 @ F,0,0,1,0,4,0,1 @ F,0,0,1,0,4,0,1 @ F,0,0,1,0,4,0,1 @ F,0,0,1,0,4,0,1 @ F,0,0,1,0,4,0,1"
       unit="px"
       method="auto"
       mode="F"
       radius="4"
       chamfer_steps="1"
       flexible="false"
       use_knot_distance="true"
       apply_no_radius="true"
       apply_with_radius="true"
       only_selected="false"
       hide_knots="false"
       nodesatellites_param="F,0,0,1,0,4,0,1 @ F,0,0,1,0,4,0,1 @ F,0,0,1,0,4,0,1 @ F,0,0,1,0,4,0,1 @ F,0,0,1,0,4,0,1 @ F,0,0,1,0,4,0,1 @ F,0,0,1,0,4,0,1 @ F,0,0,1,0,4,0,1 @ F,0,0,1,0,4,0,1 @ F,0,0,1,0,4,0,1 @ F,0,0,1,0,4,0,1 @ F,0,0,1,0,4,0,1" />
    <filter
       style="color-interpolation-filters:sRGB"
       id="filter3733"
       inkscape:label="filter1" />
    <filter
       inkscape:menu="Shadows and Glows"
       inkscape:menu-tooltip="Cut out, add inner shadow and colorize some parts of an image"
       style="color-interpolation-filters:sRGB"
       inkscape:label="Emergence"
       id="filter3763"
       x="-0.091317445"
       y="-0.091316238"
       width="1.2206838"
       height="1.220681">
      <feColorMatrix
         values="0 0 0 0 0 0 0 0 0 0 0 0 0 0 0 0.21 0.72 0.07 0 0 "
         result="result1"
         id="feColorMatrix3735" />
      <feColorMatrix
         values="1 0 0 0 0 0 1 0 0 0 0 0 1 0 0 0 0 0 2 0 "
         result="result9"
         id="feColorMatrix3737" />
      <feComposite
         in2="result9"
         in="SourceGraphic"
         operator="in"
         result="result4"
         id="feComposite3739" />
      <feFlood
         result="result2"
         flood-color="rgb(0,0,0)"
         id="feFlood3741" />
      <feComposite
         in2="result9"
         operator="in"
         result="result10"
         id="feComposite3743" />
      <feComposite
         in2="result4"
         operator="atop"
         id="feComposite3745" />
      <feGaussianBlur
         stdDeviation="3"
         result="result8"
         id="feGaussianBlur3747" />
      <feOffset
         dx="3"
         dy="3"
         result="result3"
         in="result8"
         id="feOffset3749" />
      <feFlood
         flood-opacity="1"
         flood-color="rgb(219,173,62)"
         result="result5"
         id="feFlood3751" />
      <feMerge
         result="result6"
         id="feMerge3759">
        <feMergeNode
           in="result5"
           id="feMergeNode3753" />
        <feMergeNode
           in="result3"
           id="feMergeNode3755" />
        <feMergeNode
           in="result4"
           id="feMergeNode3757" />
      </feMerge>
      <feComposite
         in2="SourceGraphic"
         operator="in"
         result="result7"
         id="feComposite3761" />
    </filter>
    <filter
       inkscape:menu="Shadows and Glows"
       inkscape:menu-tooltip="Cut out, add inner shadow and colorize some parts of an image"
       style="color-interpolation-filters:sRGB"
       inkscape:label="Emergence"
       id="filter4102"
       x="-0.053149611"
       y="-0.053149611"
       width="1.1284449"
       height="1.1284449">
      <feColorMatrix
         values="0 0 0 0 0 0 0 0 0 0 0 0 0 0 0 0.21 0.72 0.07 0 0 "
         result="result1"
         id="feColorMatrix4074" />
      <feColorMatrix
         values="1 0 0 0 0 0 1 0 0 0 0 0 1 0 0 0 0 0 2 0 "
         result="result9"
         id="feColorMatrix4076" />
      <feComposite
         in2="result9"
         in="SourceGraphic"
         operator="in"
         result="result4"
         id="feComposite4078" />
      <feFlood
         result="result2"
         flood-color="rgb(0,0,0)"
         id="feFlood4080" />
      <feComposite
         in2="result9"
         operator="in"
         result="result10"
         id="feComposite4082" />
      <feComposite
         in2="result4"
         operator="atop"
         id="feComposite4084" />
      <feGaussianBlur
         stdDeviation="3"
         result="result8"
         id="feGaussianBlur4086" />
      <feOffset
         dx="3"
         dy="3"
         result="result3"
         in="result8"
         id="feOffset4088" />
      <feFlood
         flood-opacity="1"
         flood-color="rgb(219,173,62)"
         result="result5"
         id="feFlood4090" />
      <feMerge
         result="result6"
         id="feMerge4098">
        <feMergeNode
           in="result5"
           id="feMergeNode4092" />
        <feMergeNode
           in="result3"
           id="feMergeNode4094" />
        <feMergeNode
           in="result4"
           id="feMergeNode4096" />
      </feMerge>
      <feComposite
         in2="SourceGraphic"
         operator="in"
         result="result7"
         id="feComposite4100" />
    </filter>
    <filter
       inkscape:menu="Shadows and Glows"
       inkscape:menu-tooltip="Cut out, add inner shadow and colorize some parts of an image"
       style="color-interpolation-filters:sRGB"
       inkscape:label="Emergence"
       id="filter3763-0"
       x="-0.091317445"
       y="-0.091316238"
       width="1.2206838"
       height="1.220681">
      <feColorMatrix
         values="0 0 0 0 0 0 0 0 0 0 0 0 0 0 0 0.21 0.72 0.07 0 0 "
         result="result1"
         id="feColorMatrix3735-8" />
      <feColorMatrix
         values="1 0 0 0 0 0 1 0 0 0 0 0 1 0 0 0 0 0 2 0 "
         result="result9"
         id="feColorMatrix3737-4" />
      <feComposite
         in2="result9"
         in="SourceGraphic"
         operator="in"
         result="result4"
         id="feComposite3739-7" />
      <feFlood
         result="result2"
         flood-color="rgb(0,0,0)"
         id="feFlood3741-5" />
      <feComposite
         in2="result9"
         operator="in"
         result="result10"
         id="feComposite3743-0" />
      <feComposite
         in2="result4"
         operator="atop"
         id="feComposite3745-8" />
      <feGaussianBlur
         stdDeviation="3"
         result="result8"
         id="feGaussianBlur3747-9" />
      <feOffset
         dx="3"
         dy="3"
         result="result3"
         in="result8"
         id="feOffset3749-9" />
      <feFlood
         flood-opacity="1"
         flood-color="rgb(219,173,62)"
         result="result5"
         id="feFlood3751-5" />
      <feMerge
         result="result6"
         id="feMerge3759-6">
        <feMergeNode
           in="result5"
           id="feMergeNode3753-3" />
        <feMergeNode
           in="result3"
           id="feMergeNode3755-2" />
        <feMergeNode
           in="result4"
           id="feMergeNode3757-9" />
      </feMerge>
      <feComposite
         in2="SourceGraphic"
         operator="in"
         result="result7"
         id="feComposite3761-6" />
    </filter>
    <inkscape:path-effect
       effect="fillet_chamfer"
       id="path-effect1170-6"
       is_visible="true"
       lpeversion="1"
       satellites_param="F,0,0,1,0,4,0,1 @ F,0,0,1,0,4,0,1 @ F,0,0,1,0,4,0,1 @ F,0,0,1,0,4,0,1 @ F,0,0,1,0,4,0,1 @ F,0,0,1,0,4,0,1 @ F,0,0,1,0,4,0,1 @ F,0,0,1,0,4,0,1 @ F,0,0,1,0,4,0,1 @ F,0,0,1,0,4,0,1 @ F,0,0,1,0,4,0,1 @ F,0,0,1,0,4,0,1"
       unit="px"
       method="auto"
       mode="F"
       radius="4"
       chamfer_steps="1"
       flexible="false"
       use_knot_distance="true"
       apply_no_radius="true"
       apply_with_radius="true"
       only_selected="false"
       hide_knots="false"
       nodesatellites_param="F,0,0,1,0,4,0,1 @ F,0,0,1,0,4,0,1 @ F,0,0,1,0,4,0,1 @ F,0,0,1,0,4,0,1 @ F,0,0,1,0,4,0,1 @ F,0,0,1,0,4,0,1 @ F,0,0,1,0,4,0,1 @ F,0,0,1,0,4,0,1 @ F,0,0,1,0,4,0,1 @ F,0,0,1,0,4,0,1 @ F,0,0,1,0,4,0,1 @ F,0,0,1,0,4,0,1" />
    <filter
       style="color-interpolation-filters:sRGB"
       inkscape:label="Cross Blur"
       id="filter11450"
       x="-0.17639206"
       y="-0.073991165"
       width="1.3527842"
       height="1.1479824">
      <feColorMatrix
         in="SourceGraphic"
         values="1 0 0 0 0 0 1 0 0 0 0 0 1 0 0 -0.2125 -0.7154 -0.0721 1 0 "
         result="colormatrix"
         id="feColorMatrix11440" />
      <feComposite
         in="SourceGraphic"
         in2="colormatrix"
         operator="arithmetic"
         k2="1"
         k3="0"
         k4="0"
         result="composite"
         id="feComposite11442"
         k1="0" />
      <feGaussianBlur
         stdDeviation="9 0.01"
         result="blur1"
         id="feGaussianBlur11444" />
      <feGaussianBlur
         in="composite"
         stdDeviation="0.01 9"
         result="blur2"
         id="feGaussianBlur11446" />
      <feBlend
         in="blur2"
         in2="blur1"
         mode="darken"
         result="blend"
         id="feBlend11448" />
    </filter>
    <filter
       style="color-interpolation-filters:sRGB"
       inkscape:label="Cross Blur"
       id="filter11450-9"
       x="-0.17639206"
       y="-0.073991165"
       width="1.3527842"
       height="1.1479824">
      <feColorMatrix
         in="SourceGraphic"
         values="1 0 0 0 0 0 1 0 0 0 0 0 1 0 0 -0.2125 -0.7154 -0.0721 1 0 "
         result="colormatrix"
         id="feColorMatrix11440-1" />
      <feComposite
         in="SourceGraphic"
         in2="colormatrix"
         operator="arithmetic"
         k2="1"
         k3="0"
         k4="0"
         result="composite"
         id="feComposite11442-9"
         k1="0" />
      <feGaussianBlur
         stdDeviation="9 0.01"
         result="blur1"
         id="feGaussianBlur11444-1" />
      <feGaussianBlur
         in="composite"
         stdDeviation="0.01 9"
         result="blur2"
         id="feGaussianBlur11446-4" />
      <feBlend
         in="blur2"
         in2="blur1"
         mode="darken"
         result="blend"
         id="feBlend11448-4" />
    </filter>
    <filter
       style="color-interpolation-filters:sRGB"
       inkscape:label="Cross Blur"
       id="filter11450-1"
       x="-0.17639206"
       y="-0.073991165"
       width="1.3527842"
       height="1.1479824">
      <feColorMatrix
         in="SourceGraphic"
         values="1 0 0 0 0 0 1 0 0 0 0 0 1 0 0 -0.2125 -0.7154 -0.0721 1 0 "
         result="colormatrix"
         id="feColorMatrix11440-4" />
      <feComposite
         in="SourceGraphic"
         in2="colormatrix"
         operator="arithmetic"
         k2="1"
         k3="0"
         k4="0"
         result="composite"
         id="feComposite11442-5"
         k1="0" />
      <feGaussianBlur
         stdDeviation="9 0.01"
         result="blur1"
         id="feGaussianBlur11444-6" />
      <feGaussianBlur
         in="composite"
         stdDeviation="0.01 9"
         result="blur2"
         id="feGaussianBlur11446-3" />
      <feBlend
         in="blur2"
         in2="blur1"
         mode="darken"
         result="blend"
         id="feBlend11448-5" />
    </filter>
    <filter
       style="color-interpolation-filters:sRGB"
       inkscape:label="Cross Blur"
       id="filter14362"
       x="-0.30316254"
       y="-0.14045066"
       width="1.6063251"
       height="1.2809013">
      <feColorMatrix
         in="SourceGraphic"
         values="1 0 0 0 0 0 1 0 0 0 0 0 1 0 0 -0.2125 -0.7154 -0.0721 1 0 "
         result="colormatrix"
         id="feColorMatrix14352" />
      <feComposite
         in="SourceGraphic"
         in2="colormatrix"
         operator="arithmetic"
         k2="1"
         k3="0"
         k4="0"
         result="composite"
         id="feComposite14354"
         k1="0" />
      <feGaussianBlur
         stdDeviation="9 0.01"
         result="blur1"
         id="feGaussianBlur14356" />
      <feGaussianBlur
         in="composite"
         stdDeviation="0.01 9"
         result="blur2"
         id="feGaussianBlur14358" />
      <feBlend
         in="blur2"
         in2="blur1"
         mode="darken"
         result="fbSourceGraphic"
         id="feBlend14360" />
      <feColorMatrix
         result="fbSourceGraphicAlpha"
         in="fbSourceGraphic"
         values="0 0 0 -1 0 0 0 0 -1 0 0 0 0 -1 0 0 0 0 1 0"
         id="feColorMatrix16685" />
      <feColorMatrix
         id="feColorMatrix16687"
         in="fbSourceGraphic"
         values="1 0 0 0 0 0 1 0 0 0 0 0 1 0 0 -0.2125 -0.7154 -0.0721 1 0 "
         result="colormatrix" />
      <feComposite
         in2="colormatrix"
         id="feComposite16689"
         in="fbSourceGraphic"
         operator="arithmetic"
         k2="1"
         k3="0"
         k4="0"
         result="composite"
         k1="0" />
      <feGaussianBlur
         id="feGaussianBlur16691"
         stdDeviation="9 0.01"
         result="blur1" />
      <feGaussianBlur
         id="feGaussianBlur16693"
         in="composite"
         stdDeviation="0.01 9"
         result="blur2" />
      <feBlend
         in2="blur1"
         id="feBlend16695"
         in="blur2"
         mode="darken"
         result="blend" />
    </filter>
    <filter
       inkscape:menu="Shadows and Glows"
       inkscape:menu-tooltip="Cut out, add inner shadow and colorize some parts of an image"
       style="color-interpolation-filters:sRGB"
       inkscape:label="Emergence"
       id="filter3763-0-8"
       x="-0.091317444"
       y="-0.091316236"
       width="1.2206838"
       height="1.2206809">
      <feColorMatrix
         values="0 0 0 0 0 0 0 0 0 0 0 0 0 0 0 0.21 0.72 0.07 0 0 "
         result="result1"
         id="feColorMatrix3735-8-5" />
      <feColorMatrix
         values="1 0 0 0 0 0 1 0 0 0 0 0 1 0 0 0 0 0 2 0 "
         result="result9"
         id="feColorMatrix3737-4-9" />
      <feComposite
         in2="result9"
         in="SourceGraphic"
         operator="in"
         result="result4"
         id="feComposite3739-7-2" />
      <feFlood
         result="result2"
         flood-color="rgb(0,0,0)"
         id="feFlood3741-5-6" />
      <feComposite
         in2="result9"
         operator="in"
         result="result10"
         id="feComposite3743-0-0" />
      <feComposite
         in2="result4"
         operator="atop"
         id="feComposite3745-8-2" />
      <feGaussianBlur
         stdDeviation="3"
         result="result8"
         id="feGaussianBlur3747-9-2" />
      <feOffset
         dx="3"
         dy="3"
         result="result3"
         in="result8"
         id="feOffset3749-9-2" />
      <feFlood
         flood-opacity="1"
         flood-color="rgb(219,173,62)"
         result="result5"
         id="feFlood3751-5-7" />
      <feMerge
         result="result6"
         id="feMerge3759-6-2">
        <feMergeNode
           in="result5"
           id="feMergeNode3753-3-3" />
        <feMergeNode
           in="result3"
           id="feMergeNode3755-2-8" />
        <feMergeNode
           in="result4"
           id="feMergeNode3757-9-5" />
      </feMerge>
      <feComposite
         in2="SourceGraphic"
         operator="in"
         result="result7"
         id="feComposite3761-6-5" />
    </filter>
    <inkscape:path-effect
       effect="fillet_chamfer"
       id="path-effect1170-6-7"
       is_visible="true"
       lpeversion="1"
       satellites_param="F,0,0,1,0,4,0,1 @ F,0,0,1,0,4,0,1 @ F,0,0,1,0,4,0,1 @ F,0,0,1,0,4,0,1 @ F,0,0,1,0,4,0,1 @ F,0,0,1,0,4,0,1 @ F,0,0,1,0,4,0,1 @ F,0,0,1,0,4,0,1 @ F,0,0,1,0,4,0,1 @ F,0,0,1,0,4,0,1 @ F,0,0,1,0,4,0,1 @ F,0,0,1,0,4,0,1"
       unit="px"
       method="auto"
       mode="F"
       radius="4"
       chamfer_steps="1"
       flexible="false"
       use_knot_distance="true"
       apply_no_radius="true"
       apply_with_radius="true"
       only_selected="false"
       hide_knots="false"
       nodesatellites_param="F,0,0,1,0,4,0,1 @ F,0,0,1,0,4,0,1 @ F,0,0,1,0,4,0,1 @ F,0,0,1,0,4,0,1 @ F,0,0,1,0,4,0,1 @ F,0,0,1,0,4,0,1 @ F,0,0,1,0,4,0,1 @ F,0,0,1,0,4,0,1 @ F,0,0,1,0,4,0,1 @ F,0,0,1,0,4,0,1 @ F,0,0,1,0,4,0,1 @ F,0,0,1,0,4,0,1" />
  </defs>
  <g
     inkscape:groupmode="layer"
     id="layer2"
     inkscape:label="Layer 2" />
  <g
     inkscape:label="Layer 1"
     inkscape:groupmode="layer"
     id="layer1">
    <rect
       style="fill:#8eaee9;fill-opacity:1;stroke:#678de0;stroke-width:0;stroke-linecap:round;stroke-linejoin:round"
       id="rect2762"
       width="162.98334"
       height="93.397919"
       x="6.9816218e-07"
       y="3.0392475e-06" />
    <g
       id="g1"
       transform="matrix(0.83073038,0,0,0.83073038,-31.044607,-16.554831)">
      <g
         id="g2601"
         transform="matrix(1.4293539,0,0,1.4293539,40.208148,-28.327716)">
        <g
           id="g2"
           transform="matrix(1.8343106,0,0,1.8343106,-59.283363,-69.394729)">
          <path
             id="rect879"
             style="fill:#07881d;fill-opacity:1;stroke:none;stroke-width:7.57036;paint-order:markers stroke fill;filter:url(#filter3763-0-8)"
             d="m 54.59236,32.309893 v 18.281946 26.282978 a 4,4 135 0 1 -4,4 H 32.310416 a 4,4 135 0 0 -4,4 l 0,18.281953 a 4,4 45 0 0 4,4 H 50.59236 76.8743 a 4,4 135 0 0 4,-4 V 84.874817 58.591839 a 4,4 135 0 1 4,-4 l 18.28195,0 a 4,4 135 0 0 4,-4 V 32.309893 a 4,4 45 0 0 -4,-4 l -18.28195,0 -26.28194,0 a 4,4 135 0 0 -4,4 z"
             inkscape:path-effect="#path-effect1170-6-7"
             inkscape:original-d="M 54.59236,28.309893 V 54.591839 80.874817 H 28.310416 V 107.15677 H 54.59236 80.8743 V 80.874817 54.591839 h 26.28195 V 28.309893 H 80.8743 Z"
             transform="matrix(0.24191523,0,0,0.24191523,29.793495,51.187585)" />
          <path
             d="m 76.141888,65.104528 q -0.1905,0.6096 -0.5842,1.2827 -0.3937,0.6604 -1.0922,1.1176 -0.6985,0.4699 -1.8034,0.4699 -1.4224,0 -2.2606,-0.6223 -0.8255,-0.6223 -1.1811,-1.6383 -0.3556,-1.016 -0.3556,-2.2098 0,-0.6223 0.0127,-1.4732 0.0254,-0.8509 0.0508,-1.7653 0.0254,-0.9144 0.0508,-1.7653 0.0381,-0.8636 0.0635,-1.5113 0.0254,-0.6604 0.0381,-0.9779 -1.2446,0.127 -2.159,0.2794 -0.901699,0.1397 -1.155699,0.2159 -0.0762,-0.4064 -0.127,-0.8509 -0.0381,-0.4572 -0.0635,-0.8255 -0.0127,-0.3683 -0.0127,-0.4953 0.7112,-0.1016 1.650999,-0.2159 0.9525,-0.1143 1.8796,-0.1778 0.0127,-0.4953 0.0127,-1.2192 0,-0.7366 0,-1.3843 -0.0127,-0.5461 -0.0508,-1.0541 -0.0381,-0.5207 -0.0635,-0.8636 l 2.3876,-0.1397 q 0.0254,0.1905 0.0508,0.9144 0.0381,0.7112 0.0381,1.7272 0,0.381 0,0.9271 0,0.5334 0,0.9525 0.381,-0.0254 0.9398,-0.0508 0.5588,-0.0254 0.9017,-0.0254 0.5969,-0.0127 1.143,-0.0127 0.5461,0 0.9398,0.0127 0.3937,0.0127 0.4826,0.0254 0.0635,0.3429 0.0762,0.9525 0.0254,0.6096 0.0254,1.016 -0.127,-0.0127 -0.8763,-0.0127 -0.7366,-0.0127 -1.4605,0 -0.5207,0.0127 -1.143,0.0508 -0.6223,0.0254 -1.0668,0.0508 -0.0127,0.3302 -0.0508,0.9779 -0.0254,0.6477 -0.0508,1.4605 -0.0254,0.8001 -0.0508,1.6383 -0.0254,0.8255 -0.0381,1.5494 -0.0127,0.7112 -0.0127,1.1557 0,0.8001 0.0889,1.524 0.1016,0.7239 0.4572,1.1938 0.3683,0.4572 1.1557,0.4572 0.5334,0 0.8636,-0.381 0.3302,-0.381 0.508,-0.8763 0.1905,-0.4953 0.2794,-0.8255 0.1143,0.127 0.3302,0.3429 0.2286,0.2032 0.4826,0.4318 0.2667,0.2286 0.4699,0.4064 0.2159,0.1778 0.2794,0.2413 z"
             id="text1"
             style="font-size:25.4px;line-height:1.25;font-family:Grandstander;-inkscape-font-specification:'Grandstander, Normal';stroke-width:0.264583"
             transform="rotate(11.339701)"
             aria-label="t" />
          <path
             d="m 88.35979,65.177589 q -0.254,0.3556 -0.7493,0.8255 -0.4953,0.4572 -1.2319,0.889 -0.7366,0.4191 -1.7145,0.6985 -0.9779,0.2794 -2.2098,0.2794 -1.905,0 -3.3401,-0.7747 -1.4351,-0.7747 -2.2225,-2.2606 -0.7874,-1.4986 -0.7874,-3.6449 0,-2.0574 0.8509,-3.5687 0.8636,-1.511299 2.3622,-2.336799 1.4986,-0.8255 3.4417,-0.8255 2.4384,0 3.7973,1.4859 1.3716,1.485899 1.524,3.987799 0.0254,0.4064 0.0254,0.7874 0,0.3683 -0.0381,0.762 -0.1651,-0.0127 -0.6858,-0.0254 -0.508,-0.0254 -1.1938,-0.0381 -0.6858,-0.0254 -1.3843,-0.0381 -0.6858,-0.0254 -1.1811,-0.0254 -1.2827,0 -2.6289,0.127 -1.3462,0.127 -2.4003,0.2921 0.0127,0.3302 0.0635,0.6477 0.0508,0.3175 0.127,0.6096 0.2159,0.7747 0.7874,1.3462 0.5715,0.5588 1.3589,0.8636 0.8001,0.3048 1.6891,0.3048 0.9398,0 1.6383,-0.2794 0.6985,-0.2794 1.1938,-0.6858 0.508,-0.4064 0.8128,-0.7747 0.3175,-0.3683 0.4826,-0.5461 0.0762,0.0635 0.2921,0.2794 0.2286,0.2032 0.4826,0.4953 0.2667,0.2921 0.4953,0.5969 0.2413,0.2921 0.3429,0.5461 z m -9.7282,-5.1054 q 0.9144,-0.1524 2.1463,-0.2667 1.2446,-0.1143 2.8194,-0.1143 0.8255,0 1.397,0.0254 0.5842,0.0127 0.8128,0.0381 0,-0.4191 -0.1016,-0.889 -0.1397,-0.635 -0.508,-1.2319 -0.3683,-0.5969 -1.0033,-0.990599 -0.6223,-0.4064 -1.5748,-0.4064 -1.0922,0 -1.9939,0.4699 -0.889,0.457199 -1.4224,1.320799 -0.5334,0.8509 -0.5715,2.0447 z"
             id="text1-5"
             style="font-size:25.4px;line-height:1.25;font-family:Grandstander;-inkscape-font-specification:'Grandstander, Normal';stroke-width:0.264583"
             transform="rotate(11.339701)"
             aria-label="e " />
          <path
             d="m 99.087712,68.027461 q -0.2794,-0.4826 -0.7747,-1.2192 -0.4953,-0.7366 -1.1049,-1.5621 -0.6096,-0.8382 -1.2446,-1.6383 -0.635,-0.8001 -1.1938,-1.4224 -0.5461,-0.6223 -0.9144,-0.9144 -0.2286,0.1778 -0.635,0.4953 -0.3937,0.3175 -0.7366,0.6096 -0.3429,0.2794 -0.4445,0.3937 -0.0127,0.5461 -0.0508,1.3081 -0.0254,0.7493 -0.0635,1.5113 -0.0381,0.7493 -0.0762,1.3716 -0.0254,0.6096 -0.0508,0.8763 -0.2794,0.0254 -0.5842,0.0508 -0.3048,0.0254 -0.6096,0.0254 -0.3683,0 -0.7239,-0.0381 -0.3556,-0.0254 -0.635,-0.0635 0.0254,-0.3048 0.0635,-1.3335 0.0508,-1.0287 0.1143,-2.5273 0.0762,-1.5113 0.1524,-3.2766 0.0762,-1.777999 0.1397,-3.581399 0.0762,-1.8161 0.127,-3.429 0.0635,-1.6256 0.1016,-2.8194 0.0381,-1.2065 0.0381,-1.7526 0.2413,-0.0127 0.5207,-0.0254 0.2921,-0.0127 0.5842,-0.0127 0.381,0 0.7239,0.0381 0.3556,0.0254 0.635,0.1143 0,0.9525 -0.0254,2.1844 -0.0254,1.2192 -0.0635,2.54 -0.0254,1.3081 -0.0762,2.5273 -0.0381,1.2065 -0.0762,2.1336 -0.0254,0.9144 -0.0635,1.3589 0.7366,-0.7493 1.778,-1.524 1.0414,-0.7874 2.1463,-1.5113 1.1176,-0.7239 2.0955,-1.3081 0.9779,-0.5969 1.5875,-0.9525 0.1524,0.1651 0.342898,0.4191 0.2032,0.2413 0.3937,0.5207 0.2032,0.2794 0.3683,0.5334 0.1778,0.2413 0.2667,0.4064 -0.4318,0.2413 -1.181098,0.6858 -0.7493,0.4318 -1.5748,0.9398 -0.8255,0.508 -1.5621,0.9906 -0.7366,0.4699 -1.1557,0.7874 0.2794,0.215899 0.7874,0.749299 0.508,0.5334 1.143,1.2954 0.6477,0.7493 1.3335,1.6256 0.6858,0.8763 1.333498,1.7653 0.6477,0.889 1.143,1.7018 -0.1143,0.0762 -0.4191,0.2159 -0.3048,0.127 -0.6731,0.2794 -0.368298,0.1524 -0.711198,0.2794 -0.3302,0.127 -0.4953,0.1778 z"
             id="text1-0"
             style="font-size:25.4px;line-height:1.25;font-family:Grandstander;-inkscape-font-specification:'Grandstander, Normal';stroke-width:0.264583"
             transform="rotate(11.339701)"
             aria-label="k" />
          <path
             d="m 90.671487,90.200138 c -0.659506,-0.430177 -1.255333,-0.950228 -1.787482,-1.560157 -0.53215,-0.609928 -0.968251,-1.24313 -1.308304,-1.899604 -0.328334,-0.65894 -0.529482,-1.280409 -0.603443,-1.864405 0.114397,-0.0669 0.273198,-0.155385 0.476399,-0.265447 0.203203,-0.110055 0.425214,-0.217965 0.666032,-0.323709 0.245444,-0.11284 0.479325,-0.207942 0.701643,-0.28532 0.226942,-0.08447 0.414261,-0.13919 0.561956,-0.164151 0.0829,0.539289 0.233029,1.107256 0.450365,1.703906 0.221964,0.589556 0.512843,1.143197 0.872637,1.660921 0.364422,0.510632 0.791287,0.925529 1.280597,1.244692 0.468037,0.305287 0.933921,0.513138 1.397653,0.623553 0.475451,0.107951 0.908665,0.10243 1.299645,-0.01656 0.398073,-0.114368 0.717372,-0.355929 0.957901,-0.724684 0.277534,-0.425487 0.381012,-0.878582 0.310435,-1.359286 -0.06595,-0.487795 -0.249531,-0.996719 -0.550742,-1.526772 -0.296585,-0.537144 -0.65314,-1.08308 -1.069667,-1.637809 -0.502237,-0.671285 -0.933864,-1.326842 -1.294885,-1.966667 -0.349303,-0.642291 -0.545978,-1.286114 -0.590027,-1.931468 -0.03697,-0.640728 0.161966,-1.294392 0.596768,-1.960988 0.444052,-0.68078 1.005566,-1.123206 1.684538,-1.327279 0.686066,-0.199449 1.42099,-0.210349 2.204772,-0.03269 0.790875,0.182281 1.555068,0.51395 2.292579,0.995007 0.822613,0.536564 1.508463,1.135558 2.057573,1.796978 0.56082,0.658957 0.9354,1.246983 1.12376,1.764079 -0.107,0.102054 -0.27135,0.222292 -0.49305,0.360721 -0.21707,0.131336 -0.45064,0.256968 -0.70073,0.376896 -0.25006,0.119928 -0.49212,0.21981 -0.72615,0.299654 -0.19237,-0.448953 -0.46614,-0.935837 -0.82131,-1.460652 -0.04688,-0.06926 -0.09566,-0.137224 -0.146355,-0.203874 -0.333411,-0.438348 -0.749415,-0.820133 -1.248011,-1.145354 -0.382939,-0.249779 -0.78176,-0.444213 -1.196466,-0.583302 -0.410079,-0.146179 -0.795652,-0.190452 -1.15672,-0.132817 -0.361067,0.05764 -0.65724,0.263737 -0.888517,0.618311 -0.198899,0.304932 -0.267065,0.649649 -0.204498,1.034151 0.06966,0.389126 0.233511,0.804315 0.49156,1.245564 0.262674,0.434157 0.579614,0.893602 0.950819,1.378334 0.451985,0.577857 0.84523,1.152779 1.179738,1.724768 0.339133,0.564898 0.585457,1.124856 0.738971,1.679875 0.165232,0.552552 0.216533,1.101552 0.153925,1.646994 -0.058,0.538354 -0.253525,1.062823 -0.586566,1.573409 -0.531937,0.815517 -1.185188,1.359843 -1.959752,1.632977 -0.774562,0.273135 -1.60307,0.319021 -2.48552,0.137658 -0.88245,-0.181361 -1.7598,-0.556514 -2.632049,-1.125457 z"
             id="text1-8"
             style="font-size:25.4px;line-height:1.25;font-family:Grandstander;-inkscape-font-specification:'Grandstander, Normal';stroke-width:0.264583"
             aria-label="s"
             sodipodi:nodetypes="ssccscccccsccscccccsccscccscssscssccccccssss" />
        </g>
      </g>
      <g
         transform="matrix(0.21653174,0,0,-0.21653174,52.881666,112.05202)"
         id="g18333">
        <g
           id="g18993"
           transform="matrix(1.0045474,0,0,1.0045474,0.02926196,-0.78729074)">
          <g
             transform="rotate(90,55.323835,-14.937545)"
             id="g18283">
            <path
               fill="#ed3a0c"
               d="m -15.124611,29.068882 h 34.721359 a 5,5 0 0 0 5,-5 v -34.721359 a 5,5 0 0 0 -5,-5 H 7.2360687 a 5,5 0 0 1 -5,-5 v -12.36068 a 5,5 0 0 0 -5,-5 H -15.124611 a 5,5 0 0 0 -4.999999,5 v 57.082039 a 5,5 0 0 0 4.999999,5 z"
               id="path18281" />
          </g>
          <g
             transform="rotate(88.50001,75.005538,17.858884)"
             id="g18291">
            <path
               fill="#07871c"
               d="m -28.54102,-11.18034 h 12.36068 a 5,5 0 0 1 5,5 v 34.72136 a 5,5 0 0 0 5,5 h 34.72136 a 5,5 0 0 0 5,-5 V 16.18034 a 5,5 0 0 0 -5,-5 H 16.18034 a 5,5 0 0 1 -5,-5 v -34.72136 a 5,5 0 0 0 -5,-5 h -34.72136 a 5,5 0 0 0 -5,5 v 12.36068 a 5,5 0 0 0 5,5 z"
               id="path18289" />
          </g>
          <g
             transform="rotate(180,18.025177,-8.6230165)"
             id="g18303">
            <path
               fill="#79599f"
               d="m -41.957424,6.7082024 h 34.721359 a 5,5 0 0 1 5,4.9999996 v 12.36068 a 5,5 0 0 0 5,5 h 12.36068 a 5,5 0 0 0 5,-5 v -12.36068 a 5,5 0 0 1 5,-4.9999996 h 12.360679 a 5,5 0 0 0 5,-5 V -10.652477 a 5,5 0 0 0 -5,-5 h -79.442718 a 5,5 0 0 0 -5,5 V 1.7082024 a 5,5 0 0 0 5,5 z"
               id="path18301" />
          </g>
          <g
             transform="matrix(0.97672267,-0.00929195,0.00929195,0.97672267,35.213881,21.992328)"
             id="g18307">
            <path
               fill="#0c4eed"
               d="m -25,-20 v 65 a 5,5 0 0 0 3.535534,1.464466 L 46.464466,-21.464466 A 5,5 0 0 0 45,-25 h -65 a 5,5 0 0 0 -5,5 z"
               id="path18305" />
          </g>
          <g
             transform="rotate(-2.99997,-378.98829,-2115.6084)"
             id="g18311">
            <path
               fill="#9f5997"
               d="m -20,25 h 40 a 5,5 0 0 0 5,-5 v -40 a 5,5 0 0 0 -5,-5 h -40 a 5,5 0 0 0 -5,5 v 40 a 5,5 0 0 0 5,5 z"
               id="path18309" />
          </g>
          <g
             transform="rotate(-1.5,1323.4606,-3593.7846)"
             id="g18315">
            <path
               fill="#ed860c"
               d="m -38.75,18.75 h 65 a 5,5 0 0 0 5,-5 v -40 a 5,5 0 0 0 -5,-5 h -15 a 5,5 0 0 0 -5,5 v 15 a 5,5 0 0 1 -5,5 h -40 a 5,5 0 0 0 -5,5 v 15 a 5,5 0 0 0 5,5 z"
               id="path18313" />
          </g>
          <g
             transform="rotate(166.5,14.914947,42.498775)"
             id="g18319">
            <path
               fill="#ed860c"
               d="m -38.75,18.75 h 65 a 5,5 0 0 0 5,-5 v -40 a 5,5 0 0 0 -5,-5 h -15 a 5,5 0 0 0 -5,5 v 15 a 5,5 0 0 1 -5,5 h -40 a 5,5 0 0 0 -5,5 v 15 a 5,5 0 0 0 5,5 z"
               id="path18317" />
          </g>
          <g
             transform="rotate(87,-1.7151331,94.581499)"
             id="g18323">
            <path
               fill="#0ce4ed"
               d="m -33.013157,-6.7082024 h 12.36068 a 5,5 0 0 1 5,5 V 10.652477 a 5,5 0 0 0 5,5 H 1.7082024 a 5,5 0 0 1 5,5 v 12.36068 a 5,5 0 0 0 4.9999996,5 h 12.36068 a 5,5 0 0 0 5,-5 V -1.7082024 a 5,5 0 0 0 -5,-5 H 11.708202 A 5,5 0 0 1 6.7082024,-11.708202 v -12.36068 a 5,5 0 0 0 -5,-5 H -33.013157 a 5,5 0 0 0 -5,5 v 12.36068 a 5,5 0 0 0 5,4.9999996 z"
               id="path18321" />
          </g>
          <g
             transform="rotate(14.071151,-561.65772,243.79516)"
             id="g18327">
            <path
               fill="#9f5997"
               d="m -20,25 h 40 a 5,5 0 0 0 5,-5 v -40 a 5,5 0 0 0 -5,-5 h -40 a 5,5 0 0 0 -5,5 v 40 a 5,5 0 0 0 5,5 z"
               id="path18325" />
          </g>
          <g
             transform="rotate(-90,121.24408,13.603476)"
             id="g18331">
            <path
               fill="#4a5b33"
               d="m -32.5,18.75 h 65 a 5,5 0 0 0 5,-5 v -15 a 5,5 0 0 0 -5,-5 h -15 a 5,5 0 0 1 -5,-5 v -15 a 5,5 0 0 0 -5,-5 h -15 a 5,5 0 0 0 -5,5 v 15 a 5,5 0 0 1 -5,5 h -15 a 5,5 0 0 0 -5,5 v 15 a 5,5 0 0 0 5,5 z"
               id="path18329" />
          </g>
        </g>
        <g
           transform="translate(59.634705,-101.70474)"
           id="g18287" />
      </g>
    </g>
  </g>
  <metadata
     id="metadata4122">
    <rdf:RDF>
      <cc:Work
         rdf:about="">
        <dc:title>Steks Icon</dc:title>
      </cc:Work>
    </rdf:RDF>
  </metadata>
</svg>
