<?xml version="1.0" encoding="UTF-8" standalone="no"?>
<svg
   viewbox="0 0 1024 1024"
   width="1242"
   height="2208"
   version="1.1"
   id="svg60"
   sodipodi:docname="Turn this 5.5.svg"
   inkscape:version="1.2.2 (732a01da63, 2022-12-09)"
   inkscape:export-filename="Turn this.png"
   inkscape:export-xdpi="96"
   inkscape:export-ydpi="96"
   xmlns:inkscape="http://www.inkscape.org/namespaces/inkscape"
   xmlns:sodipodi="http://sodipodi.sourceforge.net/DTD/sodipodi-0.dtd"
   xmlns="http://www.w3.org/2000/svg"
   xmlns:svg="http://www.w3.org/2000/svg">
  <defs
     id="defs64" />
  <sodipodi:namedview
     id="namedview62"
     pagecolor="#ffffff"
     bordercolor="#000000"
     borderopacity="0.25"
     inkscape:showpageshadow="2"
     inkscape:pageopacity="0.0"
     inkscape:pagecheckerboard="true"
     inkscape:deskcolor="#d1d1d1"
     showgrid="false"
     inkscape:zoom="0.28104733"
     inkscape:cx="-257.96367"
     inkscape:cy="1058.5406"
     inkscape:window-width="1920"
     inkscape:window-height="1001"
     inkscape:window-x="1227"
     inkscape:window-y="1341"
     inkscape:window-maximized="1"
     inkscape:current-layer="svg60" />
  <rect
     style="fill:#8eaee9;fill-opacity:1;stroke:#678de0;stroke-width:0;stroke-linecap:round;stroke-linejoin:round;stroke-dasharray:none;stroke-opacity:1"
     id="rect470"
     width="1242"
     height="2208"
     x="0"
     y="1.1368684e-13" />
  <g
     transform="matrix(1.558682,3.1998372,3.0590856,-1.6303985,389.49913,2061.7264)"
     id="g179">
    <path
       fill="#33365b"
       d="m -28.54102,24.596748 h 57.08204 a 5,5 0 0 0 5,-5 V 7.2360687 a 5,5 0 0 0 -5,-5 H 16.18034 a 5,5 0 0 1 -5,-5 V -37.48529 a 5,5 0 0 0 -5,-5 H -6.18034 a 5,5 0 0 0 -5,5 v 34.7213587 a 5,5 0 0 1 -5,5 h -12.36068 a 5,5 0 0 0 -5,5 V 19.596748 a 5,5 0 0 0 5,5 z"
       id="path177" />
  </g>
  <g
     transform="matrix(-1.7938891,3.0620542,2.9273633,1.8764278,894.84411,1856.5978)"
     id="g183">
    <path
       fill="#749f59"
       d="m -28.54102,24.596748 h 12.36068 a 5,5 0 0 0 5,-5 V 7.2360687 a 5,5 0 0 1 5,-5 H 6.18034 a 5,5 0 0 1 5,5 V 19.596748 a 5,5 0 0 0 5,5 h 12.36068 a 5,5 0 0 0 5,-5 v -34.721359 a 5,5 0 0 0 -5,-4.999999 h -57.08204 a 5,5 0 0 0 -5,4.999999 v 34.721359 a 5,5 0 0 0 5,5 z"
       id="path181" />
  </g>
  <g
     transform="matrix(-3.3758012,0.65445537,0.62566777,3.5311252,258.73689,1908.8566)"
     id="g187">
    <path
       fill="#585b33"
       d="M -50.9017,11.18034 H 50.9017 a 5,5 0 0 0 5,-5 V -6.18034 a 5,5 0 0 0 -5,-5 H -50.9017 a 5,5 0 0 0 -5,5 V 6.18034 a 5,5 0 0 0 5,5 z"
       id="path185" />
  </g>
  <g
     transform="matrix(-2.1606416,-2.7909333,-2.6681683,2.2600549,600.73019,1625.1922)"
     id="g191">
    <path
       fill="#33365b"
       d="m -28.54102,24.596748 h 57.08204 a 5,5 0 0 0 5,-5 V 7.2360687 a 5,5 0 0 0 -5,-5 H 16.18034 a 5,5 0 0 1 -5,-5 V -37.48529 a 5,5 0 0 0 -5,-5 H -6.18034 a 5,5 0 0 0 -5,5 v 34.7213587 a 5,5 0 0 1 -5,5 h -12.36068 a 5,5 0 0 0 -5,5 V 19.596748 a 5,5 0 0 0 5,5 z"
       id="path189" />
  </g>
  <g
     transform="matrix(1.4780719,3.2414187,3.0988381,-1.5460795,561.30033,1923.3564)"
     id="g195">
    <path
       fill="#0c99ed"
       d="m -28.54102,6.7082024 h 12.36068 a 5,5 0 0 1 5,4.9999996 v 12.36068 a 5,5 0 0 0 5,5 h 34.72136 a 5,5 0 0 0 5,-5 v -12.36068 a 5,5 0 0 0 -5,-4.9999996 H 16.18034 a 5,5 0 0 1 -5,-5 V -33.013157 a 5,5 0 0 0 -5,-5 H -6.18034 a 5,5 0 0 0 -5,5 v 12.36068 a 5,5 0 0 1 -5,5 h -12.36068 a 5,5 0 0 0 -5,5 V 1.7082024 a 5,5 0 0 0 5,5 z"
       id="path193" />
  </g>
  <g
     transform="matrix(-1.5586809,3.1998377,3.0590861,1.6303973,934.17358,2002.5433)"
     id="g199">
    <path
       fill="#ed860c"
       d="m -38.75,18.75 h 65 a 5,5 0 0 0 5,-5 v -40 a 5,5 0 0 0 -5,-5 h -15 a 5,5 0 0 0 -5,5 v 15 a 5,5 0 0 1 -5,5 h -40 a 5,5 0 0 0 -5,5 v 15 a 5,5 0 0 0 5,5 z"
       id="path197" />
  </g>
  <g
     transform="matrix(1.558682,3.1998372,3.0590856,-1.6303985,1102.5295,2061.7264)"
     id="g203">
    <path
       fill="#33365b"
       d="m -28.54102,24.596748 h 57.08204 a 5,5 0 0 0 5,-5 V 7.2360687 a 5,5 0 0 0 -5,-5 H 16.18034 a 5,5 0 0 1 -5,-5 V -37.48529 a 5,5 0 0 0 -5,-5 H -6.18034 a 5,5 0 0 0 -5,5 v 34.7213587 a 5,5 0 0 1 -5,5 h -12.36068 a 5,5 0 0 0 -5,5 V 19.596748 a 5,5 0 0 0 5,5 z"
       id="path201" />
  </g>
  <g
     transform="matrix(-3.3582663,0.74666519,0.71382154,3.5127835,446.63209,1760.7806)"
     id="g207">
    <path
       fill="#4a5b33"
       d="m -32.5,18.75 h 65 a 5,5 0 0 0 5,-5 v -15 a 5,5 0 0 0 -5,-5 h -15 a 5,5 0 0 1 -5,-5 v -15 a 5,5 0 0 0 -5,-5 h -15 a 5,5 0 0 0 -5,5 v 15 a 5,5 0 0 1 -5,5 h -15 a 5,5 0 0 0 -5,5 v 15 a 5,5 0 0 0 5,5 z"
       id="path205" />
  </g>
  <g
     transform="matrix(0.0898749,3.5900305,3.4321154,-0.09401014,156.94366,2068.3549)"
     id="g211">
    <path
       fill="#9f5997"
       d="m -20,25 h 40 a 5,5 0 0 0 5,-5 v -40 a 5,5 0 0 0 -5,-5 h -40 a 5,5 0 0 0 -5,5 v 40 a 5,5 0 0 0 5,5 z"
       id="path209" />
  </g>
  <g
     transform="matrix(-1.9446385,-2.9596521,-2.8294655,2.0341133,727.36846,1982.2435)"
     id="g215">
    <path
       fill="#078747"
       d="m -37.48529,24.596748 h 34.7213587 a 5,5 0 0 0 5,-5 V 7.2360687 a 5,5 0 0 1 5,-5 H 41.957428 a 5,5 0 0 0 5,-5 V -15.124611 a 5,5 0 0 0 -5,-4.999999 h -57.082039 a 5,5 0 0 0 -4.999999,4.999999 v 12.3606797 a 5,5 0 0 1 -5,5 h -12.36068 a 5,5 0 0 0 -5,5 V 19.596748 a 5,5 0 0 0 5,5 z"
       id="path213" />
  </g>
  <g
     transform="matrix(3.4039197,-0.46875368,-0.44813456,-3.5605375,758.24839,1743.7357)"
     id="g219">
    <path
       fill="#0c99ed"
       d="m -28.54102,6.7082024 h 12.36068 a 5,5 0 0 1 5,4.9999996 v 12.36068 a 5,5 0 0 0 5,5 h 34.72136 a 5,5 0 0 0 5,-5 v -12.36068 a 5,5 0 0 0 -5,-4.9999996 H 16.18034 a 5,5 0 0 1 -5,-5 V -33.013157 a 5,5 0 0 0 -5,-5 H -6.18034 a 5,5 0 0 0 -5,5 v 12.36068 a 5,5 0 0 1 -5,5 h -12.36068 a 5,5 0 0 0 -5,5 V 1.7082024 a 5,5 0 0 0 5,5 z"
       id="path217" />
  </g>
  <rect
     style="fill:#678de0;fill-opacity:1;stroke:#678de0;stroke-width:0;stroke-linecap:round;stroke-linejoin:round;stroke-dasharray:none;stroke-opacity:1"
     id="rect4697"
     width="1242"
     height="50"
     x="-1.860465e-08"
     y="2158" />
  <text
     xml:space="preserve"
     style="font-size:120px;text-align:start;text-anchor:start;fill:#ffffff;fill-opacity:1;stroke:#040404;stroke-width:0;stroke-linecap:round;stroke-linejoin:round;stroke-dasharray:none"
     x="356.50781"
     y="370.91144"
     id="text5645"><tspan
       sodipodi:role="line"
       x="356.50781"
       y="370.91144"
       id="tspan7899"
       style="font-style:normal;font-variant:normal;font-weight:normal;font-stretch:normal;font-size:120px;font-family:Arial;-inkscape-font-specification:'Arial, Normal';font-variant-ligatures:normal;font-variant-caps:normal;font-variant-numeric:normal;font-variant-east-asian:normal">Can you </tspan><tspan
       sodipodi:role="line"
       x="356.50781"
       y="522.30054"
       id="tspan422"
       style="font-style:normal;font-variant:normal;font-weight:normal;font-stretch:normal;font-size:120px;font-family:Arial;-inkscape-font-specification:'Arial, Normal';font-variant-ligatures:normal;font-variant-caps:normal;font-variant-numeric:normal;font-variant-east-asian:normal">turn this... </tspan></text>
</svg>
