<?xml version="1.0" encoding="UTF-8" standalone="no"?>
<!-- Created with Inkscape (http://www.inkscape.org/) -->

<svg
   width="210mm"
   height="297mm"
   viewBox="0 0 210 297"
   version="1.1"
   id="svg1"
   xml:space="preserve"
   inkscape:version="1.3 (0e150ed6c4, 2023-07-21)"
   sodipodi:docname="Medals.svg"
   xmlns:inkscape="http://www.inkscape.org/namespaces/inkscape"
   xmlns:sodipodi="http://sodipodi.sourceforge.net/DTD/sodipodi-0.dtd"
   xmlns="http://www.w3.org/2000/svg"
   xmlns:svg="http://www.w3.org/2000/svg"><sodipodi:namedview
     id="namedview1"
     pagecolor="#ffffff"
     bordercolor="#111111"
     borderopacity="1"
     inkscape:showpageshadow="0"
     inkscape:pageopacity="0"
     inkscape:pagecheckerboard="1"
     inkscape:deskcolor="#d1d1d1"
     inkscape:document-units="mm"
     inkscape:zoom="0.97998827"
     inkscape:cx="389.80059"
     inkscape:cy="557.14953"
     inkscape:window-width="3200"
     inkscape:window-height="1800"
     inkscape:window-x="0"
     inkscape:window-y="0"
     inkscape:window-maximized="1"
     inkscape:current-layer="g1" /><defs
     id="defs1" /><g
     inkscape:label="Layer 1"
     inkscape:groupmode="layer"
     id="layer1"><g
       id="g1"
       transform="matrix(0.26458333,0,0,0.26458333,58.266668,92.439395)"><path
         d="m -777.56034,201.6784 h 512.00001 v 512 h -512.00001 z"
         fill="#000000"
         fill-opacity="1"
         id="path1"
         style="fill:#6f34b1;fill-opacity:1" /><g
         class=""
         transform="translate(-274.33314,-103.81784)"
         id="g3"
         style="fill:#ff0000"><path
           d="M 140.5,19.156 V 192.28 l 21.813,28.532 h 15.53 V 19.156 Z m 56.03,0 V 220.812 H 318.594 V 19.156 Z m 140.75,0 v 201.656 h 12.345 l 22.094,-28.53 V 19.155 h -34.44 z M 173.94,239.5 v 18.125 H 338.03 V 239.5 Z m 30.78,36.813 8.032,10.53 c -25.262,12.014 -45.128,33.46 -55.094,59.813 l 65.03,47.47 5.47,3.968 -2.094,6.437 -17.312,53.69 45.656,-33.064 5.5,-3.97 5.47,3.97 62.468,45.22 c 24.872,-19.957 40.78,-50.6 40.78,-85.063 0,-6.494 -0.573,-12.854 -1.655,-19.032 l -58.845,42.94 -11,-15.095 L 361.688,347 c -10.683,-28.55 -32.932,-51.392 -61.125,-62.78 l 6.125,-7.908 h -38.813 l -25.5,78 -17.75,-5.812 23.594,-72.188 h -43.5 z m -52.374,89.625 c -1.123,6.286 -1.72,12.76 -1.72,19.375 0,32.163 13.84,61.008 35.907,80.937 l 19.69,-61.03 -53.876,-39.283 z m 107.562,78.343 -51.53,37.314 c 15.266,8.124 32.707,12.72 51.25,12.72 18.673,-0.002 36.218,-4.676 51.562,-12.908 l -51.282,-37.125 z"
           fill="#ffffff"
           fill-opacity="1"
           id="path3"
           style="fill:#ff0000" /></g><path
         id="path4"
         style="fill:#ff00ff"
         d="m 434.95798,-137.64217 v 0.002 201.656244 h 12.34571 l 22.09375,-28.53129 V -137.64217 Z m -196.7793,0.002 V 35.482834 l 21.8125,28.5332 h 15.53125 V -137.64021 Z m 56.0293,0 V 64.016034 H 416.27244 V -137.64021 Z M 271.61814,82.703534 V 100.82853 H 435.70798 V 82.703534 Z m 30.78125,36.812496 8.03125,10.53125 c -25.26196,12.01398 -45.12777,33.45956 -55.09375,59.8125 l 65.0293,47.46875 5.4707,3.96875 -2.09375,6.4375 -17.3125,53.68946 45.65625,-33.06446 5.5,-3.96875 5.4707,3.96875 62.4668,45.22071 c 24.87194,-19.95696 40.78125,-50.59958 40.78125,-85.0625 0,-6.494 -0.57425,-12.85521 -1.65625,-19.03321 l -58.84375,42.94141 -11,-15.0957 64.56055,-47.12696 c -10.68298,-28.54994 -32.93206,-51.39132 -61.125,-62.7793 l 6.125,-7.9082 h -38.8125 l -25.5,78 -17.75,-5.8125 23.59375,-72.1875 z m -52.375,89.625 c -1.123,6.286 -1.71875,12.76002 -1.71875,19.375 0,32.16294 13.83929,61.00854 35.90625,80.9375 l 19.68945,-61.02929 -53.875,-39.28321 z m 107.5625,78.34375 -51.5293,37.31446 c 15.26598,8.12398 32.70704,12.71875 51.25,12.71875 18.67296,-0.002 36.21657,-4.67621 51.56055,-12.90821 z" /><circle
         style="opacity:0.454466;fill:#ff00ff;fill-opacity:1;stroke-width:5;stroke-linecap:round;stroke-linejoin:round"
         id="path5"
         cx="356.4595"
         cy="228.51799"
         r="109.84613" /><g
         id="g8"
         transform="translate(0.375,0.281232)"><path
           id="rect8"
           style="opacity:0.454466;fill:#ff00ff;stroke-width:5;stroke-linecap:round;stroke-linejoin:round"
           d="m 273.66296,64.016066 161.29502,8e-6 0.75,36.812456 -31.34179,18.6875 -49.71972,-0.84417 -52.24708,0.84417 -30.78125,-18.6875 z m 0,-28.531287 H 434.95795 V 64.016066 H 273.66296 Z M 238.17867,-137.64017 H 469.39742 V 35.484787 H 238.17867 Z" /></g></g></g></svg>
