<?xml version="1.0" encoding="UTF-8" standalone="no"?>
<!-- Created with Inkscape (http://www.inkscape.org/) -->

<svg
   width="640"
   height="320"
   viewBox="0 0 169.33332 84.666669"
   version="1.1"
   id="svg5"
   inkscape:version="1.1.2 (0a00cf5339, 2022-02-04, custom)"
   sodipodi:docname="logo_monochrome.svg"
   xmlns:inkscape="http://www.inkscape.org/namespaces/inkscape"
   xmlns:sodipodi="http://sodipodi.sourceforge.net/DTD/sodipodi-0.dtd"
   xmlns="http://www.w3.org/2000/svg"
   xmlns:svg="http://www.w3.org/2000/svg">
  <sodipodi:namedview
     id="namedview7"
     pagecolor="#ffffff"
     bordercolor="#666666"
     borderopacity="1.0"
     inkscape:pageshadow="2"
     inkscape:pageopacity="0.0"
     inkscape:pagecheckerboard="0"
     inkscape:document-units="px"
     showgrid="false"
     units="px"
     width="1024px"
     inkscape:snap-object-midpoints="true"
     inkscape:zoom="2.1997092"
     inkscape:cx="212.52809"
     inkscape:cy="123.88001"
     inkscape:window-width="3200"
     inkscape:window-height="1711"
     inkscape:window-x="-795"
     inkscape:window-y="-1809"
     inkscape:window-maximized="1"
     inkscape:current-layer="g6128"
     fit-margin-top="0"
     fit-margin-left="0"
     fit-margin-right="0"
     fit-margin-bottom="0" />
  <defs
     id="defs2">
    <inkscape:path-effect
       effect="fillet_chamfer"
       id="path-effect6149"
       is_visible="true"
       lpeversion="1"
       satellites_param="F,0,0,1,0,5,0,1 @ F,0,0,1,0,5,0,1 @ F,0,0,1,0,5,0,1 @ F,0,0,1,0,5,0,1 @ F,0,0,1,0,5,0,1 @ F,0,0,1,0,5,0,1 @ F,0,0,1,0,5,0,1 @ F,0,0,1,0,5,0,1 @ F,0,0,1,0,5,0,1 @ F,0,0,1,0,5,0,1 @ F,0,0,1,0,5,0,1 @ F,0,0,1,0,5,0,1 @ F,0,0,1,0,5,0,1 @ F,0,0,1,0,5,0,1 @ F,0,0,1,0,5,0,1 @ F,0,0,1,0,5,0,1 @ F,0,0,1,0,5,0,1 @ F,0,0,1,0,5,0,1 @ F,0,0,1,0,5,0,1 @ F,0,0,1,0,5,0,1 @ F,0,0,1,0,5,0,1 @ F,0,0,1,0,5,0,1"
       unit="px"
       method="auto"
       mode="F"
       radius="5"
       chamfer_steps="1"
       flexible="false"
       use_knot_distance="true"
       apply_no_radius="true"
       apply_with_radius="true"
       only_selected="false"
       hide_knots="false" />
    <inkscape:path-effect
       effect="fillet_chamfer"
       id="path-effect6147"
       is_visible="true"
       lpeversion="1"
       satellites_param="F,0,0,1,0,2,0,1 @ F,0,0,1,0,2,0,1 @ F,0,0,1,0,2,0,1 @ F,0,0,1,0,2,0,1 @ F,0,0,1,0,2,0,1 @ F,0,0,1,0,2,0,1 @ F,0,0,1,0,2,0,1 @ F,0,0,1,0,2,0,1 @ F,0,0,1,0,2,0,1 @ F,0,0,1,0,2,0,1 @ F,0,0,1,0,2,0,1 @ F,0,0,1,0,2,0,1 @ F,0,0,1,0,2,0,1 @ F,0,0,1,0,2,0,1 @ F,0,0,1,0,2,0,1 @ F,0,0,1,0,2,0,1 @ F,0,0,1,0,2,0,1 @ F,0,0,1,0,2,0,1 @ F,0,0,1,0,2,0,1 @ F,0,0,1,0,2,0,1 @ F,0,0,1,0,2,0,1 @ F,0,0,1,0,2,0,1"
       unit="px"
       method="auto"
       mode="F"
       radius="2"
       chamfer_steps="1"
       flexible="false"
       use_knot_distance="true"
       apply_no_radius="true"
       apply_with_radius="true"
       only_selected="false"
       hide_knots="false" />
    <inkscape:path-effect
       effect="fillet_chamfer"
       id="path-effect6121"
       is_visible="true"
       lpeversion="1"
       satellites_param="F,0,0,1,0,0,0,1 @ F,0,0,1,0,0,0,1 @ F,0,0,1,0,0,0,1 @ F,0,0,1,0,0,0,1 @ F,0,0,1,0,0,0,1 @ F,0,0,1,0,0,0,1 @ F,0,0,1,0,0,0,1 @ F,0,0,1,0,0,0,1 @ F,0,0,1,0,0,0,1 @ F,0,0,1,0,0,0,1 @ F,0,0,1,0,0,0,1 @ F,0,0,1,0,0,0,1 @ F,0,0,1,0,0,0,1 @ F,0,0,1,0,0,0,1 @ F,0,0,1,0,0,0,1 @ F,0,0,1,0,0,0,1 @ F,0,0,1,0,0,0,1 @ F,0,0,1,0,0,0,1 @ F,0,0,1,0,0,0,1 @ F,0,0,1,0,0,0,1 @ F,0,0,1,0,0,0,1 @ F,0,0,1,0,0,0,1"
       unit="px"
       method="auto"
       mode="F"
       radius="5"
       chamfer_steps="1"
       flexible="false"
       use_knot_distance="true"
       apply_no_radius="true"
       apply_with_radius="true"
       only_selected="false"
       hide_knots="false" />
    <inkscape:path-effect
       effect="fillet_chamfer"
       id="path-effect5363"
       is_visible="true"
       lpeversion="1"
       satellites_param="F,0,0,1,0,2,0,1 @ F,0,0,1,0,2,0,1 @ F,0,0,1,0,2,0,1 @ F,0,0,1,0,2,0,1 @ F,0,0,1,0,2,0,1 @ F,0,0,1,0,2,0,1 @ F,0,0,1,0,2,0,1 @ F,0,0,1,0,2,0,1 @ F,0,0,1,0,2,0,1 @ F,0,0,1,0,2,0,1 @ F,0,0,1,0,2,0,1 @ F,0,0,1,0,2,0,1 @ F,0,0,1,0,2,0,1 @ F,0,0,1,0,2,0,1 @ F,0,0,1,0,2,0,1 @ F,0,0,1,0,2,0,1 @ F,0,0,1,0,2,0,1 @ F,0,0,1,0,2,0,1 @ F,0,0,1,0,2,0,1 @ F,0,0,1,0,2,0,1 @ F,0,0,1,0,2,0,1 @ F,0,0,1,0,2,0,1 @ F,0,0,1,0,2,0,1 @ F,0,0,1,0,2,0,1"
       unit="px"
       method="auto"
       mode="F"
       radius="2"
       chamfer_steps="1"
       flexible="false"
       use_knot_distance="true"
       apply_no_radius="true"
       apply_with_radius="true"
       only_selected="false"
       hide_knots="false" />
    <inkscape:path-effect
       effect="fillet_chamfer"
       id="path-effect5361"
       is_visible="true"
       lpeversion="1"
       satellites_param="F,0,0,1,0,5,0,1 @ F,0,0,1,0,5,0,1 @ F,0,0,1,0,5,0,1 @ F,0,0,1,0,5,0,1 @ F,0,0,1,0,5,0,1 @ F,0,0,1,0,5,0,1 @ F,0,0,1,0,5,0,1 @ F,0,0,1,0,5,0,1 @ F,0,0,1,0,5,0,1 @ F,0,0,1,0,5,0,1 @ F,0,0,1,0,5,0,1 @ F,0,0,1,0,5,0,1 @ F,0,0,1,0,5,0,1 @ F,0,0,1,0,5,0,1 @ F,0,0,1,0,5,0,1 @ F,0,0,1,0,5,0,1"
       unit="px"
       method="auto"
       mode="F"
       radius="5"
       chamfer_steps="1"
       flexible="false"
       use_knot_distance="true"
       apply_no_radius="true"
       apply_with_radius="true"
       only_selected="false"
       hide_knots="false" />
    <inkscape:path-effect
       effect="fillet_chamfer"
       id="path-effect5359"
       is_visible="true"
       lpeversion="1"
       satellites_param="F,0,0,1,0,5,0,1 @ F,0,0,1,0,5,0,1 @ F,0,0,1,0,5,0,1 @ F,0,0,1,0,5,0,1 @ F,0,0,1,0,5,0,1 @ F,0,0,1,0,5,0,1 @ F,0,0,1,0,5,0,1 @ F,0,0,1,0,5,0,1 @ F,0,0,1,0,5,0,1 @ F,0,0,1,0,5,0,1 @ F,0,0,1,0,5,0,1 @ F,0,0,1,0,5,0,1 @ F,0,0,1,0,5,0,1 @ F,0,0,1,0,5,0,1 @ F,0,0,1,0,5,0,1 @ F,0,0,1,0,5,0,1 @ F,0,0,1,0,5,0,1 @ F,0,0,1,0,5,0,1 @ F,0,0,1,0,5,0,1 @ F,0,0,1,0,5,0,1 @ F,0,0,1,0,5,0,1 @ F,0,0,1,0,5,0,1 @ F,0,0,1,0,5,0,1 @ F,0,0,1,0,5,0,1"
       unit="px"
       method="auto"
       mode="F"
       radius="5"
       chamfer_steps="1"
       flexible="false"
       use_knot_distance="true"
       apply_no_radius="true"
       apply_with_radius="true"
       only_selected="false"
       hide_knots="false" />
    <inkscape:path-effect
       effect="fillet_chamfer"
       id="path-effect5357"
       is_visible="true"
       lpeversion="1"
       satellites_param="F,0,0,1,0,5,0,1 @ F,0,0,1,0,5,0,1 @ F,0,0,1,0,5,0,1 @ F,0,0,1,0,5,0,1 @ F,0,0,1,0,5,0,1 @ F,0,0,1,0,5,0,1 @ F,0,0,1,0,5,0,1 @ F,0,0,1,0,5,0,1 @ F,0,0,1,0,5,0,1 @ F,0,0,1,0,5,0,1 @ F,0,0,1,0,5,0,1 @ F,0,0,1,0,5,0,1 @ F,0,0,1,0,5,0,1 @ F,0,0,1,0,5,0,1 @ F,0,0,1,0,5,0,1 @ F,0,0,1,0,5,0,1 @ F,0,0,1,0,5,0,1 @ F,0,0,1,0,5,0,1 @ F,0,0,1,0,5,0,1 @ F,0,0,1,0,5,0,1 @ F,0,0,1,0,5,0,1 @ F,0,0,1,0,5,0,1 @ F,0,0,1,0,5,0,1"
       unit="px"
       method="auto"
       mode="F"
       radius="5"
       chamfer_steps="1"
       flexible="false"
       use_knot_distance="true"
       apply_no_radius="true"
       apply_with_radius="true"
       only_selected="false"
       hide_knots="false" />
    <inkscape:path-effect
       effect="fillet_chamfer"
       id="path-effect5355"
       is_visible="true"
       lpeversion="1"
       satellites_param="F,0,0,1,0,5,0,1 @ F,0,0,1,0,5,0,1 @ F,0,0,1,0,5,0,1 @ F,0,0,1,0,5,0,1 @ F,0,0,1,0,5,0,1 @ F,0,0,1,0,5,0,1 @ F,0,0,1,0,5,0,1 @ F,0,0,1,0,5,0,1 @ F,0,0,1,0,5,0,1 @ F,0,0,1,0,5,0,1 @ F,0,0,1,0,5,0,1 @ F,0,0,1,0,5,0,1 @ F,0,0,1,0,5,0,1 @ F,0,0,1,0,5,0,1 @ F,0,0,1,0,5,0,1 @ F,0,0,1,0,5,0,1 @ F,0,0,1,0,5,0,1 @ F,0,0,1,0,5,0,1 @ F,0,0,1,0,5,0,1 @ F,0,0,1,0,5,0,1 @ F,0,0,1,0,5,0,1 @ F,0,0,1,0,5,0,1"
       unit="px"
       method="auto"
       mode="F"
       radius="5"
       chamfer_steps="1"
       flexible="false"
       use_knot_distance="true"
       apply_no_radius="true"
       apply_with_radius="true"
       only_selected="false"
       hide_knots="false" />
  </defs>
  <g
     inkscape:label="Layer 1"
     inkscape:groupmode="layer"
     id="layer1"
     transform="translate(-8.2321842,-98.2731)">
    <g
       id="g5384"
       transform="translate(7.5460404,6.0678536)">
      <g
         id="g6128"
         transform="translate(-22.616458,6.0678531)">
        <path
           id="rect846-0-3-8"
           style="fill:none;fill-opacity:1;stroke:#000000;stroke-width:5;stroke-linejoin:round;stroke-miterlimit:4;stroke-dasharray:none;paint-order:markers stroke fill"
           d="m 216.8291,458.47356 -1.18749,22.57046 a 4.9997289,4.9997289 48.010151 0 0 4.73041,5.25552 l 29.21885,1.53569 a 4.9997131,4.9997131 48.010241 0 1 4.73039,5.25552 l -1.18745,22.5685 a 158238.75,158238.75 93.010075 0 0 -0.52512,9.9862 l -1.18613,22.57042 a 158279.11,158279.11 93.010074 0 1 -0.52512,9.9862 l -1.18745,22.56851 a 167408.78,167408.78 93.010173 0 0 -0.52514,9.9862 l -1.1861,22.56847 a 5.000273,5.000273 48.010025 0 0 4.73067,5.2558 l 29.21694,1.53712 a 5.00001,5.00001 138.01165 0 0 5.25579,-4.7304 l 1.18749,-22.57046 a 3181922.8,3181922.8 93.011794 0 1 0.52542,-9.98618 l 1.18745,-22.56851 a 167408.78,167408.78 93.010173 0 0 0.52514,-9.9862 l 1.1861,-22.56847 a 167363.62,167363.62 93.010173 0 1 0.52514,-9.9862 l 1.18745,-22.5685 a 5.0002752,5.0002752 138.01031 0 1 5.25583,-4.73065 l 29.21691,1.53566 a 5.0002752,5.0002752 138.01031 0 0 5.25583,-4.73065 l 1.18745,-22.5685 a 4.9997131,4.9997131 48.010241 0 0 -4.73039,-5.25552 l -29.21886,-1.53569 a 191481.98,191481.98 3.0100932 0 1 -9.9862,-0.52512 l -29.21694,-1.53712 a 3812530.3,3812530.3 3.0115142 0 0 -9.98619,-0.52537 l -29.21888,-1.53714 a 5.0000231,5.0000231 138.01157 0 0 -5.2558,4.73041 z"
           inkscape:path-effect="#path-effect5361"
           inkscape:original-d="m 217.0918,453.48047 -1.71289,32.55664 39.20507,2.06055 -1.71289,32.55468 -1.71093,32.55664 -1.71289,32.55469 -1.71094,32.55469 39.20312,2.0625 1.71289,-32.55664 1.71289,-32.55469 1.71094,-32.55469 1.71289,-32.55468 39.20313,2.06054 1.71289,-32.55468 -39.20508,-2.06055 -39.20312,-2.0625 z"
           transform="scale(0.26458333)" />
        <path
           id="rect846-0-3-33"
           style="fill:none;fill-opacity:1;stroke:#000000;stroke-width:1.32291663;stroke-linejoin:round;stroke-miterlimit:4;stroke-dasharray:none;paint-order:markers stroke fill"
           d="m 48.822072,112.14601 -4.451017,0.37076 -8.437213,0.7028 a 795312.98,795312.98 175.23853 0 1 -3.986195,0.33203 l -4.45153,0.37078 a 2.0000003,2.0000003 130.23868 0 0 -1.827088,2.15911 l 0.370779,4.45153 a 784608.03,784608.03 85.23854 0 0 0.33203,3.9862 l 0.370759,4.45101 a 71595.351,71595.351 85.236793 0 0 0.332152,3.98619 l 0.371053,4.45155 a 2.0001115,2.0001115 40.23679 0 0 2.159229,1.82707 l 4.451016,-0.37076 a 65383.713,65383.713 175.23663 0 0 3.986184,-0.33216 l 4.451039,-0.37104 a 1.9999887,1.9999887 40.235044 0 1 2.159218,1.82695 l 0.371053,4.45155 a 1.9998788,1.9998788 130.23694 0 1 -1.826967,2.1591 l -4.451533,0.37078 a 786118.6,786118.6 175.23853 0 0 -3.986195,0.33203 l -4.451016,0.37076 a 2.0000102,2.0000102 130.23853 0 0 -1.827087,2.15912 l 0.37078,4.45153 a 1.9998674,1.9998674 40.23678 0 0 2.159097,1.82696 l 4.451036,-0.37104 a 60336.338,60336.338 175.23678 0 1 3.986185,-0.33215 l 4.451533,-0.37078 a 786118.6,786118.6 175.23853 0 0 3.986195,-0.33203 l 4.451016,-0.37076 a 2.0000002,2.0000002 130.23839 0 0 1.827077,-2.15912 l -0.370759,-4.45101 a 803150.24,803150.24 85.238537 0 1 -0.33203,-3.9862 l -0.37078,-4.45153 a 803150.24,803150.24 85.238537 0 0 -0.33203,-3.9862 l -0.370759,-4.45101 a 2.0000099,2.0000099 40.238536 0 0 -2.159118,-1.82709 l -4.451531,0.37078 a 793765.77,793765.77 175.23853 0 0 -3.986195,0.33203 l -4.451019,0.37076 a 1.9999998,1.9999998 40.238391 0 1 -2.159117,-1.82708 l -0.370759,-4.45101 a 2.0001226,2.0001226 130.23664 0 1 1.827067,-2.15924 l 4.451039,-0.37104 a 59335.575,59335.575 175.23681 0 1 3.986185,-0.33215 l 4.45153,-0.37077 a 1.9998665,1.9998665 130.23683 0 0 1.826957,-2.1591 l -0.371033,-4.45104 a 2.0001211,2.0001211 40.236654 0 0 -2.159238,-1.82707 z"
           inkscape:path-effect="#path-effect5363"
           inkscape:original-d="m 50.815169,111.97999 -8.437211,0.7028 -8.437213,0.7028 -8.437726,0.7028 0.702799,8.43773 0.702799,8.43721 0.703317,8.43773 8.43721,-0.7028 8.437213,-0.70332 0.703315,8.43773 -8.437729,0.7028 -8.43721,0.7028 0.7028,8.43773 8.43721,-0.70332 8.437729,-0.7028 8.43721,-0.7028 -0.702799,-8.43721 -0.7028,-8.43773 -0.702799,-8.43721 -8.437727,0.7028 -8.437213,0.7028 -0.702799,-8.43721 8.437213,-0.70332 8.437726,-0.70279 z" />
        <path
           id="rect846-0-3-33-7"
           style="fill:none;fill-opacity:1;stroke:#000000;stroke-width:5;stroke-linejoin:round;stroke-miterlimit:4;stroke-dasharray:none;paint-order:markers stroke fill"
           d="m 623.71821,420.91336 -3.2079,21.76508 a 165877.95,165877.95 98.38604 0 1 -1.45842,9.89308 l -3.20925,21.76516 a 164907.62,164907.62 98.38603 0 0 -1.45842,9.89308 l -3.20789,21.76509 a 5.0000002,5.0000002 53.384294 0 0 4.2175,5.67562 l 21.76508,3.20789 31.6582,4.66602 a 5.0000015,5.0000015 53.384304 0 1 4.2175,5.67562 l -3.20789,21.76508 a 4.9999987,4.9999987 143.3843 0 1 -5.67562,4.2175 l -21.76509,-3.2079 -31.6582,-4.66601 a 5.0000015,5.0000015 143.3843 0 0 -5.67562,4.2175 l -3.2079,21.76508 a 4.9999998,4.9999998 53.384312 0 0 4.2175,5.67562 l 21.76509,3.2079 31.6582,4.66601 a 1087539.9,1087539.9 8.3845589 0 1 9.89311,1.45816 l 21.76315,3.20782 a 5.0003015,5.0003015 143.38655 0 0 5.67595,-4.21741 l 3.20917,-21.76323 a 144561.42,144561.42 98.386295 0 0 1.45846,-9.89307 l 3.2079,-21.76508 4.66601,-31.65821 a 5.0000002,5.0000002 53.384294 0 0 -4.2175,-5.67562 l -21.76508,-3.20789 a 165155.87,165155.87 8.38603 0 1 -9.89308,-1.45842 L 651.718,484.67858 a 4.9999553,4.9999553 53.388021 0 1 -4.21712,-5.67587 l 3.20917,-21.76323 a 5.000303,5.000303 143.38654 0 1 5.67596,-4.21741 l 21.76313,3.20781 a 1159783.8,1159783.8 8.3845576 0 0 9.89312,1.45816 l 21.76509,3.2079 a 4.9999987,4.9999987 143.3843 0 0 5.67562,-4.2175 l 3.20789,-21.76508 a 5.000046,5.000046 53.384559 0 0 -4.21749,-5.67566 l -21.76315,-3.20782 a 1087539.9,1087539.9 8.3845589 0 0 -9.89311,-1.45816 l -21.76508,-3.20789 a 165031.63,165031.63 8.3860313 0 1 -9.89308,-1.45842 l -21.76516,-3.20925 a 4.9996986,4.9996986 143.38604 0 0 -5.67558,4.2172 z"
           inkscape:path-effect="#path-effect5359"
           inkscape:original-d="m 624.44727,415.9668 -4.66602,31.6582 -4.66797,31.6582 -4.66601,31.65821 31.6582,4.66601 31.6582,4.66602 -4.66601,31.6582 -31.65821,-4.66602 -31.6582,-4.66601 -4.66602,31.6582 31.65821,4.66602 31.6582,4.66601 31.65625,4.66602 4.66797,-31.65625 4.66602,-31.6582 4.66601,-31.65821 -31.6582,-4.66601 -31.65821,-4.66797 4.66797,-31.65625 31.65625,4.66601 31.65821,4.66602 4.66601,-31.6582 -31.65625,-4.66602 -31.6582,-4.66601 z"
           transform="scale(0.26458333)" />
        <path
           id="rect846-0-3-37"
           style="fill:none;fill-opacity:1;stroke:#000000;stroke-width:5;stroke-linejoin:round;stroke-miterlimit:4;stroke-dasharray:none;paint-order:markers stroke fill"
           d="m 411.80869,351.28042 -20.71114,7.42158 a 174320.65,174320.65 160.28713 0 1 -9.41395,3.37307 l -20.71096,7.42017 a 174320.65,174320.65 160.28713 0 0 -9.41395,3.37307 l -20.71114,7.42158 a 4.9998957,4.9998957 115.28489 0 0 -3.02016,6.39356 l 7.42139,20.70927 a 127849.88,127849.88 70.286535 0 1 3.37317,9.41391 l 7.42017,20.71096 a 174320.65,174320.65 70.287133 0 0 3.37307,9.41395 l 7.42158,20.71114 a 174320.65,174320.65 70.287133 0 1 3.37307,9.41395 l 7.42017,20.71096 10.79297,30.125 a 4.9997132,4.9997132 25.287133 0 0 6.39333,3.02035 l 20.71114,-7.42158 a 174320.65,174320.65 160.28713 0 1 9.41395,-3.37307 l 20.71096,-7.42017 30.125,-10.79297 a 5,5 115.28878 0 0 3.02062,-6.39342 l -7.42017,-20.71096 a 5,5 25.288776 0 0 -6.39342,-3.02062 l -20.71096,7.42017 a 174320.65,174320.65 160.28713 0 0 -9.41395,3.37307 l -20.71114,7.42158 a 5.0000015,5.0000015 25.285481 0 1 -6.3936,-3.02026 l -7.42159,-20.71114 a 4.9999985,4.9999985 115.28548 0 1 3.02026,-6.3936 l 20.71114,-7.42158 a 5.0002883,5.0002883 115.28714 0 0 3.02053,-6.39369 l -7.42016,-20.71096 a 4.9997117,4.9997117 25.287141 0 0 -6.39333,-3.02035 l -20.71114,7.42158 a 4.9997132,4.9997132 25.287133 0 1 -6.39333,-3.02035 l -7.42017,-20.71096 a 5.0001033,5.0001033 115.28818 0 1 3.02059,-6.39352 l 20.70906,-7.41997 a 272434.9,272434.9 160.28654 0 0 9.41392,-3.37317 l 20.71114,-7.42158 a 5.0002868,5.0002868 115.28713 0 0 3.02053,-6.39369 l -7.42017,-20.71096 a 4.9997132,4.9997132 25.287133 0 0 -6.39333,-3.02035 z"
           transform="scale(0.26458333)"
           inkscape:path-effect="#path-effect6149"
           inkscape:original-d="m 416.51562,349.59375 -30.125,10.79492 -30.125,10.79297 -30.125,10.79492 10.79493,30.12305 10.79297,30.125 10.79492,30.125 10.79297,30.125 10.79297,30.125 30.125,-10.79492 30.125,-10.79297 30.125,-10.79297 -10.79297,-30.125 -30.125,10.79297 -30.125,10.79492 -10.79493,-30.125 30.125,-10.79492 -10.79296,-30.125 -30.125,10.79492 -10.79297,-30.125 30.12304,-10.79297 30.125,-10.79492 z" />
        <path
           id="rect5408-9"
           style="fill:none;stroke:#000000;stroke-width:1.32291663;stroke-linecap:round;stroke-linejoin:round;paint-order:normal;stroke-miterlimit:4;stroke-dasharray:none"
           d="m 128.26329,117.02181 -0.81907,5.40437 -1.41837,9.3587 a 3014000.5,3014000.5 98.617991 0 1 -0.59938,3.95484 l -0.81908,5.40437 a 3829674.8,3829674.8 98.617999 0 0 -0.59938,3.95484 l -0.81907,5.40437 a 2.0000015,2.0000015 53.617991 0 0 1.67773,2.27711 l 5.40386,0.819 a 1.9999982,1.9999982 143.61799 0 0 2.27711,-1.67773 l 0.81907,-5.40438 a 2938863.4,2938863.4 98.617999 0 1 0.59938,-3.95484 l 0.10985,-0.72476 a 0.78970303,0.78970303 157.88013 0 1 1.35178,-0.54945 l 3.83571,5.20603 5.02204,6.8162 a 2.0000019,2.0000019 8.6179808 0 0 2.79649,0.42383 l 3.59588,-2.64937 a 1.9999981,1.9999981 98.617981 0 0 0.42383,-2.79649 l -2.64938,-3.59588 a 90833.239,90833.239 53.619215 0 1 -2.37259,-3.22037 l -2.64944,-3.5963 a 2.0000867,2.0000867 98.619235 0 1 0.4239,-2.79654 l 3.59589,-2.64938 6.8162,-5.02204 a 2,2 98.617954 0 0 0.42383,-2.79649 l -2.64938,-3.59588 a 2.0000033,2.0000033 8.6180009 0 0 -2.79649,-0.42383 l -3.59589,2.64937 a 1537038.9,1537038.9 143.61797 0 0 -3.22032,2.37266 l -3.59588,2.64939 a 1848307.4,1848307.4 143.61795 0 1 -3.03812,2.23842 l 0.40954,-2.70219 1.41845,-9.35921 a 1.9999994,1.9999994 53.617961 0 0 -1.67773,-2.27711 l -5.40386,-0.81899 a 2.0000006,2.0000006 143.61796 0 0 -2.27711,1.67773 z"
           inkscape:path-effect="#path-effect6147"
           inkscape:original-d="m 128.56298,115.04439 -1.41845,9.35921 -1.41837,9.3587 -1.41846,9.35921 -1.41845,9.35921 9.3587,1.41838 1.41845,-9.35922 0.70923,-4.6796 1.05209,1.42797 5.02204,6.81619 5.02204,6.8162 6.8162,-5.02203 -5.02204,-6.8162 -5.02196,-6.81672 6.81621,-5.02204 6.8162,-5.02204 -5.02204,-6.8162 -6.81621,5.02203 -6.8162,5.02205 -1.42796,1.05209 0.70923,-4.67961 1.41845,-9.35921 z" />
      </g>
    </g>
  </g>
</svg>
