<?xml version="1.0" encoding="UTF-8" standalone="no"?>
<svg
   viewbox="0 0 1024 1024"
   width="2048"
   height="2732"
   version="1.1"
   id="svg60"
   sodipodi:docname="Face Unique Challenges.svg"
   inkscape:version="1.2.2 (732a01da63, 2022-12-09)"
   inkscape:export-filename="Face Unique Challenges ipad.png"
   inkscape:export-xdpi="96"
   inkscape:export-ydpi="96"
   xmlns:inkscape="http://www.inkscape.org/namespaces/inkscape"
   xmlns:sodipodi="http://sodipodi.sourceforge.net/DTD/sodipodi-0.dtd"
   xmlns="http://www.w3.org/2000/svg"
   xmlns:svg="http://www.w3.org/2000/svg">
  <defs
     id="defs64">
    <rect
       x="231.93102"
       y="699.76372"
       width="850.35749"
       height="1222.5249"
       id="rect21192" />
  </defs>
  <sodipodi:namedview
     id="namedview62"
     pagecolor="#ffffff"
     bordercolor="#000000"
     borderopacity="0.25"
     inkscape:showpageshadow="2"
     inkscape:pageopacity="0.0"
     inkscape:pagecheckerboard="true"
     inkscape:deskcolor="#d1d1d1"
     showgrid="false"
     inkscape:zoom="0.35355339"
     inkscape:cx="644.88139"
     inkscape:cy="1807.3649"
     inkscape:window-width="1450"
     inkscape:window-height="1030"
     inkscape:window-x="335"
     inkscape:window-y="90"
     inkscape:window-maximized="0"
     inkscape:current-layer="svg60" />
  <g
     transform="matrix(-0.34297144,1.8505135,1.8505135,0.34297144,520.79999,298.68554)"
     id="g4" />
  <rect
     style="fill:#8eaee9;fill-opacity:1;stroke:#040404;stroke-width:0;stroke-linecap:round;stroke-linejoin:round;stroke-dasharray:none"
     id="rect470"
     width="2045.7114"
     height="2729.7114"
     x="1.1442871"
     y="1.1442871" />
  <g
     id="g17159"
     transform="matrix(1.5876981,0,0,-1.5876981,1046.3838,497.4724)">
    <g
       transform="matrix(3.2423944,0,0,3.2423944,-5.2024156,-584.39698)"
       id="g8827">
      <g
         transform="rotate(24,-68.294588,13.327983)"
         id="g8793">
        <path
           fill="#ed860c"
           d="m -38.75,18.75 h 65 a 5,5 0 0 0 5,-5 v -40 a 5,5 0 0 0 -5,-5 h -15 a 5,5 0 0 0 -5,5 v 15 a 5,5 0 0 1 -5,5 h -40 a 5,5 0 0 0 -5,5 v 15 a 5,5 0 0 0 5,5 z"
           id="path8791" />
      </g>
      <g
         transform="rotate(-155.99998,10.505921,35.776625)"
         id="g8797">
        <path
           fill="#4a5b33"
           d="m -32.5,18.75 h 65 a 5,5 0 0 0 5,-5 v -15 a 5,5 0 0 0 -5,-5 h -15 a 5,5 0 0 1 -5,-5 v -15 a 5,5 0 0 0 -5,-5 h -15 a 5,5 0 0 0 -5,5 v 15 a 5,5 0 0 1 -5,5 h -15 a 5,5 0 0 0 -5,5 v 15 a 5,5 0 0 0 5,5 z"
           id="path8795" />
      </g>
      <g
         transform="rotate(-178.49998,-23.652144,-56.913722)"
         id="g8801">
        <path
           fill="#33365b"
           d="m -28.54102,24.596748 h 57.08204 a 5,5 0 0 0 5,-5 V 7.2360687 a 5,5 0 0 0 -5,-5 H 16.18034 a 5,5 0 0 1 -5,-5 V -37.48529 a 5,5 0 0 0 -5,-5 H -6.18034 a 5,5 0 0 0 -5,5 v 34.7213587 a 5,5 0 0 1 -5,5 h -12.36068 a 5,5 0 0 0 -5,5 V 19.596748 a 5,5 0 0 0 5,5 z"
           id="path8799" />
      </g>
      <g
         transform="rotate(21,22.940855,-39.85483)"
         id="g8805">
        <path
           fill="#078747"
           d="m -37.48529,24.596748 h 34.7213587 a 5,5 0 0 0 5,-5 V 7.2360687 a 5,5 0 0 1 5,-5 H 41.957428 a 5,5 0 0 0 5,-5 V -15.124611 a 5,5 0 0 0 -5,-4.999999 h -57.082039 a 5,5 0 0 0 -4.999999,4.999999 v 12.3606797 a 5,5 0 0 1 -5,5 h -12.36068 a 5,5 0 0 0 -5,5 V 19.596748 a 5,5 0 0 0 5,5 z"
           id="path8803" />
      </g>
      <g
         transform="rotate(-159.50961,-8.6795316,-21.197205)"
         id="g8809">
        <path
           fill="#078772"
           d="m -45,12.5 h 90 a 5,5 0 0 0 5,-5 v -15 a 5,5 0 0 0 -5,-5 h -90 a 5,5 0 0 0 -5,5 v 15 a 5,5 0 0 0 5,5 z"
           id="path8807" />
      </g>
      <g
         transform="rotate(90,66.66335,-22.776298)"
         id="g8813">
        <path
           fill="#078772"
           d="m -45,12.5 h 90 a 5,5 0 0 0 5,-5 v -15 a 5,5 0 0 0 -5,-5 h -90 a 5,5 0 0 0 -5,5 v 15 a 5,5 0 0 0 5,5 z"
           id="path8811" />
      </g>
      <g
         transform="translate(-0.01464844,-150.00687)"
         id="g8821">
        <path
           fill="#ffffff"
           stroke="#000000"
           d="M -50.9017,11.18034 H 50.9017 a 5,5 0 0 0 5,-5 V -6.18034 a 5,5 0 0 0 -5,-5 H -50.9017 a 5,5 0 0 0 -5,5 V 6.18034 a 5,5 0 0 0 5,5 z"
           id="path8815" />
        <g
           transform="matrix(0.04,0,0,-0.04,-10,10)"
           id="g8819">
          <path
             fill="#000000"
             d="m 256,18.15 c -81.1,0 -146.6,65.51 -146.6,146.45 v 72.3 H 159 v -69.1 c 0,-53.7 43.4,-97.24 97,-97.24 53.5,0 97,44.84 97,97.24 v 69.1 h 49.6 V 164.6 C 402.6,85.66 336.9,18.15 256,18.15 Z M 86.9,255.6 C 72.3,278.4 64,304.7 64,332.4 c 0,88.3 85,161.5 192,161.5 107,0 192,-73.2 192,-161.5 0,-27.7 -8.3,-54 -22.9,-76.8 z"
             id="path8817" />
        </g>
      </g>
      <g
         transform="rotate(45,108.63726,-45.019742)"
         id="g8825">
        <circle
           r="28.20948"
           fill="#000000"
           stroke="#e71c1c"
           id="circle8823"
           cx="0"
           cy="0" />
      </g>
    </g>
    <g
       class=""
       style="fill:#e71c1c;fill-opacity:1"
       id="g9095"
       transform="matrix(0.23927956,0,0,-0.23927956,-63.92861,-812.10928)">
      <path
         d="m 425.344,22.22 c -9.027,0.085 -18.7,5.826 -24.344,19.405 -11.143,26.803 -31.93,59.156 -58.563,93.47 10.57,8.694 19.85,18.92 27.5,30.31 35.1,-26.57 68.882,-46.81 98.125,-56.75 44.6,-15.16 12.02,-69.72 -35.343,-35.343 26.91,-27.842 11.107,-51.27 -7.376,-51.093 z M 84.124,22.25 C 65.624,22.628 46.52,46.212 67.781,72.125 31.523,38.635 -0.802,85.48 37.095,102.813 c 28.085,12.844 62.54,35.66 99.062,64.343 8.125,-12.5 18.207,-23.61 29.78,-32.937 -26.782,-35.743 -48.44,-69.835 -61.78,-98.47 -4.515,-9.69 -12.22,-13.66 -20.03,-13.5 z m 169.5,99.688 c -67.104,0 -121.31,54.21 -121.31,121.312 0,44.676 24.04,83.613 59.905,104.656 v 56.406 h 18.718 v -47.468 c 5.203,1.95 10.576,3.552 16.093,4.78 v 42.688 h 18.69 v -40.03 c 2.614,0.167 5.247,0.25 7.905,0.25 2.637,0 5.25,-0.086 7.844,-0.25 v 40.03 h 18.686 v -42.687 c 5.52,-1.226 10.89,-2.834 16.094,-4.78 v 47.467 h 18.688 V 347.97 c 35.92,-21.03 60,-60.003 60,-104.72 0,-67.105 -54.208,-121.313 -121.313,-121.313 z m -66.874,88.218 c 19.88,0 36,16.12 36,36 0,19.88 -16.12,36 -36,36 -19.88,0 -36,-16.12 -36,-36 0,-19.88 16.12,-36 36,-36 z m 133.563,0 c 19.878,0 36,16.12 36,36 0,19.88 -16.122,36 -36,36 -19.88,0 -36,-16.12 -36,-36 0,-19.88 16.12,-36 36,-36 z m -66.72,52.344 29.938,48.188 H 223.657 L 253.595,262.5 Z m -107.28,70.563 c -40.263,32.472 -78.546,58.41 -109.22,72.437 -37.896,17.334 -5.57,64.146 30.688,30.656 -30.237,36.854 21.167,69.05 36.376,36.406 15.072,-32.352 40.727,-71.7 72.438,-112.5 -11.352,-7.506 -21.564,-16.603 -30.28,-27 z m 213.156,1.718 c -8.155,9.415 -17.542,17.72 -27.908,24.69 31.846,39.39 56.82,76.862 69.438,107.217 17.203,41.383 71.774,9.722 31.72,-31.718 47.363,34.376 79.94,-20.185 35.342,-35.345 -32.146,-10.926 -69.758,-34.3 -108.593,-64.844 z"
         fill="#fff"
         fill-opacity="1"
         id="path9093"
         style="fill:#e71c1c;fill-opacity:1" />
    </g>
  </g>
  <text
     xml:space="preserve"
     style="font-style:normal;font-variant:normal;font-weight:normal;font-stretch:normal;font-size:160px;font-family:Arial;-inkscape-font-specification:'Arial, Normal';font-variant-ligatures:normal;font-variant-caps:normal;font-variant-numeric:normal;font-variant-east-asian:normal;text-align:center;text-anchor:middle;fill:#ffffff;fill-opacity:1;stroke:#040404;stroke-width:0;stroke-linecap:round;stroke-linejoin:round;stroke-opacity:1"
     x="1020.7578"
     y="368.31378"
     id="text15681"><tspan
       sodipodi:role="line"
       x="1020.7578"
       y="368.31378"
       id="tspan15683">Face Unique</tspan><tspan
       sodipodi:role="line"
       x="1020.7578"
       y="568.31378"
       id="tspan21139">Challenges</tspan></text>
  <text
     xml:space="preserve"
     id="text21190"
     style="font-style:normal;font-variant:normal;font-weight:normal;font-stretch:normal;font-size:93.3333px;font-family:Arial;-inkscape-font-specification:'Arial, Normal';font-variant-ligatures:normal;font-variant-caps:normal;font-variant-numeric:normal;font-variant-east-asian:normal;text-align:center;white-space:pre;shape-inside:url(#rect21192);fill:#ffffff;stroke:#040404;stroke-width:0;stroke-linecap:round;stroke-linejoin:round" />
  <rect
     style="fill:#678de0;fill-opacity:1;stroke:#678de0;stroke-width:0;stroke-linecap:round;stroke-linejoin:round;stroke-dasharray:none;stroke-opacity:1"
     id="rect4697"
     width="2045.5833"
     height="57.243172"
     x="2.3526003"
     y="2674.7568" />
</svg>
