<?xml version="1.0" encoding="UTF-8" standalone="no"?>
<svg
   viewbox="0 0 1024 1024"
   width="2048"
   height="2732"
   version="1.1"
   id="svg60"
   sodipodi:docname="No Ads.svg"
   inkscape:version="1.2.2 (732a01da63, 2022-12-09)"
   inkscape:export-filename="No Ads ipad.png"
   inkscape:export-xdpi="96"
   inkscape:export-ydpi="96"
   xmlns:inkscape="http://www.inkscape.org/namespaces/inkscape"
   xmlns:sodipodi="http://sodipodi.sourceforge.net/DTD/sodipodi-0.dtd"
   xmlns="http://www.w3.org/2000/svg"
   xmlns:svg="http://www.w3.org/2000/svg">
  <defs
     id="defs64" />
  <sodipodi:namedview
     id="namedview62"
     pagecolor="#ffffff"
     bordercolor="#000000"
     borderopacity="0.25"
     inkscape:showpageshadow="2"
     inkscape:pageopacity="0.0"
     inkscape:pagecheckerboard="true"
     inkscape:deskcolor="#d1d1d1"
     showgrid="false"
     inkscape:zoom="0.19873047"
     inkscape:cx="-118.25061"
     inkscape:cy="1617.769"
     inkscape:window-width="1920"
     inkscape:window-height="1001"
     inkscape:window-x="-9"
     inkscape:window-y="-9"
     inkscape:window-maximized="1"
     inkscape:current-layer="g58" />
  <g
     transform="matrix(1,0,0,-1,512,512)"
     id="g58">
    <g
       transform="matrix(-0.34297144,-1.8505135,1.8505135,-0.34297144,8.7999876,213.31446)"
       id="g4" />
    <rect
       style="fill:#8eaee9;fill-opacity:1;stroke:#040404;stroke-width:0;stroke-linecap:round;stroke-linejoin:round;stroke-dasharray:none"
       id="rect470"
       width="2048"
       height="2732"
       x="-512"
       y="-512"
       transform="scale(1,-1)" />
    <rect
       style="fill:#678de0;fill-opacity:1;stroke:#678de0;stroke-width:0;stroke-linecap:round;stroke-linejoin:round;stroke-dasharray:none;stroke-opacity:1"
       id="rect4697"
       width="2045.5833"
       height="57.243172"
       x="-509.58325"
       y="2162.7568"
       transform="scale(1,-1)" />
    <g
       transform="matrix(4.9779462,0,0,4.9779462,345.66073,-759.18381)"
       id="g5955">
      <g
         transform="rotate(-44.99997,9.6703618,-48.468886)"
         id="g5901">
        <path
           fill="#0c99ed"
           d="m -28.54102,6.7082024 h 12.36068 a 5,5 0 0 1 5,4.9999996 v 12.36068 a 5,5 0 0 0 5,5 h 34.72136 a 5,5 0 0 0 5,-5 v -12.36068 a 5,5 0 0 0 -5,-4.9999996 H 16.18034 a 5,5 0 0 1 -5,-5 V -33.013157 a 5,5 0 0 0 -5,-5 H -6.18034 a 5,5 0 0 0 -5,5 v 12.36068 a 5,5 0 0 1 -5,5 h -12.36068 a 5,5 0 0 0 -5,5 V 1.7082024 a 5,5 0 0 0 5,5 z"
           id="path5899" />
      </g>
      <g
         transform="rotate(157.50002,90.70818,-50.839646)"
         id="g5905">
        <path
           fill="#4a5b33"
           d="m -32.5,18.75 h 65 a 5,5 0 0 0 5,-5 v -15 a 5,5 0 0 0 -5,-5 h -15 a 5,5 0 0 1 -5,-5 v -15 a 5,5 0 0 0 -5,-5 h -15 a 5,5 0 0 0 -5,5 v 15 a 5,5 0 0 1 -5,5 h -15 a 5,5 0 0 0 -5,5 v 15 a 5,5 0 0 0 5,5 z"
           id="path5903" />
      </g>
      <g
         transform="rotate(159,14.655854,19.067488)"
         id="g5909">
        <path
           fill="#91599f"
           d="m -46.42956,6.7082024 h 57.082037 a 5,5 0 0 1 5,4.9999996 v 12.36068 a 5,5 0 0 0 5,5 h 12.36068 a 5,5 0 0 0 5,-5 v -34.721359 a 5,5 0 0 0 -5,-5 H -46.42956 a 5,5 0 0 0 -5,5 V 1.7082024 a 5,5 0 0 0 5,5 z"
           id="path5907" />
      </g>
      <g
         transform="rotate(49.500004,-70.580987,58.564387)"
         id="g5913">
        <path
           fill="#870732"
           d="m -32.5,25 h 40 a 5,5 0 0 0 5,-5 V 5 a 5,5 0 0 1 5,-5 h 15 a 5,5 0 0 0 5,-5 v -15 a 5,5 0 0 0 -5,-5 h -40 a 5,5 0 0 0 -5,5 v 15 a 5,5 0 0 1 -5,5 h -15 a 5,5 0 0 0 -5,5 v 15 a 5,5 0 0 0 5,5 z"
           id="path5911" />
      </g>
      <g
         transform="rotate(160.50002,64.236099,-65.6373)"
         id="g5917">
        <path
           fill="#91599f"
           d="m -46.42956,6.7082024 h 57.082037 a 5,5 0 0 1 5,4.9999996 v 12.36068 a 5,5 0 0 0 5,5 h 12.36068 a 5,5 0 0 0 5,-5 v -34.721359 a 5,5 0 0 0 -5,-5 H -46.42956 a 5,5 0 0 0 -5,5 V 1.7082024 a 5,5 0 0 0 5,5 z"
           id="path5915" />
      </g>
      <g
         transform="rotate(178.50002,-20.652745,-50.216658)"
         id="g5921">
        <path
           fill="#79599f"
           d="m -41.957424,6.7082024 h 34.721359 a 5,5 0 0 1 5,4.9999996 v 12.36068 a 5,5 0 0 0 5,5 h 12.36068 a 5,5 0 0 0 5,-5 v -12.36068 a 5,5 0 0 1 5,-4.9999996 h 12.360679 a 5,5 0 0 0 5,-5 V -10.652477 a 5,5 0 0 0 -5,-5 h -79.442718 a 5,5 0 0 0 -5,5 V 1.7082024 a 5,5 0 0 0 5,5 z"
           id="path5919" />
      </g>
      <g
         transform="rotate(-143.99998,39.550817,-66.010978)"
         id="g5925">
        <path
           fill="#078747"
           d="m -37.48529,24.596748 h 34.7213587 a 5,5 0 0 0 5,-5 V 7.2360687 a 5,5 0 0 1 5,-5 H 41.957428 a 5,5 0 0 0 5,-5 V -15.124611 a 5,5 0 0 0 -5,-4.999999 h -57.082039 a 5,5 0 0 0 -4.999999,4.999999 v 12.3606797 a 5,5 0 0 1 -5,5 h -12.36068 a 5,5 0 0 0 -5,5 V 19.596748 a 5,5 0 0 0 5,5 z"
           id="path5923" />
      </g>
      <g
         transform="rotate(-70.5,-50.931945,-22.490881)"
         id="g5929">
        <path
           fill="#0c99ed"
           d="m -28.54102,6.7082024 h 12.36068 a 5,5 0 0 1 5,4.9999996 v 12.36068 a 5,5 0 0 0 5,5 h 34.72136 a 5,5 0 0 0 5,-5 v -12.36068 a 5,5 0 0 0 -5,-4.9999996 H 16.18034 a 5,5 0 0 1 -5,-5 V -33.013157 a 5,5 0 0 0 -5,-5 H -6.18034 a 5,5 0 0 0 -5,5 v 12.36068 a 5,5 0 0 1 -5,5 h -12.36068 a 5,5 0 0 0 -5,5 V 1.7082024 a 5,5 0 0 0 5,5 z"
           id="path5927" />
      </g>
      <g
         transform="rotate(13.500001,234.54279,316.67389)"
         id="g5933">
        <path
           fill="#870732"
           d="m -32.5,25 h 40 a 5,5 0 0 0 5,-5 V 5 a 5,5 0 0 1 5,-5 h 15 a 5,5 0 0 0 5,-5 v -15 a 5,5 0 0 0 -5,-5 h -40 a 5,5 0 0 0 -5,5 v 15 a 5,5 0 0 1 -5,5 h -15 a 5,5 0 0 0 -5,5 v 15 a 5,5 0 0 0 5,5 z"
           id="path5931" />
      </g>
      <g
         transform="rotate(111,47.01294,-18.491734)"
         id="g5937">
        <path
           fill="#5c9f59"
           d="m -32.5,0 h 15 a 5,5 0 0 1 5,5 v 15 a 5,5 0 0 0 5,5 h 40 a 5,5 0 0 0 5,-5 V 5 a 5,5 0 0 0 -5,-5 h -15 a 5,5 0 0 1 -5,-5 v -15 a 5,5 0 0 0 -5,-5 h -40 a 5,5 0 0 0 -5,5 v 15 a 5,5 0 0 0 5,5 z"
           id="path5935" />
      </g>
      <g
         transform="rotate(72,173.8629,-21.196698)"
         id="g5945">
        <path
           fill="#ffffff"
           stroke="#000000"
           d="m -20,25 h 40 a 5,5 0 0 0 5,-5 v -40 a 5,5 0 0 0 -5,-5 h -40 a 5,5 0 0 0 -5,5 v 40 a 5,5 0 0 0 5,5 z"
           id="path5939" />
        <g
           transform="matrix(0.01236068,-0.03804226,-0.03804226,-0.01236068,6.4203952,12.600735)"
           id="g5943">
          <path
             fill="#000000"
             d="m 256,18.15 c -81.1,0 -146.6,65.51 -146.6,146.45 v 72.3 H 159 v -69.1 c 0,-53.7 43.4,-97.24 97,-97.24 53.5,0 97,44.84 97,97.24 v 69.1 h 49.6 V 164.6 C 402.6,85.66 336.9,18.15 256,18.15 Z M 86.9,255.6 C 72.3,278.4 64,304.7 64,332.4 c 0,88.3 85,161.5 192,161.5 107,0 192,-73.2 192,-161.5 0,-27.7 -8.3,-54 -22.9,-76.8 z"
             id="path5941" />
        </g>
      </g>
      <path
         fill="#ffffff"
         stroke="#000000"
         d="m -80.452585,-65.262392 3.81966,-11.755705 a 5,5 0 0 0 -3.210197,-6.300367 l -11.755705,-3.81966 a 5,5 0 0 1 -3.210198,-6.300368 l 3.819661,-11.755708 a 5,5 0 0 1 6.300367,-3.21019 l 11.755705,3.81966 a 5,5 0 0 0 6.300367,-3.2102 l 3.81966,-11.75571 a 5,5 0 0 0 -3.210197,-6.30037 l -33.021975,-10.72949 a 5,5 0 0 0 -6.300363,3.2102 l -17.63932,54.288249 a 5,5 0 0 0 3.21019,6.300367 l 33.021977,10.72949 a 5,5 0 0 0 6.300368,-3.210198 z"
         id="path5947" />
      <g
         transform="matrix(0.04,0,0,-0.04,-111.35644,-92.317463)"
         id="g5951">
        <path
           fill="#000000"
           d="m 256,18.15 c -81.1,0 -146.6,65.51 -146.6,146.45 v 72.3 H 159 v -69.1 c 0,-53.7 43.4,-97.24 97,-97.24 53.5,0 97,44.84 97,97.24 v 69.1 h 49.6 V 164.6 C 402.6,85.66 336.9,18.15 256,18.15 Z M 86.9,255.6 C 72.3,278.4 64,304.7 64,332.4 c 0,88.3 85,161.5 192,161.5 107,0 192,-73.2 192,-161.5 0,-27.7 -8.3,-54 -22.9,-76.8 z"
           id="path5949" />
      </g>
    </g>
    <text
       xml:space="preserve"
       style="font-style:normal;font-variant:normal;font-weight:normal;font-stretch:normal;font-size:160px;font-family:Arial;-inkscape-font-specification:'Arial, Normal';font-variant-ligatures:normal;font-variant-caps:normal;font-variant-numeric:normal;font-variant-east-asian:normal;text-align:center;text-anchor:middle;fill:#ffffff;stroke:#040404;stroke-width:0;stroke-linecap:round;stroke-linejoin:round"
       x="508.99219"
       y="-145.29341"
       id="text6476"
       transform="scale(1,-1)"><tspan
         sodipodi:role="line"
         id="tspan6474"
         x="508.99219"
         y="-145.29341">No Ads</tspan><tspan
         sodipodi:role="line"
         x="508.99219"
         y="54.706589"
         id="tspan6478">No In-App Purchases</tspan></text>
  </g>
</svg>
