<svg
        viewbox = "0 0 512 512"
        width="512"
        height="512"
        xmlns="http://www.w3.org/2000/svg">
        <g transform="translate(256 256) scale(1,-1) ">
        

<g transform="translate(31.040527 -141.31567) rotate(45)  ">
<path fill="#0C4EED"  d="M-25 -20L -25 45A 5 5 0 0 0 -21.464466 46.464466L 46.464466 -21.464466A 5 5 0 0 0 45 -25L -20 -25A 5 5 0 0 0 -25 -20z"  />

                <g transform="rotate(315) translate(-10 10)  scale(0.04 -0.04) ">
                <path fill="#000000" d="M254.28 17.313c-81.048 0-146.624 65.484-146.624 146.406V236h49.594v-69.094c0-53.658 43.47-97.187 97.03-97.187 53.563 0 97.032 44.744 97.032 97.186V236h49.594v-72.28c0-78.856-65.717-146.407-146.625-146.407zM85.157 254.688c-14.61 22.827-22.844 49.148-22.844 76.78 0 88.358 84.97 161.5 191.97 161.5 106.998 0 191.968-73.142 191.968-161.5 0-27.635-8.26-53.95-22.875-76.78H85.155zM254 278.625c22.34 0 40.875 17.94 40.875 40.28 0 16.756-10.6 31.23-25.125 37.376l32.72 98.126h-96.376l32.125-98.125c-14.526-6.145-24.532-20.62-24.532-37.374 0-22.338 17.972-40.28 40.312-40.28z">
                </path>
                </g>
                </g>
<g transform="translate(18.266846 -32.50537) rotate(0)  ">
<path fill="#749F59"  d="M-28.54102 24.596748L -16.18034 24.596748A 5 5 0 0 0 -11.18034 19.596748L -11.18034 7.2360687A 5 5 0 0 1 -6.18034 2.2360687L 6.18034 2.2360687A 5 5 0 0 1 11.18034 7.2360687L 11.18034 19.596748A 5 5 0 0 0 16.18034 24.596748L 28.54102 24.596748A 5 5 0 0 0 33.54102 19.596748L 33.54102 -15.124611A 5 5 0 0 0 28.54102 -20.12461L -28.54102 -20.12461A 5 5 0 0 0 -33.54102 -15.124611L -33.54102 19.596748A 5 5 0 0 0 -28.54102 24.596748z"  />
</g>
<g transform="translate(22.83728 41.35321) rotate(40.500004)  ">
<path fill="#0C4EED"  d="M-25 -20L -25 45A 5 5 0 0 0 -21.464466 46.464466L 46.464466 -21.464466A 5 5 0 0 0 45 -25L -20 -25A 5 5 0 0 0 -25 -20z"  />
</g>
<g transform="translate(20.083374 11.264893) rotate(309)  ">
<path fill="#87075D"  d="M-37.48529 -2.2360687L -2.7639313 -2.2360687A 5 5 0 0 1 2.2360687 2.7639313L 2.2360687 37.48529A 5 5 0 0 0 7.2360687 42.48529L 19.596748 42.48529A 5 5 0 0 0 24.596748 37.48529L 24.596748 -19.596748A 5 5 0 0 0 19.596748 -24.596748L -37.48529 -24.596748A 5 5 0 0 0 -42.48529 -19.596748L -42.48529 -7.2360687A 5 5 0 0 0 -37.48529 -2.2360687z"  />
</g>
<g transform="translate(13.520752 77.68176) rotate(175.5)  ">
<path fill="#ED860C"  d="M-38.75 18.75L 26.25 18.75A 5 5 0 0 0 31.25 13.75L 31.25 -26.25A 5 5 0 0 0 26.25 -31.25L 11.25 -31.25A 5 5 0 0 0 6.25 -26.25L 6.25 -11.25A 5 5 0 0 1 1.25 -6.25L -38.75 -6.25A 5 5 0 0 0 -43.75 -1.25L -43.75 13.75A 5 5 0 0 0 -38.75 18.75z"  />
</g>
<g transform="translate(14.780518 -70.152466) rotate(180)  ">
<path fill="#3D335B"  d="M-38.75 6.25L 1.25 6.25A 5 5 0 0 1 6.25 11.25L 6.25 26.25A 5 5 0 0 0 11.25 31.25L 26.25 31.25A 5 5 0 0 0 31.25 26.25L 31.25 -13.75A 5 5 0 0 0 26.25 -18.75L -38.75 -18.75A 5 5 0 0 0 -43.75 -13.75L -43.75 1.25A 5 5 0 0 0 -38.75 6.25z"  />
</g>
<g transform="translate(30.220215 -106.68616) rotate(0)  ">
<path fill="#3D335B"  d="M-38.75 6.25L 1.25 6.25A 5 5 0 0 1 6.25 11.25L 6.25 26.25A 5 5 0 0 0 11.25 31.25L 26.25 31.25A 5 5 0 0 0 31.25 26.25L 31.25 -13.75A 5 5 0 0 0 26.25 -18.75L -38.75 -18.75A 5 5 0 0 0 -43.75 -13.75L -43.75 1.25A 5 5 0 0 0 -38.75 6.25z"  />
</g>
        </g>
        </svg>