<svg
        viewbox = "0 0 512 512"
        width="512"
        height="512"
        xmlns="http://www.w3.org/2000/svg">
        <g transform="translate(256 256) scale(1,-1) ">
        

<g transform="translate(4.14563 -149.7533) rotate(93)  ">
<path fill="#ED860C"  d="M-38.75 18.75L 26.25 18.75A 5 5 0 0 0 31.25 13.75L 31.25 -26.25A 5 5 0 0 0 26.25 -31.25L 11.25 -31.25A 5 5 0 0 0 6.25 -26.25L 6.25 -11.25A 5 5 0 0 1 1.25 -6.25L -38.75 -6.25A 5 5 0 0 0 -43.75 -1.25L -43.75 13.75A 5 5 0 0 0 -38.75 18.75z"  />
</g>
<g transform="translate(10.737427 -50.37671) rotate(91.50001)  ">
<path fill="#3D335B"  d="M-38.75 6.25L 1.25 6.25A 5 5 0 0 1 6.25 11.25L 6.25 26.25A 5 5 0 0 0 11.25 31.25L 26.25 31.25A 5 5 0 0 0 31.25 26.25L 31.25 -13.75A 5 5 0 0 0 26.25 -18.75L -38.75 -18.75A 5 5 0 0 0 -43.75 -13.75L -43.75 1.25A 5 5 0 0 0 -38.75 6.25z"  />
</g>
<g transform="translate(7.3389893 58.404236) rotate(270)  ">
<path fill="#585B33"  d="M-50.9017 11.18034L 50.9017 11.18034A 5 5 0 0 0 55.9017 6.18034L 55.9017 -6.18034A 5 5 0 0 0 50.9017 -11.18034L -50.9017 -11.18034A 5 5 0 0 0 -55.9017 -6.18034L -55.9017 6.18034A 5 5 0 0 0 -50.9017 11.18034z"  />
</g>
<g transform="translate(8.2178955 0.7763672) rotate(1.5)  ">
<path fill="#749F59"  d="M-28.54102 24.596748L -16.18034 24.596748A 5 5 0 0 0 -11.18034 19.596748L -11.18034 7.2360687A 5 5 0 0 1 -6.18034 2.2360687L 6.18034 2.2360687A 5 5 0 0 1 11.18034 7.2360687L 11.18034 19.596748A 5 5 0 0 0 16.18034 24.596748L 28.54102 24.596748A 5 5 0 0 0 33.54102 19.596748L 33.54102 -15.124611A 5 5 0 0 0 28.54102 -20.12461L -28.54102 -20.12461A 5 5 0 0 0 -33.54102 -15.124611L -33.54102 19.596748A 5 5 0 0 0 -28.54102 24.596748z"  />
</g>
<g transform="translate(9.77063 -245.8778) rotate(1.5)  ">
<path fill="#ED3A0C"  d="M-15.124611 29.068882L 19.596748 29.068882A 5 5 0 0 0 24.596748 24.068882L 24.596748 -10.652477A 5 5 0 0 0 19.596748 -15.652477L 7.2360687 -15.652477A 5 5 0 0 1 2.2360687 -20.652477L 2.2360687 -33.013157A 5 5 0 0 0 -2.7639313 -38.013157L -15.124611 -38.013157A 5 5 0 0 0 -20.12461 -33.013157L -20.12461 24.068882A 5 5 0 0 0 -15.124611 29.068882z"  />

                <g transform="rotate(358.5) translate(-10 10)  scale(0.04 -0.04) ">
                <path fill="#000000" d="M254.28 17.313c-81.048 0-146.624 65.484-146.624 146.406V236h49.594v-69.094c0-53.658 43.47-97.187 97.03-97.187 53.563 0 97.032 44.744 97.032 97.186V236h49.594v-72.28c0-78.856-65.717-146.407-146.625-146.407zM85.157 254.688c-14.61 22.827-22.844 49.148-22.844 76.78 0 88.358 84.97 161.5 191.97 161.5 106.998 0 191.968-73.142 191.968-161.5 0-27.635-8.26-53.95-22.875-76.78H85.155zM254 278.625c22.34 0 40.875 17.94 40.875 40.28 0 16.756-10.6 31.23-25.125 37.376l32.72 98.126h-96.376l32.125-98.125c-14.526-6.145-24.532-20.62-24.532-37.374 0-22.338 17.972-40.28 40.312-40.28z">
                </path>
                </g>
                </g>
<g transform="translate(18.149658 -185.70111) rotate(273)  ">
<path fill="#ED860C"  d="M-38.75 18.75L 26.25 18.75A 5 5 0 0 0 31.25 13.75L 31.25 -26.25A 5 5 0 0 0 26.25 -31.25L 11.25 -31.25A 5 5 0 0 0 6.25 -26.25L 6.25 -11.25A 5 5 0 0 1 1.25 -6.25L -38.75 -6.25A 5 5 0 0 0 -43.75 -1.25L -43.75 13.75A 5 5 0 0 0 -38.75 18.75z"  />
</g>
<g transform="translate(-0.07324219 -87.58435) rotate(273)  ">
<path fill="#3D335B"  d="M-38.75 6.25L 1.25 6.25A 5 5 0 0 1 6.25 11.25L 6.25 26.25A 5 5 0 0 0 11.25 31.25L 26.25 31.25A 5 5 0 0 0 31.25 26.25L 31.25 -13.75A 5 5 0 0 0 26.25 -18.75L -38.75 -18.75A 5 5 0 0 0 -43.75 -13.75L -43.75 1.25A 5 5 0 0 0 -38.75 6.25z"  />
</g>
<g transform="translate(11.587158 169.93921) rotate(88.50001)  ">
<path fill="#585B33"  d="M-50.9017 11.18034L 50.9017 11.18034A 5 5 0 0 0 55.9017 6.18034L 55.9017 -6.18034A 5 5 0 0 0 50.9017 -11.18034L -50.9017 -11.18034A 5 5 0 0 0 -55.9017 -6.18034L -55.9017 6.18034A 5 5 0 0 0 -50.9017 11.18034z"  />
</g>
        </g>
        </svg>