<svg
        viewbox = "0 0 512 512"
        width="512"
        height="512"
        xmlns="http://www.w3.org/2000/svg">
        <g transform="translate(256 256) scale(1,-1) ">
        

<g transform="translate(19.93689 -204.0705) rotate(262.50003)  ">
<path fill="#0C4EED"  d="M-25 -20L -25 45A 5 5 0 0 0 -21.464466 46.464466L 46.464466 -21.464466A 5 5 0 0 0 45 -25L -20 -25A 5 5 0 0 0 -25 -20z"  />
</g>
<g transform="translate(34.6734 -116.50079) rotate(262.50003)  ">
<path fill="#0C4EED"  d="M-25 -20L -25 45A 5 5 0 0 0 -21.464466 46.464466L 46.464466 -21.464466A 5 5 0 0 0 45 -25L -20 -25A 5 5 0 0 0 -25 -20z"  />
</g>
<g transform="translate(38.101135 -157.54633) rotate(82.50001)  ">
<path fill="#0C4EED"  d="M-25 -20L -25 45A 5 5 0 0 0 -21.464466 46.464466L 46.464466 -21.464466A 5 5 0 0 0 45 -25L -20 -25A 5 5 0 0 0 -25 -20z"  />
</g>
<g transform="translate(24.975952 -253.49512) rotate(307.5)  ">
<path fill="#0C4EED"  d="M-25 -20L -25 45A 5 5 0 0 0 -21.464466 46.464466L 46.464466 -21.464466A 5 5 0 0 0 45 -25L -20 -25A 5 5 0 0 0 -25 -20z"  />

                <g transform="rotate(52.5) translate(-10 10)  scale(0.04 -0.04) ">
                <path fill="#000000" d="M254.28 17.313c-81.048 0-146.624 65.484-146.624 146.406V236h49.594v-69.094c0-53.658 43.47-97.187 97.03-97.187 53.563 0 97.032 44.744 97.032 97.186V236h49.594v-72.28c0-78.856-65.717-146.407-146.625-146.407zM85.157 254.688c-14.61 22.827-22.844 49.148-22.844 76.78 0 88.358 84.97 161.5 191.97 161.5 106.998 0 191.968-73.142 191.968-161.5 0-27.635-8.26-53.95-22.875-76.78H85.155zM254 278.625c22.34 0 40.875 17.94 40.875 40.28 0 16.756-10.6 31.23-25.125 37.376l32.72 98.126h-96.376l32.125-98.125c-14.526-6.145-24.532-20.62-24.532-37.374 0-22.338 17.972-40.28 40.312-40.28z">
                </path>
                </g>
                </g>
<g transform="translate(59.078064 -70.47473) rotate(81.00001)  ">
<path fill="#0C4EED"  d="M-25 -20L -25 45A 5 5 0 0 0 -21.464466 46.464466L 46.464466 -21.464466A 5 5 0 0 0 45 -25L -20 -25A 5 5 0 0 0 -25 -20z"  />
</g>
        </g>
        </svg>