<svg
        viewbox = "0 0 512 512"
        width="512"
        height="512"
        xmlns="http://www.w3.org/2000/svg">
        <g transform="translate(256 256) scale(1,-1) ">
        

<g transform="translate(-51.13849 44.224304) rotate(25.500002)  ">
<path fill="#4A5B33"  d="M-32.5 18.75L 32.5 18.75A 5 5 0 0 0 37.5 13.75L 37.5 -1.25A 5 5 0 0 0 32.5 -6.25L 17.5 -6.25A 5 5 0 0 1 12.5 -11.25L 12.5 -26.25A 5 5 0 0 0 7.5 -31.25L -7.5 -31.25A 5 5 0 0 0 -12.5 -26.25L -12.5 -11.25A 5 5 0 0 1 -17.5 -6.25L -32.5 -6.25A 5 5 0 0 0 -37.5 -1.25L -37.5 13.75A 5 5 0 0 0 -32.5 18.75z"  />
</g>
<g transform="translate(-43.755554 -49.05835) rotate(181.50002)  ">
<path fill="#870732"  d="M-32.5 25L 7.5 25A 5 5 0 0 0 12.5 20L 12.5 5A 5 5 0 0 1 17.5 0L 32.5 0A 5 5 0 0 0 37.5 -5L 37.5 -20A 5 5 0 0 0 32.5 -25L -7.5 -25A 5 5 0 0 0 -12.5 -20L -12.5 -5A 5 5 0 0 1 -17.5 0L -32.5 0A 5 5 0 0 0 -37.5 5L -37.5 20A 5 5 0 0 0 -32.5 25z"  />
</g>
<g transform="translate(-42.964478 95.816895) rotate(205.5)  ">
<path fill="#5C9F59"  d="M-32.5 0L -17.5 0A 5 5 0 0 1 -12.5 5L -12.5 20A 5 5 0 0 0 -7.5 25L 32.5 25A 5 5 0 0 0 37.5 20L 37.5 5A 5 5 0 0 0 32.5 0L 17.5 0A 5 5 0 0 1 12.5 -5L 12.5 -20A 5 5 0 0 0 7.5 -25L -32.5 -25A 5 5 0 0 0 -37.5 -20L -37.5 -5A 5 5 0 0 0 -32.5 0z"  />
</g>
<g transform="translate(-55.035034 -128.24902) rotate(91.50001)  ">
<path fill="#33365B"  d="M-28.54102 24.596748L 28.54102 24.596748A 5 5 0 0 0 33.54102 19.596748L 33.54102 7.2360687A 5 5 0 0 0 28.54102 2.2360687L 16.18034 2.2360687A 5 5 0 0 1 11.18034 -2.7639313L 11.18034 -37.48529A 5 5 0 0 0 6.18034 -42.48529L -6.18034 -42.48529A 5 5 0 0 0 -11.18034 -37.48529L -11.18034 -2.7639313A 5 5 0 0 1 -16.18034 2.2360687L -28.54102 2.2360687A 5 5 0 0 0 -33.54102 7.2360687L -33.54102 19.596748A 5 5 0 0 0 -28.54102 24.596748z"  />
</g>
<g transform="translate(-42.495728 145.8274) rotate(235.5)  ">
<path fill="#078747"  d="M-37.48529 24.596748L -2.7639313 24.596748A 5 5 0 0 0 2.2360687 19.596748L 2.2360687 7.2360687A 5 5 0 0 1 7.2360687 2.2360687L 41.957428 2.2360687A 5 5 0 0 0 46.957428 -2.7639313L 46.957428 -15.124611A 5 5 0 0 0 41.957428 -20.12461L -15.124611 -20.12461A 5 5 0 0 0 -20.12461 -15.124611L -20.12461 -2.7639313A 5 5 0 0 1 -25.12461 2.2360687L -37.48529 2.2360687A 5 5 0 0 0 -42.48529 7.2360687L -42.48529 19.596748A 5 5 0 0 0 -37.48529 24.596748z"  />
</g>
<g transform="translate(-44.54657 -84.03937) rotate(90)  ">
<path fill="#07871C"  d="M-28.54102 -11.18034L -16.18034 -11.18034A 5 5 0 0 1 -11.18034 -6.18034L -11.18034 28.54102A 5 5 0 0 0 -6.18034 33.54102L 28.54102 33.54102A 5 5 0 0 0 33.54102 28.54102L 33.54102 16.18034A 5 5 0 0 0 28.54102 11.18034L 16.18034 11.18034A 5 5 0 0 1 11.18034 6.18034L 11.18034 -28.54102A 5 5 0 0 0 6.18034 -33.54102L -28.54102 -33.54102A 5 5 0 0 0 -33.54102 -28.54102L -33.54102 -16.18034A 5 5 0 0 0 -28.54102 -11.18034z"  />
</g>
<g transform="translate(-51.40216 -1.9483032) rotate(294.00003)  ">
<path fill="#0C99ED"  d="M-28.54102 6.7082024L -16.18034 6.7082024A 5 5 0 0 1 -11.18034 11.708202L -11.18034 24.068882A 5 5 0 0 0 -6.18034 29.068882L 28.54102 29.068882A 5 5 0 0 0 33.54102 24.068882L 33.54102 11.708202A 5 5 0 0 0 28.54102 6.7082024L 16.18034 6.7082024A 5 5 0 0 1 11.18034 1.7082024L 11.18034 -33.013157A 5 5 0 0 0 6.18034 -38.013157L -6.18034 -38.013157A 5 5 0 0 0 -11.18034 -33.013157L -11.18034 -20.652477A 5 5 0 0 1 -16.18034 -15.652477L -28.54102 -15.652477A 5 5 0 0 0 -33.54102 -10.652477L -33.54102 1.7082024A 5 5 0 0 0 -28.54102 6.7082024z"  />
</g>
<g transform="translate(-0.0146484375 49.966614) rotate(90)  ">
<path fill="#000000" stroke="#E71C1C"  d="M-45 12.5L 45 12.5A 5 5 0 0 0 50 7.5L 50 -7.5A 5 5 0 0 0 45 -12.5L -45 -12.5A 5 5 0 0 0 -50 -7.5L -50 7.5A 5 5 0 0 0 -45 12.5z"  />
</g>
<g transform="translate(-0.0146484375 -150.01697) rotate(0)  ">
<path fill="#FFFFFF" stroke="#000000"  d="M-50.9017 11.18034L 50.9017 11.18034A 5 5 0 0 0 55.9017 6.18034L 55.9017 -6.18034A 5 5 0 0 0 50.9017 -11.18034L -50.9017 -11.18034A 5 5 0 0 0 -55.9017 -6.18034L -55.9017 6.18034A 5 5 0 0 0 -50.9017 11.18034z"  />

                <g transform="rotate(360) translate(-10 10)  scale(0.04 -0.04) ">
                <path fill="#000000" d="M256 18.15c-81.1 0-146.6 65.51-146.6 146.45v72.3H159v-69.1c0-53.7 43.4-97.24 97-97.24 53.5 0 97 44.84 97 97.24v69.1h49.6v-72.3c0-78.94-65.7-146.45-146.6-146.45zM86.9 255.6C72.3 278.4 64 304.7 64 332.4c0 88.3 85 161.5 192 161.5s192-73.2 192-161.5c0-27.7-8.3-54-22.9-76.8z">
                </path>
                </g>
                </g>
        </g>
        </svg>