<svg
        viewbox = "0 0 512 512"
        width="512"
        height="512"
        xmlns="http://www.w3.org/2000/svg">
        <g transform="translate(256 256) scale(1,-1) ">
        

<g transform="translate(-0.0146484375 -175.00757) rotate(54.000004)  ">
<path fill="#FFFFFF" stroke="#000000"  d="M-28.54102 24.596748L 28.54102 24.596748A 5 5 0 0 0 33.54102 19.596748L 33.54102 7.2360687A 5 5 0 0 0 28.54102 2.2360687L 16.18034 2.2360687A 5 5 0 0 1 11.18034 -2.7639313L 11.18034 -37.48529A 5 5 0 0 0 6.18034 -42.48529L -6.18034 -42.48529A 5 5 0 0 0 -11.18034 -37.48529L -11.18034 -2.7639313A 5 5 0 0 1 -16.18034 2.2360687L -28.54102 2.2360687A 5 5 0 0 0 -33.54102 7.2360687L -33.54102 19.596748A 5 5 0 0 0 -28.54102 24.596748z"  />

                <g transform="rotate(306) translate(-10 10)  scale(0.04 -0.04) ">
                <path fill="#000000" d="M256 18.15c-81.1 0-146.6 65.51-146.6 146.45v72.3H159v-69.1c0-53.7 43.4-97.24 97-97.24 53.5 0 97 44.84 97 97.24v69.1h49.6v-72.3c0-78.94-65.7-146.45-146.6-146.45zM86.9 255.6C72.3 278.4 64 304.7 64 332.4c0 88.3 85 161.5 192 161.5s192-73.2 192-161.5c0-27.7-8.3-54-22.9-76.8z">
                </path>
                </g>
                </g>
<g transform="translate(-9.067505 -134.84094) rotate(54.000004)  ">
<path fill="#ED860C"  d="M-38.75 18.75L 26.25 18.75A 5 5 0 0 0 31.25 13.75L 31.25 -26.25A 5 5 0 0 0 26.25 -31.25L 11.25 -31.25A 5 5 0 0 0 6.25 -26.25L 6.25 -11.25A 5 5 0 0 1 1.25 -6.25L -38.75 -6.25A 5 5 0 0 0 -43.75 -1.25L -43.75 13.75A 5 5 0 0 0 -38.75 18.75z"  />
</g>
<g transform="translate(21.196655 36.899963) rotate(328.5)  ">
<path fill="#5B5133"  d="M-28.54102 11.18034L -16.18034 11.18034A 5 5 0 0 1 -11.18034 16.18034L -11.18034 28.54102A 5 5 0 0 0 -6.18034 33.54102L 6.18034 33.54102A 5 5 0 0 0 11.18034 28.54102L 11.18034 16.18034A 5 5 0 0 1 16.18034 11.18034L 28.54102 11.18034A 5 5 0 0 0 33.54102 6.18034L 33.54102 -6.18034A 5 5 0 0 0 28.54102 -11.18034L 16.18034 -11.18034A 5 5 0 0 1 11.18034 -16.18034L 11.18034 -28.54102A 5 5 0 0 0 6.18034 -33.54102L -6.18034 -33.54102A 5 5 0 0 0 -11.18034 -28.54102L -11.18034 -16.18034A 5 5 0 0 1 -16.18034 -11.18034L -28.54102 -11.18034A 5 5 0 0 0 -33.54102 -6.18034L -33.54102 6.18034A 5 5 0 0 0 -28.54102 11.18034z"  />
</g>
<g transform="translate(-21.43103 -45.95282) rotate(232.5)  ">
<path fill="#749F59"  d="M-28.54102 24.596748L -16.18034 24.596748A 5 5 0 0 0 -11.18034 19.596748L -11.18034 7.2360687A 5 5 0 0 1 -6.18034 2.2360687L 6.18034 2.2360687A 5 5 0 0 1 11.18034 7.2360687L 11.18034 19.596748A 5 5 0 0 0 16.18034 24.596748L 28.54102 24.596748A 5 5 0 0 0 33.54102 19.596748L 33.54102 -15.124611A 5 5 0 0 0 28.54102 -20.12461L -28.54102 -20.12461A 5 5 0 0 0 -33.54102 -15.124611L -33.54102 19.596748A 5 5 0 0 0 -28.54102 24.596748z"  />
</g>
<g transform="translate(18.911499 145.06567) rotate(82.50001)  ">
<path fill="#749F59"  d="M-28.54102 24.596748L -16.18034 24.596748A 5 5 0 0 0 -11.18034 19.596748L -11.18034 7.2360687A 5 5 0 0 1 -6.18034 2.2360687L 6.18034 2.2360687A 5 5 0 0 1 11.18034 7.2360687L 11.18034 19.596748A 5 5 0 0 0 16.18034 24.596748L 28.54102 24.596748A 5 5 0 0 0 33.54102 19.596748L 33.54102 -15.124611A 5 5 0 0 0 28.54102 -20.12461L -28.54102 -20.12461A 5 5 0 0 0 -33.54102 -15.124611L -33.54102 19.596748A 5 5 0 0 0 -28.54102 24.596748z"  />
</g>
<g transform="translate(19.614624 -11.792175) rotate(142.50002)  ">
<path fill="#4A5B33"  d="M-32.5 18.75L 32.5 18.75A 5 5 0 0 0 37.5 13.75L 37.5 -1.25A 5 5 0 0 0 32.5 -6.25L 17.5 -6.25A 5 5 0 0 1 12.5 -11.25L 12.5 -26.25A 5 5 0 0 0 7.5 -31.25L -7.5 -31.25A 5 5 0 0 0 -12.5 -26.25L -12.5 -11.25A 5 5 0 0 1 -17.5 -6.25L -32.5 -6.25A 5 5 0 0 0 -37.5 -1.25L -37.5 13.75A 5 5 0 0 0 -32.5 18.75z"  />
</g>
<g transform="translate(-5.3467407 -97.311035) rotate(231)  ">
<path fill="#078747"  d="M-37.48529 24.596748L -2.7639313 24.596748A 5 5 0 0 0 2.2360687 19.596748L 2.2360687 7.2360687A 5 5 0 0 1 7.2360687 2.2360687L 41.957428 2.2360687A 5 5 0 0 0 46.957428 -2.7639313L 46.957428 -15.124611A 5 5 0 0 0 41.957428 -20.12461L -15.124611 -20.12461A 5 5 0 0 0 -20.12461 -15.124611L -20.12461 -2.7639313A 5 5 0 0 1 -25.12461 2.2360687L -37.48529 2.2360687A 5 5 0 0 0 -42.48529 7.2360687L -42.48529 19.596748A 5 5 0 0 0 -37.48529 24.596748z"  />
</g>
<g transform="translate(11.85083 85.826416) rotate(307.5)  ">
<path fill="#0C99ED"  d="M-28.54102 6.7082024L -16.18034 6.7082024A 5 5 0 0 1 -11.18034 11.708202L -11.18034 24.068882A 5 5 0 0 0 -6.18034 29.068882L 28.54102 29.068882A 5 5 0 0 0 33.54102 24.068882L 33.54102 11.708202A 5 5 0 0 0 28.54102 6.7082024L 16.18034 6.7082024A 5 5 0 0 1 11.18034 1.7082024L 11.18034 -33.013157A 5 5 0 0 0 6.18034 -38.013157L -6.18034 -38.013157A 5 5 0 0 0 -11.18034 -33.013157L -11.18034 -20.652477A 5 5 0 0 1 -16.18034 -15.652477L -28.54102 -15.652477A 5 5 0 0 0 -33.54102 -10.652477L -33.54102 1.7082024A 5 5 0 0 0 -28.54102 6.7082024z"  />
</g>
<g transform="translate(22.515015 -57.261597) rotate(321.00003)  ">
<path fill="#0CE4ED"  d="M-33.013157 -6.7082024L -20.652477 -6.7082024A 5 5 0 0 1 -15.652477 -1.7082024L -15.652477 10.652477A 5 5 0 0 0 -10.652477 15.652477L 1.7082024 15.652477A 5 5 0 0 1 6.7082024 20.652477L 6.7082024 33.013157A 5 5 0 0 0 11.708202 38.013157L 24.068882 38.013157A 5 5 0 0 0 29.068882 33.013157L 29.068882 -1.7082024A 5 5 0 0 0 24.068882 -6.7082024L 11.708202 -6.7082024A 5 5 0 0 1 6.7082024 -11.708202L 6.7082024 -24.068882A 5 5 0 0 0 1.7082024 -29.068882L -33.013157 -29.068882A 5 5 0 0 0 -38.013157 -24.068882L -38.013157 -11.708202A 5 5 0 0 0 -33.013157 -6.7082024z"  />
</g>
        </g>
        </svg>