<svg
        viewbox = "0 0 512 512"
        width="512"
        height="512"
        xmlns="http://www.w3.org/2000/svg">
        <g transform="translate(256 256) scale(1,-1) ">
        

<g transform="translate(13.052002 -116.70587) rotate(1.5)  ">
<path fill="#91599F" stroke="#FFFFFF"  d="M-46.42956 6.7082024L 10.652477 6.7082024A 5 5 0 0 1 15.652477 11.708202L 15.652477 24.068882A 5 5 0 0 0 20.652477 29.068882L 33.013157 29.068882A 5 5 0 0 0 38.013157 24.068882L 38.013157 -10.652477A 5 5 0 0 0 33.013157 -15.652477L -46.42956 -15.652477A 5 5 0 0 0 -51.42956 -10.652477L -51.42956 1.7082024A 5 5 0 0 0 -46.42956 6.7082024z"  />

                <g transform="rotate(358.5) translate(-10 10)  scale(0.04 -0.04) ">
                <path fill="#000000" d="M254.28 17.313c-81.048 0-146.624 65.484-146.624 146.406V236h49.594v-69.094c0-53.658 43.47-97.187 97.03-97.187 53.563 0 97.032 44.744 97.032 97.186V236h49.594v-72.28c0-78.856-65.717-146.407-146.625-146.407zM85.157 254.688c-14.61 22.827-22.844 49.148-22.844 76.78 0 88.358 84.97 161.5 191.97 161.5 106.998 0 191.968-73.142 191.968-161.5 0-27.635-8.26-53.95-22.875-76.78H85.155zM254 278.625c22.34 0 40.875 17.94 40.875 40.28 0 16.756-10.6 31.23-25.125 37.376l32.72 98.126h-96.376l32.125-98.125c-14.526-6.145-24.532-20.62-24.532-37.374 0-22.338 17.972-40.28 40.312-40.28z">
                </path>
                </g>
                </g>
<g transform="translate(-5.463928 7.133911) rotate(270)  ">
<path fill="#0CE4ED" stroke="#FFFFFF"  d="M-33.013157 -6.7082024L -20.652477 -6.7082024A 5 5 0 0 1 -15.652477 -1.7082024L -15.652477 10.652477A 5 5 0 0 0 -10.652477 15.652477L 1.7082024 15.652477A 5 5 0 0 1 6.7082024 20.652477L 6.7082024 33.013157A 5 5 0 0 0 11.708202 38.013157L 24.068882 38.013157A 5 5 0 0 0 29.068882 33.013157L 29.068882 -1.7082024A 5 5 0 0 0 24.068882 -6.7082024L 11.708202 -6.7082024A 5 5 0 0 1 6.7082024 -11.708202L 6.7082024 -24.068882A 5 5 0 0 0 1.7082024 -29.068882L -33.013157 -29.068882A 5 5 0 0 0 -38.013157 -24.068882L -38.013157 -11.708202A 5 5 0 0 0 -33.013157 -6.7082024z"  />
</g>
<g transform="translate(-0.8642578 -32.563965) rotate(91.50001)  ">
<path fill="#07871C" stroke="#FFFFFF"  d="M-28.54102 -11.18034L -16.18034 -11.18034A 5 5 0 0 1 -11.18034 -6.18034L -11.18034 28.54102A 5 5 0 0 0 -6.18034 33.54102L 28.54102 33.54102A 5 5 0 0 0 33.54102 28.54102L 33.54102 16.18034A 5 5 0 0 0 28.54102 11.18034L 16.18034 11.18034A 5 5 0 0 1 11.18034 6.18034L 11.18034 -28.54102A 5 5 0 0 0 6.18034 -33.54102L -28.54102 -33.54102A 5 5 0 0 0 -33.54102 -28.54102L -33.54102 -16.18034A 5 5 0 0 0 -28.54102 -11.18034z"  />
</g>
<g transform="translate(22.632202 34.11676) rotate(90)  ">
<path fill="#5B5133" stroke="#FFFFFF"  d="M-28.54102 11.18034L -16.18034 11.18034A 5 5 0 0 1 -11.18034 16.18034L -11.18034 28.54102A 5 5 0 0 0 -6.18034 33.54102L 6.18034 33.54102A 5 5 0 0 0 11.18034 28.54102L 11.18034 16.18034A 5 5 0 0 1 16.18034 11.18034L 28.54102 11.18034A 5 5 0 0 0 33.54102 6.18034L 33.54102 -6.18034A 5 5 0 0 0 28.54102 -11.18034L 16.18034 -11.18034A 5 5 0 0 1 11.18034 -16.18034L 11.18034 -28.54102A 5 5 0 0 0 6.18034 -33.54102L -6.18034 -33.54102A 5 5 0 0 0 -11.18034 -28.54102L -11.18034 -16.18034A 5 5 0 0 1 -16.18034 -11.18034L -28.54102 -11.18034A 5 5 0 0 0 -33.54102 -6.18034L -33.54102 6.18034A 5 5 0 0 0 -28.54102 11.18034z"  />
</g>
<g transform="translate(-23.364624 -68.57037) rotate(0)  ">
<path fill="#33365B" stroke="#FFFFFF"  d="M-28.54102 24.596748L 28.54102 24.596748A 5 5 0 0 0 33.54102 19.596748L 33.54102 7.2360687A 5 5 0 0 0 28.54102 2.2360687L 16.18034 2.2360687A 5 5 0 0 1 11.18034 -2.7639313L 11.18034 -37.48529A 5 5 0 0 0 6.18034 -42.48529L -6.18034 -42.48529A 5 5 0 0 0 -11.18034 -37.48529L -11.18034 -2.7639313A 5 5 0 0 1 -16.18034 2.2360687L -28.54102 2.2360687A 5 5 0 0 0 -33.54102 7.2360687L -33.54102 19.596748A 5 5 0 0 0 -28.54102 24.596748z"  />
</g>
<g transform="translate(39.09723 -84.88904) rotate(181.50002)  ">
<path fill="#749F59" stroke="#FFFFFF"  d="M-28.54102 24.596748L -16.18034 24.596748A 5 5 0 0 0 -11.18034 19.596748L -11.18034 7.2360687A 5 5 0 0 1 -6.18034 2.2360687L 6.18034 2.2360687A 5 5 0 0 1 11.18034 7.2360687L 11.18034 19.596748A 5 5 0 0 0 16.18034 24.596748L 28.54102 24.596748A 5 5 0 0 0 33.54102 19.596748L 33.54102 -15.124611A 5 5 0 0 0 28.54102 -20.12461L -28.54102 -20.12461A 5 5 0 0 0 -33.54102 -15.124611L -33.54102 19.596748A 5 5 0 0 0 -28.54102 24.596748z"  />
</g>
<g transform="translate(-8.4522705 73.96106) rotate(180)  ">
<path fill="#0C99ED" stroke="#FFFFFF"  d="M-28.54102 6.7082024L -16.18034 6.7082024A 5 5 0 0 1 -11.18034 11.708202L -11.18034 24.068882A 5 5 0 0 0 -6.18034 29.068882L 28.54102 29.068882A 5 5 0 0 0 33.54102 24.068882L 33.54102 11.708202A 5 5 0 0 0 28.54102 6.7082024L 16.18034 6.7082024A 5 5 0 0 1 11.18034 1.7082024L 11.18034 -33.013157A 5 5 0 0 0 6.18034 -38.013157L -6.18034 -38.013157A 5 5 0 0 0 -11.18034 -33.013157L -11.18034 -20.652477A 5 5 0 0 1 -16.18034 -15.652477L -28.54102 -15.652477A 5 5 0 0 0 -33.54102 -10.652477L -33.54102 1.7082024A 5 5 0 0 0 -28.54102 6.7082024z"  />
</g>
        </g>
        </svg>