<svg
        viewbox = "0 0 512 512"
        width="512"
        height="512"
        xmlns="http://www.w3.org/2000/svg">
        <g transform="translate(256 256) scale(1,-1) ">
        

<g transform="translate(4.0284424 -188.6601) rotate(180)  ">
<path fill="#0C4EED"  d="M-25 -20L -25 45A 5 5 0 0 0 -21.464466 46.464466L 46.464466 -21.464466A 5 5 0 0 0 45 -25L -20 -25A 5 5 0 0 0 -25 -20z"  />

                <g transform="rotate(180) translate(-10 10)  scale(0.04 -0.04) ">
                <path fill="#000000" d="M254.28 17.313c-81.048 0-146.624 65.484-146.624 146.406V236h49.594v-69.094c0-53.658 43.47-97.187 97.03-97.187 53.563 0 97.032 44.744 97.032 97.186V236h49.594v-72.28c0-78.856-65.717-146.407-146.625-146.407zM85.157 254.688c-14.61 22.827-22.844 49.148-22.844 76.78 0 88.358 84.97 161.5 191.97 161.5 106.998 0 191.968-73.142 191.968-161.5 0-27.635-8.26-53.95-22.875-76.78H85.155zM254 278.625c22.34 0 40.875 17.94 40.875 40.28 0 16.756-10.6 31.23-25.125 37.376l32.72 98.126h-96.376l32.125-98.125c-14.526-6.145-24.532-20.62-24.532-37.374 0-22.338 17.972-40.28 40.312-40.28z">
                </path>
                </g>
                </g>
<g transform="translate(6.48938 35.552307) rotate(135)  ">
<path fill="#0CE4ED"  d="M-33.013157 -6.7082024L -20.652477 -6.7082024A 5 5 0 0 1 -15.652477 -1.7082024L -15.652477 10.652477A 5 5 0 0 0 -10.652477 15.652477L 1.7082024 15.652477A 5 5 0 0 1 6.7082024 20.652477L 6.7082024 33.013157A 5 5 0 0 0 11.708202 38.013157L 24.068882 38.013157A 5 5 0 0 0 29.068882 33.013157L 29.068882 -1.7082024A 5 5 0 0 0 24.068882 -6.7082024L 11.708202 -6.7082024A 5 5 0 0 1 6.7082024 -11.708202L 6.7082024 -24.068882A 5 5 0 0 0 1.7082024 -29.068882L -33.013157 -29.068882A 5 5 0 0 0 -38.013157 -24.068882L -38.013157 -11.708202A 5 5 0 0 0 -33.013157 -6.7082024z"  />
</g>
<g transform="translate(26.470215 -166.33551) rotate(88.50001)  ">
<path fill="#87075D"  d="M-37.48529 -2.2360687L -2.7639313 -2.2360687A 5 5 0 0 1 2.2360687 2.7639313L 2.2360687 37.48529A 5 5 0 0 0 7.2360687 42.48529L 19.596748 42.48529A 5 5 0 0 0 24.596748 37.48529L 24.596748 -19.596748A 5 5 0 0 0 19.596748 -24.596748L -37.48529 -24.596748A 5 5 0 0 0 -42.48529 -19.596748L -42.48529 -7.2360687A 5 5 0 0 0 -37.48529 -2.2360687z"  />
</g>
<g transform="translate(-30.952637 -80.14282) rotate(330.00003)  ">
<path fill="#0C99ED"  d="M-28.54102 6.7082024L -16.18034 6.7082024A 5 5 0 0 1 -11.18034 11.708202L -11.18034 24.068882A 5 5 0 0 0 -6.18034 29.068882L 28.54102 29.068882A 5 5 0 0 0 33.54102 24.068882L 33.54102 11.708202A 5 5 0 0 0 28.54102 6.7082024L 16.18034 6.7082024A 5 5 0 0 1 11.18034 1.7082024L 11.18034 -33.013157A 5 5 0 0 0 6.18034 -38.013157L -6.18034 -38.013157A 5 5 0 0 0 -11.18034 -33.013157L -11.18034 -20.652477A 5 5 0 0 1 -16.18034 -15.652477L -28.54102 -15.652477A 5 5 0 0 0 -33.54102 -10.652477L -33.54102 1.7082024A 5 5 0 0 0 -28.54102 6.7082024z"  />
</g>
<g transform="translate(-11.587097 -133.58118) rotate(178.50002)  ">
<path fill="#3D335B"  d="M-38.75 6.25L 1.25 6.25A 5 5 0 0 1 6.25 11.25L 6.25 26.25A 5 5 0 0 0 11.25 31.25L 26.25 31.25A 5 5 0 0 0 31.25 26.25L 31.25 -13.75A 5 5 0 0 0 26.25 -18.75L -38.75 -18.75A 5 5 0 0 0 -43.75 -13.75L -43.75 1.25A 5 5 0 0 0 -38.75 6.25z"  />
</g>
<g transform="translate(9.682739 -2.7979126) rotate(0)  ">
<path fill="#ED860C"  d="M-38.75 18.75L 26.25 18.75A 5 5 0 0 0 31.25 13.75L 31.25 -26.25A 5 5 0 0 0 26.25 -31.25L 11.25 -31.25A 5 5 0 0 0 6.25 -26.25L 6.25 -11.25A 5 5 0 0 1 1.25 -6.25L -38.75 -6.25A 5 5 0 0 0 -43.75 -1.25L -43.75 13.75A 5 5 0 0 0 -38.75 18.75z"  />
</g>
<g transform="translate(4.790161 -43.110962) rotate(85.5)  ">
<path fill="#07871C"  d="M-28.54102 -11.18034L -16.18034 -11.18034A 5 5 0 0 1 -11.18034 -6.18034L -11.18034 28.54102A 5 5 0 0 0 -6.18034 33.54102L 28.54102 33.54102A 5 5 0 0 0 33.54102 28.54102L 33.54102 16.18034A 5 5 0 0 0 28.54102 11.18034L 16.18034 11.18034A 5 5 0 0 1 11.18034 6.18034L 11.18034 -28.54102A 5 5 0 0 0 6.18034 -33.54102L -28.54102 -33.54102A 5 5 0 0 0 -33.54102 -28.54102L -33.54102 -16.18034A 5 5 0 0 0 -28.54102 -11.18034z"  />
</g>
<g transform="translate(26.997559 -105.016235) rotate(109.5)  ">
<path fill="#87075D"  d="M-37.48529 -2.2360687L -2.7639313 -2.2360687A 5 5 0 0 1 2.2360687 2.7639313L 2.2360687 37.48529A 5 5 0 0 0 7.2360687 42.48529L 19.596748 42.48529A 5 5 0 0 0 24.596748 37.48529L 24.596748 -19.596748A 5 5 0 0 0 19.596748 -24.596748L -37.48529 -24.596748A 5 5 0 0 0 -42.48529 -19.596748L -42.48529 -7.2360687A 5 5 0 0 0 -37.48529 -2.2360687z"  />
</g>
<g transform="translate(-9.477722 131.99915) rotate(271.50003)  ">
<path fill="#9F5997"  d="M-20 25L 20 25A 5 5 0 0 0 25 20L 25 -20A 5 5 0 0 0 20 -25L -20 -25A 5 5 0 0 0 -25 -20L -25 20A 5 5 0 0 0 -20 25z"  />
</g>
<g transform="translate(0.13183594 82.80884) rotate(91.50001)  ">
<path fill="#9F5997"  d="M-20 25L 20 25A 5 5 0 0 0 25 20L 25 -20A 5 5 0 0 0 20 -25L -20 -25A 5 5 0 0 0 -25 -20L -25 20A 5 5 0 0 0 -20 25z"  />
</g>
<g transform="translate(1.5673828 213.0061) rotate(271.50003)  ">
<path fill="#585B33"  d="M-50.9017 11.18034L 50.9017 11.18034A 5 5 0 0 0 55.9017 6.18034L 55.9017 -6.18034A 5 5 0 0 0 50.9017 -11.18034L -50.9017 -11.18034A 5 5 0 0 0 -55.9017 -6.18034L -55.9017 6.18034A 5 5 0 0 0 -50.9017 11.18034z"  />
</g>
        </g>
        </svg>