<svg
        viewbox = "0 0 512 512"
        width="512"
        height="512"
        xmlns="http://www.w3.org/2000/svg">
        <g transform="translate(256 256) scale(1,-1) ">
        

<g transform="translate(0.83496094 4.2042236) rotate(259.5)  ">
<path fill="#078747"  d="M-37.48529 24.596748L -2.7639313 24.596748A 5 5 0 0 0 2.2360687 19.596748L 2.2360687 7.2360687A 5 5 0 0 1 7.2360687 2.2360687L 41.957428 2.2360687A 5 5 0 0 0 46.957428 -2.7639313L 46.957428 -15.124611A 5 5 0 0 0 41.957428 -20.12461L -15.124611 -20.12461A 5 5 0 0 0 -20.12461 -15.124611L -20.12461 -2.7639313A 5 5 0 0 1 -25.12461 2.2360687L -37.48529 2.2360687A 5 5 0 0 0 -42.48529 7.2360687L -42.48529 19.596748A 5 5 0 0 0 -37.48529 24.596748z"  />
</g>
<g transform="translate(5.962036 -91.7738) rotate(79.5)  ">
<path fill="#9F5997"  d="M-20 25L 20 25A 5 5 0 0 0 25 20L 25 -20A 5 5 0 0 0 20 -25L -20 -25A 5 5 0 0 0 -25 -20L -25 20A 5 5 0 0 0 -20 25z"  />
</g>
<g transform="translate(5.55188 -41.880493) rotate(169.5)  ">
<path fill="#33365B"  d="M-28.54102 24.596748L 28.54102 24.596748A 5 5 0 0 0 33.54102 19.596748L 33.54102 7.2360687A 5 5 0 0 0 28.54102 2.2360687L 16.18034 2.2360687A 5 5 0 0 1 11.18034 -2.7639313L 11.18034 -37.48529A 5 5 0 0 0 6.18034 -42.48529L -6.18034 -42.48529A 5 5 0 0 0 -11.18034 -37.48529L -11.18034 -2.7639313A 5 5 0 0 1 -16.18034 2.2360687L -28.54102 2.2360687A 5 5 0 0 0 -33.54102 7.2360687L -33.54102 19.596748A 5 5 0 0 0 -28.54102 24.596748z"  />
</g>
<g transform="translate(6.928833 80.28931) rotate(258.00003)  ">
<path fill="#585B33"  d="M-50.9017 11.18034L 50.9017 11.18034A 5 5 0 0 0 55.9017 6.18034L 55.9017 -6.18034A 5 5 0 0 0 50.9017 -11.18034L -50.9017 -11.18034A 5 5 0 0 0 -55.9017 -6.18034L -55.9017 6.18034A 5 5 0 0 0 -50.9017 11.18034z"  />
</g>
<g transform="translate(-0.0146484375 -150.01697) rotate(79.5)  ">
<path fill="#FFFFFF" stroke="#000000"  d="M-28.54102 24.596748L -16.18034 24.596748A 5 5 0 0 0 -11.18034 19.596748L -11.18034 7.2360687A 5 5 0 0 1 -6.18034 2.2360687L 6.18034 2.2360687A 5 5 0 0 1 11.18034 7.2360687L 11.18034 19.596748A 5 5 0 0 0 16.18034 24.596748L 28.54102 24.596748A 5 5 0 0 0 33.54102 19.596748L 33.54102 -15.124611A 5 5 0 0 0 28.54102 -20.12461L -28.54102 -20.12461A 5 5 0 0 0 -33.54102 -15.124611L -33.54102 19.596748A 5 5 0 0 0 -28.54102 24.596748z"  />

                <g transform="rotate(280.5) translate(-10 10)  scale(0.04 -0.04) ">
                <path fill="#000000" d="M256 18.15c-81.1 0-146.6 65.51-146.6 146.45v72.3H159v-69.1c0-53.7 43.4-97.24 97-97.24 53.5 0 97 44.84 97 97.24v69.1h49.6v-72.3c0-78.94-65.7-146.45-146.6-146.45zM86.9 255.6C72.3 278.4 64 304.7 64 332.4c0 88.3 85 161.5 192 161.5s192-73.2 192-161.5c0-27.7-8.3-54-22.9-76.8z">
                </path>
                </g>
                </g>
        </g>
        </svg>