<svg
        viewbox = "0 0 512 512"
        width="512"
        height="512"
        xmlns="http://www.w3.org/2000/svg">
        <g transform="translate(256 256) scale(1,-1) ">
        

<g transform="translate(-9.243286 -84.03937) rotate(271.50003)  ">
<path fill="#749F59"  d="M-28.54102 24.596748L -16.18034 24.596748A 5 5 0 0 0 -11.18034 19.596748L -11.18034 7.2360687A 5 5 0 0 1 -6.18034 2.2360687L 6.18034 2.2360687A 5 5 0 0 1 11.18034 7.2360687L 11.18034 19.596748A 5 5 0 0 0 16.18034 24.596748L 28.54102 24.596748A 5 5 0 0 0 33.54102 19.596748L 33.54102 -15.124611A 5 5 0 0 0 28.54102 -20.12461L -28.54102 -20.12461A 5 5 0 0 0 -33.54102 -15.124611L -33.54102 19.596748A 5 5 0 0 0 -28.54102 24.596748z"  />
</g>
<g transform="translate(-11.118347 -17.622375) rotate(271.50003)  ">
<path fill="#749F59"  d="M-28.54102 24.596748L -16.18034 24.596748A 5 5 0 0 0 -11.18034 19.596748L -11.18034 7.2360687A 5 5 0 0 1 -6.18034 2.2360687L 6.18034 2.2360687A 5 5 0 0 1 11.18034 7.2360687L 11.18034 19.596748A 5 5 0 0 0 16.18034 24.596748L 28.54102 24.596748A 5 5 0 0 0 33.54102 19.596748L 33.54102 -15.124611A 5 5 0 0 0 28.54102 -20.12461L -28.54102 -20.12461A 5 5 0 0 0 -33.54102 -15.124611L -33.54102 19.596748A 5 5 0 0 0 -28.54102 24.596748z"  />
</g>
<g transform="translate(-1.5087891 -141.69653) rotate(91.50001)  ">
<path fill="#ED3A0C"  d="M-15.124611 29.068882L 19.596748 29.068882A 5 5 0 0 0 24.596748 24.068882L 24.596748 -10.652477A 5 5 0 0 0 19.596748 -15.652477L 7.2360687 -15.652477A 5 5 0 0 1 2.2360687 -20.652477L 2.2360687 -33.013157A 5 5 0 0 0 -2.7639313 -38.013157L -15.124611 -38.013157A 5 5 0 0 0 -20.12461 -33.013157L -20.12461 24.068882A 5 5 0 0 0 -15.124611 29.068882z"  />
</g>
<g transform="translate(-8.071411 53.775208) rotate(271.50003)  ">
<path fill="#91599F"  d="M-46.42956 6.7082024L 10.652477 6.7082024A 5 5 0 0 1 15.652477 11.708202L 15.652477 24.068882A 5 5 0 0 0 20.652477 29.068882L 33.013157 29.068882A 5 5 0 0 0 38.013157 24.068882L 38.013157 -10.652477A 5 5 0 0 0 33.013157 -15.652477L -46.42956 -15.652477A 5 5 0 0 0 -51.42956 -10.652477L -51.42956 1.7082024A 5 5 0 0 0 -46.42956 6.7082024z"  />
</g>
<g transform="translate(5.3760986 -199.7638) rotate(90)  ">
<path fill="#91599F"  d="M-46.42956 6.7082024L 10.652477 6.7082024A 5 5 0 0 1 15.652477 11.708202L 15.652477 24.068882A 5 5 0 0 0 20.652477 29.068882L 33.013157 29.068882A 5 5 0 0 0 38.013157 24.068882L 38.013157 -10.652477A 5 5 0 0 0 33.013157 -15.652477L -46.42956 -15.652477A 5 5 0 0 0 -51.42956 -10.652477L -51.42956 1.7082024A 5 5 0 0 0 -46.42956 6.7082024z"  />

                <g transform="rotate(270) translate(-10 10)  scale(0.04 -0.04) ">
                <path fill="#000000" d="M254.28 17.313c-81.048 0-146.624 65.484-146.624 146.406V236h49.594v-69.094c0-53.658 43.47-97.187 97.03-97.187 53.563 0 97.032 44.744 97.032 97.186V236h49.594v-72.28c0-78.856-65.717-146.407-146.625-146.407zM85.157 254.688c-14.61 22.827-22.844 49.148-22.844 76.78 0 88.358 84.97 161.5 191.97 161.5 106.998 0 191.968-73.142 191.968-161.5 0-27.635-8.26-53.95-22.875-76.78H85.155zM254 278.625c22.34 0 40.875 17.94 40.875 40.28 0 16.756-10.6 31.23-25.125 37.376l32.72 98.126h-96.376l32.125-98.125c-14.526-6.145-24.532-20.62-24.532-37.374 0-22.338 17.972-40.28 40.312-40.28z">
                </path>
                </g>
                </g>
<g transform="translate(-13.872314 160.79834) rotate(91.50001)  ">
<path fill="#585B33"  d="M-50.9017 11.18034L 50.9017 11.18034A 5 5 0 0 0 55.9017 6.18034L 55.9017 -6.18034A 5 5 0 0 0 50.9017 -11.18034L -50.9017 -11.18034A 5 5 0 0 0 -55.9017 -6.18034L -55.9017 6.18034A 5 5 0 0 0 -50.9017 11.18034z"  />
</g>
        </g>
        </svg>