<svg
        viewbox = "0 0 512 512"
        width="512"
        height="512"
        xmlns="http://www.w3.org/2000/svg">
        <g transform="translate(256 256) scale(1,-1) ">
        

<g transform="translate(17.241455 57.554626) rotate(184.5)  ">
<path fill="#749F59"  d="M-28.54102 24.596748L -16.18034 24.596748A 5 5 0 0 0 -11.18034 19.596748L -11.18034 7.2360687A 5 5 0 0 1 -6.18034 2.2360687L 6.18034 2.2360687A 5 5 0 0 1 11.18034 7.2360687L 11.18034 19.596748A 5 5 0 0 0 16.18034 24.596748L 28.54102 24.596748A 5 5 0 0 0 33.54102 19.596748L 33.54102 -15.124611A 5 5 0 0 0 28.54102 -20.12461L -28.54102 -20.12461A 5 5 0 0 0 -33.54102 -15.124611L -33.54102 19.596748A 5 5 0 0 0 -28.54102 24.596748z"  />
</g>
<g transform="translate(6.7823486 -100.973206) rotate(181.50002)  ">
<path fill="#0CE4ED"  d="M-33.013157 -6.7082024L -20.652477 -6.7082024A 5 5 0 0 1 -15.652477 -1.7082024L -15.652477 10.652477A 5 5 0 0 0 -10.652477 15.652477L 1.7082024 15.652477A 5 5 0 0 1 6.7082024 20.652477L 6.7082024 33.013157A 5 5 0 0 0 11.708202 38.013157L 24.068882 38.013157A 5 5 0 0 0 29.068882 33.013157L 29.068882 -1.7082024A 5 5 0 0 0 24.068882 -6.7082024L 11.708202 -6.7082024A 5 5 0 0 1 6.7082024 -11.708202L 6.7082024 -24.068882A 5 5 0 0 0 1.7082024 -29.068882L -33.013157 -29.068882A 5 5 0 0 0 -38.013157 -24.068882L -38.013157 -11.708202A 5 5 0 0 0 -33.013157 -6.7082024z"  />

                <g transform="rotate(178.49998) translate(-10 10)  scale(0.04 -0.04) ">
                <path fill="#000000" d="M254.28 17.313c-81.048 0-146.624 65.484-146.624 146.406V236h49.594v-69.094c0-53.658 43.47-97.187 97.03-97.187 53.563 0 97.032 44.744 97.032 97.186V236h49.594v-72.28c0-78.856-65.717-146.407-146.625-146.407zM85.157 254.688c-14.61 22.827-22.844 49.148-22.844 76.78 0 88.358 84.97 161.5 191.97 161.5 106.998 0 191.968-73.142 191.968-161.5 0-27.635-8.26-53.95-22.875-76.78H85.155zM254 278.625c22.34 0 40.875 17.94 40.875 40.28 0 16.756-10.6 31.23-25.125 37.376l32.72 98.126h-96.376l32.125-98.125c-14.526-6.145-24.532-20.62-24.532-37.374 0-22.338 17.972-40.28 40.312-40.28z">
                </path>
                </g>
                </g>
<g transform="translate(22.807983 -42.525024) rotate(136.5)  ">
<path fill="#5B5133"  d="M-28.54102 11.18034L -16.18034 11.18034A 5 5 0 0 1 -11.18034 16.18034L -11.18034 28.54102A 5 5 0 0 0 -6.18034 33.54102L 6.18034 33.54102A 5 5 0 0 0 11.18034 28.54102L 11.18034 16.18034A 5 5 0 0 1 16.18034 11.18034L 28.54102 11.18034A 5 5 0 0 0 33.54102 6.18034L 33.54102 -6.18034A 5 5 0 0 0 28.54102 -11.18034L 16.18034 -11.18034A 5 5 0 0 1 11.18034 -16.18034L 11.18034 -28.54102A 5 5 0 0 0 6.18034 -33.54102L -6.18034 -33.54102A 5 5 0 0 0 -11.18034 -28.54102L -11.18034 -16.18034A 5 5 0 0 1 -16.18034 -11.18034L -28.54102 -11.18034A 5 5 0 0 0 -33.54102 -6.18034L -33.54102 6.18034A 5 5 0 0 0 -28.54102 11.18034z"  />
</g>
<g transform="translate(24.009155 183.53296) rotate(273)  ">
<path fill="#585B33"  d="M-50.9017 11.18034L 50.9017 11.18034A 5 5 0 0 0 55.9017 6.18034L 55.9017 -6.18034A 5 5 0 0 0 50.9017 -11.18034L -50.9017 -11.18034A 5 5 0 0 0 -55.9017 -6.18034L -55.9017 6.18034A 5 5 0 0 0 -50.9017 11.18034z"  />
</g>
<g transform="translate(17.300049 102.26233) rotate(93)  ">
<path fill="#9F5997"  d="M-20 25L 20 25A 5 5 0 0 0 25 20L 25 -20A 5 5 0 0 0 20 -25L -20 -25A 5 5 0 0 0 -25 -20L -25 20A 5 5 0 0 0 -20 25z"  />
</g>
<g transform="translate(20.552124 9.946411) rotate(264)  ">
<circle r="28.20948" fill="#870707"   />
</g>
        </g>
        </svg>