<svg
        viewbox = "0 0 512 512"
        width="512"
        height="512"
        xmlns="http://www.w3.org/2000/svg">
        <g transform="translate(256 256) scale(1,-1) ">
        

<g transform="translate(-32.739746 154.96826) rotate(282.00003)  ">
<path fill="#ED860C"  d="M-38.75 18.75L 26.25 18.75A 5 5 0 0 0 31.25 13.75L 31.25 -26.25A 5 5 0 0 0 26.25 -31.25L 11.25 -31.25A 5 5 0 0 0 6.25 -26.25L 6.25 -11.25A 5 5 0 0 1 1.25 -6.25L -38.75 -6.25A 5 5 0 0 0 -43.75 -1.25L -43.75 13.75A 5 5 0 0 0 -38.75 18.75z"  />
</g>
<g transform="translate(-0.57128906 -16.303955) rotate(280.5)  ">
<path fill="#3D335B"  d="M-38.75 6.25L 1.25 6.25A 5 5 0 0 1 6.25 11.25L 6.25 26.25A 5 5 0 0 0 11.25 31.25L 26.25 31.25A 5 5 0 0 0 31.25 26.25L 31.25 -13.75A 5 5 0 0 0 26.25 -18.75L -38.75 -18.75A 5 5 0 0 0 -43.75 -13.75L -43.75 1.25A 5 5 0 0 0 -38.75 6.25z"  />
</g>
<g transform="translate(-27.056091 98.92236) rotate(12)  ">
<path fill="#5C9F59"  d="M-32.5 0L -17.5 0A 5 5 0 0 1 -12.5 5L -12.5 20A 5 5 0 0 0 -7.5 25L 32.5 25A 5 5 0 0 0 37.5 20L 37.5 5A 5 5 0 0 0 32.5 0L 17.5 0A 5 5 0 0 1 12.5 -5L 12.5 -20A 5 5 0 0 0 7.5 -25L -32.5 -25A 5 5 0 0 0 -37.5 -20L -37.5 -5A 5 5 0 0 0 -32.5 0z"  />
</g>
<g transform="translate(21.694702 -135.10461) rotate(135)  ">
<path fill="#0C4EED"  d="M-25 -20L -25 45A 5 5 0 0 0 -21.464466 46.464466L 46.464466 -21.464466A 5 5 0 0 0 45 -25L -20 -25A 5 5 0 0 0 -25 -20z"  />

                <g transform="rotate(225) translate(-10 10)  scale(0.04 -0.04) ">
                <path fill="#000000" d="M254.28 17.313c-81.048 0-146.624 65.484-146.624 146.406V236h49.594v-69.094c0-53.658 43.47-97.187 97.03-97.187 53.563 0 97.032 44.744 97.032 97.186V236h49.594v-72.28c0-78.856-65.717-146.407-146.625-146.407zM85.157 254.688c-14.61 22.827-22.844 49.148-22.844 76.78 0 88.358 84.97 161.5 191.97 161.5 106.998 0 191.968-73.142 191.968-161.5 0-27.635-8.26-53.95-22.875-76.78H85.155zM254 278.625c22.34 0 40.875 17.94 40.875 40.28 0 16.756-10.6 31.23-25.125 37.376l32.72 98.126h-96.376l32.125-98.125c-14.526-6.145-24.532-20.62-24.532-37.374 0-22.338 17.972-40.28 40.312-40.28z">
                </path>
                </g>
                </g>
<g transform="translate(10.297974 -77.03735) rotate(316.5)  ">
<path fill="#5B5133"  d="M-28.54102 11.18034L -16.18034 11.18034A 5 5 0 0 1 -11.18034 16.18034L -11.18034 28.54102A 5 5 0 0 0 -6.18034 33.54102L 6.18034 33.54102A 5 5 0 0 0 11.18034 28.54102L 11.18034 16.18034A 5 5 0 0 1 16.18034 11.18034L 28.54102 11.18034A 5 5 0 0 0 33.54102 6.18034L 33.54102 -6.18034A 5 5 0 0 0 28.54102 -11.18034L 16.18034 -11.18034A 5 5 0 0 1 11.18034 -16.18034L 11.18034 -28.54102A 5 5 0 0 0 6.18034 -33.54102L -6.18034 -33.54102A 5 5 0 0 0 -11.18034 -28.54102L -11.18034 -16.18034A 5 5 0 0 1 -16.18034 -11.18034L -28.54102 -11.18034A 5 5 0 0 0 -33.54102 -6.18034L -33.54102 6.18034A 5 5 0 0 0 -28.54102 11.18034z"  />
</g>
<g transform="translate(-18.384094 50.054504) rotate(12)  ">
<path fill="#5C9F59"  d="M-32.5 0L -17.5 0A 5 5 0 0 1 -12.5 5L -12.5 20A 5 5 0 0 0 -7.5 25L 32.5 25A 5 5 0 0 0 37.5 20L 37.5 5A 5 5 0 0 0 32.5 0L 17.5 0A 5 5 0 0 1 12.5 -5L 12.5 -20A 5 5 0 0 0 7.5 -25L -32.5 -25A 5 5 0 0 0 -37.5 -20L -37.5 -5A 5 5 0 0 0 -32.5 0z"  />
</g>
        </g>
        </svg>