<svg
        viewbox = "0 0 512 512"
        width="512"
        height="512"
        xmlns="http://www.w3.org/2000/svg">
        <g transform="translate(256 256) scale(1,-1) ">
        

<g transform="translate(-33.794434 -260.79016) rotate(0)  ">
<path fill="#0C99ED"  d="M-28.54102 6.7082024L -16.18034 6.7082024A 5 5 0 0 1 -11.18034 11.708202L -11.18034 24.068882A 5 5 0 0 0 -6.18034 29.068882L 28.54102 29.068882A 5 5 0 0 0 33.54102 24.068882L 33.54102 11.708202A 5 5 0 0 0 28.54102 6.7082024L 16.18034 6.7082024A 5 5 0 0 1 11.18034 1.7082024L 11.18034 -33.013157A 5 5 0 0 0 6.18034 -38.013157L -6.18034 -38.013157A 5 5 0 0 0 -11.18034 -33.013157L -11.18034 -20.652477A 5 5 0 0 1 -16.18034 -15.652477L -28.54102 -15.652477A 5 5 0 0 0 -33.54102 -10.652477L -33.54102 1.7082024A 5 5 0 0 0 -28.54102 6.7082024z"  />

                <g transform="rotate(360) translate(-10 10)  scale(0.04 -0.04) ">
                <path fill="#000000" d="M254.28 17.313c-81.048 0-146.624 65.484-146.624 146.406V236h49.594v-69.094c0-53.658 43.47-97.187 97.03-97.187 53.563 0 97.032 44.744 97.032 97.186V236h49.594v-72.28c0-78.856-65.717-146.407-146.625-146.407zM85.157 254.688c-14.61 22.827-22.844 49.148-22.844 76.78 0 88.358 84.97 161.5 191.97 161.5 106.998 0 191.968-73.142 191.968-161.5 0-27.635-8.26-53.95-22.875-76.78H85.155zM254 278.625c22.34 0 40.875 17.94 40.875 40.28 0 16.756-10.6 31.23-25.125 37.376l32.72 98.126h-96.376l32.125-98.125c-14.526-6.145-24.532-20.62-24.532-37.374 0-22.338 17.972-40.28 40.312-40.28z">
                </path>
                </g>
                </g>
<g transform="translate(-57.2323 -163.37653) rotate(181.50002)  ">
<path fill="#870732"  d="M-32.5 25L 7.5 25A 5 5 0 0 0 12.5 20L 12.5 5A 5 5 0 0 1 17.5 0L 32.5 0A 5 5 0 0 0 37.5 -5L 37.5 -20A 5 5 0 0 0 32.5 -25L -7.5 -25A 5 5 0 0 0 -12.5 -20L -12.5 -5A 5 5 0 0 1 -17.5 0L -32.5 0A 5 5 0 0 0 -37.5 5L -37.5 20A 5 5 0 0 0 -32.5 25z"  />
</g>
<g transform="translate(-46.070007 -125.84668) rotate(91.50001)  ">
<path fill="#5C9F59"  d="M-32.5 0L -17.5 0A 5 5 0 0 1 -12.5 5L -12.5 20A 5 5 0 0 0 -7.5 25L 32.5 25A 5 5 0 0 0 37.5 20L 37.5 5A 5 5 0 0 0 32.5 0L 17.5 0A 5 5 0 0 1 12.5 -5L 12.5 -20A 5 5 0 0 0 7.5 -25L -32.5 -25A 5 5 0 0 0 -37.5 -20L -37.5 -5A 5 5 0 0 0 -32.5 0z"  />
</g>
<g transform="translate(-41.382446 -75.894714) rotate(273)  ">
<path fill="#4A5B33"  d="M-32.5 18.75L 32.5 18.75A 5 5 0 0 0 37.5 13.75L 37.5 -1.25A 5 5 0 0 0 32.5 -6.25L 17.5 -6.25A 5 5 0 0 1 12.5 -11.25L 12.5 -26.25A 5 5 0 0 0 7.5 -31.25L -7.5 -31.25A 5 5 0 0 0 -12.5 -26.25L -12.5 -11.25A 5 5 0 0 1 -17.5 -6.25L -32.5 -6.25A 5 5 0 0 0 -37.5 -1.25L -37.5 13.75A 5 5 0 0 0 -32.5 18.75z"  />
</g>
<g transform="translate(-52.368958 45.1911) rotate(271.50003)  ">
<path fill="#79599F"  d="M-41.957424 6.7082024L -7.236065 6.7082024A 5 5 0 0 1 -2.236065 11.708202L -2.236065 24.068882A 5 5 0 0 0 2.763935 29.068882L 15.124615 29.068882A 5 5 0 0 0 20.124615 24.068882L 20.124615 11.708202A 5 5 0 0 1 25.124615 6.7082024L 37.485294 6.7082024A 5 5 0 0 0 42.485294 1.7082024L 42.485294 -10.652477A 5 5 0 0 0 37.485294 -15.652477L -41.957424 -15.652477A 5 5 0 0 0 -46.957424 -10.652477L -46.957424 1.7082024A 5 5 0 0 0 -41.957424 6.7082024z"  />
</g>
<g transform="translate(-60.396423 -26.41156) rotate(1.5)  ">
<path fill="#0C99ED"  d="M-28.54102 6.7082024L -16.18034 6.7082024A 5 5 0 0 1 -11.18034 11.708202L -11.18034 24.068882A 5 5 0 0 0 -6.18034 29.068882L 28.54102 29.068882A 5 5 0 0 0 33.54102 24.068882L 33.54102 11.708202A 5 5 0 0 0 28.54102 6.7082024L 16.18034 6.7082024A 5 5 0 0 1 11.18034 1.7082024L 11.18034 -33.013157A 5 5 0 0 0 6.18034 -38.013157L -6.18034 -38.013157A 5 5 0 0 0 -11.18034 -33.013157L -11.18034 -20.652477A 5 5 0 0 1 -16.18034 -15.652477L -28.54102 -15.652477A 5 5 0 0 0 -33.54102 -10.652477L -33.54102 1.7082024A 5 5 0 0 0 -28.54102 6.7082024z"  />
</g>
<g transform="translate(-48.20874 -216.22888) rotate(1.5)  ">
<path fill="#ED3A0C"  d="M-15.124611 29.068882L 19.596748 29.068882A 5 5 0 0 0 24.596748 24.068882L 24.596748 -10.652477A 5 5 0 0 0 19.596748 -15.652477L 7.2360687 -15.652477A 5 5 0 0 1 2.2360687 -20.652477L 2.2360687 -33.013157A 5 5 0 0 0 -2.7639313 -38.013157L -15.124611 -38.013157A 5 5 0 0 0 -20.12461 -33.013157L -20.12461 24.068882A 5 5 0 0 0 -15.124611 29.068882z"  />
</g>
        </g>
        </svg>